<?xml version="1.0" standalone="no"?><!DOCTYPE svg PUBLIC "-//W3C//DTD SVG 1.1//EN" "http://www.w3.org/Graphics/SVG/1.1/DTD/svg11.dtd" ><svg xmlns="http://www.w3.org/2000/svg"><metadata></metadata><defs><font id="[W_ÃWJl_SWOS~ÆOS" horiz-adv-x="1020"><font-face font-family="[W_ÃWJl_SWOS~ÆOS" font-weight="400" font-stretch="normal" units-per-em="1000" panose-1="0 2 6 0 4 1 1 1 1 1" ascent="1043" descent="-266" x-height="1" bbox="-42 -193 954 844" underline-thickness="50" underline-position="-282" unicode-range="U+0021-ff1a" /><missing-glyph horiz-adv-x="1000"  /><glyph glyph-name="exclam" unicode="!" d="M171 90 q19 0 32 -13 q12 -13 12 -32 q0 -18 -12 -31 q-13 -13 -32 -13 q-18 0 -31 13 q-13 13 -13 31 q0 19 13 32 q13 13 31 13 ZM195 213 q0 -10 -7 -17 q-7 -7 -17 -7 q-10 0 -16 7 q-7 7 -7 17 l0 455 q0 10 7 17 q6 6 16 6 q10 0 17 -6 q7 -7 7 -17 l0 -455 Z" /><glyph glyph-name="numbersign" unicode="#" d="M374 61 q-2 -10 -10 -15 q-8 -5 -17 -3 q-10 2 -15 10 q-5 7 -3 17 l26 132 q3 15 -5.5 25 q-8.5 10 -22.5 10 l-68 0 q-10 0 -18.5 -7 q-8.5 -7 -10.5 -16 l-30 -153 q-2 -10 -9 -15 q-8 -5 -18 -3 q-9 2 -14 10 q-6 7 -4 17 l26 132 q3 15 -5.5 25 q-8.5 10 -22.5 10 l-82 0 q-10 0 -16 7 q-7 7 -7 17 q0 9 7 16 q6 7 16 7 l102 0 q10 0 18.5 7 q8.5 7 10.5 16 l15 79 q3 15 -5.5 25 q-8.5 10 -22.5 10 l-97 0 q-10 0 -17 7 q-7 7 -7 17 q0 9 7 16 q7 7 17 7 l117 0 q10 0 18.5 7 q8.5 7 10.5 16 l26 131 q2 9 10 15 q7 5 17 3 q9 -2 15 -9 q5 -8 3 -18 l-22 -110 q-3 -14 5.5 -24.5 q8.5 -10.5 22.5 -10.5 l68 0 q10 0 18.5 7 q8.5 7 10.5 16 l25 131 q2 9 10 15 q8 5 17 3 q10 -2 16 -9 q5 -8 3 -18 l-22 -110 q-3 -14 5.5 -24.5 q8.5 -10.5 22.5 -10.5 l79 0 q9 0 16 -7 q7 -7 7 -16 q0 -10 -7 -17 q-7 -7 -16 -7 l-99 0 q-10 0 -18.5 -7 q-8.5 -7 -10.5 -16 l-15 -79 q-3 -15 5.5 -25 q8.5 -10 22.5 -10 l94 0 q10 0 17 -7 q6 -7 6 -16 q0 -10 -6 -17 q-7 -7 -17 -7 l-114 0 q-10 0 -18.5 -7 q-8.5 -7 -10.5 -16 l-30 -153 ZM279 284 l68 0 q10 0 18.5 7 q8.5 7 10.5 16 l15 79 q3 15 -5.5 25 q-8.5 10 -22.5 10 l-68 0 q-10 0 -18.5 -7 q-8.5 -7 -10.5 -16 l-15 -79 q-3 -15 5.5 -25 q8.5 -10 22.5 -10 Z" /><glyph glyph-name="dollar" unicode="$" d="M310 -55 q0 -10 -6 -17 q-7 -6 -17 -6 q-10 0 -16 6 q-7 7 -7 17 l0 44 q0 10 -8 18.5 q-8 8.5 -17 9.5 q-39 5 -76 19 q-51 17 -89 45 q-8 5 -9 15 q-1 9 4 17 q6 8 16 9 q9 1 17 -4 q32 -24 75 -39 q31 -11 64 -16 q10 -1 16.5 5 q6.5 6 6.5 16 l0 233 q0 4 -4 6 l-4 1 l-8 3 q-35 12 -67 27 q-32 15 -57 35 q-27 22 -43 50 q-16 27 -14 62 q1 29 8 52 q7 23 19 42 q25 37 70 54 q20 8 43 12 q22 3 45 3 l7 0 q5 -1 5 4 l0 62 q0 10 7 17 q6 6 16 6 q10 0 17 -6 q6 -7 6 -17 l0 -54 q0 -7 5.5 -14 q5.5 -7 12.5 -9 q29 -7 57 -18 q37 -15 68 -36 q8 -5 10 -14 q1 -10 -4 -18 q-5 -8 -14 -10 q-10 -2 -18 3 q-26 17 -55 30 q-23 10 -46 16 q-7 2 -11.5 -1.5 q-4.5 -3.5 -4.5 -10.5 l0 -226 q0 -6 4 -12 q4 -6 9 -8 q21 -9 41 -18 q25 -12 47 -27 q33 -23 54 -53 q20 -30 19 -71 q-1 -56 -31 -95 q-14 -20 -34 -33 q-20 -14 -43 -22 q-15 -6 -32 -9 l-17 -2 q-7 -2 -12 -7.5 q-5 -5.5 -5 -12.5 l0 -53 ZM264 387 l0 225 q0 5 -5 5 l-6 0 q-20 1 -38 -1 q-18 -3 -34 -10 q-30 -11 -49 -37 q-8 -13 -13 -30 q-6 -17 -6 -39 q-1 -23 10 -41 q11 -19 30 -34 q21 -17 50 -30 q21 -11 45 -20 q7 -2 11.5 1.5 q4.5 3.5 4.5 10.5 ZM323 63 l14 2 q11 2 21 6 l4 2 q36 13 54 38 q10 14 16 31 q5 16 6 38 q0 27 -14 48 q-15 20 -40 37 q-16 11 -34 21 l-20 9 q-8 3 -14 -1 q-6 -4 -6 -12 l0 -208 q0 -13 13 -11 Z" /><glyph glyph-name="ampersand" unicode="&amp;" d="M687 55 q10 -2 15 -10 q4 -9 2 -18 q-2 -9 -10 -14 q-9 -5 -18 -3 q-60 15 -113 42 q-45 22 -86 51 q-6 4 -14 3 q-8 -1 -12 -7 q-15 -18 -30 -33 q-27 -27 -51 -43 q-25 -17 -47 -26 q-22 -9 -40 -13 q-19 -3 -35 -3 q-40 -1 -76 10 q-36 11 -65 34 q-29 23 -46 58 q-18 35 -20 83 q-1 41 8 74 q9 33 32 64 q19 26 47 50 q25 20 61 43 q9 5 3 15 l-7 9 l-12 18 q-35 53 -41 95 q-7 41 1 70 q8 31 23 49 l20 21 l3 2 q28 25 70 30 q37 5 69 -7 q37 -13 60 -39 q14 -16 24 -36 q10 -20 12 -46 q5 -33 -8 -61 q-14 -29 -39 -55 q-21 -20 -47 -38 q-21 -15 -42 -28 q-6 -3 -7 -9.5 q-1 -6.5 3 -12.5 q25 -33 53 -67 q33 -42 73 -81 l26 -24 l14 -11 q5 -5 12.5 -3.5 q7.5 1.5 11.5 7.5 q29 48 60 113 q36 77 72 186 q3 9 12 14 q8 4 17 1 q9 -3 14 -11 q4 -9 1 -18 q-38 -114 -76 -194 q-30 -64 -60 -113 q-6 -9 -4 -20.5 q2 -11.5 11 -18.5 q34 -22 71 -40 q49 -25 105 -39 ZM415 150 q-26 21 -47 43 q-42 42 -78 86 q-27 32 -51 64 q-6 9 -16.5 11.5 q-10.5 2.5 -19.5 -3.5 q-57 -37 -85 -74 q-18 -24 -25 -50 q-7 -27 -6 -60 q2 -36 15 -62 q12 -27 34 -44 q22 -17 51 -26 q28 -9 60 -8 q24 1 60 14 q36 13 81 58 l19 20 l10 11 q9 11 -2 20 ZM212 464 l13 -18 l6 -10 q7 -10 17 -4 q22 13 42 27 q25 17 44 36 q17 18 27 38 q10 19 8 39 q-4 35 -25 57 q-17 18 -41 26 q-12 5 -24 6 l-22 0 q0 0 -2 0 q-2 0 -2 0 q-13 -2 -24 -7 q-11 -5 -19 -12 l-3 -2 l-14 -15 q-10 -12 -15 -33 q-5 -21 0 -52 q5 -32 34 -76 Z" /><glyph glyph-name="quotesingle" unicode="&#39;" d="M120 543 q0 -10 -6 -16 q-7 -7 -17 -7 q-9 0 -16 7 q-7 6 -7 16 l0 157 q0 10 7 17 q7 6 16 6 q10 0 17 -6 q6 -7 6 -17 l0 -157 Z" /><glyph glyph-name="parenleft" unicode="(" d="M215 746 q5 8 15 10 q9 1 17 -4 q8 -6 10 -15 q1 -10 -6 -19 q-145 -202 -145 -402 q0 -200 145 -403 q7 -9 6 -19 q-2 -9 -10 -14 q-8 -6 -17 -5 q-10 2 -16 11 q-154 215 -154 430 q0 214 154 429 l1 1 Z" /><glyph glyph-name="parenright" unicode=")" d="M77 743 q153 -213 153 -427 q0 -215 -154 -430 q-6 -9 -15 -11 q-10 -1 -18 5 q-8 5 -9 14 q-2 10 5 19 q145 203 145 403 q0 200 -145 402 q-7 9 -5 19 q1 9 9 15 q8 5 18 4 q9 -2 15 -11 l1 -2 Z" /><glyph glyph-name="plus" unicode="+" d="M270 161 q0 -10 -7 -16 q-7 -7 -17 -7 q-9 0 -16 7 q-7 6 -7 16 l0 149 q0 12 -8.5 20.5 q-8.5 8.5 -20.5 8.5 l-149 0 q-9 0 -16 7 q-7 6 -7 16 q0 10 7 17 q7 6 16 6 l149 0 q12 0 20.5 8.5 q8.5 8.5 8.5 20.5 l0 149 q0 10 7 17 q7 6 16 6 q10 0 17 -6 q7 -7 7 -17 l0 -149 q0 -12 8.5 -20.5 q8.5 -8.5 20.5 -8.5 l149 0 q9 0 16 -6 q7 -7 7 -17 q0 -10 -7 -16 q-7 -7 -16 -7 l-149 0 q-12 0 -20.5 -8.5 q-8.5 -8.5 -8.5 -20.5 l0 -149 Z" /><glyph glyph-name="comma" unicode="," d="M85 -117 q-3 -9 -11 -14 q-9 -4 -18 -1 q-9 3 -13 11 q-4 7 -3 16 q0 0 0 1.5 q0 1.5 0 1.5 l50 165 q3 9 12 14 q7 3 15 2 q2 0 4 -1 q8 -3 12 -10 q4 -9 2 -18 l-50 -167 Z" /><glyph glyph-name="hyphen" unicode="-" d="M38 339 q-9 0 -16 7 q-7 6 -7 16 q0 10 7 17 q7 6 16 6 l253 0 q9 0 16 -6 q7 -7 7 -17 q0 -10 -7 -16 q-7 -7 -16 -7 l-253 0 Z" /><glyph glyph-name="period" unicode="." d="M106 82 q18 0 31 -13 q12 -13 12 -31 q0 -18 -12 -30 q-13 -13 -31 -13 q-18 0 -31 13 q-13 12 -13 30 q0 18 13 31 q13 13 31 13 Z" /><glyph glyph-name="slash" unicode="/" d="M95 -89 q-3 -9 -11 -14 q-7 -3 -16 -2 q-2 0 -4 1 q-8 3 -11 10 q-5 8 -3 18 l224 814 q2 9 11 14 q7 3 15 2 q2 0 4 -1 q8 -3 12 -10 q4 -8 2 -18 l-223 -814 Z" /><glyph glyph-name="zero" unicode="0" d="M224 687 q48 0 90 -25 q42 -25 71 -75 q26 -43 41 -104 q15 -61 15 -140 q0 -80 -15 -141 q-15 -61 -41 -104 q-29 -50 -71 -75 q-42 -25 -90 -25 q-48 0 -89 25 q-42 25 -72 75 q-26 43 -40 104 q-15 61 -15 141 q0 79 15 140 q14 61 40 104 q30 50 72 75 q41 25 89 25 ZM346 563 q-23 39 -54 58 q-32 19 -68 19 q-35 0 -66 -19 q-32 -19 -55 -58 q-23 -38 -36 -92 q-13 -55 -13 -128 q0 -74 13 -128 q13 -55 36 -93 q23 -38 55 -57 q31 -20 66 -20 q36 0 68 20 q31 19 54 57 q23 38 36 93 q12 54 12 128 q0 73 -12 128 q-13 54 -36 92 Z" /><glyph glyph-name="one" unicode="1" d="M202 86 l0 495 q0 16 -11.5 24 q-11.5 8 -26.5 4 l-69 -23 q-9 -3 -17 2 q-9 4 -12 13 q-3 9 2 18 q4 8 13 11 l134 44 l2 0 l5 1 q3 1 5 1 q9 -1 15 -6 q6 -7 6 -17 l0 -567 q0 -12 8.5 -20.5 q8.5 -8.5 20.5 -8.5 l106 0 q10 0 17 -6 q6 -7 6 -17 q0 -10 -6 -16 q-7 -7 -17 -7 l-316 0 q-10 0 -16 7 q-7 6 -7 16 q0 10 7 17 q6 6 16 6 l106 0 q12 0 20.5 8.5 q8.5 8.5 8.5 20.5 Z" /><glyph glyph-name="two" unicode="2" d="M56 570 q-8 -5 -17 -3 q-9 1 -15 9 q-5 8 -3 18 q1 9 9 14 q45 32 101 52 q55 20 109 22 q46 2 81 -13 q40 -15 65 -49 q14 -19 22 -44 q7 -26 8 -58 q1 -35 -13 -66 q-14 -31 -39 -59 q-24 -26 -56 -50 q-32 -24 -70 -47 q-57 -35 -91 -69 q-35 -34 -54 -68 q-16 -27 -22 -54 q-5 -20 -8 -40 q-1 -14 13 -14 l336 0 q9 0 16 -6 q7 -7 7 -17 q0 -9 -7 -16 q-7 -7 -16 -7 l-373 0 q-9 0 -16 7 q-7 6 -7 16 q-1 38 7 77 q7 38 30 77 q22 38 61 77 q38 38 100 76 q35 22 65 44 q30 22 51 45 q19 22 30 45 q10 22 10 48 q-1 48 -22 76 q-8 12 -19 20 q-11 8 -24 13 q-27 10 -64 10 q-46 -1 -95 -19 q-50 -18 -90 -47 Z" /><glyph glyph-name="three" unicode="3" d="M54 574 q-8 -6 -17 -4 q-10 1 -15 9 q-5 8 -3 18 q1 9 9 14 q40 29 89 48 q49 18 99 22 q51 5 98 -11 q23 -8 43 -22 q20 -14 35 -35 q28 -38 32 -96 l1 -13 q0 -32 -11 -62 q-12 -30 -34 -55 q-15 -16 -33 -28 q-4 -3 -5 -8 q-1 -5 3 -8 q24 -15 42 -35 q23 -26 35 -57 q11 -32 11 -64 l0 -16 q-7 -59 -35 -98 q-29 -41 -79 -58 q-23 -8 -48 -10 q-25 -3 -51 -1 q-51 4 -101 24 q-50 19 -92 49 q-8 5 -9 15 q-1 9 4 17 q6 8 15 9 q9 1 17 -4 q37 -26 81 -43 q44 -17 89 -21 q44 -3 80 9 q37 13 57 41 q22 29 26 78 l0 9 q0 24 -8 48 q-9 23 -26 42 q-17 20 -42 33 q-25 12 -57 15 l-18 0 l-150 1 q-10 0 -17 7 q-7 6 -7 16 q0 9 7 16 q7 7 17 7 l163 0 q31 3 55 15 q24 12 41 31 q33 36 34 84 l0 4 l-1 7 q-3 44 -24 73 q-20 29 -55 40 q-18 7 -38 9 q-20 2 -42 0 q-43 -4 -86 -20 q-44 -16 -79 -41 Z" /><glyph glyph-name="four" unicode="4" d="M356 25 q0 -10 -7 -16 q-7 -7 -17 -7 q-9 0 -16 7 q-7 6 -7 16 l0 138 q0 12 -8.5 20.5 q-8.5 8.5 -20.5 8.5 l-255 1 l-4 0 q-5 0 -13 4 q-8 5 -10 15 q-1 9 4 17 l301 445 q7 12 20 12 l9 0 q10 0 17 -7 q7 -7 7 -17 l0 -394 q0 -12 8.5 -20.5 q8.5 -8.5 20.5 -8.5 l45 -1 q10 0 17 -6 q6 -7 6 -17 q0 -9 -6 -16 q-7 -7 -17 -7 l-45 0 q-12 0 -20.5 -8.5 q-8.5 -8.5 -8.5 -20.5 l0 -138 ZM309 268 l0 238 q0 11 -6 18.5 q-6 7.5 -14.5 10 q-8.5 2.5 -17.5 -0.5 q-9 -3 -15 -12 l-161 -238 q-10 -15 -2 -30 q8 -15 27 -15 l160 0 q12 0 20.5 8.5 q8.5 8.5 8.5 20.5 Z" /><glyph glyph-name="five" unicode="5" d="M23 88 q-7 7 -7 16 q0 9 7 16 q7 8 16 8 q9 0 16 -7 q26 -25 64 -42 q37 -17 79 -23 q44 -6 84 3 q19 5 36 13 q16 8 29 22 q13 14 22 33 q9 18 13 44 l3 36 q0 17 -2 33 q-8 51 -42 81 q-36 32 -103 42 q-67 9 -161 -4 q-9 -2 -16 4 q-7 5 -9 14 q-1 2 -1 5 l0 5 l31 281 q1 9 8 15 q6 5 14 5 l304 0 q10 0 17 -6 q6 -7 6 -17 q0 -9 -6 -16 q-7 -7 -17 -7 l-257 0 q-11 0 -19.5 -7.5 q-8.5 -7.5 -9.5 -18.5 l-20 -186 q-1 -8 5 -13.5 q6 -5.5 15 -5.5 q30 3 56 3 q36 -1 67 -5 q80 -12 126 -53 q48 -42 57 -109 q6 -40 -1 -83 q-5 -32 -17 -57 q-12 -26 -30 -45 q-17 -18 -39 -30 q-23 -12 -48 -18 q-24 -6 -50 -6 q-26 -1 -52 3 q-48 7 -92 28 q-45 20 -76 49 Z" /><glyph glyph-name="six" unicode="6" d="M433 602 q6 -8 5 -17 q-1 -9 -9 -15 q-8 -6 -17 -5 q-10 1 -16 9 q-15 20 -43 35 q-29 15 -64 23 q-44 8 -86 2 q-21 -4 -40 -11 q-20 -8 -37 -22 q-22 -17 -37 -43 q-16 -26 -24 -64 q-4 -17 -6 -40 l-4 -53 l0 -13 l-1 -7 q0 -2 2 -3 q2 -1 4 0 q35 24 70 34 q61 19 136 6 q67 -12 107 -49 q39 -37 55 -86 q14 -47 8 -94 q-5 -48 -29 -89 q-26 -45 -72 -74 q-46 -29 -110 -26 q-63 3 -104 21 q-41 18 -67 51 q-25 32 -35 77 q-10 45 -11 102 l-1 37 l0 36 l1 41 l1 38 l4 57 q2 25 6 44 q10 46 31 79 q20 33 48 55 q42 31 97 41 q26 5 52 4 q26 -1 51 -6 q43 -9 79 -29 q35 -20 56 -46 ZM53 300 l0 -16 l1 -32 q1 -51 9 -88 q8 -38 28 -64 q19 -24 52 -38 q33 -14 84 -16 q49 -2 85 20 q35 22 55 57 q19 33 24 71 q3 40 -7 75 q-12 37 -42 66 q-31 28 -84 38 q-32 5 -60 4 q-28 -1 -54 -9 q-43 -13 -82 -47 q-4 -3 -6.5 -9.5 q-2.5 -6.5 -2.5 -11.5 Z" /><glyph glyph-name="seven" unicode="7" d="M213 17 q-3 -9 -11 -13 q-8 -4 -16 -3 q-2 1 -4 2 q-8 4 -11 12 q-5 8 -2 17 l201 573 q6 16 -2.5 27.5 q-8.5 11.5 -24.5 11.5 l-312 0 q-9 0 -16 7 q-7 7 -7 16 q0 10 7 17 q7 6 16 6 l386 0 l3 -1 q5 0 8 -2 q6 -4 10 -10 q4 -9 0 -18 l-225 -642 Z" /><glyph glyph-name="eight" unicode="8" d="M354 363 q23 -12 41 -26 q31 -24 49 -59 q17 -36 17 -82 q0 -46 -17 -81 q-18 -35 -49 -60 q-32 -26 -75 -39 q-44 -13 -94 -13 q-51 0 -94 13 q-44 13 -76 39 q-31 25 -48 60 q-18 35 -18 81 q0 46 18 82 q17 35 48 59 q18 15 40 25 q3 2 3.5 5.5 q0.5 3.5 -2.5 4.5 l-9 5 l-2 1 l-16 11 q-29 23 -45 55 q-16 31 -16 73 q0 42 16 74 q16 31 45 53 q30 23 70 35 q40 11 86 11 q45 0 86 -11 q40 -12 69 -35 q29 -22 45 -53 q16 -32 16 -74 q0 -42 -16 -73 q-16 -32 -45 -55 l-16 -11 l-2 -1 l-8 -5 q-4 -1 -4 -4.5 q0 -3.5 3 -4.5 ZM353 608 q-23 18 -56 27 q-33 9 -71 9 q-38 0 -71 -9 q-33 -9 -57 -27 q-20 -16 -31 -39 q-12 -23 -12 -52 q0 -30 12 -53 q11 -23 31 -39 q24 -18 57 -27 q33 -9 71 -9 q38 0 71 9 q33 9 56 27 q20 16 32 39 q11 23 11 53 q0 29 -11 52 q-12 23 -32 39 ZM366 301 q-26 21 -62 32 q-36 10 -78 10 q-42 0 -78 -10 q-37 -11 -63 -32 q-23 -18 -35 -44 q-13 -26 -13 -61 q0 -35 13 -61 q12 -26 35 -44 q26 -21 63 -31 q36 -11 78 -11 q42 0 78 11 q36 10 62 31 q23 18 36 44 q12 26 12 61 q0 35 -12 61 q-13 26 -36 44 Z" /><glyph glyph-name="nine" unicode="9" d="M15 81 q-4 7 -3 16 q0 9 8 15 q8 5 18 4 q9 -1 15 -9 q16 -20 44 -35 q28 -15 63 -22 q44 -9 86 -2 q21 4 41 12 q19 7 36 20 q22 17 38 43 q16 26 24 64 q3 17 5 41 l4 52 l1 14 l0 7 q0 7 -6 3 q-33 -24 -70 -35 q-61 -19 -136 -6 q-67 12 -106 50 q-40 37 -56 86 q-14 47 -8 93 q5 48 29 89 q26 46 72 75 q46 28 110 25 q63 -3 104 -21 q41 -18 67 -51 q25 -32 35 -76 q10 -45 11 -103 l1 -36 l0 -78 l-2 -38 l-4 -56 q-2 -25 -6 -44 q-10 -47 -30 -79 q-20 -33 -49 -55 q-21 -17 -46 -27 q-25 -10 -51 -15 q-52 -8 -103 3 q-43 8 -78 28 q-35 19 -56 44 q-1 2 -2 4 ZM396 381 l0 17 l-1 31 q-1 51 -8 89 q-8 37 -28 63 q-20 25 -52 39 q-33 13 -85 15 q-49 2 -84 -20 q-36 -22 -56 -57 q-10 -16 -15 -34 q-6 -18 -8 -37 q-5 -39 6 -74 q12 -38 43 -66 q31 -29 83 -38 q32 -6 61 -5 q28 1 54 9 q42 14 81 47 q4 3 6.5 9.5 q2.5 6.5 2.5 11.5 Z" /><glyph glyph-name="colon" unicode=":" d="M111 88 q17 0 30 -12 q13 -13 13 -31 q0 -18 -13 -30 q-13 -13 -30 -13 q-18 0 -31 13 q-13 12 -13 30 q0 18 13 31 q13 12 31 12 ZM108 481 q18 0 31 -12 q12 -13 12 -31 q0 -18 -12 -31 q-13 -13 -31 -13 q-18 0 -30 13 q-13 13 -13 31 q0 18 13 31 q12 12 30 12 Z" /><glyph glyph-name="semicolon" unicode=";" d="M93 -59 q-3 -10 -11 -15 q-9 -4 -18 -1 q-10 3 -14 11 q-5 9 -2 18 l42 134 q3 9 12 14 q8 4 17 2 q10 -3 15 -11 q4 -9 1 -19 l-42 -133 ZM106 490 q19 0 32 -13 q12 -13 12 -31 q0 -18 -12 -31 q-13 -13 -32 -13 q-18 0 -31 13 q-13 13 -13 31 q0 18 13 31 q13 13 31 13 Z" /><glyph glyph-name="equal" unicode="=" d="M129 419 q-10 0 -17 7 q-7 6 -7 16 q0 11 7 18 q7 6 17 6 l345 0 q10 0 17 -6 q7 -7 7 -18 q0 -10 -7 -16 q-7 -7 -17 -7 l-345 0 ZM129 212 q-10 0 -17 7 q-7 7 -7 17 q0 10 7 17 q7 6 17 6 l345 0 q10 0 17 -6 q7 -7 7 -17 q0 -10 -7 -17 q-7 -7 -17 -7 l-345 0 Z" /><glyph glyph-name="at" unicode="@" d="M500 -1 q10 1 17 -6 q7 -6 8 -16 q1 -9 -5 -16 q-6 -7 -16 -8 q-92 -8 -159 0 q-68 8 -116 27 q-49 20 -80 50 q-31 30 -48 68 q-17 37 -22 79 q-5 42 -2 87 q2 45 10 92 q8 46 17 91 q14 66 49 107 q34 41 79 65 q32 17 68 26 q35 9 69 12 q33 2 63 1 q30 -2 51 -6 q57 -11 96 -37 q38 -26 64 -59 q21 -26 34 -55 q12 -29 19 -55 q6 -26 8 -47 q2 -22 1 -34 q-12 -113 -57 -175 q-48 -64 -129 -76 l-31 -4 l-30 -3 q-50 -5 -87 -2 q-37 3 -64 14 q-38 17 -56 49 q-18 32 -18 86 l2 45 q2 30 11 65 q9 38 29 71 q19 33 56 49 q29 11 57 11 q27 -1 52 -12 q14 -6 29 -16 q3 -3 6.5 -2 q3.5 1 4.5 5 l1 11 q1 9 9 15 q7 6 17 4 q9 -1 15 -8 q5 -7 4 -15 l0 -3 l-11 -80 l-31 -231 q-1 -7 6 -6 l8 1 l15 2 q62 9 98 57 q38 53 48 152 l0 28 q-2 17 -7 39 q-6 22 -17 46 q-11 23 -28 46 q-21 27 -53 49 q-32 21 -79 29 q-19 4 -45 6 q-27 1 -56 -1 q-30 -3 -61 -10 q-32 -8 -60 -23 q-36 -19 -64 -53 q-28 -34 -39 -88 q-9 -42 -16 -85 q-8 -44 -11 -85 q-3 -41 1 -79 q4 -39 19 -71 q14 -31 41 -56 q27 -25 70 -41 q42 -16 103 -22 q61 -6 143 1 ZM465 402 q-15 26 -43 39 q-17 7 -35 8 q-19 0 -38 -8 q-24 -10 -37 -34 q-14 -25 -22 -54 q-8 -31 -9 -59 l-1 -40 q0 -73 45 -93 q31 -12 87 -11 q10 0 18 7.5 q8 7.5 9 17.5 l29 211 q0 2 -1 8 q-1 6 -2 8 Z" /><glyph glyph-name="B" unicode="B" d="M149 331 q-12 0 -20.5 -8.5 q-8.5 -8.5 -8.5 -20.5 l0 -209 q0 -19 14 -33 q13 -13 33 -13 l130 0 q34 0 64 11 q29 11 50 31 q22 19 34 45 q12 26 12 55 q0 29 -12 55 q-12 26 -34 46 q-21 19 -50 30 q-30 11 -64 11 l-148 0 ZM397 354 q11 -5 21 -11 q13 -9 24 -19 q29 -26 45 -60 q16 -35 16 -75 q0 -40 -16 -74 q-16 -35 -45 -61 q-28 -25 -65 -39 q-37 -14 -80 -14 l-130 0 q-39 0 -66 27 q-27 25 -27 65 l0 493 q0 38 27 65 q27 27 66 27 l119 0 q41 0 77 -13 q35 -13 61 -36 q27 -24 43 -56 q15 -32 15 -68 q0 -37 -15 -69 q-16 -32 -43 -56 l-16 -12 l-11 -7 q-6 -4 0 -7 ZM120 586 l0 -180 q0 -12 8.5 -20.5 q8.5 -8.5 20.5 -8.5 l137 1 q32 0 60 10 q27 10 47 27 q20 17 32 41 q11 23 11 49 q0 26 -11 49 q-12 23 -32 40 q-41 38 -107 38 l-119 0 q-20 0 -32 -12 l-3 -4 q-12 -11 -12 -30 Z" /><glyph glyph-name="C" unicode="C" d="M476 669 q9 -3 14 -11 q4 -8 3 -16 l-2 -4 q-2 -8 -9 -11 q-9 -5 -18 -3 q-16 5 -41 9 q-25 3 -56 3 q-34 0 -71 -7 q-38 -7 -72 -27 q-34 -19 -61 -52 q-28 -34 -43 -88 q-15 -51 -15 -121 q0 -72 15 -121 q15 -54 43 -87 q27 -34 61 -54 q34 -20 72 -27 q37 -7 72 -7 q30 0 55 4 q25 3 41 8 q9 2 18 -2 q7 -4 9 -12 l2 -4 q1 -8 -3 -15 q-5 -9 -14 -12 q-18 -5 -46 -9 q-28 -4 -62 -4 q-40 0 -83 9 q-43 8 -84 31 q-42 23 -75 64 q-33 40 -51 104 q-8 29 -12 62 q-4 33 -4 72 q0 76 17 133 q18 64 51 105 q32 40 74 63 q41 23 84 32 q43 9 82 9 q35 0 63 -4 q28 -5 46 -10 Z" /><glyph glyph-name="D" unicode="D" d="M65 596 q0 20 8 37 q7 17 20 30 q27 27 67 27 l106 0 q57 0 105 -27 q48 -27 83 -75 q35 -48 55 -110 q19 -62 19 -133 q0 -72 -19 -134 q-20 -62 -55 -109 q-35 -48 -83 -75 q-48 -28 -105 -28 l-106 0 q-19 0 -35 6 l-3 2 l-12 6 q-2 2 -5 3 l-12 11 q-14 13 -21 31 q-7 15 -7 35 l0 503 ZM112 596 l0 -500 q0 -3 1 -6 l1 -9 q1 -1 2.5 -5.5 q1.5 -4.5 2.5 -4.5 l5 -8 q0 0 2.5 -2.5 q2.5 -2.5 2.5 -2.5 l3 -3 q1 -1 4 -3 l1 -1 q1 0 4.5 -1.5 q3.5 -1.5 3.5 -1.5 l13 -2 q0 0 2 0 q2 0 2 0 l104 0 q45 0 83 23 q38 22 67 61 q31 41 48 96 q17 55 17 119 q0 63 -17 118 q-17 55 -48 97 q-29 38 -67 61 q-38 22 -83 22 l-106 0 q-20 0 -34 -14 q-14 -12 -14 -33 Z" /><glyph glyph-name="E" unicode="E" d="M447 47 q9 0 16 -7 q7 -7 7 -16 q0 -10 -7 -16 q-7 -7 -16 -7 l-285 0 q-39 0 -66 27 q-27 25 -27 65 l0 493 q0 38 27 65 q27 27 66 27 l285 0 q9 0 16 -6 q7 -7 7 -17 q0 -10 -7 -16 q-7 -7 -16 -7 l-285 0 q-20 0 -32 -12 l-10 -15 q-1 -2 -2 -4 q-3 -7 -3 -15 l0 -194 q0 -12 8.5 -20.5 q8.5 -8.5 20.5 -8.5 l259 0 q10 0 17 -7 q6 -7 6 -17 q0 -9 -6 -16 q-7 -7 -17 -7 l-259 0 q-12 0 -20.5 -8.5 q-8.5 -8.5 -8.5 -20.5 l0 -194 q0 -9 3 -16 q1 -2 2 -4 l7 -11 q2 -2 4 -4 q12 -11 31 -11 l285 0 Z" /><glyph glyph-name="F" unicode="F" d="M120 26 q0 -10 -6 -16 q-7 -7 -17 -7 q-10 0 -16 7 q-7 6 -7 16 l0 562 q0 38 27 65 q27 27 66 27 l296 0 q10 0 17 -6 q6 -7 6 -17 q0 -10 -6 -16 q-7 -7 -17 -7 l-296 0 q-20 0 -32 -12 l-10 -15 q-1 -2 -2 -4 q-3 -7 -3 -15 l0 -194 q0 -12 8.5 -20.5 q8.5 -8.5 20.5 -8.5 l282 0 q10 0 17 -7 q7 -7 7 -17 q0 -9 -7 -16 q-7 -7 -17 -7 l-282 0 q-12 0 -20.5 -8.5 q-8.5 -8.5 -8.5 -20.5 l0 -263 Z" /><glyph glyph-name="G" unicode="G" d="M488 665 q9 -2 14 -10 q4 -8 3 -16 l-2 -4 q-2 -8 -9 -12 q-9 -5 -18 -2 q-14 4 -36 7 q-23 3 -52 3 q-38 0 -80 -8 q-42 -8 -80 -29 q-38 -20 -68 -56 q-31 -37 -47 -94 q-13 -45 -13 -110 q0 -73 22 -125 q21 -52 55 -87 q20 -20 43 -34 q22 -14 46 -23 q23 -9 47 -13 q24 -5 46 -5 q29 0 53 7 q23 7 36 19 q14 14 22 33 q7 17 7 39 l0 98 q0 0 0 2 q0 2 0 2 l-3 14 q0 2 -1 4 q-3 9 -9 13 l-7 6 q-2 1 -7 3 q-5 2 -6 2 l-6 2 q-3 0 -6 0 l-131 0 q-10 0 -16 7 q-7 7 -7 16 q0 10 7 17 q6 6 16 6 l134 1 q16 0 34 -8 q14 -5 29 -20 q14 -15 19 -30 q7 -19 7 -35 l0 -100 q0 -28 -10 -55 l-2 -4 l-12 -22 q-8 -12 -19 -23 q-20 -20 -52 -30 q-32 -10 -70 -10 q-26 0 -53 5 q-28 5 -57 16 q-28 11 -54 28 q-27 16 -51 40 q-40 40 -65 100 q-26 60 -26 144 q0 35 4 65 q4 30 12 57 q18 68 55 111 q37 43 82 68 q45 24 93 33 q47 9 89 9 q32 0 58 -3 q25 -4 42 -9 Z" /><glyph glyph-name="H" unicode="H" d="M521 25 q0 -10 -6 -16 q-7 -7 -17 -7 q-9 0 -16 7 q-7 6 -7 16 l0 264 q0 12 -8.5 20.5 q-8.5 8.5 -20.5 8.5 l-296 0 q-12 0 -20.5 -8.5 q-8.5 -8.5 -8.5 -20.5 l0 -264 q0 -10 -6 -16 q-7 -7 -17 -7 q-10 0 -16 7 q-7 6 -7 16 l0 632 q0 9 7 16 q6 7 16 7 q10 0 17 -7 q6 -7 6 -16 l0 -264 q0 -12 8.5 -20.5 q8.5 -8.5 20.5 -8.5 l296 0 q12 0 20.5 8.5 q8.5 8.5 8.5 20.5 l0 264 q0 9 7 16 q7 7 16 7 q10 0 17 -7 q6 -7 6 -16 l0 -632 Z" /><glyph glyph-name="I" unicode="I" d="M120 25 q0 -11 -6 -17 q-7 -7 -17 -7 q-10 0 -17 7 q-7 6 -7 17 l0 624 q0 10 7 17 q7 7 17 7 q10 0 17 -7 q6 -7 6 -17 l0 -624 Z" /><glyph glyph-name="K" unicode="K" d="M121 23 q0 -10 -7 -16 q-7 -7 -17 -7 q-9 0 -16 7 q-7 6 -7 16 l0 632 q0 9 7 16 q7 7 16 7 q10 0 17 -7 q7 -7 7 -16 l0 -219 q0 -10 5.5 -17.5 q5.5 -7.5 13 -10.5 q7.5 -3 16 -1 q8.5 2 15.5 10 l225 247 l3 3 q5 6 14 6 q9 0 16 -6 q8 -7 8 -16 q0 -8 -5 -15 q0 0 -1 -1.5 q-1 -1.5 -1 -1.5 l-249 -275 q-8 -8 -8 -19 q0 -11 7 -19 l250 -280 q7 -7 7 -16 q-1 -9 -7 -14 l-4 -4 q-6 -5 -14 -4 q-10 0 -16 7 l-224 251 q-7 8 -16 10 q-9 2 -16.5 -1 q-7.5 -3 -13 -10.5 q-5.5 -7.5 -5.5 -17.5 l0 -218 Z" /><glyph glyph-name="L" unicode="L" d="M437 47 q10 0 17 -6 q6 -7 6 -17 q0 -9 -6 -16 q-7 -7 -17 -7 l-268 0 q-19 0 -36 8 q-17 7 -29 19 q-13 13 -20 30 q-8 16 -8 36 l0 562 q0 9 7 16 q7 7 17 7 q9 0 16 -7 q7 -7 7 -16 l0 -562 q0 -19 11 -31 q2 -2 4 -4 l11 -7 q2 -1 4 -2 q7 -3 16 -3 l268 0 Z" /><glyph glyph-name="M" unicode="M" d="M123 19 q0 -10 -6 -16 q-7 -7 -17 -7 q-10 0 -16 7 q-7 6 -7 16 l0 589 q0 32 22 51 q15 13 31 16 q20 5 36 -1 q13 -4 24 -13 q11 -9 18 -24 l138 -293 q7 -14 17 -19 q2 -1 5 -2 l3 -1 q2 0 6 0 q4 0 6 1 l3 0 q2 1 4 2 q10 5 17 19 l138 292 q13 29 42 38 q15 4 34 1 q0 0 2 -0.5 q2 -0.5 3 -0.5 q17 -5 28 -15 q22 -19 22 -51 l0 -589 q0 -10 -6 -16 q-7 -7 -17 -7 q-9 0 -16 7 q-7 6 -7 16 l0 589 q0 10 -5 15 q-1 1 -3 2 l-3 2 q-2 1 -6.5 2 q-4.5 1 -5.5 1 l-5 -1 q-2 0 -4 -1 q-6 -2 -10 -9 q-1 0 -2 -1.5 q-1 -1.5 -1 -1.5 l-137 -292 q-7 -15 -17 -25 q-11 -11 -23 -17 q-14 -7 -31 -7 q-15 0 -32 7 q-12 6 -22 17 q-11 10 -18 25 l-138 293 q-4 8 -10 11 q-3 2 -10 2 q-1 0 -6 -1 q-5 -1 -5 -1 l-1 -1 q-6 -2 -8 -6 q-4 -5 -4 -13 l0 -589 Z" /><glyph glyph-name="N" unicode="N" d="M118 24 q0 -10 -7 -16 q-7 -7 -17 -7 q-9 0 -16 7 q-7 6 -7 16 l0 586 q0 17 7 30 q5 11 15 20 q2 2 4 3 q13 9 28 13 q0 0 2 0.5 q2 0.5 2 0.5 q18 3 34 -1 q13 -4 24 -13 q10 -9 16 -24 l249 -577 q3 -7 9 -11 q3 -2 9 -2 l2 0 q1 0 6 1 q5 1 6 2 q6 2 8 6 q4 6 4 13 l0 584 q0 10 7 17 q6 7 16 7 q10 0 17 -7 q6 -7 6 -17 l0 -584 q0 -32 -23 -52 q-12 -11 -30 -15 l-4 0 q-15 -4 -33 1 q-14 5 -25 14 q-11 9 -18 25 l-248 577 q-3 6 -8 9 q-3 2 -8 2 l-2 0 q-1 0 -5.5 -1 q-4.5 -1 -5.5 -2 l-3 -1 q-5 -2 -7 -6 q-4 -5 -4 -12 l0 -586 Z" /><glyph glyph-name="O" unicode="O" d="M315 679 q54 0 101 -24 q47 -25 82 -73 q30 -42 48 -102 q17 -61 17 -140 q0 -79 -17 -139 q-18 -61 -48 -104 q-35 -48 -82 -72 q-47 -24 -101 -24 q-54 0 -101 24 q-47 24 -82 72 q-30 43 -47 104 q-18 60 -18 139 q0 79 18 140 q17 60 47 102 q35 48 82 73 q47 24 101 24 ZM460 555 q-27 38 -64 58 q-38 19 -81 19 q-43 0 -80 -19 q-38 -20 -65 -58 q-26 -37 -41 -90 q-15 -53 -15 -125 q0 -72 15 -125 q15 -54 41 -91 q27 -38 65 -57 q37 -20 80 -20 q43 0 81 20 q37 19 64 57 q26 37 41 91 q15 53 15 125 q0 72 -15 125 q-15 53 -41 90 Z" /><glyph glyph-name="P" unicode="P" d="M140 325 l148 0 q34 0 63 12 q29 12 51 32 q22 21 34 49 q12 27 12 59 q0 32 -12 60 q-12 28 -34 49 q-22 20 -51 32 q-29 12 -63 12 l-130 0 q-20 0 -32 -12 l-10 -15 q-1 -2 -2 -4 q-3 -7 -3 -15 l0 -230 q0 -12 8.5 -20.5 q8.5 -8.5 20.5 -8.5 ZM111 250 l0 -228 q0 -10 -6 -17 q-7 -7 -17 -7 q-10 0 -16 7 q-7 7 -7 17 l0 562 q0 19 8 36 q7 16 19 29 q27 27 66 27 l130 0 q44 0 81 -15 q37 -16 65 -42 q29 -27 45 -63 q15 -37 15 -79 q0 -42 -15 -78 q-16 -36 -45 -63 q-28 -26 -65 -41 q-37 -16 -81 -16 l-148 0 q-12 0 -20.5 -8.5 q-8.5 -8.5 -8.5 -20.5 Z" /><glyph glyph-name="Q" unicode="Q" d="M312 690 q55 0 103 -24 q48 -25 83 -74 q31 -44 49 -105 q17 -62 17 -143 q0 -81 -17 -142 q-18 -61 -49 -105 l-11 -15 l-7 -8 q-6 -7 0 -15 l61 -81 q5 -8 4 -18 q-1 -9 -9 -14 q-8 -6 -17 -5 q-10 1 -16 9 l-55 73 q-4 5 -11 6.5 q-7 1.5 -13 -1.5 q-22 -13 -45 -20 q-32 -9 -67 -9 q-56 0 -104 25 q-48 24 -83 73 q-31 44 -48 105 q-18 61 -18 142 q0 81 18 143 q17 61 48 105 q35 49 83 74 q48 24 104 24 ZM334 175 q-6 8 -4 18 q1 9 9 15 q8 5 18 4 q9 -1 15 -9 l70 -92 q3 -5 7 -1 l4 5 l7 9 q26 38 42 93 q15 55 15 127 q0 73 -15 128 q-16 55 -42 93 q-28 39 -66 59 q-38 19 -82 19 q-45 0 -83 -19 q-38 -20 -66 -59 q-26 -38 -41 -93 q-16 -55 -16 -128 q0 -72 16 -127 q15 -55 41 -93 q28 -39 66 -58 q38 -20 83 -20 q40 0 74 16 q12 6 13.5 15 q1.5 9 -6.5 19 l-59 79 Z" /><glyph glyph-name="R" unicode="R" d="M154 328 l148 0 q35 0 64 12 q28 12 50 32 q21 21 34 49 q12 27 12 59 q0 32 -12 60 q-13 28 -34 48 q-22 21 -51 33 q-29 12 -63 12 l-130 0 q-20 0 -31 -12 l-4 -4 q-12 -11 -12 -30 l0 -230 q0 -12 8.5 -20.5 q8.5 -8.5 20.5 -8.5 ZM508 34 q5 -8 4 -17 q-2 -10 -10 -15 q-8 -5 -17 -3 q-10 2 -15 10 l-172 260 q-3 5 -11 9 q-8 4 -14 4 l-119 0 q-12 0 -20.5 -8.5 q-8.5 -8.5 -8.5 -20.5 l0 -229 q0 -9 -6 -16 q-7 -7 -17 -7 q-10 0 -16 7 q-7 7 -7 16 l0 563 q0 38 27 65 q27 27 66 27 l130 0 q44 0 81 -15 q37 -16 65 -42 q28 -27 44 -63 q16 -37 16 -79 q0 -42 -16 -78 q-16 -36 -44 -63 q-33 -31 -76 -46 q-10 -3 -14.5 -13.5 q-4.5 -10.5 1.5 -19.5 l149 -226 Z" /><glyph glyph-name="S" unicode="S" d="M443 614 q8 -5 10 -14 q1 -10 -4 -18 q-6 -8 -15 -9 q-9 -2 -17 4 q-38 26 -84 42 q-46 16 -91 18 q-40 0 -69 -11 q-31 -13 -48 -37 q-10 -14 -15 -33 q-6 -19 -7 -45 q-1 -24 10 -43 q11 -20 30 -36 q22 -18 51 -32 q28 -15 60 -26 q39 -14 78 -31 q38 -17 69 -39 q34 -25 54 -56 q20 -32 19 -74 q-1 -33 -10 -59 q-9 -26 -25 -46 q-27 -36 -76 -53 q-22 -8 -45 -11 q-24 -4 -50 -3 q-54 1 -109 20 q-55 18 -95 50 q-8 6 -9 15 q-1 9 5 17 q5 8 15 9 q9 1 17 -5 q35 -27 82 -43 q47 -16 95 -17 q42 -1 79 11 q34 12 55 38 q24 30 25 78 q1 29 -14 51 q-15 22 -40 40 q-28 20 -63 36 q-36 15 -73 29 q-35 13 -67 29 q-32 15 -57 36 q-27 23 -42 52 q-16 28 -15 65 q1 63 31 103 q13 19 31 32 q17 13 37 21 q38 14 87 14 q51 -2 105 -20 q53 -18 95 -49 Z" /><glyph glyph-name="T" unicode="T" d="M306 25 q0 -9 -6 -16 q-7 -7 -17 -7 q-9 0 -16 7 q-7 7 -7 16 l0 580 q0 12 -8.5 20.5 q-8.5 8.5 -20.5 8.5 l-166 0 q-9 0 -16 7 q-7 6 -7 16 q0 10 7 17 q7 6 16 6 l436 0 q10 0 17 -6 q6 -7 6 -17 q0 -10 -6 -16 q-7 -7 -17 -7 l-166 0 q-12 0 -20.5 -8.5 q-8.5 -8.5 -8.5 -20.5 l0 -580 Z" /><glyph glyph-name="U" unicode="U" d="M469 667 q0 10 7 17 q7 6 17 6 q10 0 17 -6 q6 -7 6 -17 l0 -458 q0 -45 -17 -83 q-18 -38 -47 -67 q-31 -29 -71 -44 q-41 -16 -87 -16 q-46 0 -86 16 q-41 15 -71 44 q-30 29 -47 67 q-18 38 -18 83 l0 458 q0 10 7 17 q6 6 16 6 q10 0 17 -6 q7 -7 7 -17 l0 -458 q0 -35 14 -64 q13 -29 36 -51 q24 -23 56 -35 q32 -13 69 -13 q37 0 70 13 q32 12 55 35 q23 22 37 51 q13 29 13 64 l0 458 Z" /><glyph glyph-name="V" unicode="V" d="M54 643 q-3 9 2 18 q4 8 13 11 q10 3 19 -1 q7 -4 9 -13 l1 -3 l175 -584 l1 -3 q4 -9 10 -15 q2 -1 4 -2 q11 -6 23 -6 q12 0 23 6 q2 1 4 2 q7 7 10 17 l176 588 q3 10 12 15 q8 4 17 1 q9 -3 14 -11 q4 -9 2 -18 l-176 -588 q-9 -27 -31 -43 q-23 -15 -51 -15 q-30 0 -51 15 q-22 16 -31 43 l-175 586 Z" /><glyph glyph-name="Y" unicode="Y" d="M478 668 q5 8 15 11 q9 2 17 -3 q8 -5 11 -14 q3 -9 -2 -17 l-199 -346 q-1 -2 -2.5 -7.5 q-1.5 -5.5 -1.5 -7.5 l0 -261 q0 -10 -6 -16 q-7 -7 -17 -7 q-10 0 -16 7 q-7 6 -7 16 l0 261 q0 2 -1.5 7.5 q-1.5 5.5 -2.5 7.5 l-200 347 q-5 9 -2 18 q3 9 11 14 q8 5 18 2 q9 -3 14 -11 l161 -281 q9 -16 25 -16 q16 0 25 16 l160 280 Z" /><glyph glyph-name="Z" unicode="Z" d="M487 45 q9 0 16 -6 q7 -7 7 -17 q0 -10 -7 -16 q-7 -7 -16 -7 l-336 0 q-33 0 -57 19 q-15 12 -23 29 q-9 16 -9 36 q0 28 20 54 l341 435 q7 10 8 21 q0 2 -1 5 l-1 5 q0 1 -2.5 6 q-2.5 5 -2.5 7 l-3 3 q-2 3 -5 4 q-11 7 -30 7 l-301 0 q-10 0 -16 7 q-7 7 -7 16 q0 10 7 17 q6 7 16 7 l301 0 q20 0 35 -5 q15 -6 26 -15 q16 -13 23 -28 q7 -15 7 -34 q0 -29 -18 -51 l-341 -436 q-8 -11 -9 -23 q0 -2 0 -5 l2 -5 q0 -2 2.5 -7.5 q2.5 -5.5 3.5 -6.5 l2 -3 q1 0 4.5 -3 q3.5 -3 4.5 -4 l3 -1 q0 0 4 -1.5 q4 -1.5 5 -1.5 l9 -2 q0 0 2 0 q2 0 2 0 l334 0 Z" /><glyph glyph-name="underscore" unicode="_" d="M3 -130 q-10 0 -17 7 q-6 7 -6 17 q0 9 6 16 q7 7 17 7 l299 0 q9 0 16 -7 q7 -7 7 -16 q0 -10 -7 -17 q-7 -7 -16 -7 l-299 0 Z" /><glyph glyph-name="a" unicode="a" d="M76 396 q-7 -7 -16 -7 q-9 0 -16 7 q-7 7 -7 17 q-1 9 6 16 q26 26 65 43 q29 13 61 19 q32 5 64 3 q32 -2 62 -13 q29 -12 52 -34 q19 -19 29 -43 q11 -23 15 -50 q3 -27 4 -60 l0 -270 q0 -10 -6 -16 q-7 -7 -17 -7 q-9 0 -16 7 q-7 6 -7 16 l0 24 q0 5 -4.5 7 q-4.5 2 -8.5 -1 q-19 -14 -37 -23 q-26 -14 -52 -22 q-53 -15 -102 -2 q-49 12 -77 54 q-12 17 -19 40 q-7 22 -7 48 q0 15 3 29 q2 13 7 25 q11 27 29 45 q15 16 33 25 q18 9 38 14 q20 5 42 7 l45 3 l53 4 q22 2 44 7 q12 3 11 15 q-1 15 -3 29 q-3 19 -10 34 q-7 15 -20 28 q-16 16 -37 24 q-22 8 -48 10 q-26 2 -52 -3 q-26 -5 -49 -14 l-3 -2 l-26 -14 q-13 -8 -23 -19 ZM349 252 q0 12 -12 9 q-23 -4 -43 -6 l-53 -4 q-40 -2 -73 -7 q-32 -6 -52 -26 l-3 -3 l-8 -11 q-2 -2 -3 -5 l-7 -13 q-6 -15 -6 -37 q0 -37 17 -62 q18 -27 51 -35 q34 -10 78 2 q29 8 59 27 q24 15 47 38 q2 3 5 10 q3 7 3 10 l0 113 Z" /><glyph glyph-name="b" unicode="b" d="M140 484 l90 -1 q45 0 82 -19 q37 -19 65 -52 q28 -32 44 -76 q15 -44 15 -94 q0 -50 -15 -93 q-16 -44 -44 -77 q-28 -33 -65 -52 q-37 -19 -82 -19 l-73 0 q-19 0 -35 6 q-17 7 -30 21 q-14 14 -20 30 q-7 15 -7 35 l0 562 q0 10 7 17 q6 6 16 6 q10 0 17 -6 q6 -7 6 -17 l0 -142 q0 -12 8.5 -20.5 q8.5 -8.5 20.5 -8.5 ZM111 408 l0 -313 q0 0 0 -2 q0 -2 0 -2 l2 -12 q0 0 1.5 -3.5 q1.5 -3.5 1.5 -4.5 l1 -1 q1 -2 3 -4 l5 -6 q7 -8 15 -10 l14 -3 q3 0 6 0 l70 0 q33 0 62 15 q29 14 50 40 q23 26 36 62 q12 36 12 78 q0 42 -12 78 q-13 36 -36 63 q-21 25 -50 40 q-29 14 -62 14 l-90 0 q-12 0 -20.5 -8.5 q-8.5 -8.5 -8.5 -20.5 Z" /><glyph glyph-name="c" unicode="c" d="M385 475 q10 -2 15 -10 q4 -8 2 -17 q-2 -10 -10 -15 q-8 -5 -17 -3 l-33 6 q-20 3 -45 3 q-29 0 -60 -5 q-31 -6 -60 -21 q-27 -15 -48 -40 q-21 -25 -31 -66 q-7 -25 -7 -64 q0 -38 7 -63 q10 -41 31 -66 q21 -26 48 -40 q29 -15 61 -20 q31 -6 60 -6 q25 0 45 3 l32 5 q9 2 17 -2 q8 -5 10 -15 q2 -9 -2 -17 q-5 -9 -15 -11 l-37 -6 q-23 -3 -50 -3 q-34 0 -71 7 q-37 6 -71 24 q-35 19 -63 52 q-28 32 -40 84 q-8 35 -8 74 q0 40 8 75 q12 52 40 85 q27 32 62 51 q35 18 72 25 q37 6 70 6 q28 0 51 -3 q23 -3 37 -7 Z" /><glyph glyph-name="d" unicode="d" d="M344 436 l-90 0 q-33 0 -62 -14 q-29 -15 -50 -41 q-23 -27 -35 -62 q-13 -36 -13 -78 q0 -42 13 -78 q12 -36 35 -63 q21 -26 50 -40 q29 -15 62 -15 l72 0 q8 0 14 2 l6 3 q6 2 10 6 l6 6 q4 4 6 10 l3 6 q2 6 2 14 l0 315 q0 12 -8.5 20.5 q-8.5 8.5 -20.5 8.5 ZM373 511 l0 142 q0 10 7 17 q6 7 16 7 q10 0 17 -7 q6 -7 6 -17 l0 -561 q0 -21 -7 -36 q-8 -18 -20 -30 q-14 -14 -30 -20 q-15 -7 -36 -7 l-72 0 q-45 0 -82 19 q-38 19 -66 52 q-27 33 -42 77 q-16 43 -16 94 q0 50 16 94 q15 43 42 76 q28 33 66 52 q37 19 82 19 l90 0 q12 0 20.5 8.5 q8.5 8.5 8.5 20.5 Z" /><glyph glyph-name="e" unicode="e" d="M431 90 q8 5 18 4 q9 -2 14 -10 q5 -8 4 -17 q-2 -10 -10 -15 q-41 -26 -84 -39 q-43 -13 -86 -13 q-61 0 -115 26 q-26 13 -48 32 q-23 19 -40 45 q-39 59 -39 142 q0 75 28 128 q28 53 72 84 q45 31 100 39 q53 8 104 -11 q46 -16 82 -53 q35 -37 50 -96 q6 -17 2 -34 l-1 -4 q-4 -16 -15 -32 q-11 -14 -28 -23 q-18 -8 -36 -8 l-282 0 q-14 0 -21.5 -8.5 q-7.5 -8.5 -5.5 -22.5 q7 -44 29 -76 q13 -20 31 -35 q17 -15 38 -26 q42 -21 95 -21 q36 0 73 11 q37 11 71 33 ZM171 419 q-29 -21 -50 -55 q-16 -26 -24 -59 q-2 -10 3.5 -17 q5.5 -7 16.5 -7 l286 0 q10 0 15 4 l7 5 q1 1 4.5 6 q3.5 5 4.5 6 l1 2 q0 0 1 5 q1 5 1 6 l0 6 q0 1 -0.5 3.5 q-0.5 2.5 -0.5 2.5 q-12 45 -39 73 q-28 29 -63 42 q-42 14 -83 8 q-21 -3 -41 -10 q-21 -8 -39 -21 Z" /><glyph glyph-name="f" unicode="f" d="M372 677 q10 0 17 -7 q6 -7 6 -17 q0 -9 -6 -16 q-7 -7 -17 -7 l-67 0 q-15 0 -28 -7 q-14 -8 -25 -21 q-24 -30 -24 -76 l0 -22 q0 -9 6.5 -15.5 q6.5 -6.5 15.5 -6.5 l117 0 q10 0 17 -6 q6 -7 6 -17 q0 -10 -6 -16 q-7 -7 -17 -7 l-110 0 q-12 0 -20.5 -8.5 q-8.5 -8.5 -8.5 -20.5 l0 -385 q0 -10 -7 -16 q-7 -7 -16 -7 q-10 0 -17 7 q-7 6 -7 16 l0 385 q0 12 -8.5 20.5 q-8.5 8.5 -20.5 8.5 l-88 0 q-10 0 -16 7 q-7 6 -7 16 q0 10 7 17 q6 6 16 6 l95 0 q9 0 15.5 6.5 q6.5 6.5 6.5 15.5 l0 22 q0 30 10 57 q9 27 25 47 q17 22 40 35 q23 12 49 12 l67 0 Z" /><glyph glyph-name="g" unicode="g" d="M253 494 q41 0 76 -15 q27 -12 50 -34 q3 -3 8 -1 q5 2 5 7 l1 20 q0 10 7 17 q6 6 16 6 q10 0 17 -6 q6 -7 6 -17 l0 -443 q0 -46 -15 -81 q-16 -35 -42 -60 q-14 -14 -31 -24 q-17 -10 -36 -18 q-39 -14 -79 -14 q-47 0 -93 18 q-46 19 -82 57 q-7 7 -7 16 q0 9 6 14 l4 4 q6 5 14 5 q9 0 16 -7 q29 -31 67 -46 q37 -14 75 -14 q35 0 63 11 q14 5 27 12 q13 8 24 19 q20 19 32 46 q11 27 11 62 l0 97 l-3 -4 q-26 -30 -61 -45 q-35 -16 -76 -16 q-85 0 -138 61 q-23 28 -36 67 q-13 38 -13 89 q0 51 13 90 q13 39 36 66 q26 31 61 46 q35 15 77 15 ZM355 403 q-19 23 -45 34 q-27 11 -57 11 q-64 0 -103 -45 q-17 -21 -27 -52 q-11 -32 -11 -74 q0 -42 11 -73 q10 -32 27 -53 q20 -23 46 -33 q26 -11 57 -11 q30 0 57 11 q26 10 45 33 q17 21 28 53 q10 31 10 73 q0 42 -10 74 q-11 31 -28 52 Z" /><glyph glyph-name="h" unicode="h" d="M141 485 l134 0 q31 0 59 -12 q27 -12 47 -32 q20 -20 32 -47 q12 -28 12 -59 l0 -310 q0 -10 -6 -16 q-7 -7 -17 -7 q-10 0 -16 7 q-7 6 -7 16 l0 310 q0 21 -8 40 q-9 19 -23 33 q-14 14 -33 23 q-19 8 -40 8 l-134 0 q-12 0 -20.5 -8.5 q-8.5 -8.5 -8.5 -20.5 l0 -385 q0 -10 -6 -16 q-7 -7 -17 -7 q-10 0 -16 7 q-7 6 -7 16 l0 632 q0 9 7 16 q6 7 16 7 q10 0 17 -7 q6 -7 6 -16 l0 -143 q0 -12 8.5 -20.5 q8.5 -8.5 20.5 -8.5 Z" /><glyph glyph-name="i" unicode="i" d="M121 24 q0 -10 -7 -16 q-7 -7 -16 -7 q-10 0 -17 7 q-7 6 -7 16 l0 436 q0 10 7 17 q7 7 17 7 q9 0 16 -7 q7 -7 7 -17 l0 -436 ZM121 608 q0 -10 -7 -16 q-7 -7 -16 -7 q-10 0 -17 7 q-7 6 -7 16 l0 47 q0 10 7 17 q7 6 17 6 q9 0 16 -6 q7 -7 7 -17 l0 -47 Z" /><glyph glyph-name="j" unicode="j" d="M158 611 q0 -10 -7 -16 q-7 -7 -17 -7 q-10 0 -16 7 q-7 6 -7 16 l0 48 q0 10 7 17 q6 7 16 7 q10 0 17 -7 q7 -7 7 -17 l0 -48 ZM-18 -193 q-10 0 -17 7 q-7 7 -7 17 q0 10 7 17 q7 7 17 7 l22 0 q23 0 42 8 q19 9 33 23 q32 30 32 75 l0 499 q0 10 7 17 q6 7 16 7 q10 0 17 -7 q7 -7 7 -17 l0 -499 q0 -32 -12 -60 q-12 -28 -33 -49 q-21 -20 -49 -33 q-28 -12 -60 -12 l-22 0 Z" /><glyph glyph-name="k" unicode="k" d="M338 480 q8 6 18 5 q9 -2 15 -10 q5 -8 4 -17 q-1 -9 -9 -15 l-211 -160 q-12 -9 -12 -23 q0 -14 12 -23 l243 -190 q8 -6 9 -15 q1 -10 -5 -18 q-6 -8 -15 -9 q-10 -1 -18 5 l-212 166 q-15 12 -31 4.5 q-16 -7.5 -16 -27.5 l0 -128 q0 -10 -6 -17 q-7 -7 -17 -7 q-10 0 -16 7 q-7 7 -7 17 l0 631 q0 10 7 17 q6 6 16 6 q10 0 17 -6 q6 -7 6 -17 l0 -291 q0 -19 15.5 -26.5 q15.5 -7.5 31.5 3.5 l181 138 Z" /><glyph glyph-name="l" unicode="l" d="M120 22 q0 -10 -7 -16 q-7 -7 -16 -7 q-10 0 -17 7 q-7 6 -7 16 l0 631 q0 10 7 17 q7 7 17 7 q9 0 16 -7 q7 -7 7 -17 l0 -631 Z" /><glyph glyph-name="m" unicode="m" d="M374 435 q13 13 29 23 q21 13 45 21 q35 12 73 10 q38 -2 70 -19 q28 -16 45 -43 q17 -27 17 -68 l0 -333 q0 -10 -6 -16 q-7 -7 -17 -7 q-10 0 -16 7 q-7 6 -7 16 l0 333 q0 26 -10 44 q-11 17 -28 27 q-21 11 -50 13 q-27 1 -57 -8 q-29 -9 -51 -29 q-21 -18 -29 -45 q0 0 -0.5 -3.5 q-0.5 -3.5 -0.5 -3.5 l0 -328 q0 -10 -6 -16 q-7 -7 -17 -7 q-9 0 -16 7 q-7 6 -7 16 l0 333 q0 26 -9 44 q-10 18 -26 29 q-21 13 -50 16 q-30 3 -57 -6 q-26 -8 -47 -25 q-19 -16 -28 -40 q0 0 -0.5 -4 q-0.5 -4 -0.5 -4 l0 -343 q0 -10 -6 -16 q-7 -7 -17 -7 q-10 0 -16 7 q-7 6 -7 16 l0 437 q0 10 7 17 q6 6 16 6 q10 0 17 -6 q6 -7 6 -17 l0 -5 q0 -6 3 -3 q25 21 59 31 q38 11 75 8 q20 -2 38 -7 q17 -6 33 -17 q21 -14 35 -34 q6 -9 14 -1 Z" /><glyph glyph-name="n" unicode="n" d="M119 450 q15 11 32 20 q20 9 42 15 q23 6 47 8 q23 2 46 -1 q49 -5 84 -28 q26 -17 42 -43 q15 -27 15 -63 l0 -333 q0 -10 -6 -16 q-7 -7 -17 -7 q-10 0 -16 7 q-7 6 -7 16 l0 333 q0 23 -9 40 q-10 17 -27 28 q-28 17 -64 20 q-38 5 -76 -6 q-32 -8 -57 -25 q-23 -17 -32 -40 q-1 -1 -1.5 -4.5 q-0.5 -3.5 -0.5 -4.5 l0 -341 q0 -10 -6 -16 q-7 -7 -17 -7 q-10 0 -16 7 q-7 6 -7 16 l0 437 q0 10 7 17 q6 6 16 6 q10 0 17 -6 q6 -7 6 -17 l0 -8 q0 -8 5 -4 Z" /><glyph glyph-name="o" unicode="o" d="M271 484 q45 0 85 -16 q39 -17 68 -52 q26 -30 41 -73 q14 -43 14 -100 q0 -57 -14 -100 q-15 -44 -41 -74 q-29 -35 -68 -51 q-40 -17 -85 -17 q-45 0 -84 17 q-40 16 -69 51 q-26 30 -40 74 q-15 43 -15 100 q0 57 15 100 q14 43 40 73 q29 35 69 52 q39 16 84 16 ZM388 387 q-44 51 -117 51 q-35 0 -65 -12 q-31 -13 -53 -39 q-20 -25 -32 -60 q-12 -36 -12 -84 q0 -49 12 -84 q12 -36 32 -61 q22 -26 53 -38 q30 -13 65 -13 q73 0 117 51 q21 25 33 61 q11 35 11 84 q0 48 -11 84 q-12 35 -33 60 Z" /><glyph glyph-name="p" unicode="p" d="M142 63 l89 0 q34 0 63 15 q28 14 49 39 q23 27 36 63 q12 36 12 78 q0 42 -12 78 q-13 36 -36 62 q-21 26 -49 41 q-29 14 -63 14 l-70 0 q0 0 -2 0 q-2 0 -2 0 l-12 -2 q0 0 -3.5 -1.5 q-3.5 -1.5 -4.5 -1.5 l-2 -2 l-3 -1 l-2 -2 q-1 -1 -3.5 -3.5 q-2.5 -2.5 -3.5 -3.5 l-2 -2 l-1 -3 l-2 -2 q0 -1 -1.5 -4.5 q-1.5 -3.5 -1.5 -3.5 l-2 -12 q0 0 0 -2 q0 -2 0 -2 l0 -313 q0 -12 8.5 -20.5 q8.5 -8.5 20.5 -8.5 ZM113 -13 l0 -142 q0 -10 -7 -17 q-7 -6 -17 -6 q-9 0 -16 6 q-7 7 -7 17 l0 562 q0 16 7 35 q7 16 21 30 q12 13 30 21 q15 6 35 6 l72 0 q45 0 83 -19 q37 -19 65 -52 q28 -33 44 -76 q15 -44 15 -94 q0 -50 -15 -94 q-16 -44 -44 -76 q-28 -33 -65 -52 q-38 -19 -83 -19 l-89 -1 q-12 0 -20.5 -8.5 q-8.5 -8.5 -8.5 -20.5 Z" /><glyph glyph-name="q" unicode="q" d="M337 16 l-90 1 q-45 0 -82 19 q-38 19 -66 52 q-27 32 -42 76 q-16 44 -16 94 q0 50 16 94 q15 43 42 76 q28 33 66 52 q37 19 82 19 l72 0 q18 0 34 -5 q0 0 2 -1 q2 -1 2 -1 q15 -8 28 -20 q14 -14 20 -30 q7 -15 7 -35 l0 -562 q0 -10 -6 -17 q-7 -6 -17 -6 q-10 0 -16 6 q-7 7 -7 17 l0 142 q0 12 -8.5 20.5 q-8.5 8.5 -20.5 8.5 ZM366 92 l0 313 q0 0 0 2 q0 2 0 2 l-2 12 q0 0 -1.5 3.5 q-1.5 3.5 -1.5 4.5 l-1 1 q-1 2 -3 4 l-2 3 q-1 0 -3.5 2.5 q-2.5 2.5 -2.5 2.5 l-7 5 q-1 0 -5.5 2 q-4.5 2 -5.5 2 l-10 2 q0 0 -2 0 q-2 0 -2 0 l-70 0 q-33 0 -62 -14 q-29 -15 -50 -41 q-23 -26 -35 -62 q-13 -36 -13 -78 q0 -42 13 -78 q12 -36 35 -63 q21 -25 50 -39 q29 -15 62 -15 l90 0 q12 0 20.5 8.5 q8.5 8.5 8.5 20.5 Z" /><glyph glyph-name="r" unicode="r" d="M114 399 l4 5 q0 0 1.5 1.5 q1.5 1.5 1.5 2.5 l11 10 q29 27 68 43 q38 15 81 17 q9 0 16 -6 q6 -6 7 -15 l0 -4 q0 -8 -5 -14 q-7 -7 -17 -7 q-35 -1 -65 -13 q-30 -13 -54 -35 q-23 -20 -37 -48 q-13 -28 -18 -60 l0 -254 q0 -9 -6 -16 q-7 -7 -17 -7 q-10 0 -16 7 q-7 7 -7 16 l0 437 q0 10 7 17 q6 6 16 6 q10 0 17 -6 q6 -7 6 -17 l0 -58 q0 -2 2 -3 q2 -1 4 1 Z" /><glyph glyph-name="s" unicode="s" d="M375 448 q8 -5 10 -14 q2 -10 -3 -18 q-5 -8 -14 -10 q-10 -2 -18 3 q-28 17 -62 29 q-35 11 -69 13 q-18 1 -35 -1 q-17 -2 -32 -7 q-13 -5 -23 -13 q-11 -8 -18 -19 q-11 -16 -13 -43 q-1 -28 29 -50 q17 -13 39 -22 q22 -10 48 -18 q32 -11 64 -23 q31 -12 56 -28 q28 -18 45 -42 q16 -25 14 -57 q-1 -37 -21 -66 q-13 -19 -31 -31 q-19 -13 -42 -20 q-20 -8 -43 -10 q-24 -3 -49 -1 q-42 2 -83 16 q-42 13 -73 34 q-8 6 -9 15 q-2 9 3 17 q6 8 16 10 q9 1 17 -4 q26 -17 61 -28 q34 -12 71 -14 q20 -1 39 1 q19 2 36 8 q33 9 49 33 q12 18 13 42 q2 18 -9 33 q-11 14 -29 25 q-22 14 -50 25 q-29 11 -59 21 q-29 9 -55 21 q-26 11 -46 26 q-23 17 -36 39 q-13 21 -11 50 q1 38 19 65 q12 19 29 31 q17 12 37 20 q19 7 41 10 q21 2 44 1 q40 -2 80 -15 q40 -14 73 -34 Z" /><glyph glyph-name="t" unicode="t" d="M315 47 q10 0 17 -7 q7 -7 7 -17 q0 -10 -7 -16 q-7 -7 -17 -7 l-45 0 q-53 0 -84 37 q-30 34 -30 94 l0 285 q0 12 -8.5 20.5 q-8.5 8.5 -20.5 8.5 l-60 0 q-11 0 -17 7 q-7 7 -7 17 q0 10 7 17 q6 7 17 7 l60 0 q12 0 20.5 8.5 q8.5 8.5 8.5 20.5 l0 93 q0 10 7 17 q6 6 16 6 q10 0 17 -6 q7 -7 7 -17 l0 -93 q0 -12 8.5 -20.5 q8.5 -8.5 20.5 -8.5 l82 0 q10 0 17 -7 q7 -7 7 -17 q0 -10 -7 -17 q-7 -7 -17 -7 l-82 0 q-12 0 -20.5 -8.5 q-8.5 -8.5 -8.5 -20.5 l0 -285 q0 -40 19 -64 q17 -20 48 -20 l45 0 Z" /><glyph glyph-name="u" unicode="u" d="M393 467 q0 10 7 17 q6 6 16 6 q10 0 17 -6 q6 -7 6 -17 l0 -450 q0 -10 -6 -16 q-7 -7 -17 -7 q-10 0 -16 7 q-7 6 -7 16 l0 15 q0 5 -4.5 7 q-4.5 2 -8.5 -1 q-31 -20 -71 -31 q-24 -6 -49 -8 q-25 -1 -49 1 q-25 3 -47 10 q-23 7 -41 20 q-26 17 -41 43 q-16 26 -16 62 l0 332 q0 10 7 17 q7 6 16 6 q10 0 17 -6 q6 -7 6 -17 l0 -332 q0 -23 10 -39 q10 -17 26 -28 q27 -17 68 -22 q42 -5 81 6 q34 8 60 26 q24 16 34 39 q1 1 1.5 4.5 q0.5 3.5 0.5 4.5 l0 341 Z" /><glyph glyph-name="v" unicode="v" d="M53 455 q-2 9 3 18 q3 7 11 10 q2 1 4 1 q8 1 16 -2 q8 -5 11 -14 l121 -405 q0 0 1.5 -3.5 q1.5 -3.5 1.5 -4.5 l2 -2 q2 -4 5 -5 q5 -2 12 -2 q9 0 13 3 q1 1 2 2 l3 4 q0 0 2 4 q2 4 3 5 l120 404 q3 9 12 14 q7 3 15 2 q2 0 4 -1 q8 -3 12 -10 q4 -9 2 -18 l-123 -409 q-5 -21 -24 -34 q-17 -13 -41 -13 q-24 0 -41 13 q-18 13 -25 34 l-122 409 Z" /><glyph glyph-name="w" unicode="w" d="M57 463 q-2 10 4 18 q5 8 14 10 q10 2 18 -3 q8 -6 10 -15 l85 -415 q1 -3 3 -5 q1 -3 5 -4 q3 -2 7 -1 l4 1 l3 3 l94 280 q8 20 23 29 q15 9 32 9 q17 0 31 -9 q17 -9 23 -29 l95 -279 q2 -4 6 -5 q4 -1 8 1 q3 1 5 4 q2 2 3 5 l84 415 q2 9 10 15 q8 5 18 3 q10 -2 15 -10 q5 -8 3 -18 l-85 -417 q-4 -19 -19 -32 q-13 -10 -31 -14 q0 0 -2 0 q-2 0 -3 0 q-15 0 -33 8 q-18 9 -24 29 l-94 280 l-3 4 l-3 1 q-4 1 -7 0 l-4 -1 l-3 -4 l-94 -280 q-3 -9 -8 -15 q-1 -2 -3 -3 l-12 -10 q0 0 -1.5 -1 q-1.5 -1 -1.5 -1 q-15 -9 -33 -7 q-18 3 -33 13 q-2 1 -4 3 q-13 12 -16 30 l-86 417 Z" /><glyph glyph-name="x" unicode="x" d="M390 488 q5 8 15 9 q10 1 18 -4 q8 -6 9 -15 q1 -10 -5 -18 l-137 -184 q-5 -7 -5 -17 q0 -10 5 -17 l151 -202 q6 -8 5 -18 q-1 -10 -9 -15 q-8 -6 -17 -5 q-10 1 -16 9 l-134 178 q-9 12 -23 12 q-14 0 -23 -12 l-133 -178 q-6 -8 -15 -9 q-10 -1 -18 5 q-8 5 -9 15 q-2 10 4 18 l152 202 q5 7 5 17 q0 10 -5 17 l-138 184 q-6 8 -4 18 q1 9 9 15 q8 5 18 4 q9 -1 15 -9 l119 -159 q9 -12 23 -12 q14 0 23 12 l120 159 Z" /><glyph glyph-name="y" unicode="y" d="M388 480 q3 9 12 13 q8 4 16 1 l4 -2 q7 -3 11 -10 q4 -9 0 -18 l-153 -408 l-52 -138 q-12 -32 -33 -52 q-21 -19 -47 -29 q-23 -9 -48 -12 q-25 -2 -48 -1 q-9 1 -15 8 q-6 6 -7 14 q0 2 0 4 q2 9 8 14 q6 7 16 6 q19 -1 39 1 q20 2 39 9 q17 7 31 19 q14 13 22 35 l44 118 q1 3 0.5 11 q-0.5 8 -1.5 11 l-177 388 q-5 9 -1 18 q3 9 12 13 q9 4 18 1 q8 -4 13 -13 l134 -294 q9 -18 27.5 -17.5 q18.5 0.5 26.5 19.5 l109 291 Z" /><glyph glyph-name="z" unicode="z" d="M402 48 q10 0 17 -6 q6 -7 6 -17 q0 -10 -6 -17 q-7 -7 -17 -7 l-294 0 q-16 0 -28 5 q-12 4 -20 12 q-10 11 -15 22 q-4 11 -4 24 q0 24 16 43 l294 314 q2 2 3 5 q1 3 0 7 q-1 3 -3 6 q-2 4 -6 5 l-6 2 q0 0 -4 0.5 q-4 0.5 -5 0.5 l-252 0 q-10 0 -17 7 q-7 6 -7 17 q0 10 7 17 q7 6 17 6 l257 0 q26 0 45 -16 q10 -10 16 -21 q1 -2 2 -4 q4 -14 4 -24 q0 -23 -15 -39 l-291 -311 q-1 0 -3.5 -4.5 q-2.5 -4.5 -2.5 -5.5 q-2 -5 0 -10 q1 -5 4 -7 q6 -4 14 -4 l294 0 Z" /><glyph glyph-name="braceleft" unicode="{" d="M243 738 q10 0 17 -6 q6 -7 6 -17 q0 -10 -6 -16 q-7 -7 -17 -7 l-14 0 q-28 0 -45 -7 q-17 -7 -27 -21 q-11 -14 -15 -34 q-4 -20 -4 -44 l0 -146 l-1 -26 q-2 -16 -10 -35 q-6 -14 -16 -30 q-8 -12 -19 -23 q-3 -3 -3 -8.5 q0 -5.5 3 -8.5 q24 -26 35 -53 q8 -18 10 -33 l1 -27 l0 -146 q0 -24 4 -44 q4 -21 15 -35 q10 -13 27 -21 q17 -7 45 -7 l14 0 q10 0 17 -7 q6 -6 6 -16 q0 -9 -6 -16 q-7 -7 -17 -7 l-14 0 q-40 0 -66 12 q-27 13 -43 35 q-16 21 -22 48 q-6 27 -6 58 l0 146 l-1 16 q-1 3 -1 6 l-6 20 l-1 3 q-5 12 -15 26 q-10 13 -28 26 q0 1 -2 3 q-2 2 -2 2 l-3 3 q0 0 -2 4 q-2 4 -3 5 l0 2 q0 1 0 6 q0 5 0 8 q1 1 3 5 q2 4 2 4 l3 3 q0 0 2 2 q2 2 2 3 q18 13 28 26 q11 14 16 28 l6 21 q0 3 1 6 l1 16 l0 146 q0 31 6 58 q6 27 22 48 q16 22 43 34 q26 12 66 12 l14 0 Z" /><glyph glyph-name="braceright" unicode="}" d="M74 738 q40 0 67 -12 q26 -12 42 -34 q16 -21 22 -48 q6 -27 6 -58 l0 -146 l1 -16 q0 -3 1 -6 l6 -21 q5 -14 16 -28 q10 -13 28 -26 q0 -1 2 -3 q2 -2 2 -2 l3 -3 q0 0 2 -4 q2 -4 3 -6 q0 -2 0 -7 q0 -5 0 -6 l0 -2 q-1 -1 -3 -5 q-2 -4 -2 -4 l-3 -3 q0 0 -2 -2 q-2 -2 -2 -3 q-18 -13 -28 -26 q-10 -14 -15 -26 l-1 -3 l-6 -20 q-1 -3 -1 -6 l-1 -16 l0 -146 q0 -31 -6 -58 q-6 -27 -22 -48 q-16 -22 -42 -35 q-27 -12 -67 -12 l-14 0 q-10 0 -16 7 q-7 7 -7 16 q0 10 7 16 q6 7 16 7 l14 0 q28 0 45 7 q17 8 27 21 q11 14 15 35 q4 20 4 44 l0 146 l2 27 q1 15 9 33 q11 27 35 53 q3 3 3 8.5 q0 5.5 -3 8.5 q-11 11 -18 23 q-11 16 -17 30 q-8 19 -9 35 l-2 26 l0 146 q0 24 -4 44 q-4 20 -15 34 q-10 14 -27 21 q-17 7 -45 7 l-14 0 q-10 0 -16 7 q-7 6 -7 16 q0 10 7 17 q6 6 16 6 l14 0 Z" /><glyph glyph-name="uni4E00" unicode="&#x4e00;" d="M83 379 q-10 0 -16 7 q-7 6 -7 16 q0 10 7 17 q6 6 16 6 l833 0 q10 0 17 -6 q6 -7 6 -17 q0 -10 -6 -16 q-7 -7 -17 -7 l-833 0 Z" /><glyph glyph-name="uni4E0B" unicode="&#x4e0b;" d="M476 -50 q0 -9 -6 -16 q-7 -7 -17 -7 q-10 0 -16 7 q-7 7 -7 16 l0 753 q0 12 -8.5 20.5 q-8.5 8.5 -20.5 8.5 l-308 0 q-10 0 -16 7 q-7 6 -7 16 q0 10 7 17 q6 6 16 6 l813 0 q10 0 17 -6 q6 -7 6 -17 q0 -10 -6 -16 q-7 -7 -17 -7 l-401 0 q-12 0 -20.5 -8.5 q-8.5 -8.5 -8.5 -20.5 l0 -121 q0 -11 8 -19.5 q8 -8.5 19 -10.5 q51 -6 89 -21 q46 -19 78 -47 q31 -28 52 -61 q20 -34 38 -68 q20 -38 43 -71 q22 -33 61 -49 q9 -3 13 -12 q3 -8 2 -16 q-1 -2 -2 -4 q-4 -6 -11 -10 q-9 -4 -18 -1 q-26 10 -45 25 q-19 15 -34 34 q-15 19 -26 40 l-24 43 q-15 29 -33 59 q-18 29 -45 54 q-27 24 -66 41 q-30 12 -71 18 q-13 2 -20.5 -6 q-7.5 -8 -7.5 -21 l0 -529 Z" /><glyph glyph-name="uni4F60" unicode="&#x4f60;" d="M614 546 q0 10 7 17 q6 7 16 7 q10 0 17 -7 q7 -7 7 -17 l0 -485 q0 -37 -15 -61 q-16 -24 -42 -38 q-23 -14 -50 -20 q-27 -5 -54 -7 q-10 -1 -17 5 q-7 6 -8 15 l0 4 q0 9 6 15 q6 7 16 8 q23 2 45 6 q22 4 39 14 q14 9 24 23 q9 14 9 36 l0 485 ZM941 55 q6 -8 5 -17 q-2 -10 -10 -16 q-8 -5 -17 -4 q-10 1 -16 9 q-39 53 -62 95 q-23 42 -37 86 q-14 43 -20 94 q-7 50 -11 118 q-1 10 6 17 q5 6 14 8 q2 0 4 0 q9 -1 15 -6 q7 -6 8 -16 q5 -66 11 -113 q5 -47 18 -88 q12 -40 34 -78 q22 -39 58 -89 ZM366 27 q-5 -8 -15 -9 q-10 -1 -18 4 q-8 6 -9 16 q-1 9 4 17 q37 50 59 89 q21 38 34 78 q12 41 18 88 q6 47 11 113 q0 10 8 16 q6 5 15 6 q2 0 4 0 q9 -2 14 -8 q6 -7 6 -17 q-5 -69 -11 -118 q-6 -50 -20 -94 q-14 -44 -37 -86 q-24 -42 -63 -95 ZM391 525 q-2 -10 -9 -16 q-8 -6 -17 -5 q-10 2 -16 10 q-7 7 -5 17 q6 45 22 75 q15 29 34 56 q19 27 36 60 q17 32 21 87 q1 10 8 17 q7 6 17 5 q10 -1 17 -8 q6 -7 5 -17 q-2 -35 -9 -61 q-6 -20 -14 -37 q-1 -4 1 -7 q2 -3 7 -3 l375 0 q12 0 25 -5 q17 -8 30 -23 q1 -2 2 -5 l8 -16 q3 -10 3 -21 q0 -16 -7 -31 l-32 -78 q-4 -9 -13 -13 q-9 -4 -18 0 q-9 4 -13 13 q-4 9 0 18 l32 76 q1 3 2 6 l0 3 q1 1 0.5 6 q-0.5 5 -1.5 7 q0 1 -3 5.5 q-3 4.5 -4 4.5 l-4 4 q-2 1 -4 2 l-412 0 q-5 0 -8 -4 l-2 -4 l-6 -8 q-16 -23 -29 -48 q-14 -25 -19 -62 ZM244 832 q6 8 16 10 q9 1 17 -5 q8 -6 9 -15 q1 -10 -5 -18 l-188 -248 q-6 -8 -8 -16 q0 -1 0 -4.5 q0 -3.5 0 -4.5 l0 -3 q1 -4 4 -7 q2 -4 6 -5 l5 -2 q3 -1 6 -1 l43 -5 q36 -5 56 -33 q11 -14 17 -30 q6 -17 6 -35 l0 -469 q0 -10 -7 -17 q-7 -7 -17 -7 q-10 0 -16 7 q-7 7 -7 17 l-1 469 q0 21 -12 36 q-10 13 -24 15 l-46 5 q-19 1 -35 14 q-12 9 -20 24 q-1 2 -2 4 q-5 17 -4 32 q3 24 19 44 l188 248 Z" /><glyph glyph-name="uni53CB" unicode="&#x53cb;" d="M737 482 q21 0 38 -6 q16 -6 28 -16 q11 -10 18 -22 q7 -13 11 -27 q6 -26 -1 -54 q-10 -40 -40 -61 q-38 -25 -76 -46 q-35 -20 -70 -39 q-6 -3 1 -7 l7 -4 l13 -9 q72 -48 137 -100 q65 -53 134 -111 q8 -7 9 -16 q0 -9 -6 -17 q-7 -8 -16 -9 q-9 0 -17 6 q-68 58 -132 110 q-65 52 -135 98 l-23 16 l-13 7 q-4 3 -12 3.5 q-8 0.5 -13 -2.5 q-37 -20 -73 -40 q-44 -25 -87 -54 q-44 -29 -87 -63 q-44 -35 -89 -79 q-7 -7 -16 -7 q-10 0 -17 7 q-6 7 -6 16 q0 10 7 17 q43 42 86 76 q42 34 84 63 q41 28 83 52 q31 18 61 35 q8 4 8 11.5 q0 7.5 -8 10.5 q-41 23 -86 44 q-56 25 -122 48 q-9 3 -13 12 q-4 7 -2 15 q1 2 2 4 q4 8 12 11 q8 4 17 1 q75 -26 139 -56 q56 -26 107 -56 q5 -2 15 -2.5 q10 -0.5 15 2.5 q35 19 71 39 q42 24 86 52 q15 11 20 33 q4 14 1 30 q0 2 -1 4 q-4 12 -10 20 q-1 1 -3.5 3 q-2.5 2 -3.5 2 l-9 5 q-2 1 -4 2 q-8 2 -19 2 l-428 0 q-5 0 -11.5 -4 q-6.5 -4 -8.5 -9 q-9 -19 -19 -37 l-26 -50 l-40 -77 q-21 -39 -39 -82 q-19 -44 -35 -92 q-17 -49 -30 -106 q-2 -9 -10 -14 q-8 -5 -18 -3 q-9 2 -14 10 q-5 8 -3 17 q13 59 30 110 q17 50 37 95 q19 44 40 85 q20 40 41 79 q36 68 70 138 q26 56 46 124 q5 15 -3.5 25 q-8.5 10 -23.5 10 l-205 0 q-10 0 -17 7 q-7 6 -7 16 q0 10 7 17 q7 6 17 6 l229 0 q10 0 18.5 7 q8.5 7 9.5 17 l6 27 q4 25 7 53 q1 10 9 16 q6 5 14 4 l4 0 q9 -2 14 -8 q6 -8 5 -17 l-7 -51 l-4 -24 q-2 -10 3.5 -17 q5.5 -7 15.5 -7 l516 0 q10 0 17 -6 q6 -7 6 -17 q0 -10 -6 -16 q-7 -7 -17 -7 l-527 0 q-9 0 -17.5 -6.5 q-8.5 -6.5 -11.5 -15.5 q-9 -37 -21 -69 q-12 -33 -25 -63 q-3 -8 1 -13.5 q4 -5.5 12 -5.5 l399 0 Z" /><glyph glyph-name="uni5C0F" unicode="&#x5c0f;" d="M948 169 q5 -8 4 -17 q-2 -10 -10 -15 q-8 -6 -18 -4 q-10 1 -15 9 q-39 57 -70 110 q-31 52 -54 109 q-23 57 -37 119 q-15 62 -22 136 q-1 10 5 17 q5 6 14 8 l4 0 q9 1 16 -4 q7 -7 8 -17 q6 -70 20 -128 q14 -59 36 -113 q22 -54 52 -105 q29 -51 67 -105 ZM107 142 q-5 -8 -15 -9 q-10 -2 -18 4 q-8 5 -9 15 q-2 9 3 17 q38 54 68 105 q29 51 51 105 q22 54 36 113 q14 58 20 128 q0 0 1 2 q2 9 8 15 q6 5 15 4 l4 0 q9 -2 14 -8 q6 -7 5 -17 q-7 -74 -21 -136 q-15 -62 -38 -119 q-23 -57 -54 -109 q-31 -53 -70 -110 ZM324 -64 q-10 -2 -17 4 q-8 6 -10 16 q-2 9 4 17 q5 8 15 10 l114 18 q22 3 34 16 l2 4 q12 12 12 32 l0 767 q0 10 7 17 q6 7 16 7 q10 0 17 -7 q7 -7 7 -17 l0 -767 q0 -39 -25 -66 q-24 -27 -63 -33 l-113 -18 Z" /><glyph glyph-name="uni6001" unicode="&#x6001;" d="M934 -9 q5 -8 4 -18 q-2 -9 -10 -14 q-8 -5 -17 -4 q-10 2 -15 10 q-22 32 -36 63 q-14 30 -25 62 q-9 32 -15 68 q-7 35 -13 79 q-1 9 5 17 q5 6 13 8 q2 1 4 1 q9 0 15 -5 q7 -6 9 -15 q6 -42 12 -76 q6 -34 15 -64 q16 -56 54 -112 ZM592 95 q6 -8 5 -17 q-1 -10 -9 -15 q-8 -6 -17 -5 q-10 1 -16 9 q-27 37 -41 80 q-15 42 -19 101 q-1 10 6 17 q6 7 15 8 q10 1 17 -5 q7 -7 8 -16 q2 -27 7 -49 q4 -22 10 -42 q12 -36 34 -66 ZM97 -36 q-6 -8 -15 -9 q-9 -1 -17 5 q-8 5 -9 14 q-1 10 4 18 q41 55 60 113 q10 30 15 64 q5 33 5 71 q0 10 7 17 q7 6 16 6 q10 0 17 -7 q6 -7 6 -16 q0 -84 -22 -150 q-22 -66 -67 -126 ZM749 -29 q8 -5 10 -15 q2 -9 -3 -17 q-5 -8 -14 -10 q-10 -2 -18 3 q-17 11 -41 16 l-21 3 l-3 0 l-21 1 l-229 0 q-44 0 -74 27 q-30 28 -30 71 l0 187 q0 9 7 16 q6 7 16 7 q10 0 17 -7 q6 -7 6 -16 l0 -187 q0 -22 15 -37 q16 -15 43 -15 l229 0 l25 -1 l4 0 l26 -4 q31 -6 56 -22 ZM561 366 q6 -5 10 -12 q3 -8 0 -16 q-1 -2 -2 -4 q-5 -6 -12 -9 q-9 -4 -18 0 q-21 10 -36 21 q-16 10 -29 23 q-13 13 -23 28 l-20 32 q-5 8 -2 17 q3 9 11 14 q8 5 17 2 q9 -3 14 -11 q16 -30 34 -48 l2 -2 l23 -17 q11 -8 27 -16 q2 -1 4 -2 ZM524 566 q-7 7 -7 17 q0 9 8 16 q7 7 17 7 q9 -1 15 -8 q43 -45 86 -82 q42 -37 88 -67 q45 -30 94 -55 q49 -25 105 -47 q9 -4 13 -12 q3 -8 2 -16 q-1 -2 -2 -4 q-4 -7 -11 -11 q-9 -4 -18 0 q-59 23 -110 49 q-51 26 -99 58 q-48 32 -92 70 q-44 37 -89 85 ZM476 811 q0 9 7 16 q7 7 16 7 q10 0 17 -7 q6 -7 6 -16 l0 -68 q0 -12 8.5 -20.5 q8.5 -8.5 20.5 -8.5 l348 0 q10 0 17 -7 q6 -7 6 -16 q0 -10 -6 -16 q-7 -7 -17 -7 l-359 0 q-6 0 -12 -6 q-6 -6 -7 -12 q-4 -27 -20 -54 q-22 -35 -57 -68 q-36 -34 -81 -65 q-45 -32 -92 -60 q-48 -28 -94 -52 l-83 -43 l-5 -2 l-4 -2 q-7 -4 -15 0 q-9 3 -14 11 q-5 8 -1 17 q3 9 11 14 l7 4 l78 40 q43 22 88 48 q45 25 88 54 q42 28 75 58 q33 29 54 59 q15 22 19 44 q2 14 -14 15 l-361 0 q-10 0 -17 7 q-7 6 -7 16 q0 9 7 16 q7 7 17 7 l347 0 q12 0 20.5 8.5 q8.5 8.5 8.5 20.5 l0 68 Z" /><glyph glyph-name="uni70B9" unicode="&#x70b9;" d="M831 556 q0 10 7 17 q7 7 17 7 q10 0 17 -7 q6 -7 6 -17 l0 -228 q0 -22 -8 -41 q-9 -20 -23 -34 q-14 -14 -33 -22 q-20 -9 -42 -9 l-542 0 q-22 0 -41 9 q-20 8 -34 22 q-14 14 -22 34 q-9 19 -9 41 l0 228 q0 10 7 17 q6 7 16 7 q10 0 17 -7 q7 -7 7 -17 l0 -11 q0 -12 12 -12 l232 0 q12 0 20.5 8.5 q8.5 8.5 8.5 20.5 l0 257 q0 10 7 17 q7 7 17 7 q10 0 17 -7 q6 -7 6 -17 l0 -57 q0 -12 8.5 -20.5 q8.5 -8.5 20.5 -8.5 l391 0 q10 0 17 -7 q7 -7 7 -17 q0 -10 -7 -17 q-7 -7 -17 -7 l-391 0 q-12 0 -20.5 -8.5 q-8.5 -8.5 -8.5 -20.5 l0 -94 q0 -12 8.5 -20.5 q8.5 -8.5 20.5 -8.5 l300 0 q11 0 11 12 l0 11 ZM93 -55 q-7 -8 -16 -9 q-9 0 -17 7 q-8 7 -8 16 q0 10 6 17 l150 166 q7 7 17 8 q9 0 17 -7 q7 -7 8 -16 q0 -10 -7 -17 l-150 -165 ZM922 -16 q7 -7 7 -17 q-1 -9 -8 -16 q-8 -7 -17 -7 q-10 1 -17 9 l-110 122 l-5 5 l-5 4 q-20 18 -39 18 q-19 0 -40 -18 l-8 -8 l-84 -93 l-7 -7 l-5 -4 q-32 -31 -71 -31 q-39 0 -71 31 l-11 10 l-2 2 l-113 125 q-7 8 -6 18 q0 8 6 13 l4 4 q6 5 15 5 q9 -1 16 -8 l114 -126 l5 -5 l3 -2 l3 -3 q18 -17 37 -17 q20 0 40 19 l8 8 l84 92 l4 5 l7 7 q34 30 72 30 q38 0 71 -30 l12 -12 l111 -123 ZM802 485 l-602 0 q-12 0 -20.5 -8.5 q-8.5 -8.5 -8.5 -20.5 l0 -128 q0 -12 5 -23 q4 -11 12 -19 q8 -8 19 -12 q11 -5 23 -5 l542 0 q12 0 23 5 q11 4 19 12 q17 17 17 42 l0 128 q0 12 -8.5 20.5 q-8.5 8.5 -20.5 8.5 Z" /><glyph glyph-name="uni7684" unicode="&#x7684;" d="M736 238 q6 -5 10 -13 q3 -8 -1 -15 l-2 -4 q-4 -7 -12 -10 q-9 -3 -18 1 q-64 31 -112 81 q-24 25 -44 55 q-19 29 -36 66 l-2 4 q-4 7 0 15 q3 9 12 13 q9 4 18 1 q7 -4 12 -10 q0 0 1 -2.5 q1 -2.5 1 -2.5 q29 -64 71 -107 q42 -42 100 -71 q0 0 1 -0.5 q1 -0.5 1 -0.5 ZM516 508 q-1 -9 -8 -15 q-7 -5 -16 -5 q-2 0 -4 1 q-8 2 -13 8 q-6 7 -5 17 q5 47 21 78 q16 31 34 60 l17 28 q14 25 25 56 q11 30 14 75 q0 10 7 17 q7 6 17 5 q10 -1 17 -8 q6 -7 5 -17 q-3 -38 -10 -66 q-5 -21 -13 -39 q-2 -4 0.5 -8 q2.5 -4 7.5 -4 l207 0 q22 0 41 -8 q19 -9 33 -23 q14 -14 22 -33 q8 -19 8 -40 l0 -530 q0 -20 -7 -37 q-7 -18 -19 -32 q-12 -14 -28 -23 q-17 -9 -37 -11 q-25 -3 -48 -3 l-3 0 l-54 -5 q-28 -3 -60 -16 q-9 -4 -18 0 q-9 4 -13 13 q-3 8 1 17 q3 9 12 13 q38 15 69 18 q31 4 62 6 q21 0 47 3 q21 2 36 18 q14 17 14 39 l0 530 q0 12 -4 23 q-5 10 -13 18 q-8 8 -18 13 q-11 4 -23 4 l-240 0 q-5 0 -7 -4 l-3 -5 l-5 -8 q-16 -26 -29 -52 q-14 -27 -19 -68 ZM218 697 l0 113 q0 10 7 17 q6 6 16 6 q10 0 17 -6 q6 -7 6 -17 l0 -113 q0 -12 8.5 -20.5 q8.5 -8.5 20.5 -8.5 l90 0 q8 0 8 9 l0 8 q0 10 7 17 q7 7 17 7 q9 0 16 -7 q7 -7 7 -17 l0 -632 q0 -22 -8 -41 q-9 -19 -23 -33 q-14 -14 -33 -23 q-19 -8 -40 -8 l-158 0 q-21 0 -40 8 q-19 9 -33 23 q-14 14 -22 33 q-9 19 -9 41 l0 632 q0 10 7 17 q7 7 16 7 q10 0 17 -7 q7 -7 7 -17 l0 -8 q0 -9 9 -9 l61 0 q12 0 20.5 8.5 q8.5 8.5 8.5 20.5 ZM148 337 l174 0 q10 0 17 -6 q6 -7 6 -17 q0 -10 -6 -16 q-7 -7 -17 -7 l-174 0 q-12 0 -20.5 -8.5 q-8.5 -8.5 -8.5 -20.5 l0 -209 q0 -25 15 -40 l4 -3 q14 -15 38 -15 l158 0 q24 0 38 15 l4 3 q15 15 15 40 l0 540 q0 12 -8.5 20.5 q-8.5 8.5 -20.5 8.5 l-214 0 q-12 0 -20.5 -8.5 q-8.5 -8.5 -8.5 -20.5 l0 -227 q0 -12 8.5 -20.5 q8.5 -8.5 20.5 -8.5 Z" /><glyph glyph-name="uni7AD9" unicode="&#x7ad9;" d="M871 391 q0 10 7 17 q7 6 16 6 q10 0 17 -6 q7 -7 7 -17 l0 -342 q0 -22 -8 -41 q-9 -19 -23 -33 q-14 -14 -33 -22 q-19 -8 -41 -8 l-232 0 q-22 0 -41 8 q-19 8 -33 22 q-30 30 -30 74 l0 342 q0 10 7 17 q6 6 16 6 q10 0 17 -6 q6 -7 6 -17 l0 -6 q0 -6 6 -6 l87 0 q12 0 20.5 8.5 q8.5 8.5 8.5 20.5 l0 403 q0 10 7 17 q7 7 17 7 q9 0 16 -7 q7 -7 7 -17 l0 -115 q0 -12 8.5 -20.5 q8.5 -8.5 20.5 -8.5 l210 0 q9 0 16 -6 q7 -7 7 -17 q0 -10 -7 -16 q-7 -7 -16 -7 l-210 0 q-12 0 -20.5 -8.5 q-8.5 -8.5 -8.5 -20.5 l0 -184 q0 -12 8.5 -20.5 q8.5 -8.5 20.5 -8.5 l144 0 q6 0 6 6 l0 6 ZM138 75 q-10 44 -17 89 q-9 53 -14 108 q-5 60 -8 122 q-3 61 -3 127 q0 10 7 17 q6 6 16 6 q10 0 17 -6 q6 -7 6 -17 q1 -65 4 -125 q2 -61 7 -119 q5 -56 14 -109 q8 -48 19 -95 q2 -11 13 -11 l11 0 q21 0 42 3 q6 0 11 5 q5 5 6 11 q11 49 20 98 q9 55 15 112 q12 113 9 230 q-1 9 6 16 q5 6 14 7 l4 0 q9 0 15 -5 q6 -7 7 -17 q3 -120 -9 -236 q-5 -54 -14 -106 q-8 -47 -19 -94 q-1 -4 2 -6 q3 -2 7 -1 l10 4 l2 1 l21 9 l3 2 q7 4 15 2 q9 -3 14 -11 q5 -8 2 -17 q-3 -10 -11 -15 q-24 -14 -46 -21 q-23 -8 -44 -11 q-21 -4 -41 -5 l-41 -1 q-29 0 -58 -2 q-29 -3 -61 -14 q-9 -3 -17 1 q-8 3 -11 11 l-2 4 q-2 8 2 16 q4 8 13 12 q17 6 34 10 l16 2 q6 1 10 6.5 q4 5.5 2 12.5 ZM204 716 l0 99 q0 9 7 16 q6 7 16 7 q10 0 17 -7 q6 -7 6 -16 l0 -99 q0 -12 8.5 -20.5 q8.5 -8.5 20.5 -8.5 l92 0 q10 0 17 -6 q6 -7 6 -17 q0 -10 -6 -16 q-7 -7 -17 -7 l-288 0 q-9 0 -16 7 q-7 6 -7 16 q0 10 7 17 q7 6 16 6 l92 0 q12 0 20.5 8.5 q8.5 8.5 8.5 20.5 ZM842 333 l-290 0 q-12 0 -20.5 -8.5 q-8.5 -8.5 -8.5 -20.5 l0 -255 q0 -24 17 -41 q17 -17 41 -17 l232 0 q12 0 23 4 q10 5 18 13 q17 17 17 41 l0 255 q0 12 -8.5 20.5 q-8.5 8.5 -20.5 8.5 Z" /><glyph glyph-name="uni7F51" unicode="&#x7f51;" d="M559 120 q-3 -9 -11 -13 q-9 -5 -18 -2 q-9 3 -13 12 q-4 9 -1 18 q23 65 52 113 q29 47 60 92 l16 23 l7 11 q3 5 3.5 12 q0.5 7 -1.5 12 q-22 42 -49 85 q-31 49 -73 100 q-6 8 -5 17 q1 9 9 15 q8 6 17 6 q9 -1 15 -9 q38 -47 68 -91 q23 -35 43 -71 q3 -6 9 -6 q6 0 10 6 q14 27 25 58 q14 41 22 93 q1 9 9 15 q7 6 17 4 q9 -1 15 -8 q6 -8 4 -18 q-9 -68 -30 -118 q-20 -49 -45 -93 q-1 -2 1 -6 l1 -3 q27 -59 47 -118 q20 -59 37 -123 q3 -9 -2 -17 q-4 -8 -12 -10 l-4 -2 q-8 -1 -15 3 q-9 5 -11 14 q-16 57 -33 111 q-17 49 -38 97 q-1 3 -3.5 3.5 q-2.5 0.5 -3.5 -1.5 l-12 -18 q-29 -42 -57 -87 q-29 -46 -50 -106 ZM482 133 q2 -9 -2 -17 q-4 -8 -12 -10 l-4 -2 q-8 -1 -15 3 q-9 5 -11 14 q-17 57 -34 111 q-16 49 -37 97 q-1 3 -3.5 3.5 q-2.5 0.5 -3.5 -1.5 l-4 -6 l-9 -12 q-29 -42 -57 -87 q-28 -46 -49 -106 q-3 -9 -11 -13 q-9 -5 -18 -2 q-9 3 -13 12 q-4 8 -2 16 l2 5 q22 63 51 110 q29 47 59 92 l16 23 l8 11 q3 5 3.5 12 q0.5 7 -1.5 12 q-22 42 -49 85 q-31 49 -73 100 q-6 8 -5 17 q0 9 8 15 q8 6 18 6 q9 -1 15 -9 q38 -47 67 -91 q23 -35 43 -71 q4 -6 10 -6.5 q6 -0.5 10 6.5 q14 27 25 58 q14 41 21 93 q2 9 10 15 q6 5 14 4 l4 0 q9 -2 14 -8 q6 -8 4 -18 q-9 -68 -30 -118 q-20 -47 -44 -89 q-3 -4 -1 -8 l2 -5 q27 -59 47 -118 q20 -59 37 -123 ZM152 -50 q0 -10 -6 -17 q-7 -7 -17 -7 q-10 0 -16 7 q-7 7 -7 17 l0 731 q0 22 8 41 q8 18 22 33 q14 14 33 22 q19 8 41 8 l577 0 q22 0 41 -8 q19 -8 34 -23 q14 -15 22 -33 q7 -19 7 -40 l0 -622 q0 -37 -24 -64 q-24 -27 -63 -33 l-31 -4 l-22 -4 l-22 -6 q-23 -6 -42 -18 q-8 -5 -17 -3 q-9 3 -14 11 q-5 8 -3 17 q2 10 10 15 q22 12 52 22 l25 7 l2 1 l24 4 l31 4 q22 3 36 18 q12 12 12 33 l0 622 q0 22 -16 41 q-18 17 -42 17 l-577 0 q-12 0 -22 -4 q-11 -5 -19 -13 q-8 -8 -12 -18 q-5 -11 -5 -23 l0 -731 Z" /><glyph glyph-name="uniFF1A" unicode="&#xff1a;" d="M231 88 q17 0 30 -12 q13 -13 13 -31 q0 -18 -13 -30 q-13 -13 -30 -13 q-18 0 -31 13 q-13 12 -13 30 q0 18 13 31 q13 12 31 12 ZM228 481 q18 0 31 -12 q12 -13 12 -31 q0 -18 -12 -31 q-13 -13 -31 -13 q-18 0 -30 13 q-13 13 -13 31 q0 18 13 31 q12 12 30 12 Z" /></font>
</defs>
</svg>
