<?xml version="1.0" standalone="no"?><!DOCTYPE svg PUBLIC "-//W3C//DTD SVG 1.1//EN" "http://www.w3.org/Graphics/SVG/1.1/DTD/svg11.dtd" ><svg xmlns="http://www.w3.org/2000/svg"><metadata></metadata><defs><font id="iekie jianyuanti" horiz-adv-x="256"><font-face font-family="iekie jianyuanti" font-weight="400" font-stretch="normal" units-per-em="256" panose-1="2 1 6 1 3 1 1 1 1 1" ascent="221" descent="-60" x-height="1" bbox="-23 -53 243 208" underline-thickness="12" underline-position="-48" unicode-range="U+0000-ff1a" /><missing-glyph horiz-adv-x="256"  /><glyph glyph-name="" unicode="!" d="M21 53 q-9 0 -9 8 l0 108 q0 9 9 9 q10 0 10 -9 l0 -108 q0 -8 -10 -8 ZM21 2 q-4 0 -7.5 3.5 q-3.5 3.5 -3.5 8.5 q0 3 3.5 7 q3.5 4 7.5 4 q5 0 8 -3.5 q3 -3.5 3 -7.5 q0 -5 -3 -8.5 q-3 -3.5 -8 -3.5 Z" /><glyph glyph-name="" unicode="&quot;" d="M27 192 q9 0 9 -9 l0 -52 q0 -8 -9 -8 q-9 0 -9 8 l0 52 q0 9 9 9 ZM57 192 q9 0 9 -9 l0 -52 q0 -8 -9 -8 q-10 0 -10 8 l0 52 q0 9 10 9 Z" /><glyph glyph-name="" unicode="#" d="M108 104 l-10 -28 l36 0 q8 0 8 -8 q0 -10 -8 -10 l-41 0 l-17 -53 q-2 -6 -8 -6 q-2 0 -4 0 q-8 3 -6 12 l15 47 l-24 0 l-17 -53 q-2 -6 -8 -6 q-2 0 -4 0 q-7 3 -5 12 l15 47 l-20 0 q-9 0 -9 10 q0 8 9 8 l26 0 l8 28 l-34 0 q-9 0 -9 9 q0 9 9 9 l40 0 l17 53 q3 9 12 5 q8 -2 5 -11 l-14 -47 l24 0 l17 53 q2 9 12 5 q8 -2 5 -11 l-15 -47 l21 0 q8 0 8 -9 q0 -9 -8 -9 l-26 0 ZM79 76 l9 28 l-24 0 l-9 -28 l24 0 Z" /><glyph glyph-name="" unicode="$" d="M80 97 q18 -3 30 -11 q18 -13 18 -38 q0 -21 -16 -36 q-16 -14 -32 -15 l0 -13 q0 -10 -10 -10 q-11 0 -11 10 l0 13 q-13 1 -28 11 q-15 11 -19 28 q-2 8 7 11 q9 2 12 -6 q3 -12 12 -19 q11 -8 16 -8 l0 69 q-19 4 -31 12 q-18 13 -18 38 q0 20 17 36 q16 14 32 15 l0 14 q0 8 11 8 q10 0 10 -8 l0 -14 q8 0 22 -7 q13 -9 21 -21 q4 -8 -5 -13 q-9 -3 -13 5 q-5 8 -14 13 q-8 5 -11 5 l0 -69 ZM30 133 q0 -16 11 -24 q7 -5 18 -7 l0 64 q-8 -1 -18 -10 q-11 -10 -11 -23 ZM80 14 q7 1 18 11 q11 10 11 23 q0 16 -11 23 q-7 6 -18 8 l0 -65 Z" /><glyph glyph-name="" unicode="&amp;" d="M138 121 q9 -9 7 -23 l0 0 q-2 -14 -13 -20 q-5 -3 -12 -5 q8 -14 5 -29 q-3 -19 -20 -33 q-20 -14 -46 -12 q-25 3 -42 22 q-16 20 -13 43 q4 29 31 45 q-10 7 -14 16 q-5 10 -4 20 q2 17 15 27 q13 10 30 8 q22 -2 31 -16 q1 -4 -3 -8 q-4 -4 -8 0 q-8 9 -22 10 q-10 1 -18 -5 q-8 -7 -9 -17 q-2 -10 6 -19 q6 -8 16 -9 q5 0 5 -7.5 q0 -7.5 -5 -7.5 q-5 0 -22 -11 q-12 -11 -14 -28 q-2 -18 11 -32 q12 -15 30 -16 q21 -2 35 8 q13 9 15 24 q1 8 0 15 q-6 11 -16 14 q-10 3 -19 3.5 q-9 0.5 -16 -4.5 q-7 -5 -8 -14 q-1 -6 4 -11 q3 -5 10 -6 q6 -1 12 3 l6 4 q4 4 9 1.5 q5 -2.5 4 -8.5 l-9 -7 q-10 -9 -24 -7 q-12 1 -21 11 q-8 10 -6 22 q1 13 12 21 q11 10 25 10 q9 0 23 -4 q18 -5 28 1 q4 3 6 10 q1 8 -4 12 q-2 4 -8 5 q-5 0 -8 -2 l-6 -5 q-3 -5 -9 -3 q-6 2 -5 7 q3 8 11 13 q8 5 19 3 q11 -1 18 -9 Z" /><glyph glyph-name="" unicode="&#39;" d="M23 192 q10 0 10 -8 l0 -51 q0 -10 -10 -10 q-10 0 -10 10 l0 51 q0 8 10 8 Z" /><glyph glyph-name="" unicode="(" d="M72 185 q-48 -49 -48 -111 q0 -62 48 -111 q7 -5 1 -12 q-3 -4 -7 -4 q-4 0 -8 3 q-54 56 -54 124 q0 69 54 124 q8 8 15 0 q6 -7 -1 -13 Z" /><glyph glyph-name="" unicode=")" d="M9 185 q-5 6 -1 12 q8 9 15 1 q54 -55 54 -124 q0 -68 -54 -124 q-2 -3 -6 -3 q-5 0 -9 4 q-4 7 1 12 q49 49 49 111 q0 62 -49 111 Z" /><glyph glyph-name="" unicode="+" d="M122 93 q10 0 10 -9 q0 -9 -10 -9 l-45 0 l0 -50 q0 -10 -10 -10 q-9 0 -9 10 l0 50 l-46 0 q-9 0 -9 9 q0 9 9 9 l46 0 l0 51 q0 9 9 9 q10 0 10 -9 l0 -51 l45 0 Z" /><glyph glyph-name="" unicode="," d="M6 -32 q25 16 16 22 q-17 -11 -17 9 q0 10 6 15.5 q6 5.5 13 5.5 q10 0 15 -5.5 q5 -5.5 5 -15.5 q0 -11 -4.5 -20.5 q-4.5 -9.5 -5.5 -10.5 q-6 -6 -12 -8 q-7 0 -11.5 0 q-4.5 0 -4.5 8 Z" /><glyph glyph-name="" unicode="-" d="M60 85 q9 0 9 -8 q0 -8 -9 -8 l-56 0 q-9 0 -9 8 q0 8 9 8 l56 0 Z" /><glyph glyph-name="" unicode="." d="M35 19 q7 0 14 -6 q7 -6 7 -15 q0 -8 -7 -14 q-7 -6 -14 -6 q-12 0 -18 6 q-6 6 -6 14 q0 9 6 15 q6 6 18 6 Z" /><glyph glyph-name="" unicode="/" d="M83 173 q4 7 12 5 q8 -4 5 -13 l-78 -176 q-2 -5 -9 -5 q-2 0 -4 1 q-8 3 -4 11 l78 177 Z" /><glyph glyph-name="" unicode="0" d="M69 184 q25 0 41 -19 q16 -18 16 -44 l0 -59 q0 -25 -16 -45 q-16 -18 -41 -18 q-24 0 -41 18 q-17 20 -17 45 l0 59 q0 26 17 44 q17 19 41 19 ZM107 118 q0 18 -11 34 q-12 14 -27 14 q-15 0 -26 -14 q-12 -16 -12 -34 l0 -56 q0 -18 12 -32 q11 -13 26 -13 q15 0 27 15 q11 12 11 30 l0 56 Z" /><glyph glyph-name="" unicode="1" d="M61 180 q12 0 19 -7 q9 -8 9 -18 l0 -147 q0 -9 -10 -9 q-10 0 -10 9 l0 147 q0 3 -2 5 q-3 3 -6 3 l-31 0 q-9 0 -9 8 q0 9 9 9 l31 0 Z" /><glyph glyph-name="" unicode="2" d="M25 19 q-2 -1 -2 -2 q0 0 1 0 l94 0 q9 0 9 -9 q0 -9 -9 -9 l-94 0 q-7 0 -13 4 q-5 4 -7 11 q-2 13 10 20 l46 30 q3 2 11 6 q21 12 28 20 q10 13 10 30 q0 18 -13 31 q-12 13 -30 13 q-18 0 -30 -13 q-13 -13 -13 -31 q0 -10 -9 -10 q-10 0 -10 10 q0 25 18 43 q18 19 44 19 q26 0 44 -19 q17 -18 17 -43 q0 -24 -14 -41 q-9 -10 -32 -24 q-8 -4 -10 -6 l-46 -30 Z" /><glyph glyph-name="" unicode="3" d="M67 116 q23 -1 43 -17 q18 -17 18 -41 q0 -24 -18 -41 q-21 -18 -54 -18 l-35 0 q-11 0 -11 9 q0 9 11 9 l35 0 q26 0 40 12 q13 12 13 29 q0 17 -13 29 q-14 13 -40 13 l-15 0 q-7 0 -9 7 q-2 5 3 9 l64 47 q1 0 1 0 q0 0 -2 0 l-76 0 q-10 0 -10 10 q0 8 10 8 l76 0 q16 0 20 -12 q4 -12 -7 -20 l-44 -33 Z" /><glyph glyph-name="" unicode="4" d="M135 56 q9 0 9 -9 q0 -9 -9 -9 l-30 0 l0 -30 q0 -9 -9 -9 q-10 0 -10 9 l0 30 l-65 0 q-12 0 -17 11 q-4 9 1 19 l66 104 q8 12 22 7 q13 -4 13 -17 l0 -106 l29 0 ZM86 56 l0 106 q0 1 0 1 q0 0 0 0 q0 0 1 0 l-66 -105 q0 -2 0 -2 q0 0 0 0 l65 0 Z" /><glyph glyph-name="" unicode="5" d="M64 115 q29 0 46 -19 q15 -15 15 -38 q0 -22 -16 -38 q-17 -18 -45 -18 l-45 0 q-9 0 -9 10 q0 8 9 8 l45 0 q21 0 32 12 q10 10 10 26 q0 16 -10 27 q-11 12 -32 12 l-40 0 q-9 0 -9 9 l0 65 q0 9 9 9 l67 0 q10 0 10 -9 q0 -8 -10 -8 l-58 0 l0 -48 l31 0 Z" /><glyph glyph-name="" unicode="6" d="M73 129 q25 0 43 -19 q18 -19 18 -46 q0 -27 -18 -47 q-19 -19 -45 -19 q-26 0 -45 19 q-18 20 -18 47 q0 24 14 42 q16 22 25 30 l31 42 q7 7 14 0 q7 -5 1 -12 l-31 -39 q5 3 11 2 ZM71 15 q17 0 31 14 q14 14 14 35 q0 20 -14 34 q-14 14 -31 14 q-18 0 -31 -14 q-13 -14 -13 -34 q0 -21 13 -35 q13 -14 31 -14 ZM73 129 q25 0 43 -19 q18 -19 18 -46 q0 -27 -18 -47 q-19 -19 -45 -19 q-26 0 -45 19 q-18 20 -18 47 q0 24 14 42 q16 22 25 30 l31 42 q7 7 14 0 q7 -5 1 -12 l-31 -39 q5 3 11 2 ZM71 15 q17 0 31 14 q14 14 14 35 q0 20 -14 34 q-14 14 -31 14 q-18 0 -31 -14 q-13 -14 -13 -34 q0 -21 13 -35 q13 -14 31 -14 Z" /><glyph glyph-name="" unicode="7" d="M104 180 q15 0 23 -12 q7 -12 1 -25 l-78 -140 q-2 -4 -9 -4 q-2 0 -3 0 q-10 4 -5 13 l77 139 q2 4 0 8 q-3 4 -6 4 l-92 0 q-9 0 -9 8 q0 9 9 9 l92 0 Z" /><glyph glyph-name="" unicode="8" d="M90 107 q13 -1 25 -16 q12 -15 12 -36 q0 -24 -18 -41 q-18 -17 -43 -17 q-26 0 -44 17 q-17 17 -17 41 q0 21 12 36 q12 12 24 14 q-5 1 -13 11 q-8 11 -8 24 q0 17 14 30 q13 13 32 13 q18 0 31 -13 q14 -13 14 -30 q0 -13 -8 -24 q-6 -9 -13 -9 ZM40 140 q0 -11 7 -18 q8 -7 19 -7 q10 0 18 7 q7 7 7 18 q0 11 -7 17 q-8 7 -18 7 q-11 0 -19 -7 q-7 -6 -7 -17 ZM66 15 q17 0 29 12 q13 12 13 28 q0 18 -13 29 q-12 12 -29 12 q-18 0 -30 -12 q-13 -11 -13 -29 q0 -16 13 -28 q12 -12 30 -12 Z" /><glyph glyph-name="" unicode="9" d="M56 58 q-23 0 -40 20 q-15 17 -15 41 q0 24 16 44 q17 19 41 19 q23 0 41 -19 q16 -20 15 -44 q0 -20 -12 -40 q-11 -20 -20 -33 l-30 -44 q-6 -7 -13 -1 q-7 6 -1 13 l30 45 q-7 -2 -12 -1 ZM58 164 q-16 0 -27 -13 q-11 -14 -11 -32 q0 -16 11 -30 q11 -14 27 -14 q15 0 27 14 q10 14 10 30 q0 18 -11 32 q-10 13 -26 13 Z" /><glyph glyph-name="" unicode=":" d="M32 35 q5 0 8.5 -3 q3.5 -3 3.5 -8 q0 -4 -3.5 -7 q-3.5 -3 -8.5 -3 q-5 0 -8.5 3 q-3.5 3 -3.5 7 q0 5 3.5 8 q3.5 3 8.5 3 ZM32 133 q5 0 8.5 -3 q3.5 -3 3.5 -8 q0 -4 -3.5 -7 q-3.5 -3 -8.5 -3 q-5 0 -8.5 3 q-3.5 3 -3.5 7 q0 5 3.5 8 q3.5 3 8.5 3 Z" /><glyph glyph-name="" unicode=";" d="M36 136 q5 0 8.5 -3.5 q3.5 -3.5 3.5 -8.5 q0 -3 -3.5 -6.5 q-3.5 -3.5 -8.5 -3.5 q-5 0 -8.5 3.5 q-3.5 3.5 -3.5 6.5 q0 5 3.5 8.5 q3.5 3.5 8.5 3.5 ZM22 10 q17 10 11 14 q-12 -7 -12 6 q0 6 4 9.5 q4 3.5 9 3.5 q7 0 10.5 -3.5 q3.5 -3.5 3.5 -9.5 q0 -7 -3 -13 q-3 -6 -4 -7 q-4 -4 -8 -5 q-5 0 -8 0 q-3 0 -3 5 Z" /><glyph glyph-name="" unicode="&lt;" d="M117 132 q3 -8 -5 -11 l-77 -41 l77 -42 q7 -4 5 -11 q-3 -6 -9 -6 q-3 0 -5 1 l-90 49 q-6 2 -6 9 q0 5 6 7 l90 49 q9 4 14 -4 Z" /><glyph glyph-name="" unicode="=" d="M118 113 q9 0 9 -8 q0 -9 -9 -9 l-91 0 q-9 0 -9 9 q0 8 9 8 l91 0 ZM118 62 q9 0 9 -8 q0 -10 -9 -10 l-91 0 q-9 0 -9 10 q0 8 9 8 l91 0 Z" /><glyph glyph-name="" unicode="&gt;" d="M11 132 q5 8 14 4 l91 -49 q5 -2 5 -7 q0 -6 -5 -9 l-91 -49 q-2 -1 -4 -1 q-6 0 -9 6 q-3 7 4 11 l77 42 l-76 41 q-8 3 -6 11 Z" /><glyph glyph-name="" unicode="?" d="M56 183 q22 0 38 -16 q16 -16 16 -37 q0 -21 -15 -36 q-15 -16 -29 -17 l0 -29 q0 -8 -10 -8 q-10 0 -10 8 l0 37 q0 10 10 10 q14 0 24 10 q10 10 10 25 q0 15 -10 25 q-10 10 -24 10 q-14 0 -25 -10 q-10 -10 -10 -25 q0 -11 7 -21 q3 -6 -3 -12 q-9 -4 -13 3 q-10 13 -10 30 q0 21 15 37 q16 16 39 16 ZM56 23 q5 0 8.5 -4 q3.5 -4 3.5 -7 q0 -5 -3.5 -8.5 q-3.5 -3.5 -8.5 -3.5 q-5 0 -8.5 3.5 q-3.5 3.5 -3.5 8.5 q0 3 3.5 7 q3.5 4 8.5 4 Z" /><glyph glyph-name="" unicode="@" d="M107 177 q43 0 73 -33 q30 -30 30 -74 q0 -26 -13 -47 q-12 -20 -29 -21 q-10 0 -18 7 q-8 9 -7 35 q0 3 0 4 l0 21 q0 19 -11 30 q-11 9 -26 9 q-14 0 -25 -8 q-11 -12 -11 -31 q0 -13 6 -23 q6 -9 17 -14 q10 -5 20 -3 q11 3 19 10 q7 10 14 0 q6 -4 0 -11 q-12 -12 -29 -16 q-17 -3 -33 4 q-16 7 -24 21 q-9 14 -9 32 q0 27 17 43 q16 15 38 15 q23 0 39 -15 q17 -16 17 -43 l0 -21 q0 -1 0 -4 q-1 -21 3 -23 q1 -1 2 -1 q6 1 14 14 q9 15 9 36 q0 37 -25 63 q-23 26 -58 26 q-33 0 -57 -26 q-26 -26 -26 -63 q0 -38 26 -64 q24 -26 57 -26 l0 0 q23 0 43 13 q9 5 14 -4 q4 -6 -3 -10 q-25 -17 -54 -17 l0 0 q-41 0 -72 33 q-29 30 -29 75 q0 44 29 74 q31 33 72 33 Z" /><glyph glyph-name="" unicode="B" d="M89 16 q14 0 23 11 q11 11 11 26 q0 15 -10 25 q-10 11 -24 11 l-58 0 l0 -73 l58 0 ZM31 107 l58 0 q12 0 20 8 q7 8 7 20 q0 12 -7 20 q-7 8 -20 8 l-32 0 q-12 0 -19 -8 q-7 -8 -7 -20 l0 -28 ZM114 98 q9 -1 18 -15 q10 -14 10 -30 q0 -23 -16 -39 q-15 -15 -37 -15 l-67 0 q-9 0 -9 9 l0 127 q0 18 10 31 q13 15 34 15 l32 0 q21 0 35 -15 q11 -13 11 -31 q0 -18 -11 -31 q-6 -5 -10 -6 Z" /><glyph glyph-name="" unicode="C" d="M87 164 q-26 0 -43 -21 q-19 -21 -19 -52 q0 -32 19 -53 q17 -21 43 -21 q25 0 43 21 q7 8 14 1 q5 -7 0 -12 q-23 -28 -57 -28 q-34 0 -57 28 q-24 26 -24 64 q0 37 24 64 q23 27 57 27 q34 0 57 -28 q5 -6 0 -12 q-7 -7 -14 0 q-18 22 -43 22 Z" /><glyph glyph-name="" unicode="D" d="M19 135 q0 17 11 30 q13 15 34 15 l1 0 q37 0 62 -27 q27 -26 27 -63 q0 -37 -27 -64 q-25 -27 -62 -27 l-36 0 q-10 0 -10 9 l0 127 ZM38 17 l27 0 q29 0 49 21 q21 21 21 52 q0 30 -21 51 q-20 22 -49 22 l-1 0 q-12 0 -20 -9 q-6 -8 -6 -19 l0 -118 Z" /><glyph glyph-name="" unicode="E" d="M12 116 q0 26 23 46 q22 18 53 18 l37 0 q10 0 10 -9 q0 -8 -10 -8 l-37 0 q-23 0 -39 -14 q-16 -14 -16 -33 l0 -17 l81 0 q10 0 10 -9 q0 -9 -10 -9 l-81 0 l0 -17 q0 -20 16 -34 q16 -13 39 -13 l37 0 q10 0 10 -9 q0 -9 -10 -9 l-37 0 q-31 0 -53 18 q-23 20 -23 47 l0 52 Z" /><glyph glyph-name="" unicode="F" d="M127 182 q10 0 10 -9 q0 -9 -10 -9 l-31 0 q-25 0 -43 -14 q-16 -14 -16 -33 l0 -21 l78 0 q10 0 10 -9 q0 -8 -10 -8 l-78 0 l0 -71 q0 -9 -11 -9 q-10 0 -10 9 l0 109 q0 27 24 46 q24 19 56 19 l31 0 Z" /><glyph glyph-name="" unicode="G" d="M149 98 q9 0 9 -9 q0 -39 -21 -65 q-20 -27 -51 -27 q-32 0 -53 27 q-22 28 -22 65 q0 38 22 65 q21 28 53 28 q30 0 50 -25 q5 -6 1 -11 q-6 -10 -14 -1 q-16 18 -37 18 q-22 0 -39 -20 q-18 -22 -18 -54 q0 -32 18 -53 q17 -22 39 -22 q21 0 36 20 q17 20 17 47 l-53 0 q-9 0 -9 8 q0 9 9 9 l63 0 Z" /><glyph glyph-name="" unicode="H" d="M149 181 q10 0 10 -9 l0 -164 q0 -9 -10 -9 q-10 0 -10 9 l0 73 l-103 0 l0 -73 q0 -9 -9 -9 q-10 0 -10 9 l0 164 q0 9 10 9 q9 0 9 -9 l0 -73 l103 0 l0 73 q0 9 10 9 Z" /><glyph glyph-name="" unicode="I" d="M45 182 q10 0 10 -9 l0 -165 q0 -9 -10 -9 q-9 0 -9 9 l0 165 q0 9 9 9 Z" /><glyph glyph-name="" unicode="K" d="M146 178 q11 -6 0 -14 l-107 -74 l107 -75 q11 -7 0 -14 q-2 -2 -6 -2 q-4 0 -7 2 l-100 70 l0 -63 q0 -9 -11 -9 q-10 0 -10 9 l0 164 q0 9 10 9 q11 0 11 -9 l0 -63 l100 69 q7 5 13 0 Z" /><glyph glyph-name="" unicode="L" d="M123 16 q10 0 10 -8 q0 -9 -10 -9 l-38 0 q-28 0 -48 19 q-20 19 -20 45 l0 106 q0 9 10 9 q12 0 12 -9 l0 -106 q0 -20 15 -33 q14 -14 31 -14 l38 0 Z" /><glyph glyph-name="" unicode="M" d="M148 181 q22 0 37 -23 q13 -22 13 -51 l0 -99 q0 -9 -9 -9 q-9 0 -9 9 l0 99 q0 24 -10 41 q-9 15 -22 15 q-12 0 -21 -15 q-10 -17 -10 -41 l0 -99 q0 -9 -10 -9 q-8 0 -8 9 l0 99 q0 24 -11 41 q-9 15 -22 15 q-11 0 -21 -15 q-10 -17 -10 -41 l0 -99 q0 -9 -9 -9 q-9 0 -9 9 l0 164 q0 9 9 9 q9 0 9 -9 l0 -13 q0 4 4 9 q13 13 27 13 q18 0 32 -16 q10 -13 10 -20 q0 8 10 20 q13 16 30 16 Z" /><glyph glyph-name="" unicode="N" d="M89 180 q29 0 49 -21 q22 -22 22 -52 l0 -99 q0 -9 -11 -9 q-9 0 -9 9 l0 99 q0 23 -16 40 q-15 16 -35 16 q-22 0 -36 -16 q-16 -17 -16 -40 l0 -99 q0 -9 -10 -9 q-9 0 -9 9 l0 163 q0 9 9 9 q10 0 10 -9 l0 -18 q2 7 12 15 q18 12 40 12 Z" /><glyph glyph-name="" unicode="O" d="M84 183 q32 0 53 -28 q21 -27 21 -64 q0 -37 -21 -64 q-21 -28 -53 -28 q-33 0 -54 28 q-22 27 -22 64 q0 37 22 64 q21 28 54 28 ZM84 17 q22 0 39 21 q18 22 18 53 q0 32 -18 53 q-17 21 -39 21 q-23 0 -40 -21 q-18 -21 -18 -53 q0 -31 18 -53 q17 -21 40 -21 Z" /><glyph glyph-name="" unicode="P" d="M81 180 q27 0 45 -19 q19 -20 19 -48 q0 -27 -19 -47 q-18 -20 -45 -20 q-25 0 -42 16 q-7 6 -1 12 q6 7 14 1 q12 -11 29 -11 q18 0 31 15 q14 14 14 34 q0 21 -14 36 q-13 14 -31 14 q-19 0 -33 -14 q-13 -15 -13 -36 l0 -105 q0 -9 -9 -9 q-10 0 -10 9 l0 101 q0 1 0 4 q0 28 19 48 q19 19 46 19 Z" /><glyph glyph-name="" unicode="Q" d="M84 181 q33 0 55 -27 q21 -27 21 -65 q0 -36 -21 -63 q-21 -27 -46 -28 l0 -18 q0 -8 -9 -8 q-9 0 -9 8 l0 18 q-25 1 -47 28 q-21 27 -21 63 q0 38 22 65 q22 27 55 27 ZM93 15 q16 1 32 22 q18 21 18 52 q0 32 -18 53 q-18 21 -41 21 q-24 0 -41 -21 q-18 -21 -18 -53 q0 -31 17 -52 q17 -21 33 -22 l0 23 q0 8 9 8 q9 0 9 -8 l0 -23 Z" /><glyph glyph-name="" unicode="R" d="M145 117 q0 -27 -17 -48 q-15 -15 -36 -16 q2 0 -4 1 l49 -40 q4 -3 -3 -12 q-2 -3 -11 -1 q-3 0 -4 2 l-71 61 q-2 1 -3 3 q-5 3 -1 11 q4 5 9 3 l2 -3 q13 -9 29 -7 q19 -1 32 11 q12 13 11 35 q-1 23 -13 37 q-12 12 -30 13 q-17 0 -29 -10 q-16 -13 -18 -40 l0 -109 q0 -7 -14 -7 q-6 0 -6 7 l0 109 q1 0 0 1 q0 27 21 49 q18 17 46 17 q26 0 44 -20 q17 -19 17 -47 Z" /><glyph glyph-name="" unicode="S" d="M18 -1 q-4 0 -7 2 q-3 3 -3 7 q0 4 3 6 q3 2 7 2 l62 0 q21 0 31 11 q9 9 10 23 q0 20 -13 28 q-9 4 -35 5 q-30 3 -43 9 q-22 11 -22 42 q0 18 13 32 q13 16 35 16 l61 0 q4 0 6 -3 q4 -2 4 -6 q0 -4 -4 -7 q-2 -2 -6 -2 l-61 0 q-13 0 -21 -9 q-8 -9 -8 -21 q0 -20 12 -26 q9 -5 35 -6 q31 -3 43 -9 q23 -12 22 -44 q-1 -22 -17 -37 q-17 -13 -42 -13 l-62 0 Z" /><glyph glyph-name="" unicode="T" d="M132 181 q10 0 10 -9 q0 -9 -10 -9 l-51 0 l0 -155 q0 -9 -10 -9 q-10 0 -10 9 l0 155 l-50 0 q-11 0 -11 9 q0 9 11 9 l121 0 Z" /><glyph glyph-name="" unicode="U" d="M143 181 q9 0 9 -9 l0 -101 q0 -30 -21 -52 q-20 -22 -49 -22 q-30 0 -50 22 q-21 22 -21 52 l0 101 q0 9 10 9 q10 0 10 -9 l0 -101 q0 -24 15 -41 q14 -16 36 -16 q20 0 35 17 q15 16 15 40 l0 101 q0 9 11 9 Z" /><glyph glyph-name="" unicode="V" d="M76 -1 q-6 0 -11 3 q-5 3 -7 9 l-56 159 q-1 3 1 7 q1 2 5 3 q4 2 8 0 q3 -2 5 -4 l55 -160 q0 0 0 0 q0 0 0 0 l57 159 q1 3 5 5 q4 2 7 0 q4 -1 6 -3 q2 -4 1 -7 l-57 -159 q-2 -6 -6 -9 q-6 -3 -13 -3 Z" /><glyph glyph-name="" unicode="Y" d="M139 180 q10 0 10 -9 l0 -28 q0 -30 -21 -50 q-19 -22 -42 -24 l0 -61 q0 -9 -10 -9 q-9 0 -9 9 l0 61 q-22 2 -42 22 q-21 21 -21 52 l0 28 q0 9 11 9 q10 0 10 -9 l0 -28 q0 -23 15 -40 q16 -16 36 -16 q22 0 37 16 q15 17 15 40 l0 28 q0 9 11 9 Z" /><glyph glyph-name="" unicode="Z" d="M130 19 q10 0 10 -9 q0 -10 -10 -10 l-105 0 q-13 0 -18 11 q-5 11 2 19 l106 129 q1 1 0 2 q0 1 -1 1 l-89 0 q-9 0 -9 9 q0 9 9 9 l91 0 q12 0 16 -11 q6 -10 -1 -19 l-106 -129 q0 0 0 -2 q0 0 1 0 l104 0 Z" /><glyph glyph-name="" unicode="_" d="M115 11 q9 0 9 -10 q0 -9 -9 -9 l-106 0 q-9 0 -9 9 q0 10 9 10 l106 0 ZM115 11 q9 0 9 -10 q0 -9 -9 -9 l-106 0 q-9 0 -9 9 q0 10 9 10 l106 0 Z" /><glyph glyph-name="" unicode="a" d="M65 138 q24 0 42 -20 q17 -21 17 -49 l0 -61 q0 -9 -9 -9 q-10 0 -10 9 l0 61 q0 22 -12 37 q-12 15 -28 15 q-17 0 -29 -15 q-12 -15 -12 -37 q0 -22 12 -38 q12 -14 29 -14 q16 0 27 14 q8 10 15 0 q5 -5 0 -11 q-18 -21 -42 -21 q-25 0 -43 21 q-16 21 -16 49 q0 28 16 49 q18 20 43 20 Z" /><glyph glyph-name="" unicode="b" d="M71 137 q26 0 43 -21 q17 -20 17 -47 q0 -29 -17 -49 q-17 -21 -43 -21 q-25 0 -42 21 q-17 20 -17 49 l0 115 q0 9 9 9 q9 0 9 -9 l0 -115 q0 -22 13 -38 q12 -14 28 -14 q17 0 29 14 q12 15 12 38 q0 21 -12 36 q-12 14 -29 14 q-16 0 -28 -14 q-8 -9 -14 1 q-5 5 0 11 q17 20 42 20 Z" /><glyph glyph-name="" unicode="c" d="M108 31 q7 9 14 0 q6 -5 0 -12 q-20 -20 -48 -20 q-29 0 -49 20 q-20 21 -20 50 q0 28 20 49 q20 20 49 20 q28 0 48 -20 q6 -6 0 -12 q-6 -8 -14 0 q-14 15 -34 15 q-21 0 -35 -16 q-15 -15 -15 -36 q0 -22 15 -37 q14 -15 35 -15 q20 0 34 14 Z" /><glyph glyph-name="" unicode="d" d="M120 193 q9 0 9 -9 l0 -115 q0 -29 -17 -49 q-18 -21 -44 -21 q-25 0 -43 21 q-17 20 -17 49 q0 27 17 48 q18 20 43 20 q26 0 43 -20 q6 -6 1 -12 q-7 -9 -15 0 q-12 14 -29 14 q-16 0 -29 -14 q-13 -15 -13 -36 q0 -22 13 -38 q13 -14 29 -14 q17 0 29 14 q13 16 13 38 l0 115 q0 9 10 9 Z" /><glyph glyph-name="" unicode="e" d="M121 91 q0 0 0 0 q-8 24 -23 36 q-16 11 -34 11 q-25 0 -43 -20 q-15 -20 -17 -48 q0 -28 16 -47 q17 -22 44 -21 q29 -1 50 26 q3 5 -3 12 q-6 7 -11 1 q-15 -21 -36 -22 q-14 -1 -26 8 q-17 19 -17 43 q1 20 12 35 q10 15 29 17 q15 1 25 -8 q9 -8 13 -18 l-73 -33 q-5 -5 -2 -11 q3 -6 8 -6 q1 0 1 0 l85 38 q3 1 2 7 q0 -1 0 0 Z" /><glyph glyph-name="" unicode="f" d="M79 194 q10 0 10 -9 q0 -8 -10 -8 q-20 0 -34 -14 q-15 -12 -15 -25 l46 0 q10 0 10 -9 q0 -9 -10 -9 l-48 0 l0 -112 q0 -9 -10 -9 q-10 0 -10 9 l0 117 q0 2 0 4 l0 0 q2 27 22 47 q21 18 49 18 Z" /><glyph glyph-name="" unicode="g" d="M67 136 q25 0 43 -19 q18 -20 18 -47 l0 -56 q0 -28 -18 -47 q-18 -20 -43 -20 q-25 0 -43 20 q-4 5 0 11 q7 8 14 0 q12 -13 29 -13 q17 0 29 14 q13 14 13 35 l0 56 q0 21 -13 35 q-12 14 -29 14 q-17 0 -29 -14 q-13 -14 -13 -35 q0 -20 13 -34 q12 -14 29 -14 q17 0 29 14 q7 8 14 0 q5 -7 0 -12 q-18 -20 -43 -20 q-25 0 -43 20 q-17 19 -17 46 q0 27 17 47 q18 19 43 19 Z" /><glyph glyph-name="" unicode="h" d="M72 137 q24 0 41 -21 q16 -20 16 -47 l0 -61 q0 -9 -10 -9 q-9 0 -9 9 l0 61 q0 21 -11 36 q-11 14 -27 14 q-15 0 -26 -14 q-13 -15 -13 -36 l0 -61 q0 -9 -9 -9 q-9 0 -9 9 l0 176 q0 9 9 9 q9 0 9 -9 l0 -67 q2 5 7 9 q15 11 32 11 Z" /><glyph glyph-name="" unicode="i" d="M33 136 q9 0 9 -9 l0 -119 q0 -9 -9 -9 q-11 0 -11 9 l0 119 q0 9 11 9 ZM32 168 q4 0 7.5 -3.5 q3.5 -3.5 3.5 -8.5 q0 -4 -3.5 -7.5 q-3.5 -3.5 -7.5 -3.5 q-6 0 -9 3.5 q-3 3.5 -3 7.5 q0 5 3 8.5 q3 3.5 9 3.5 Z" /><glyph glyph-name="" unicode="j" d="M39 138 q11 0 11 -9 l0 -115 q0 -27 -19 -46 q-19 -20 -45 -20 q-9 0 -9 10 q0 8 9 8 q18 0 31 14 q13 14 13 34 l0 115 q0 9 9 9 ZM39 168 q5 0 8 -3.5 q3 -3.5 3 -7.5 q0 -5 -3 -8 q-3 -3 -8 -3 q-5 0 -8.5 3 q-3.5 3 -3.5 8 q0 4 3.5 7.5 q3.5 3.5 8.5 3.5 Z" /><glyph glyph-name="" unicode="k" d="M119 83 q0 -19 -17 -32 q-15 -12 -20 -13 l32 -23 q8 -5 3 -12 q-3 -4 -9 -4 q-2 0 -5 1 l-52 38 q-6 3 -3 10 q2 6 9 6 q17 0 29 8 q13 8 13 21 q0 15 -11 26 q-10 10 -24 10 q-15 0 -25 -10 q-12 -11 -12 -26 l0 -75 q0 -9 -9 -9 q-9 0 -9 9 l0 176 q0 9 9 9 q9 0 9 -9 l0 -62 q4 5 8 7 q13 8 29 8 q22 0 38 -15 q17 -16 17 -39 Z" /><glyph glyph-name="" unicode="l" d="M35 194 q11 0 11 -9 l0 -177 q0 -9 -11 -9 q-11 0 -11 9 l0 177 q0 9 11 9 Z" /><glyph glyph-name="" unicode="m" d="M149 139 q23 0 39 -21 q14 -21 14 -49 l0 -60 q0 -10 -10 -10 q-9 0 -9 10 l0 60 q0 23 -10 38 q-11 14 -24 14 q-13 0 -22 -14 q-11 -15 -11 -38 l0 -60 q0 -10 -9 -10 q-10 0 -10 10 l0 60 q0 23 -10 38 q-10 14 -23 14 q-13 0 -24 -14 q-10 -15 -10 -38 l0 -60 q0 -10 -9 -10 q-10 0 -10 10 l0 121 q0 9 10 9 q9 0 9 -9 l0 -10 q2 5 5 8 q13 11 29 11 q17 0 31 -14 q12 -12 12 -21 q-1 8 11 21 q14 14 31 14 Z" /><glyph glyph-name="" unicode="n" d="M70 137 q24 0 42 -20 q17 -21 17 -48 l0 -61 q0 -9 -10 -9 q-10 0 -10 9 l0 61 q0 21 -12 36 q-11 15 -27 15 q-16 0 -28 -15 q-12 -15 -12 -36 l0 -61 q0 -9 -9 -9 q-10 0 -10 9 l0 120 q0 9 10 9 q9 0 9 -9 l0 -12 q2 6 8 10 q14 11 32 11 Z" /><glyph glyph-name="" unicode="o" d="M68 138 q26 0 44 -20 q19 -21 19 -49 q0 -28 -19 -49 q-18 -21 -44 -21 q-26 0 -45 21 q-18 21 -18 49 q0 28 18 49 q19 20 45 20 ZM68 17 q17 0 30 15 q13 15 13 37 q0 21 -13 37 q-13 15 -30 15 q-18 0 -31 -15 q-13 -16 -13 -37 q0 -22 13 -37 q13 -15 31 -15 Z" /><glyph glyph-name="" unicode="p" d="M72 139 q25 0 42 -20 q16 -20 16 -47 q0 -27 -16 -46 q-17 -21 -42 -21 q-24 0 -42 21 q-5 5 0 11 q7 8 14 0 q12 -13 28 -13 q16 0 28 14 q12 14 12 34 q0 21 -12 35 q-12 15 -28 15 q-16 0 -28 -14 q-12 -15 -12 -36 l0 -112 q0 -9 -10 -9 q-9 0 -9 9 l0 112 q0 27 17 47 q17 20 42 20 Z" /><glyph glyph-name="" unicode="q" d="M69 139 q24 0 42 -20 q16 -20 16 -47 l0 -112 q0 -9 -9 -9 q-9 0 -9 9 l0 112 q0 21 -13 36 q-12 14 -27 14 q-17 0 -29 -15 q-12 -14 -12 -35 q0 -20 12 -34 q12 -14 29 -14 q15 0 27 13 q7 8 14 0 q5 -6 0 -11 q-17 -21 -41 -21 q-25 0 -43 21 q-17 19 -17 46 q0 27 17 47 q18 20 43 20 Z" /><glyph glyph-name="" unicode="r" d="M71 121 l0 0 q-15 0 -28 -15 q-14 -16 -14 -37 l0 -61 q0 -9 -9 -9 q-11 0 -11 9 l0 121 q0 9 11 9 q9 0 9 -9 l0 -15 q3 9 10 13 q16 11 32 11 l0 0 q11 0 11 -9 q0 -8 -11 -8 Z" /><glyph glyph-name="" unicode="s" d="M65.5 86 q26.5 0 41.5 -14 q13 -12 13 -30 q0 -17 -13 -30 q-15 -13 -38 -13 l-50 0 q-11 0 -11 9 q0 9 11 9 l50 0 q15 0 23 9 q8 6 8 16 q0 11 -8 17 q-8 9 -34.5 9 q-26.5 0 -38.5 11 q-11 10 -11 25 q0 14 11 24 q12 11 31 11 l50 0 q10 0 10 -9 q0 -8 -10 -8 l-50 0 q-11 0 -17 -6 q-4 -6 -4 -12 q0 -8 4 -12 q6 -6 32.5 -6 Z" /><glyph glyph-name="" unicode="t" d="M26 100 l0 -43 q0 -17 13 -30 q14 -13 30 -13 q10 0 10 -9 q0 -8 -10 -8 q-24 0 -43 17 q-19 18 -19 43 l0 101 q0 8 10 8 q9 0 9 -8 l0 -40 l43 0 q10 0 10 -9 q0 -9 -10 -9 l-43 0 Z" /><glyph glyph-name="" unicode="u" d="M128 8 q0 -9 -10 -9 q-9 0 -9 9 l0 12 q-2 -6 -7 -9 q-14 -12 -32 -12 q-24 0 -41 21 q-17 21 -17 49 l0 59 q0 9 9 9 q10 0 10 -9 l0 -59 q0 -23 12 -38 q11 -14 27 -14 q16 0 27 14 q12 15 12 38 l0 59 q0 9 9 9 q10 0 10 -9 l0 -120 Z" /><glyph glyph-name="" unicode="v" d="M115 136 q8 -4 5 -13 l-49 -118 q-2 -6 -9 -6 q-6 0 -9 5 l-49 119 q-2 9 5 13 q9 4 13 -5 l40 -99 l40 99 q5 9 13 5 Z" /><glyph glyph-name="" unicode="w" d="M55 -1 q-22 0 -35 21 q-14 20 -14 48 l0 59 q0 9 9 9 q9 0 9 -9 l0 -59 q0 -22 10 -37 q9 -14 21 -14 q11 0 20 14 q10 15 10 37 l0 59 q0 9 8 9 q10 0 10 -9 l0 -59 q0 -22 10 -37 q8 -14 20 -14 q11 0 20 13 q10 16 10 38 l0 59 q0 9 10 9 q8 0 8 -9 l0 -59 q0 -19 -5 -30 q-5 -17 -16 -27 q-12 -12 -27 -12 q-17 0 -29 14 q-9 10 -10 15 q0 -5 -9 -14 q-14 -15 -30 -15 Z" /><glyph glyph-name="" unicode="x" d="M106 136 q9 0 9 -9 l0 -8 q0 -21 -10 -38 q-10 -16 -12 -16 q1 -1 11 -16 q11 -16 11 -35 l0 -6 q0 -9 -9 -9 q-10 0 -10 9 l0 6 q0 17 -12 29 q-10 12 -25 12 q-14 0 -25 -12 q-11 -12 -11 -29 l0 -6 q0 -9 -9 -9 q-10 0 -10 9 l0 6 q0 25 16 41 q9 11 12 10 q-3 -1 -12 10 q-16 19 -16 44 l0 8 q0 9 10 9 q9 0 9 -9 l0 -8 q0 -20 11 -33 q11 -13 25 -13 q15 0 25 13 q12 13 12 33 l0 8 q0 9 10 9 Z" /><glyph glyph-name="" unicode="y" d="M120 12 q0 -19 -16 -39 q-17 -20 -41 -20 q-31 0 -49 29 q-3 8 3 12 q8 6 14 -2 q12 -21 32 -21 q15 0 27 13 q12 15 12 28 l0 12 q-3 -6 -7 -10 q-15 -11 -32 -11 q-25 0 -41 20 q-17 19 -17 46 l0 58 q0 9 9 9 q9 0 9 -9 l0 -58 q0 -20 12 -34 q12 -14 28 -14 q15 0 27 14 q12 14 12 34 l0 58 q0 9 9 9 q9 0 9 -9 l0 -115 Z" /><glyph glyph-name="" unicode="z" d="M105 17 q9 0 9 -9 q0 -9 -9 -9 l-90 0 q-8 0 -9 6 q-2 5 1 9 l79 105 l-71 0 q-9 0 -9 8 q0 9 9 9 l90 0 q5 0 8 -5 q2 -5 -2 -9 l-79 -105 l73 0 Z" /><glyph glyph-name="" unicode="{" d="M77 -20 q11 0 11 -9 q0 -10 -11 -10 l-5 0 q-22 0 -30 10 q-8 8 -8 30 l0 33 q0 20 -5 26 q-4 7 -16 9 q-7 2 -7 9 q0 6 6 9 q13 4 17 9 q5 8 5 27 l0 32 q0 23 8 31 q8 9 30 9 q9 0 9 -8 q0 -9 -9 -9 q-12 0 -15 -4 q-4 -3 -4 -19 l0 -32 q0 -25 -7 -36 q-6 -9 -5 -8 q-1 1 5 -9 q7 -11 7 -36 l0 -33 q0 -16 4 -18 q3 -3 15 -3 l5 0 Z" /><glyph glyph-name="" unicode="}" d="M17 -20 q12 0 15 3 q3 2 3 18 l0 33 q0 25 8 36 q5 10 5 9 q0 -1 -5 8 q-8 11 -8 36 l0 32 q0 16 -3 19 q-3 4 -15 4 q-10 0 -10 9 q0 8 10 8 q21 0 30 -9 q8 -8 8 -31 l0 -32 q0 -19 5 -27 q3 -5 16 -9 q7 -3 7 -9 q-1 -7 -8 -9 q-12 -2 -15 -9 q-5 -6 -5 -26 l0 -33 q0 -22 -8 -30 q-9 -10 -30 -10 l-6 0 q-9 0 -9 10 q0 9 9 9 l6 0 Z" /><glyph glyph-name="" unicode="&#x3002;" d="M64 14 q-21 -2 -23 -23 q2 -20 23 -22 q22 2 24 22 q-2 21 -24 23 ZM64 -42 q-32 2 -35 33 q3 33 35 35 q31 -2 34 -35 q-3 -31 -34 -33 Z" /><glyph glyph-name="" unicode="&#x300c;" d="M132 200 l0 -222 q-4 -6 -8 0 l0 230 l79 0 q3 -1 3 -4 q1 -4 -2 -4 l-72 0 Z" /><glyph glyph-name="" unicode="&#x300d;" d="M124 -19 l0 222 q4 6 8 0 l0 -230 l-79 0 q-6 4 0 8 l71 0 Z" /><glyph glyph-name="" unicode="&#x4e00;" d="M19 92 q-4 0 -7 -3 q-2 -3 -2 -6 q0 -5 2 -7 q2 -3 7 -3 l198 0 q10 0 9.5 9.5 q-0.5 9.5 -9.5 9.5 l-198 0 Z" /><glyph glyph-name="" unicode="&#x4e09;" d="M32 158 q-11 0 -11 -9 q0 -9 11 -9 l166 0 q10 0 10 9 q0 9 -10 9 l-166 0 ZM42 79 q-11 0 -11 -9.5 q0 -9.5 11 -9.5 l145 0 q11 0 11 9.5 q0 9.5 -11 9.5 l-145 0 ZM22 1 q-11 0 -11.5 -9.5 q-0.5 -9.5 11.5 -9.5 l189 0 q11 0 10.5 9.5 q-0.5 9.5 -10.5 9.5 l-189 0 Z" /><glyph glyph-name="" unicode="&#x4e0a;" d="M96 -3 l-75 0 q-11 0 -11 -9.5 q0 -9.5 11 -9.5 l194 0 q10 0 10.5 9.5 q0.5 9.5 -10.5 9.5 l-100 0 l0 98 l84 0 q10 0 10 9 q0 9 -10 9 l-84 0 l0 59 q0 8 -9.5 8.5 q-9.5 0.5 -9.5 -8.5 l0 -175 Z" /><glyph glyph-name="" unicode="&#x4e0b;" d="M92 150 l0 -172 q0 -4 2 -7 q3 -3 7 -3 q5 0 8 3 q2 3 2 7 l0 172 l94 0 q10 0 10 9 q0 9 -10 9 l-185 0 q-10 0 -10 -9 q0 -9 10 -9 l72 0 ZM131 93 q19 -18 45 -53 q3 -4 7 -5 q4 -1 8 2 q2 2 3 6 q1 3 -2 8 q-25 35 -49 56 q-10 8 -16 0.5 q-6 -7.5 4 -14.5 Z" /><glyph glyph-name="" unicode="&#x4e0d;" d="M104 100 l0 -123 q0 -4 3 -7 q3 -3 7 -3 q4 0 7 3 q3 3 3 7 l0 146 q9 15 17 28 l70 0 q11 0 11 9 q0 9 -11 9 l-186 0 q-12 0 -12 -9 q0 -9 12 -9 l93 0 q-10 -17 -19 -29 q-10 -14 -33.5 -36 q-23.5 -22 -46.5 -36 q-9 -6 -5 -13 q4 -7 13 -2 q18 8 44.5 32 q26.5 24 32.5 33 ZM147 87 q24 -17 59 -56 q9 -7 15 -1 q6 6 1 14 q-34 38 -63 59 q-11 6 -16 -2.5 q-5 -8.5 4 -13.5 Z" /><glyph glyph-name="" unicode="&#x4e0e;" d="M21 40 q-10 0 -10.5 -9.5 q-0.5 -9.5 10.5 -9.5 l122 0 q9 0 9 9.5 q0 9.5 -9 9.5 l-122 0 ZM187 16 q-2 -21 -10.5 -24.5 q-8.5 -3.5 -19.5 -3.5 l-13 0 q-5 0 -7.5 -2.5 q-2.5 -2.5 -2.5 -6.5 q0 -4 3 -7 q3 -3 7 -3 l13 0 q26 1 38.5 10.5 q12.5 9.5 11.5 35.5 l0 26 q-2 48 -56 49 l-82 0 q-6 0 -5 4 l7 33 l134 0 q8 0 8.5 9 q0.5 9 -8.5 9 l-129 0 l7 23 q3 11 -7 13 q-10 2 -13 -8 l-20 -84 q-1 -6 3 -12 q3 -4 11 -5 l91 0 q36 1 39 -33 l0 -23 Z" /><glyph glyph-name="" unicode="&#x4e24;" d="M44 106 q0 3 1 5 q2 2 6 2 l23 0 q0 -16 -0.5 -29 q-0.5 -13 -7 -26.5 q-6.5 -13.5 -22.5 -25.5 l0 74 ZM94 131 l0 23 l40 0 l0 -23 l-40 0 ZM187 14 q-1 -12 -6 -20 q-7 -9 -13 -9 l-13 0 q-5 0 -7.5 -2.5 q-2.5 -2.5 -2.5 -6.5 q0 -4 3 -7 q3 -3 7 -3 l13 0 q18 2 28 14 q10 12 10 37 l0 66 q-5 40 -48 47 l-4 0 l0 24 l56 0 q10 0 10 9 q0 9 -10 9 l-187 0 q-13 0 -13 -9 q0 -9 13 -9 l51 0 l0 -23 l-32 0 q-8 0 -12 -4 q-6 -5 -6 -13 l0 -136 q0 -4 3 -7 q3 -3 6 -3 q5 0 8 3 q3 3 3 7 l0 31 q23 15 31 26.5 q8 11.5 11 21.5 q7 -7 14 -13 q7 -6 11.5 -0.5 q4.5 5.5 0.5 12.5 q-8 8 -18 19 l0 38 l40 0 l0 -24 q-3 -24 -6.5 -34.5 q-3.5 -10.5 -10 -18 q-6.5 -7.5 -17.5 -14.5 q-8 -6 -4.5 -13 q3.5 -7 15.5 -2 q9 4 18 14.5 q9 10.5 19 31.5 q18 -22 39 -39 ZM158 111 q22 -5 29 -28 l0 -44 q-18 14 -33 38 l0 34 l4 0 Z" /><glyph glyph-name="" unicode="&#x4e2a;" d="M123 155 q3 0 6 -3 q13 -19 38 -39 q28 -23 44 -31 q14 -5 17.5 2.5 q3.5 7.5 -6.5 13.5 q-32 15 -50 31 q-20 17 -39 40 q-4 6 -10 6 q-7 0 -13 -6 q-18 -21 -39 -37 q-21 -17 -54 -32 q-7 -3 -5 -10.5 q2 -7.5 13 -4.5 q22 9 50 30 q26 18 40 36 q3 4 8 4 ZM129 102 q0 12 -9.5 12 q-9.5 0 -8.5 -11 l0 -125 q0 -11 9 -11 q9 0 9 11 l0 124 Z" /><glyph glyph-name="" unicode="&#x4e2d;" d="M153 118 q27 -4 25.5 -33 q-1.5 -29 -23.5 -29 l-43 0 l0 62 l41 0 ZM93 37 l0 -60 q0 -4 3 -7 q2 -3 6 -3 q5 0 8 3 q2 3 2 7 l0 60 l43 0 q22 1 34.5 15 q12.5 14 11.5 36 q-1 22 -13.5 35 q-12.5 13 -32.5 14 l-43 0 l0 36 q0 4 -2 7 q-3 2 -8 2 q-4 0 -6 -2 q-3 -2 -3 -7 l0 -36 l-67 0 q-7 0 -11.5 -4.5 q-4.5 -4.5 -4.5 -11.5 l0 -68 q0 -7 4.5 -11.5 q4.5 -4.5 11.5 -4.5 l67 0 ZM28 56 l0 62 l65 0 l0 -62 l-65 0 Z" /><glyph glyph-name="" unicode="&#x4e3a;" d="M49 158 q7 -5 17 -16 q9 -9 16.5 -4 q7.5 5 0.5 16 q-11 12 -21 19 q-10 6 -16 -1 q-6 -7 3 -14 ZM196 19 q-1 -16 -6.5 -22.5 q-5.5 -6.5 -12 -8 q-6.5 -1.5 -12.5 -1.5 l-13 0 q-5 0 -7.5 -2.5 q-2.5 -2.5 -2.5 -6.5 q0 -4 3 -7 q3 -3 7 -3 l13 0 q28 2 39.5 13 q11.5 11 12.5 38 l0 52 q-1 57 -62 59 l-35 0 l0 42 q0 5 -3 8 q-3 2 -7 2 q-4 0 -7 -2 q-2 -3 -2 -8 l0 -42 l-71 0 q-11 0 -11 -9 q0 -9 11 -9 l71 0 q-2 -46 -30 -80 q-28 -34 -53 -43 q-8 -6 -5 -13 q3 -7 13 -4 q27 10 50.5 35.5 q23.5 25.5 32 46 q8.5 20.5 11.5 58.5 l34 0 q41 -3 42 -43 l0 -50 ZM145 36 q6 -9 12.5 -5.5 q6.5 3.5 3.5 14.5 q-9 15 -18 25 q-9 9 -16 2.5 q-7 -6.5 1 -14.5 q8 -8 17 -22 Z" /><glyph glyph-name="" unicode="&#x4e3b;" d="M104 -3 l-83 0 q-11 0 -11 -9.5 q0 -9.5 11 -9.5 l190 0 q12 0 11.5 9.5 q-0.5 9.5 -11.5 9.5 l-87 0 l0 57 l67 0 q12 0 12 9.5 q0 9.5 -12 9.5 l-67 0 l0 51 l78 0 q11 0 11 9.5 q0 9.5 -11 8.5 l-84 0 q12 1 9 13 q-10 14 -19 24 q-10 5 -15.5 -1 q-5.5 -6 0.5 -13 q7 -7 19 -23 l-85 0 q-13 1 -13 -9 q0 -10 13 -9 l77 0 l0 -51 l-62 0 q-13 0 -13 -9.5 q0 -9.5 13 -9.5 l62 0 l0 -57 Z" /><glyph glyph-name="" unicode="&#x4e48;" d="M86 175 q-12 -35 -30 -62 q-16 -24 -40 -48 q-6 -7 -1.5 -13 q4.5 -6 15.5 0 q19 18 39 48 q18 26 34 69 q2 11 -6.5 13 q-8.5 2 -10.5 -7 ZM31 -5 q-5 -25 20 -22 l126 23 q6 -9 10 -20 q2 -4 6 -6 q3 -2 7 0 q4 1 6 5 q1 3 -1 7 q-17 42 -35 69 q-3 5 -7 5 q-4 1 -7 -1 q-4 -3 -5 -7 q0 -3 3 -7 q7 -11 16 -28 l-107 -20 q-9 -1 -3 7 l72 99 q6 10 -1 15.5 q-7 5.5 -15 -4.5 l-85 -115 Z" /><glyph glyph-name="" unicode="&#x4e49;" d="M99 164 q9 -17 17 -46 q2 -11 11.5 -9 q9.5 2 7.5 14 q-7 30 -18 49 q-4 9 -13.5 5.5 q-9.5 -3.5 -4.5 -13.5 ZM103 28 q-41 -27 -83 -38 q-10 -4 -8.5 -12.5 q1.5 -8.5 14.5 -5.5 q56 18 93 44 q10 -7 20 -14 q32 -21 72 -33 q13 -2 14.5 7.5 q1.5 9.5 -9.5 11.5 q-34 11 -55 22 q-16 9 -28 18 q8 6 15 15 q15 15 23 32 q8 16 12 27 q3 14 4 34 l0 7 q0 11 -9 10.5 q-9 -0.5 -9 -10.5 l0 -7 q0 -13 -3 -25 q-3 -15 -11 -28 q-6 -11 -18 -25 q-9 -11 -19 -19 q-21 19 -34 43 q-13 24 -22 61 q-2 10 -11 8.5 q-9 -1.5 -7 -11.5 q5 -28 18.5 -57 q13.5 -29 40.5 -55 Z" /><glyph glyph-name="" unicode="&#x4e5f;" d="M172 127 q2 0 4 -1 q2 -2 3 -5 l0 -40 q0 -15 -7.5 -22 q-7.5 -7 -22.5 -7 q-9 -2 -9 -11 q0 -3 2 -5.5 q2 -2.5 7 -3.5 q18 0 29.5 7 q11.5 7 15 17 q3.5 10 3.5 25 l0 51 q0 8 -5 12 q-8 6 -16 3 l-47 -15 l0 34 q0 10 -9.5 10.5 q-9.5 0.5 -9.5 -10.5 l0 -40 l-41 -13 l0 36 q0 14 -10 14 q-10 0 -9 -14 l0 -42 l-31 -10 q-9 -4 -7.5 -12 q1.5 -8 12.5 -6 l26 8 l0 -77 q-1 -25 21 -31 q23 -5 68 -5 q41 0 57 5 q23 5 26 29 l0 19 q1 13 -9 14 q-10 1 -10 -15 l0 -14 q1 -13 -15 -16 q-11 -4 -49 -4 q-43 0 -57 5 q-13 3 -13 17 l0 80 l41 13 l0 -78 q0 -5 2 -8 q3 -2 7 -2 q5 0 7 2 q3 4 3 8 l0 84 l43 14 Z" /><glyph glyph-name="" unicode="&#x4e66;" d="M114 80 l0 39 l17 0 q20 0 22 -18 l0 -21 l-39 0 ZM197 139 q4 -4 8 -4 q4 0 6 3 q3 2 3 6 q0 4 -4 7 q-18 18 -35 28 q-4 2 -7 2 q-4 -1 -6 -5 q-2 -3 -1 -7 q1 -3 5 -5 q13 -9 31 -25 ZM192 24 q-2 -6 -6 -9 q-6 -4 -14 -5 l-8 0 q-5 0 -7.5 -2.5 q-2.5 -2.5 -2.5 -6.5 q0 -4 3 -7 q3 -3 7 -3 l8 0 q17 1 28 8 q11 5 13 23 l0 16 q-1 40 -39 42 l0 23 q-6 34 -41 35 l-19 0 l0 35 q0 4 -2 7 q-3 2 -7 2 q-4 0 -7 -2 q-2 -2 -3 -7 l0 -35 l-59 0 q-5 0 -8 -3 q-3 -2 -3 -7 q0 -3 3 -6 q3 -3 8 -3 l59 0 l0 -39 l-74 0 q-5 0 -8 -2 q-3 -3 -3 -6 q0 -4 3 -8 q3 -3 8 -3 l74 0 l0 -84 q0 -4 3 -7 q3 -3 7 -3 q4 0 7 3 q2 3 2 7 l0 84 l55 0 q23 -3 23 -23 l0 -14 Z" /><glyph glyph-name="" unicode="&#x4e86;" d="M114.5 -4.5 q-5.5 -4.5 -13 -6 q-7.5 -1.5 -13.5 -1.5 l-13 0 q-5 0 -7.5 -2.5 q-2.5 -2.5 -2.5 -6.5 q0 -4 3 -7 q3 -3 7 -3 l13 0 q21 1 34.5 8.5 q13.5 7.5 19.5 20.5 q5 13 4 27 q-2 18 -10 35 q-8 18 -22 31 q-1 2 -1 4 q0 2 3 4 l73 48 q7 6 7 12 q0 5 -4 10 q-5 3 -12 3 l-159 0 q-5 0 -8 -3 q-2 -1 -3 -5 q0 -4 3 -8 q3 -2 8 -2 l135 0 q8 0 2 -5 l-67 -43 q-5 -4 -5 -8 q1 -5 4 -8 q21 -18 27 -32 q9 -16 10 -32 q1 -10 -3 -19 q-4 -7 -9.5 -11.5 Z" /><glyph glyph-name="" unicode="&#x4e8c;" d="M42 146 q-11 0 -11.5 -9.5 q-0.5 -9.5 11.5 -9.5 l146 0 q12 0 12 9.5 q0 9.5 -12 9.5 l-146 0 ZM22 7 q-12 0 -12 -9 q0 -9 12 -9 l191 0 q9 0 9.5 8.5 q0.5 8.5 -9.5 9.5 l-191 0 Z" /><glyph glyph-name="" unicode="&#x4e8e;" d="M129 150 l65 0 q4 0 7 3 q2 2 3 6 q0 4 -3 7 q-3 2 -7 2 l-156 0 q-4 0 -6 -3 q-3 -2 -3 -6 q0 -4 3 -7 q1 -2 6 -2 l72 0 l0 -54 l-91 0 q-3 0 -6 -3 q-3 -3 -3 -7 q0 -4 3 -6 q2 -3 6 -3 l91 0 l0 -58 q0 -10 -5 -19.5 q-5 -9.5 -13 -11 q-8 -1.5 -14 -1.5 l-13 0 q-5 0 -7.5 -2.5 q-2.5 -2.5 -2.5 -6.5 q0 -4 3 -7 q3 -3 7 -3 l13 0 q28 2 39.5 13.5 q11.5 11.5 11.5 37.5 l0 58 l82 0 q5 0 8 3 q2 3 3 6 q0 4 -3 7 q-3 3 -8 3 l-82 0 l0 54 Z" /><glyph glyph-name="" unicode="&#x4e9b;" d="M30 70 q-7 -1 -14 -2 q-6 -2 -5.5 -10 q0.5 -8 9.5 -8 q57 6 94 18 q10 5 6.5 12.5 q-3.5 7.5 -11.5 4.5 q-10 -2 -22 -5 l0 50 l23 0 q4 0 6 3 q3 3 3 6 q0 4 -3 6 q-2 3 -6 3 l-23 0 l0 24 q0 8 -8.5 8 q-8.5 0 -8.5 -9 l0 -95 q-12 -2 -23 -4 l0 80 q0 11 -9 10.5 q-9 -0.5 -8 -10.5 l0 -82 ZM152 135 l0 33 q0 13 -10 13 q-10 0 -10 -11 l0 -91 q0 -20 23 -22 l37 0 q33 2 34 28 l0 14 q-2 14 -11 12.5 q-9 -1.5 -7 -12.5 l0 -11 q-2 -14 -17 -13 l-29 0 q-10 0 -10 10 l0 30 q11 2 26 9 q15 5 34 18 q4 3 5 7 q0 4 -2 7 q-3 4 -7 4 q-4 1 -8 -2 q-14 -10 -28 -16 q-9 -4 -20 -7 ZM47 38 q-11 0 -11.5 -9.5 q-0.5 -9.5 11.5 -9.5 l142 0 q12 0 12 9.5 q0 9.5 -12 9.5 l-142 0 ZM27 -4 q-13 0 -13 -9.5 q0 -9.5 13 -9.5 l186 0 q12 0 12 9 q0 9 -12 10 l-186 0 Z" /><glyph glyph-name="" unicode="&#x4eae;" d="M108 164 l-85 0 q-5 0 -6 -3 q-3 -3 -3 -6 q0 -5 3 -7 q1 -3 6 -3 l195 0 q5 0 7 3 q2 3 2 7 q0 3 -2 6 q-2 3 -7 3 l-89 0 q-1 8 -4 13 q-3 5 -7 6 q-4 1 -7 -1 q-5 -1 -6 -5 q-1 -4 1 -8 q1 -2 2 -5 ZM17 39 q0 -5 3 -8 q3 -1 7 -2 q4 0 7 2 q3 3 3 8 l0 17 q0 2 2 3 q2 3 5 2 l155 0 q4 1 6 -3 q1 -3 -2 -13 q-1 -3 1 -7 q1 -4 6 -6 q3 -1 6 1 q4 2 6 7 q3 10 3 19 q0 8 -2 12 q-1 4 -5 7 q-5 2 -9 2 l-174 0 q-7 1 -12 -5 q-6 -5 -6 -12 l0 -24 ZM117 33 q23 0 24 -22 l0 -13 q0 -21 23 -23 q19 0 33 0 q28 0 31 23 l0 12 q0 12 -9.5 11.5 q-9.5 -0.5 -8.5 -10.5 l0 -11 q-2 -7 -14 -7 q-12 0 -29 0 q-6 0 -6 8 l0 13 q-2 36 -43 37 l-24 0 q-17 -4 -17 -21 l0 -16 q0 -7 -3 -11 q-2 -2 -8 -5 q-6 -3 -17 -6 q-9 -1 -26 -2 q-6 0 -9 -2 q-3 -2 -4 -7 q0 -4 3 -7 q2 -3 7 -4 q19 2 35 6 q14 3 23 8 q9 6 14 11 q5 7 6 16 l0 11 q-1 9 8 11 l11 0 ZM169 104 l-103 0 l0 13 l101 0 q8 -2 8 -6.5 q0 -4.5 -6 -6.5 ZM173 87 q25 5 22.5 25 q-2.5 20 -25.5 22 l-110 0 q-6 0 -10 -3 q-3 -5 -3 -9 l0 -22 q0 -8 2 -10.5 q2 -2.5 10 -2.5 l114 0 Z" /><glyph glyph-name="" unicode="&#x4ec0;" d="M47 97 l0 -120 q0 -4 3 -7 q3 -3 7 -3 q4 0 7 3 q3 3 3 7 l0 145 q0 1 -1 2 q10 20 20 45 q1 4 0 9 q-2 3 -6 4 q-5 0 -8 0 q-3 -2 -5 -7 q-8 -27 -22 -50 q-13 -19 -31 -39 q-4 -2 -4 -6 q0 -4 3 -7 q3 -3 6 -3 q5 0 8 3 q10 10 20 24 ZM145 91 l0 -113 q0 -4 3 -7 q3 -3 7 -3 q4 0 7 3 q3 3 3 7 l0 113 l57 0 q4 0 7 3 q2 3 3 7 q0 4 -3 7 q-3 2 -7 2 l-57 0 l0 64 q0 4 -3 7 q-4 2 -7 2 q-4 0 -7 -2 q-3 -2 -3 -7 l0 -64 l-57 0 q-3 0 -6 -3 q-3 -3 -3 -6 q0 -4 3 -7 q2 -3 6 -3 l57 0 Z" /><glyph glyph-name="" unicode="&#x4ecb;" d="M120 160 q2 0 6 -4 q16 -17 42 -37 q30 -22 48 -30 q5 -2 8 -1 q4 1 6 4 q1 2 0 6 q-1 4 -6 6 q-31 18 -51 33 q-21 17 -41 39 q-5 5 -11 5 q-7 0 -13 -7 q-17 -20 -39 -38 q-19 -15 -53 -33 q-4 -2 -5 -5 q-1 -3 1 -6 q2 -3 5 -5 q4 -1 9 1 q21 11 49 31 q25 20 40 37 q3 4 5 4 ZM67 93 l0 -32 q0 -6 -1 -12 q0 -7 -3 -14 q-1 -5 -5 -13 q-3 -6 -7 -11 q-5 -7 -9 -10 q-4 -4 -9 -7 q-4 -3 -7 -4 q-5 -2 -7 -7 q-1 -4 1 -7 q3 -3 6 -5 q5 0 8 1 q3 1 9.5 5 q6.5 4 11.5 9 q5 5 11 12 q4 5 8 13 q4 9 8 18 q2 9 3 15 q1 7 1 17 l0 32 q0 5 -2 7 q-3 2 -7 3 q-10 0 -10 -10 ZM173 94 q0 4 -2 6 q-2 2 -7 3 q-5 0 -8 -3 q-1 -2 -1 -6 l0 -116 q0 -4 1.5 -7 q1.5 -3 7.5 -3 q6 0 7.5 3 q1.5 3 1.5 7 l0 116 Z" /><glyph glyph-name="" unicode="&#x4ee3;" d="M47 91 l0 -114 q0 -4 3 -7 q3 -3 7 -3 q4 0 6 3 q4 3 4 7 l0 143 q11 20 23 49 q2 4 0 8 q-2 4 -5 5 q-5 0 -8 0 q-4 -2 -5 -7 q-10 -29 -25 -51 q-13 -20 -33 -39 q-3 -4 -4 -8 q0 -4 3 -7 q4 -2 7 -3 q5 0 9 4 q9 8 18 20 ZM131 91 q4 -17 9 -32 q6 -20 16 -41 q11 -19 23 -31 q8 -10 17 -14 q6 -4 14 -4 q6 0 9 3 q3 1 5 6 q3 6 5 13 q3 11 4 34 q0 5 -1 7 q-3 4 -7 5 q-4 0 -7 -2 q-4 -3 -4 -7 q-1 -23 -4 -30 q-1 -6 -4 -7 q-4 0 -12 9 q-11 11 -18 25 q-8 15 -15 33 q-5 16 -10 36 l74 14 q6 1 8 5 q2 3 1 7 q0 4 -4 6 q-4 3 -8 2 l-74 -14 q-5 30 -5 58 q0 3 -2 6 q-2 4 -7 4 q-8 0 -9 -4 q-3 -3 -2 -7 q0 -26 4 -54 q0 -3 1 -7 l-41 -8 q-5 0 -8 -4 q-1 -3 -1 -8 q1 -3 5 -5 q3 -2 8 -1 l40 7 ZM168 158 q10 -6 23 -21 q3 -4 6 -4 q5 0 8 2 q3 3 4 7 q0 3 -3 7 q-14 15 -26 24 q-4 3 -8 3 q-4 -1 -6 -4 q-3 -3 -3 -7 q1 -3 5 -7 l0 0 Z" /><glyph glyph-name="" unicode="&#x4ee5;" d="M10 170 l0 -152 q0 -7 5 -11 q3 -4 7 -4 q4 0 14 5 q31 15 52 30 q4 3 5 7 q1 3 -1 7 q-3 4 -6 4 q-5 1 -9 -1 q-19 -12 -40 -24 q-3 -1 -5 -1 q-1 1 -1 5 l0 135 q0 5 -3 9 q-4 3 -8 3 q-4 -1 -7 -4 q-3 -3 -3 -8 ZM68 139 q14 -14 31 -40 q3 -5 7 -6 q4 -1 7 2 q3 2 4 5 q1 3 -2 8 q-17 27 -34 43 q-3 3 -7 3 q-3 0 -6 -2 q-3 -4 -3 -7 q0 -3 3 -6 ZM154 36 q5 11 10 23 q7 23 7 65 l0 48 q0 5 -3 9 q-3 1 -7 1 q-5 0 -7 -2 q-3 -3 -3 -8 l0 -48 q0 -36 -7 -59 q-5 -17 -16 -31 q-13 -16 -34 -27 q-22 -11 -57 -18 q-5 -2 -7 -5 q-2 -4 -1 -8 q2 -4 4 -5 q4 -3 10 -1 q31 6 58 18 q24 13 41 31 q0 1 0 1 q18 -15 42 -44 q4 -2 8 -3 q4 -1 7 2 q3 2 4 6 q0 4 -3 8 q-25 29 -46 47 l0 0 Z" /><glyph glyph-name="" unicode="&#x4f1a;" d="M113 153 q3 2 7 0 q14 -16 41 -34 q29 -19 46 -26 q3 -2 7 -1 q4 1 7 5 q1 3 0 8 q-1 3 -6 6 q-31 14 -49 27 q-19 15 -38 33 q-4 5 -12 5 q-6 0 -12 -6 q-16 -17 -37 -31 q-18 -13 -50 -27 q-5 -2 -6 -6 q-1 -3 1 -6 q1 -4 5 -6 q4 -1 8 1 q20 8 47 26 q24 16 41 32 ZM62 107 q-4 0 -7 -3 q-2 -2 -2 -6 q0 -4 2 -7 q3 -2 7 -2 l110 0 q4 0 7 3 q2 3 2 6 q0 4 -2 6 q-3 3 -7 3 l-110 0 ZM32 -9 q-6 -4 -2 -13 q3 -8 17 -6 l133 11 q1 0 2 0 q1 -4 4 -8 q3 -4 7 -6 q3 -1 7 1 q4 3 5 6 q1 3 -1 8 q-16 26 -31 42 q-4 3 -7 3 q-4 1 -7 -2 q-3 -3 -3 -7 q0 -3 2 -7 q5 -5 10 -13 l-106 -9 q-1 0 -2 1 q-1 1 1 3 l53 48 q1 1 2 2 l87 0 q4 0 7 3 q2 3 2 7 q0 4 -2 6 q-2 3 -7 3 l-174 0 q-5 0 -8 -3 q-3 -3 -3 -6 q0 -4 3 -7 q2 -3 8 -3 l59 0 l-56 -54 Z" /><glyph glyph-name="" unicode="&#x4f53;" d="M160 17 l27 0 q5 0 7 2 q2 3 2 7 q0 4 -2 5 q-2 3 -7 3 l-27 0 l0 60 q7 -13 14 -23 q18 -27 41 -51 q4 -3 8 -4 q3 0 7 2 q4 3 4 8 q0 4 -4 7 q-31 30 -47 57 q-10 17 -19 39 l55 0 q4 0 7 3 q2 3 2 7 q0 3 -2 6 q-3 2 -7 2 l-59 0 l0 27 q0 4 -3 7 q-2 2 -7 2 q-4 0 -7 -2 q-2 -2 -2 -7 l0 -27 l-55 0 q-4 0 -8 -2 q-2 -3 -2 -6 q0 -5 2 -8 q3 -2 8 -2 l48 0 q-10 -29 -26 -51 q-15 -22 -38 -44 q-4 -3 -4 -6 q-1 -4 2 -8 q4 -2 7 -3 q4 0 9 3 q17 16 37 44 q10 14 20 34 l0 -64 l-29 0 q-5 0 -7 -3 q-2 -2 -3 -5 q0 -5 3 -7 q2 -2 7 -2 l29 0 l0 -40 q0 -4 2 -7 q3 -3 7 -3 q5 0 7 3 q3 3 3 7 l0 40 ZM42 95 l0 -118 q0 -4 3 -7 q2 -3 6 -3 q5 0 7 3 q3 3 3 7 l0 147 q0 1 -1 2 q10 18 18 43 q1 5 -1 9 q-1 3 -5 4 q-4 0 -8 0 q-3 -2 -5 -7 q-6 -26 -18 -48 q-10 -18 -27 -37 q-4 -4 -4 -7 q0 -4 3 -7 q4 -2 7 -3 q4 0 8 4 q6 8 14 18 l0 0 Z" /><glyph glyph-name="" unicode="&#x4f5c;" d="M42 91 l0 -114 q0 -4 3 -7 q2 -3 6 -3 q5 0 7 3 q3 3 3 7 l0 143 q0 2 -1 3 q10 20 18 47 q1 4 -1 8 q-2 3 -5 4 q-5 1 -8 0 q-3 -3 -5 -7 q-6 -28 -18 -50 q-10 -20 -28 -40 q-3 -3 -3 -7 q0 -4 4 -6 q3 -3 6 -3 q4 0 8 4 q6 8 14 18 ZM149 28 l61 0 q5 0 8 3 q2 3 3 6 q0 5 -3 7 q-3 3 -8 3 l-61 0 l0 36 l59 0 q4 0 7 3 q2 2 2 6 q0 4 -2 7 q-3 2 -7 2 l-59 0 l0 33 l69 0 q5 0 7 3 q2 3 2 6 q0 5 -2 7 q-2 3 -7 3 l-98 0 q2 10 3 19 q0 5 -3 8 q-3 2 -7 2 q-4 0 -7 -2 q-3 -3 -3 -7 q-1 -20 -7 -38 q-6 -19 -19 -36 q-4 -5 -3 -8 q0 -3 3 -6 q4 -2 8 -2 q3 0 7 3 q13 16 24 48 l13 0 l0 -157 q0 -4 3 -7 q3 -3 7 -3 q4 0 6 3 q4 3 4 7 l0 51 Z" /><glyph glyph-name="" unicode="&#x4f60;" d="M43 85 l0 -107 q0 -4 2 -7 q3 -3 7 -3 q5 0 7 3 q3 3 3 7 l0 137 q0 1 0 3 q10 22 19 52 q1 5 -1 8 q-2 3 -6 4 q-4 0 -7 0 q-4 -3 -5 -7 q-6 -31 -19 -55 q-11 -21 -30 -43 q-3 -4 -3 -7 q0 -3 4 -7 q3 -2 6 -2 q5 0 8 4 q7 8 15 20 ZM114 136 l90 0 q3 0 5 -2 q1 -2 0 -6 q0 -2 -2 -6 q-2 -6 -7 -15 q-3 -6 1 -9.5 q4 -3.5 8 -3.5 q4 0 7 6 q7 12 10 21 q2 6 3 14 q1 7 -2 12 q-3 4 -7 6 q-6 2 -10 2 l-91 0 q2 7 4 16 q0 5 -2 8 q-3 3 -7 3 q-4 0 -7 -1 q-3 -2 -4 -8 q-3 -22 -11 -41 q-7 -17 -17 -34 q-3 -3 -3 -8 q1 -4 4 -5 q4 -2 8 -2 q3 1 7 4 q10 14 18 36 q3 5 5 13 ZM182 70 q13 -24 27 -67 q1 -4 4 -6 q3 -2 8 -1 q4 2 6 5 q1 3 0 8 q-13 42 -29 70 q-2 5 -6 6 q-4 0 -8 -1 q-3 -2 -4 -6 q-1 -4 2 -8 ZM109 77 q-8 -25 -31 -64 q-2 -5 -2 -9 q1 -3 6 -5 q4 -2 7 -1 q4 1 6 5 q22 39 33 70 q0 4 -1 7 q-1 4 -6 5 q-5 0 -7 -1 q-4 -2 -5 -7 l0 0 ZM166 107 q0 5 -4 8 q-3 2 -7 2 q-4 0 -6 -2 q-3 -3 -3 -8 l0 -89 q0 -15 -7.5 -22 q-7.5 -7 -22.5 -7 q-9 -2 -9 -11 q0 -3 2 -5.5 q2 -2.5 7 -3.5 q18 0 30 7 q12 7 16 17 q4 10 4 25 l0 89 Z" /><glyph glyph-name="" unicode="&#x4f7f;" d="M40 89 l0 -112 q0 -4 3 -7 q2 -3 6 -3 q5 0 8 3 q2 3 2 7 l0 147 q8 19 15 46 q1 5 -1 8 q-1 4 -5 4 l-8 0 q-3 -3 -4 -8 q-6 -27 -17 -49 q-9 -20 -26 -40 q-3 -3 -3 -7 q0 -4 4 -6 q3 -3 6 -3 q5 1 8 4 q5 7 12 16 ZM141 73 l-44 0 l0 27 l44 0 l0 -27 ZM192 55 q10 0 17.5 4.5 q7.5 4.5 10 12.5 q2.5 8 2.5 15 q0 6 -2 12 q-2 6 -6 9.5 q-4 3.5 -9.5 6 q-5.5 2.5 -12.5 3.5 l-31 0 l0 19 l56 0 q6 0 7.5 2.5 q1.5 2.5 1.5 6.5 q0 4 -3 7 q-1 2 -6 2 l-56 0 l0 18 q0 5 -4 8 q-1 2 -6 2 q-5 0 -7 -2 q-3 -3 -3 -8 l0 -18 l-55 0 q-4 0 -7 -2 q-3 -3 -3 -6 q0 -3 1 -6.5 q1 -3.5 9 -3.5 l55 0 l0 -19 l-50 0 q-5 0 -9 -4 q-4 -3 -4 -8 l0 -37 q0 -5 5 -11 q3 -2 8 -3 l50 0 q0 -14 -3 -24 q-3 -10 -9 -17 q-3 2 -8 7 q-5 5 -11 17 q-3 3 -6 5 q-3 1 -8 -1 q-4 -3 -5 -7 q0 -4 2 -7 q6 -9 12 -16 q5 -6 9 -10 q-2 -1 -6 -4 q-12 -6 -32 -10 q-5 -1 -7 -4.5 q-2 -3.5 -1 -7.5 q1 -4 4.5 -6 q3.5 -2 8.5 0 q20 3 36 11 q8 4 15 8 q3 -1 6 -3 q12 -5 30 -10 q25 -5 55 -6 q5 0 8 4 q3 2 2 7 q-1 4 -4 7 q-4 2 -8 1 q-29 2 -47 4 q-15 3 -29 10 q7 9 11 20.5 q4 11.5 5 31.5 l31 0 ZM186 100 q14 1 17 -10 l0 -8 q-2 -9 -14 -9 l-28 0 l0 27 l25 0 Z" /><glyph glyph-name="" unicode="&#x4fe1;" d="M38 91 l0 -113 q0 -4 3 -7 q3 -3 6 -3 q5 0 8 3 q3 3 3 7 l0 143 q0 2 -1 3 q9 18 16 45 q1 5 -1 8 q-1 4 -5 5 q-5 0 -8 -1 q-3 -3 -4 -7 q-6 -26 -17 -47 q-9 -18 -25 -36 q-3 -4 -3 -7 q0 -4 4 -7 q3 -3 6 -3 q5 0 8 4 q5 6 10 13 ZM144 145 l-66 0 q-4 0 -6 -2 q-3 -3 -3 -6 q0 -5 3 -8 q1 -2 6 -2 l144 0 q4 0 7 3 q2 3 3 7 q0 3 -3 6 q-3 2 -7 2 l-60 0 q1 1 1 2 q1 4 -1 8 q-7 14 -15 22 q-3 5 -7 5 q-4 0 -8 -2 q-4 -3 -4 -7 q0 -4 3 -8 q6 -6 12 -18 q1 -1 1 -2 ZM94 114 q-4 0 -7 -2 q-1 -3 -2 -7 q0 -4 2 -6 q3 -2 7 -2 l109 0 q5 0 7 2 q2 2 2 6 q0 4 -2 7 q-2 2 -7 2 l-109 0 ZM96 81 q-4 0 -7 -3 q-2 -3 -2 -7 q0 -4 2.5 -6 q2.5 -2 6.5 -2 l106 0 q5 0 7 3 q2 3 2 6 q0 4 -2 6 q-2 3 -7 3 l-106 0 ZM174 -24 q16 0 23 3 q7 3 11.5 8 q4.5 5 6.5 10 q2 5 2 13 q0 7 -2.5 13.5 q-2.5 6.5 -7 11.5 q-4.5 5 -10.5 8 q-5 1 -14 2 l-90 0 q-6 0 -9 -3 q-4 -4 -4 -10 l0 -41 q0 -5 4 -10 q3 -5 9 -5 l81 0 ZM175 -5 l-76 0 l0 32 l78 0 q11 -2 14 -4 q3 -2 4.5 -6 q1.5 -4 1.5 -7 q0 -4 -1.5 -7 q-1.5 -3 -4.5 -5.5 q-3 -2.5 -16 -2.5 Z" /><glyph glyph-name="" unicode="&#x4fee;" d="M38 94 l0 -117 q0 -4 3 -7 q3 -3 6 -3 q5 0 8 3 q3 3 3 7 l0 148 q0 1 0 2 q8 18 14 43 q1 5 0 8 q-2 4 -6 4 q-5 0 -7 0 q-4 -3 -5 -7 q-6 -25 -16 -46 q-9 -17 -25 -35 q-3 -4 -3 -8 q0 -3 4 -6 q3 -3 6 -3 q5 0 8 4 q5 5 10 13 ZM87 118 q0 5 -2 7 q-3 2 -7 2 q-4 0 -6 -2 q-2 -2 -2 -7 l0 -104 q0 -4 2 -7 q2 -3 6 -3 q4 0 7 3 q2 3 2 7 l0 104 ZM122 139 q5 -10 11.5 -19.5 q6.5 -9.5 15.5 -17.5 q-5 -3 -14.5 -7 q-9.5 -4 -33.5 -9 q-4 -1 -7 -4 q-2 -3 -1 -7 q1 -4 5 -6 q3 -1 8 0 q25 5 39 11 q11 4 22 10 q5 -3 15 -7 q17 -6 40 -10 q4 -1 7 0 q4 2 5 7 q0 4 -2 7 q-3 3 -8 4 q-18 3 -28 7 q-9 2 -15 5 q8 8 14 18 q9 13 14 26 q6 17 -11 18 l-66 0 q1 3 2 6 q1 4 -1 8 q-2 3 -5 3 q-4 1 -8 0 q-3 -2 -4 -7 q-2 -14 -9 -25 q-5 -11 -13 -21 q-4 -3 -3 -7 q0 -4 3 -7 q4 -2 7 -2 q3 0 7 4 q7 9 14 22 ZM152 127 q-6 8 -12 20 l48 0 q-4 -9 -9 -17 q-6 -8 -15 -16 q-7 5 -12 13 ZM160 78 q-7 -6 -12.5 -10 q-5.5 -4 -11.5 -6.5 q-6 -2.5 -11 -4 q-5 -1.5 -16 -4.5 q-4 -1 -7 -4 q-1 -3 -1 -7 q1 -3 4 -5 q3 -3 8 -2 q7 1 15 4 q9 3 16 6 q8 4 15.5 8.5 q7.5 4.5 13.5 10.5 q2 2 3 5 q1 3 -2 8 q-3 3 -6 4 q-4 0 -8 -3 ZM185 59 q-9 -10 -18.5 -17.5 q-9.5 -7.5 -23.5 -12.5 q-15 -6 -34 -7 q-4 0 -7 -4 q-3 -3 -1 -7 q0 -4 3 -6 q3 -2 9 -2 q18 1 35 8 q15 5 28 14 q13 9 24 22 q3 3 3 7 q0 4 -3 6 q-4 4 -7 3 q-4 0 -8 -4 ZM210 39 q-8 -12 -17.5 -19.5 q-9.5 -7.5 -22 -14 q-12.5 -6.5 -26.5 -10.5 q-16 -4 -38 -7 q-5 0 -8 -3 q-2 -3 -2 -7 q0 -4 3 -7 q2 -3 8 -3 q22 4 43 9 q17 5 33 14 q14 7 25 17 q11 8 19 21 q3 4 2 8 q-1 4 -5 6 q-3 2 -7 1 q-5 -1 -7 -5 l0 0 Z" /><glyph glyph-name="" unicode="&#x505a;" d="M39 92 l0 -115 q0 -4 3 -7 q3 -3 6 -3 q5 0 8 3 q3 3 3 7 l0 148 q0 2 -1 2 q8 19 14 44 q1 5 0 9 q-3 2 -7 3 q-5 0 -7 -1 q-4 -2 -5 -7 q-5 -26 -16 -48 q-8 -18 -24 -38 q-3 -3 -2 -7 q0 -3 3 -6 q3 -3 7 -3 q4 1 7 5 q5 6 11 14 ZM180 29 q-3 -5 -6 -9 q-6 -8 -13 -16 q-5 -4 -12 -11 q-6 -4 -10 -6 q-5 -3 -6 -7 q-1 -4 1 -7 q3 -4 7 -5 q3 -1 6.5 1 q3.5 2 11.5 8 q8 7 16 14.5 q8 7.5 14 16.5 q12 -21 24 -36 q3 -4 8 -5 q3 -1 6 2 q4 3 5 6 q0 4 -3 8 q-17 23 -28 45 l1 1 q6 13 9 26 q3 13 4 22 q2 11 2 27 l0 27 l6 0 q8 0 9 7 q1 7 -2 10 q-3 2 -7 2 l-53 0 q1 9 1 23 q0 5 -3 8 q-2 1 -6 1 q-5 0 -6 -1 q-3 -3 -3 -8 l0 -8 q0 -11 -2 -27 q-2 -13 -7 -27 q-3 -12 -9 -23 q-3 -3 -1 -7 q1 -3 4 -5 q4 -2 7 -1 q4 1 6 6 q5 6 9 20 q5 -29 12 -54 q4 -9 8 -18 ZM199 104 q0 -10 -1.5 -21 q-1.5 -11 -3 -18.5 q-1.5 -7.5 -3.5 -12.5 q-13 33 -16 79 l24 0 l0 -27 ZM104 -9 q13 1 21 7.5 q8 6.5 11 16.5 q3 10 3 20 q0 8 -2 16 q-2 8 -7 14 q-5 6 -16 11 l0 44 l18 0 q4 0 6 3 q3 3 3 6 q0 4 -3 7 q-2 2 -6 2 l-18 0 l0 36 q0 4 -3 7 q-3 2 -7 2 q-5 0 -7 -2 q-2 -2 -3 -7 l0 -36 l-18 0 q-4 0 -7 -2 q-2 -3 -2 -7 q0 -4 2 -6 q3 -2 7 -3 l18 0 l0 -43 l-13 0 q-6 1 -9 -3 q-4 -3 -4 -9 l0 -61 q-1 -4 4 -10 q2 -3 9 -3 l23 0 ZM86 57 l14 0 q14 0 18 -13 l0 -19 q-2 -13 -18 -13 l-14 0 l0 45 Z" /><glyph glyph-name="" unicode="&#x505c;" d="M39 90 l0 -113 q0 -4 3 -7 q3 -3 6 -3 q5 0 8 3 q3 3 3 7 l0 145 q0 1 -1 2 q10 18 17 46 q1 5 0 8 q-3 3 -6 4 q-5 1 -8 0 q-3 -3 -4 -7 q-6 -27 -18 -48 q-9 -19 -26 -38 q-3 -4 -3 -7 q0 -4 4 -7 q3 -2 6 -2 q5 0 8 4 q5 6 11 13 ZM138 162 l-52 0 q-4 0 -7 -2 q-2 -3 -3 -6 q0 -4 3 -7 q3 -3 7 -3 l135 0 q4 0 6 3 q3 3 3 7 q0 3 -3 6 q-2 2 -6 2 l-62 0 q-2 8 -3 14 q-2 5 -6 6 q-4 1 -8 0 q-4 -1 -6 -5 q-1 -4 1 -8 q0 -2 1 -7 ZM71 47 q0 -4 2 -7 q3 -3 7 -3 q4 0 7 2 q3 3 3 8 l0 9 q0 2 2 4 q2 2 5 2 l110 0 q3 0 5 -4 q1 -2 -2 -12 q0 -4 1 -8 q2 -3 6 -5 q4 -1 7 1 q3 2 5 7 q3 9 3 18 q0 8 -2 12 q-2 3 -6 6 q-4 3 -9 3 l-128 0 q-5 0 -11 -5 q-5 -5 -5 -12 l0 -16 ZM144 18 q0 -15 -7.5 -22 q-7.5 -7 -22.5 -7 q-9 -2 -9 -11 q0 -3 2 -5.5 q2 -2.5 7 -3.5 q18 0 30 7 q12 7 16 17 q4 10 4 25 l0 14 l27 0 q4 0 6 3 q3 2 3 6 q0 4 -3 5 q-1 3 -6 3 l-84 0 q-4 0 -6 -3 q-2 -1 -2 -5 q0 -4 2 -7 q2 -2 6 -2 l37 0 l0 -14 ZM192 89 q7 0 12.5 3 q5.5 3 7 8.5 q1.5 5.5 1.5 10.5 q0 4 -1.5 8 q-1.5 4 -4 7 q-2.5 3 -6.5 4.5 q-4 1.5 -9 1.5 l-91 0 q-5 0 -9 -3.5 q-4 -3.5 -4 -8.5 l0 -18 q0 -7 4 -10 q4 -3 9 -3 l91 0 ZM188 115 q6 0 7.5 -1 q1.5 -1 1.5 -3 q0 -3 -1.5 -4.5 q-1.5 -1.5 -7.5 -1.5 l-81 0 l0 10 l81 0 Z" /><glyph glyph-name="" unicode="&#x50cf;" d="M39 95 l0 -118 q0 -4 3 -7 q3 -3 6 -3 q5 0 8 3 q3 3 3 7 l0 148 q0 1 -1 1 q9 18 17 44 q1 5 0 9 q-3 3 -6 4 q-4 1 -8 -1 q-3 -1 -4 -6 q-6 -26 -18 -47 q-9 -17 -25 -35 q-4 -4 -4 -8 q0 -3 4 -6 q3 -3 6 -3 q4 0 8 4 q5 6 11 14 ZM205 79 q-6 -5 -18 -11 q-4 -2 -5 -6 q-1 -4 1 -7 q2 -4 6 -5 q4 -1 7 1 q14 7 22 15 q4 3 4 7 q0 3 -3 6 q-3 3 -7 4 q-3 0 -7 -4 ZM136 106 l-39 0 l0 17 l46 0 q-3 -10 -7 -17 ZM96 140 q10 6 17 14 q1 1 3 2 q2 1 5 1 l35 0 q2 0 3 -1 q1 0 0 -1 q-1 -2 -4 -5 q-3 -4 -13 -10 l-46 0 ZM189 123 q4 0 7 -1.5 q3 -1.5 4 -6.5 q0 -5 -2.5 -7.5 q-2.5 -2.5 -7.5 -1.5 l-34 0 q4 8 7 17 l26 0 ZM159 20 q2 -13 -2 -21 q-4 -8 -12 -10 q-8 -2 -14 -2 l-13 0 q-5 0 -7.5 -2.5 q-2.5 -2.5 -2.5 -6.5 q0 -4 3 -7 q3 -3 7 -3 l13 0 q28 2 40 14 q4 5 7 15 q3 10 1 25 q18 -15 37 -27 q5 -3 8 -2 q4 0 7 4 q3 4 2 7 q-1 5 -6 7 q-24 15 -38 28 q-11 11 -22 28 q-1 1 -1 2 q-6 9 -14 20 l38 0 q11 1 17 4.5 q6 3.5 8 10 q2 6.5 2 11.5 q0 5 -1.5 9.5 q-1.5 4.5 -5 8 q-3.5 3.5 -8.5 5.5 q-4 2 -9 2 l-24 0 l3 2 q7 8 11 14 q3 6 3 10 q-1 4 -4 6 q-2 2 -7 2 l-64 0 q-4 -1 -7 -5 q-8 -8 -25 -19 q-4 -3 -5 -7 q-1 -3 1 -6 q2 -2 5 -4 q-2 -2 -2 -6 l0 -24 q0 -5 4 -9 q4 -4 9 -5 l31 0 q0 -1 -1 -2 q-8 -6 -19 -12 q-9 -4 -29 -8 q-4 -1 -6 -5 q-1 -3 0 -6 q0 -4 4 -6 q2 -2 6 -1 q9 2 21 6 q11 3 18 8 q7 4 15 10 q2 3 5 5 q4 -5 8 -10 q-16 -12 -33 -21 q-16 -7 -37 -13 q-4 -1 -7 -3 q-2 -3 -1 -8 q1 -4 5 -5 q2 -2 7 -1 q17 3 38 13 q16 8 37 23 q2 -7 3 -13 q-19 -14 -40 -23 q-17 -9 -42 -14 q-4 -1 -7 -4 q-2 -3 -1 -8 q1 -3 4 -6 q3 -2 8 -1 q20 4 43 15 q17 7 38 21 Z" /><glyph glyph-name="" unicode="&#x5165;" d="M127 94 q9 -17 27.5 -49 q18.5 -32 54.5 -72 q6 -9 14 -4 q8 5 1 14 q-45 57 -57.5 79 q-12.5 22 -22.5 41 q-10 19 -26 67 q-1 5 -4 7 q-4 2 -8 1 q-4 -2 -5 -5 q-2 -4 0 -8 q6 -23 15 -46 q0 0 0 -2 q-9 -24 -19.5 -40.5 q-10.5 -16.5 -22.5 -30.5 q-12 -14 -24.5 -26.5 q-12.5 -12.5 -34.5 -29.5 q-4 -3 -5 -7 q0 -4 3 -7 q3 -3 5 -4 q5 0 9 2 q16 11 32 26.5 q16 15.5 29.5 32 q13.5 16.5 24 33.5 q10.5 17 14.5 28 Z" /><glyph glyph-name="" unicode="&#x5168;" d="M112 -2 l-83 0 q-5 0 -8 -3 q-2 -3 -2 -6 q0 -4 2 -7 q3 -3 8 -3 l185 0 q4 0 7 3 q3 3 1.5 9.5 q-1.5 6.5 -8.5 6.5 l-83 0 l0 36 l56 0 q4 0 7 3 q2 3 3 7 q-1 3 -3 6 q-3 2 -7 2 l-56 0 l0 35 l59 0 q4 0 7 3 q2 3 2 6 q0 1 0 2 q10 -7 17 -11 q7 -6 12.5 2 q5.5 8 -2.5 12 q-33 21 -42 28 q-9 7 -20 17 q-11 10 -30 28 q-5 5 -12 5 q-6 0 -12 -6 q-18 -16 -28.5 -26.5 q-10.5 -10.5 -20 -18 q-9.5 -7.5 -42.5 -29.5 q-9 -6 -5 -12.5 q4 -6.5 15 -1.5 q8 6 19 12 q0 0 0 -1 q0 -8 9 -9 l55 0 l0 -35 l-53 0 q-5 0 -8 -3 q-2 -2 -2 -5 q0 -5 2 -7 q3 -3 8 -3 l53 0 l0 -36 ZM60 105 q7 6 17 13 q24 19 38 36 q2 3 7 5 q4 -2 7 -4 q15 -18 41 -38 q9 -6 17 -12 l-127 0 Z" /><glyph glyph-name="" unicode="&#x5173;" d="M121 45 q3 -5 7 -12 q11 -15 23.5 -26 q12.5 -11 29.5 -20.5 q17 -9.5 31 -14.5 q5 -3 9 0 q3 2 5 5 q1 2 1 6 q-3 4 -7 5 q-16 5 -29.5 14 q-13.5 9 -22.5 16 q-9 7 -15.5 14 q-6.5 7 -11 14 q-4.5 7 -8.5 15 l82 0 q10 0 10 9.5 q0 9.5 -10 9.5 l-85 0 l0 38 l72 0 q10 0 10 9.5 q0 9.5 -10 9.5 l-39 0 q9 18 15 32 q2 4 0 8 q-2 4 -7 5 q-4 1 -6 0 q-4 -2 -6 -7 q-5 -15 -19 -38 q-1 0 -1 0 l-45 0 q7 2 2 12 q-9 17 -18 28 q-3 3 -7 4 q-4 1 -8 -2 q-4 -3 -4 -7 q0 -3 3 -8 q7 -8 15 -24 q1 -1 3 -3 l-42 0 q-5 0 -7 -3 q-2 -3 -3 -7 q0 -4 3 -7 q2 -2 7 -2 l73 0 l0 -38 l-89 0 q-5 0 -7 -3 q-2 -2 -2 -6 q0 -4 2 -7 q2 -3 7 -3 l85 0 q-1 -5 -5 -12 q-3 -6 -10 -14.5 q-7 -8.5 -17 -16.5 q-10 -8 -19.5 -13 q-9.5 -5 -19 -9 q-9.5 -4 -17.5 -6 q-4 -1 -7 -5 q-2 -3 -1 -7 q1 -3 5 -5 q3 -2 9 -1 q4 1 19 6 q12 5 22.5 11 q10.5 6 20 13 q9.5 7 18.5 18 q9 11 14 23 q1 1 2 2 l0 0 Z" /><glyph glyph-name="" unicode="&#x5176;" d="M55 37 l-36 0 q-3 0 -6 -3 q-3 -3 -3 -5 q0 -5 3 -8 q2 -3 6 -3 l191 0 q3 0 6 3 q2 3 3 8 q0 3 -3 6 q-3 2 -6 2 l-37 0 l0 110 l25 0 q5 0 7 3 q3 3 3 6 q0 4 -3 7 q-2 2 -7 2 l-25 0 l0 9 q0 4 -3 7 q-2 2 -7 2 q-4 0 -7 -2 q-2 -2 -2 -7 l0 -9 l-80 0 l0 9 q0 4 -2 7 q-3 2 -8 2 q-4 0 -6 -2 q-3 -2 -3 -7 l0 -9 l-23 0 q-4 0 -7 -2 q-2 -3 -3 -7 q0 -4 3 -6 q3 -3 7 -3 l23 0 l0 -110 ZM74 37 l0 24 l80 0 l0 -24 l-80 0 ZM74 79 l0 24 l80 0 l0 -24 l-80 0 ZM74 121 l0 26 l80 0 l0 -26 l-80 0 ZM151 -8 q19 -6 50 -23 q4 -2 9 -1 q3 0 5 4 q2 4 1 7 q-1 4 -5 7 q-30 17 -55 24 q-4 1 -8 0 q-3 -2 -5 -6 q-1 -3 1 -7 q2 -4 7 -5 ZM71 9 q-12 -9 -24 -15 q-11 -4 -24 -7 q-5 -1 -6 -5 q-3 -3 -2 -6 q1 -4 3 -7 q4 -2 9 -1 q11 2 26 8 q13 6 30 18 q3 3 4 7 q0 3 -2 7 q-3 3 -7 3 q-4 0 -7 -2 l0 0 Z" /><glyph glyph-name="" unicode="&#x5177;" d="M173 49 l0 -18 l-105 0 l0 18 l105 0 ZM171 139 l-103 0 l0 17 l75 0 q14 -2 20 -6.5 q6 -4.5 8 -10.5 ZM173 103 l-105 0 l0 18 l105 0 l0 -18 ZM173 68 l-105 0 l0 17 l105 0 l0 -17 ZM76 7 q-13 -8 -28 -13 q-12 -3 -26 -5 q-5 0 -8 -4 q-2 -3 -2 -7 q0 -4 3 -6 q3 -3 8 -3 q13 1 29 7 q15 4 34 15 q4 3 6 7 q0 4 -2 7 q-3 3 -5 4 q-4 1 -9 -2 ZM193 121 q1 22 -12 35.5 q-13 13.5 -28.5 15.5 q-15.5 2 -27.5 2 l-52 0 q-24 0 -25 -22 l0 -121 l-29 0 q-3 0 -6 -1 q-3 -3 -3 -7 q0 -5 3 -7 q2 -2 6 -2 l202 0 q3 0 6 3 q3 2 3 6 q0 4 -3 7 q-2 1 -6 1 l-28 0 l0 90 ZM208 -28 q5 -3 9 -2 q4 1 6 5 q1 4 0 8 q-1 4 -6 6 q-31 14 -54 20 q-6 1 -8 -1 q-4 -2 -5 -6 q-1 -4 1 -8 q2 -3 7 -4 q20 -4 50 -18 Z" /><glyph glyph-name="" unicode="&#x517c;" d="M185 67 q-1 -5 -6 -9 q-6 -5 -18 -6 l-13 0 l0 15 l37 0 ZM185 85 l-37 0 l0 17 l7 0 q17 0 25 -6 q4 -6 5 -11 ZM128 120 l-32 0 l0 15 l32 0 l0 -15 ZM128 52 l-32 0 l0 15 l32 0 l0 -15 ZM128 85 l-32 0 l0 17 l32 0 l0 -17 ZM205 85 q-2 12 -11 22 q-12 13 -41 13 l-5 0 l0 15 l59 0 q4 0 7 3 q2 2 3 6 q0 5 -3 7 q-2 3 -7 3 l-47 0 q4 8 6 15 q2 4 0 8 q-2 4 -6 5 q-4 1 -8 0 q-4 -2 -6 -7 q-3 -8 -9 -20 q-1 0 -1 -1 l-36 0 l-5 7 q-9 11 -15 18 q-4 3 -8 3 q-4 0 -7 -2 q-3 -3 -4 -7 q0 -4 4 -8 q4 -4 9 -11 l-48 0 q-4 0 -7 -3 q-2 -3 -2 -7 q0 -4 2 -6 q2 -3 7 -3 l50 0 l0 -15 l-42 0 q-6 0 -8 -2.5 q-2 -2.5 -2 -5.5 q0 -5 1.5 -7.5 q1.5 -2.5 8.5 -2.5 l42 0 l0 -17 l-57 0 q-3 0 -6 -2 q-3 -3 -3 -7 q0 -3 1 -6 q1 -3 10 -3 l55 0 l0 -15 l-42 0 q-3 0 -7 -3 q-2 -2 -3 -5 q1 -4 3 -7 q3 -3 7 -3 l35 0 q-5 -6 -9 -9.5 q-4 -3.5 -10 -8.5 q-6 -5 -12 -9.5 q-6 -4.5 -20 -13.5 q-3 -2 -4 -5 q-2 -4 1 -8 q2 -4 5 -5.5 q3 -1.5 9 1.5 q9 6 18 13 q9 6 14 11 q7 6 14 12 l1 1 l0 -36 q0 -4 3 -7 q3 -3 7 -3 q4 0 7 3 q3 3 3 7 l0 57 l32 0 l0 -57 q0 -4 3 -7 q3 -3 7 -3 q4 0 7 3 q3 3 3 7 l0 43 q2 -2 5 -5 q8 -8 19 -16 q17 -13 36 -23 q9 -5 14 4 q5 9 -5 14 q-24 11 -38 23 q-8 5 -15 12 q-3 3 -5 5 l6 0 q20 1 31 14 q7 8 9 19 l19 0 q5 0 8 3 q1 3 2 6 q0 5 -2 7 q-2 2 -8 2 l-19 0 Z" /><glyph glyph-name="" unicode="&#x518d;" d="M180 42 l-52 0 l0 29 l52 0 l0 -29 ZM177 87 l-49 0 l0 31 q9 -1 18 -4 q9 -3 17 -9.5 q8 -6.5 13 -14.5 q0 -1 1 -3 ZM108 87 l-51 0 l0 31 l51 0 l0 -31 ZM57 42 l0 29 l51 0 l0 -29 l-51 0 ZM108 135 l-54 0 q-17 -3 -17 -16 l0 -77 l-18 0 q-3 0 -6 -2 q-3 -3 -3 -6 q0 -5 3 -7 q2 -2 6 -2 l18 0 l0 -53 q0 -4 3 -6 q3 -3 6 -3 q5 0 8 3 q3 2 3 6 l0 53 l123 0 l0 -20 q0 -9 -5 -17 q-5 -8 -13.5 -9 q-8.5 -1 -14.5 -1 l-13 0 q-6 0 -8.5 -2.5 q-2.5 -2.5 -2.5 -6.5 q0 -2 3 -5 q3 -3 8 -3 l13 0 q29 2 41 12 q12 10 12 32 l0 20 l15 0 q10 0 10.5 8 q0.5 8 -10.5 9 l-15 0 l0 29 q0 13 -6 24.5 q-6 11.5 -16.5 20.5 q-10.5 9 -26.5 15 q-3 2 -15 4 l-8 0 l0 19 l82 0 q4 0 7 2 q2 3 2 8 q0 4 -2 6 q-3 2 -7 2 l-186 0 q-4 0 -7 -3 q-3 -2 -3 -5 q0 -5 3 -8 q2 -2 7 -2 l84 0 l0 -19 Z" /><glyph glyph-name="" unicode="&#x5199;" d="M19 34 q-3 0 -6 -3 q-3 -1 -3 -5 q0 -5 3 -8 q2 -2 6 -2 l135 0 q4 0 7 3 q2 2 3 7 q0 4 -3 6 q-3 2 -7 2 l-135 0 ZM12 128 q0 -4 3 -7 q2 -2 6 -3 q4 0 8 3 q3 3 3 7 l0 14 q0 11 11 12 l146 0 q10 0 12 -7 q1 -4 -5 -13 q-2 -5 -1 -8 q1 -3 6 -5 q4 -2 8 0 q3 1 5 6 q6 12 8 23 q0 8 -2 13 q-2 4 -6 7 q-4 2 -9 2 l-175 0 q-15 0 -18 -17 l0 -27 ZM179 9 q-1 -5 -2 -9 q-3 -10 -11 -15 q-8 -3 -21 -3 q-16 0 -32 4 q-6 2 -9 0 q-4 -2 -5 -6 q-1 -3 0 -6 q2 -4 7 -6 q15 -6 37 -6 q20 -1 34 6 q10 5 16 17 q5 9 6 30 l-1 11 q0 9 -4 19 q-4 10 -11.5 17 q-7.5 7 -14.5 9 q-7 2 -14 3 l-80 0 q-1 -1 -2 0 q-1 1 -1 4 l5 21 l107 0 q4 0 7 2 q2 3 3 7 q0 4 -3 6 q-3 2 -7 3 l-101 0 l4 14 q2 10 -6 12.5 q-8 2.5 -13 -7.5 l-17 -61 q-3 -7 2 -13 q5 -6 11 -6 l92 0 q6 0 12 -5 q6 -5 9 -12.5 q3 -7.5 3 -13.5 l0 -16 Z" /><glyph glyph-name="" unicode="&#x51b3;" d="M19 152 q12 -14 26 -42 q1 -4 6 -6 q3 -2 8 0 q3 2 5 6 q1 3 -1 8 q-14 28 -28 46 q-3 4 -7 5 q-4 0 -8 -3 q-3 -2 -4 -6 q1 -4 3 -8 ZM42 56 q-3 -20 -11 -37 q-6 -15 -18 -29 q-3 -4 -2 -8 q0 -4 4 -7 q2 -2 7 -2 q4 1 7 4 q10 13 18 31 q9 18 15 44 q1 6 -2 8 q-1 4 -6 5 q-5 0 -8 -2 q-3 -2 -4 -7 ZM205 81 q-1 19 -4 29 q-5 12 -14 19.5 q-9 7.5 -20 11.5 q-9 3 -21 4 l0 28 q0 5 -3 8 q-2 2 -6 2 q-5 0 -7 -2 q-2 -3 -2 -8 l0 -29 l-42 0 q-4 0 -8 -2 q-2 -3 -3 -7 q1 -4 3 -7 q4 -3 8 -3 l42 0 l0 -28 q0 -8 -2 -16 l-48 0 q-5 0 -7 -3 q-2 -2 -3 -6 q0 -4 3 -7 q2 -3 7 -3 l45 0 q-1 -3 -2 -5 q-3 -9 -8.5 -20 q-5.5 -11 -11.5 -19 q-6 -8 -13.5 -14 q-7.5 -6 -14.5 -10.5 q-7 -4.5 -13 -7.5 q-7 -5 -3 -12 q4 -7 13 -3 q4 2 13 7 q9 5 17.5 12 q8.5 7 15.5 16 q7 9 12.5 19.5 q5.5 10.5 8.5 19.5 q4 -11 14 -24.5 q10 -13.5 24.5 -26 q14.5 -12.5 35.5 -23.5 q5 -3 10 -2 q3 1 5 4 q2 2 2 6 q-2 5 -5 6 q-23 14 -30.5 20 q-7.5 6 -15.5 14.5 q-8 8.5 -14 17.5 q-6 9 -9 14.5 q-3 5.5 -4 10.5 l70 0 q5 0 7 4 q2 2 2 6 q0 4 -3 7 q-2 2 -6 2 l-15 0 ZM146 126 q8 0 14 -2 q7 -3 13.5 -9 q6.5 -6 9.5 -14 q2 -7 3 -20 l-39 0 q-1 4 -1 12 l0 33 Z" /><glyph glyph-name="" unicode="&#x51b5;" d="M16 155 q13 -18 28 -52 q1 -5 5 -6.5 q4 -1.5 10 2.5 q6 4 3 11 q-14 34 -29 56 q-3 4 -7 5 q-4 1 -8 -2 q-3 -2 -4 -6 q-1 -4 2 -8 ZM89 172 q-5 0 -9 -3 q-4 -4 -4 -10 l0 -65 q2 -14 13 -15 l21 0 l0 -22 q0 -6 -1 -12 q-1 -6 -3 -11.5 q-2 -5.5 -7 -12.5 q-5 -7 -10 -12.5 q-5 -5.5 -11 -9 q-6 -3.5 -12 -6.5 q-5 -2 -9 -5 q-5 -2 -6 -5 q-2 -4 0 -8 q1 -3 4 -4 q4 -2 9 0 q3 1 11 5 q8 4 15 9 q7 5 12.5 10.5 q5.5 5.5 11.5 13.5 q6 8 9 16 q3 8 4 15 q1 7 1 17 l0 22 l28 0 l0 -85 q0 -11 11 -19 q4 -3 15 -3 l28 0 q10 2 12 5.5 q2 3.5 4 7.5 q1 4 2 9 q1 6 2 21 q0 10 -8.5 11 q-8.5 1 -10.5 -9 l-1 -16 q-1 -11 -13 -12 l-11 0 q-10 1 -11 12 l0 80 q12 3 20 10.5 q8 7.5 11 16 q3 8.5 3 18.5 q0 9 -3 18 q-3 9 -9 15 q-6 6 -15 10 q-7 2 -14 3 l-79 0 ZM46 64 q-3 -22 -13 -41 q-7 -17 -20 -33 q-3 -4 -2 -8 q0 -4 4 -7 q2 -2 6 -2 q5 1 8 4 q11 14 21 35 q9 19 16 48 q1 5 -1 9 q-2 3 -6 4 q-4 0 -8 -1 q-4 -3 -5 -8 ZM95 97 l0 57 l66 0 q6 0 11 -2 q5 -2 9.5 -6.5 q4.5 -4.5 6 -9.5 q1.5 -5 1.5 -11 q0 -6 -1.5 -10.5 q-1.5 -4.5 -6 -9 q-4.5 -4.5 -9.5 -6.5 q-5 -2 -11 -2 l-66 0 Z" /><glyph glyph-name="" unicode="&#x5206;" d="M77 169 q-13 -24 -28 -41 q-14 -17 -33 -33 q-4 -3 -5 -7 q-1 -4 2 -7 q2 -3 5 -3 q4 -2 9 1 q16 13 34 33 q16 18 34 49 q2 4 1 8 q-1 3 -5 5 q-5 2 -7 1 q-4 -1 -7 -6 ZM142 162 q13 -25 32 -48 q18 -20 38 -36 q4 -4 9 -4 q3 1 7 4 q2 4 2 7 q-1 5 -6 8 q-25 20 -40 39 q-13 16 -24 38 q-2 5 -6 6 q-4 1 -8 -1 q-4 -2 -5 -6 q-1 -3 1 -7 ZM183 48 q-1 3 -2 6 q-6 13 -15.5 23 q-9.5 10 -22.5 16 q-11 5 -26 6 l-55 0 q-5 0 -8 -2 q-2 -3 -2 -7 q0 -4 2 -7 q3 -2 8 -2 l26 0 q-1 -13 -4 -24 q-3 -12 -12 -23.5 q-9 -11.5 -20 -19.5 q-10 -10 -36 -23 q-3 -1 -5 -5 q-1 -4 1 -8 q2 -2 5 -3 q5 -1 9 1 q25 12 37 22 q16 13 25.5 25.5 q9.5 12.5 13.5 28.5 q5 15 7 29 l6 0 q10 0 19.5 -4.5 q9.5 -4.5 17 -12 q7.5 -7.5 12.5 -16.5 q3 -7 4 -14 q0 -9 -1 -14 q-1 -5 -4 -13 q-4 -10 -13 -14 q-6 -3 -19 -3 q-16 0 -32 4 q-6 2 -9 0 q-4 -2 -5 -6 q-1 -3 0 -6 q2 -4 7 -6 q14 -5 36 -5 q20 -1 32 5 q10 5 17 17 q4 8 8 27 l0 2 q1 4 1 8 q0 8 -3 18 Z" /><glyph glyph-name="" unicode="&#x5236;" d="M178 153 q0 3 -2 6 q-3 3 -8 3 q-3 0 -6 -3 q-2 -3 -2 -6 l0 -125 q0 -5 3 -8 q2 -2 5 -2 q5 0 7 2 q3 3 3 8 l0 125 ZM120 24 q0 -6 -3 -12 q-6 -9 -17 -11 q-9 -2 -9 -10 q1 -4 2.5 -5 q1.5 -1 6.5 -2 q15 0 22 6 q9 7 13 15.5 q4 8.5 3.5 15 q-0.5 6.5 -2.5 13.5 q-5 12 -13.5 19 q-8.5 7 -18.5 11 q-7 3 -14 3 l0 21 l49 0 q4 0 7 3 q2 3 3 7 q0 4 -3 7 q-2 2 -7 2 l-49 0 l0 28 l42 0 q4 0 6 2 q3 3 3 6 q0 5 -3 7 q-2 3 -6 3 l-42 0 l0 21 q0 4 -3 7 q-2 2 -6 2 q-5 0 -8 -2 q-1 -2 -2 -7 l0 -21 l-23 0 q3 7 5 16 q1 4 -1 7 q-3 4 -7 4 q-3 0 -6 -2 q-2 -2 -3 -6 q-3 -13 -8 -24 q-3 -9 -11 -20 q-2 -3 -2 -7 q0 -3 3 -6 q3 -2 7 -2 q4 1 7 5 q5 7 10 17 l29 0 l0 -28 l-52 0 q-4 0 -7 -3 q-2 -3 -2 -6 q0 -4 3 -7 q2 -3 6 -3 l52 0 l0 -20 l-31 0 q-7 1 -12.5 -4 q-5.5 -5 -5.5 -13 l0 -56 q0 -4 3 -7 q3 -3 7 -3 q4 0 7 3 q3 3 3 7 l0 54 l29 0 l0 -72 q0 -4 2 -7 q3 -3 8 -3 q4 0 6 3 q3 3 3 7 l0 71 q3 0 7 -1 q6 -2 12 -6 q6 -4 10 -12 q1 -3 1 -5 ZM218 172 q0 5 -3 8 q-4 2 -8 2 q-4 0 -6 -2 q-3 -3 -3 -8 l0 -154 q0 -15 -7.5 -22 q-7.5 -7 -22.5 -7 q-9 -2 -9 -11 q0 -3 2 -5.5 q2 -2.5 7 -3.5 q18 0 30 7 q12 7 16 17 q4 10 4 25 l0 154 Z" /><glyph glyph-name="" unicode="&#x524d;" d="M150 156 l-52 0 q-3 13 -8 21 q-3 4 -6 5 q-4 2 -8 0 q-4 -2 -5 -6 q-1 -4 1 -8 q2 -4 4 -12 l-57 0 q-3 0 -6 -2 q-3 -3 -3 -7 q0 -4 3 -7 q2 -2 6 -2 l202 0 q3 0 6 2 q3 3 3 7 q0 5 -3 7 q-2 2 -6 2 l-49 0 q3 8 5 14 q2 5 0 8 q-2 4 -7 5 q-4 0 -7 -1 q-4 -2 -5 -7 q-2 -7 -8 -19 ZM165 103 q0 5 -3 8 q-4 2 -6 2 q-5 0 -8 -3 q-2 -2 -2 -7 l0 -85 q0 -5 2 -8 q3 -2 8 -2 q3 0 6 2 q3 3 3 8 l0 85 ZM208 119 q0 5 -3 8 q-4 2 -8 2 q-4 0 -6 -2 q-3 -3 -3 -8 l0 -101 q0 -15 -7.5 -22 q-7.5 -7 -22.5 -7 q-9 -2 -9 -11 q0 -3 2 -5.5 q2 -2.5 7 -3.5 q18 0 30 7 q12 7 16 17 q4 10 4 25 l0 101 ZM103 38 l-53 0 l0 24 l53 0 l0 -24 ZM99 80 l-49 0 l0 22 l13 0 q8 -1 14 -3 q7 -3 14 -9 q4 -4 8 -10 ZM103 20 l0 -5 q0 -14 -7.5 -21 q-7.5 -7 -21.5 -7 q-9 -2 -9 -10 q0 -3 2 -5.5 q2 -2.5 7 -3.5 q17 0 28.5 7 q11.5 7 15.5 16.5 q4 9.5 4 23.5 l0 45 q0 13 -4.5 25 q-4.5 12 -13.5 19.5 q-9 7.5 -20 11.5 q-10 4 -22 4 l-15 0 q-5 0 -10.5 -4.5 q-5.5 -4.5 -5.5 -11.5 l0 -127 q0 -4 2 -7 q3 -3 8 -3 q4 0 6 3 q3 3 3 7 l0 43 l53 0 Z" /><glyph glyph-name="" unicode="&#x52a0;" d="M106 28 q0 -40 -48 -45 l-5 1 q-4 0 -5.5 -1 q-1.5 -1 -2.5 -6 q0 -4 2.5 -6.5 q2.5 -2.5 6.5 -2.5 l7 -1 q59 2 63 60 l0 49 q3 60 -49 66 l-7 0 l0 30 q0 5 -3 8 q-3 2 -8 2 q-3 0 -6 -2 q-3 -3 -3 -8 l0 -30 l-21 0 q-6 0 -9 -3 q-3 -3 -3 -7 q0 -4 3 -7 q3 -2 9 -2 l21 0 q1 -58 -12 -101 q-8 -19 -23 -27 q-2 -2 -3 -5 l1 -4 q1 -3 5 -4 q5 -1 8 1 q20 7 31 35 q14 46 13 105 l6 0 q34 2 32 -47 l0 -48 ZM187 -20 q52 17 56 70 l0 36 q-6 50 -56 67 l-32 0 q-7 0 -13 -5 q-6 -5 -5 -12 l0 -138 q-1 -7 5 -13 q6 -4 13 -5 l32 0 ZM186 135 q33 -11 38 -49 l0 -36 q-5 -41 -38 -52 l-31 0 l0 137 l31 0 Z" /><glyph glyph-name="" unicode="&#x52a8;" d="M31 166 q-5 0 -8 -2 q-3 -3 -3 -7 q0 -4 3 -7 q2 -2 8 -2 l74 0 q4 0 7 3 q2 3 2 6 q0 4 -2 7 q-3 2 -7 2 l-74 0 ZM118 4 q-8 -15 -16 -21 q-2 -2 -3 -5 l1 -4 q1 -3 5 -4 q6 -1 9 1 q14 10 33 51 q14 46 14 105 l4 0 q40 4 38 -48 l0 -58 q0 -29 -44 -32 l-5 0 q-5 0 -6.5 -2.5 q-1.5 -2.5 -1.5 -6.5 q0 -5 2 -6.5 q2 -1.5 6 -1.5 l4 0 q60 1 63 48 l0 59 q4 67 -56 67 l-4 0 l0 30 q0 5 -3 8 q-3 2 -8 2 q-3 0 -6 -2 q-3 -3 -3 -8 l0 -30 l-20 0 q-6 0 -9 -3 q-3 -3 -3 -7 q0 -4 3 -7 q3 -2 9 -2 l20 0 q0 -58 -12 -101 q-1 -3 -3 -8 q-9 27 -19 43 q-3 4 -6 5 q-4 1 -7 -1 q-4 -2 -5 -6 q-1 -3 2 -7 q3 -6 7 -14 l-61 -13 l34 71 q1 1 1 2 l43 0 q4 0 7 2 q3 3 3 7 q0 4 -3 6 q-2 2 -7 3 l-96 0 q-3 0 -6 -3 q-3 -2 -3 -6 q0 -5 3 -7 q2 -2 6 -2 l31 0 l-35 -75 q-2 -7 1 -13 q2 -6 12 -5 l77 16 q2 -4 4 -10 q2 -4 5 -6 q1 -1 4 -1 Z" /><glyph glyph-name="" unicode="&#x5355;" d="M106 67 l-61 0 l0 20 l61 0 l0 -20 ZM126 67 l0 20 l60 0 q-1 -20 -29 -20 l-31 0 ZM154 125 q29 -1 32 -20 l-60 0 l0 20 l28 0 ZM106 105 l-61 0 l0 20 l61 0 l0 -20 ZM167 169 q1 5 0 8 q-2 4 -6 5 q-5 1 -7 0 q-4 -1 -6 -6 q-6 -13 -18 -33 q-1 0 -1 -1 l-39 0 q1 2 2 3 q1 4 -1 9 q-8 15 -17 25 q-2 3 -6 3 q-4 1 -8 -1 q-3 -3 -3 -6 q0 -4 2 -8 q7 -7 14 -22 q0 -1 1 -3 l-29 0 q-8 0 -13 -4 q-6 -6 -6 -13 l0 -58 q0 -8 6 -13 q5 -5 13 -5 l61 0 l0 -18 l-87 0 q-3 0 -6 -2 q-3 -3 -3 -7 q0 -4 3 -7 q2 -2 6 -2 l87 0 l0 -35 q0 -4 3 -7 q3 -3 6 -3 q5 0 8 3 q3 3 3 7 l0 35 l84 0 q5 0 8 3 q3 2 3 6 q0 4 -3 7 q-3 2 -8 2 l-84 0 l0 18 l34 0 q44 1 47 39 l0 15 q-6 37 -53 39 q8 14 13 27 Z" /><glyph glyph-name="" unicode="&#x539f;" d="M189 85 q-1 -15 -29 -15 l-72 0 l0 15 l101 0 ZM88 103 l0 16 l71 0 q30 1 30 -16 l-101 0 ZM173 20 q14 -12 33 -37 q4 -4 7 -5 q3 -1 7 1 q3 3 4 7 q1 4 -1 7 q-20 26 -38 41 q-2 3 -7 3 q-4 0 -7 -3 q-3 -3 -3 -6 q0 -5 5 -8 ZM72 11 q-7 -8 -17 -15 q-4 -3 -5 -6 q-1 -4 2 -8 q2 -3 6 -4 q4 -1 8 2 q9 7 19 17 q10 10 19 27 q2 4 2 7 q-2 4 -5 6 q-4 2 -7 1 q-4 -1 -7 -6 q-6 -12 -15 -21 ZM131 18 q-3 -32 -27 -32 l-6 0 q-5 0 -7.5 -2.5 q-2.5 -2.5 -2.5 -6.5 q0 -4 3.5 -7 q3.5 -3 7.5 -3 l6 0 q42 2 46 51 l0 34 l8 0 q47 1 50 34 l0 17 q-4 34 -50 34 l-15 0 q3 9 4 16 l0 1 l69 0 q5 0 8 2 q3 2 3 8 q0 4 -3 6 q-3 2 -8 2 l-167 0 q-8 1 -14 -4 q-4 -5 -4 -13 l0 -91 q0 -23 -5 -45 q-5 -17 -14 -33 q-3 -5 -2 -9 q0 -2 4 -5 q2 -3 7 -2 q4 0 7 5 q6 7 11 20 q5 14 7 30 q4 18 4 33 l0 89 q0 3 2 5 q1 2 5 2 l70 0 q-1 -6 -5 -16 l0 -1 l-40 0 q-6 0 -10 -4 q-3 -4 -3 -8 l0 -58 q-1 -6 3 -10 q3 -4 10 -5 l48 0 l0 -34 Z" /><glyph glyph-name="" unicode="&#x53bb;" d="M40 -9 q-6 -5 -1 -14 q5 -8 19 -4 l133 15 q5 -7 9 -14 q2 -4 7 -5 q3 -1 6 1 q4 3 5 6 q1 3 -1 7 q-8 13 -21 29 q-12 17 -16 22 q-3 4 -8 4 q-4 0 -6 -2 q-4 -3 -4 -6 q0 -4 3 -8 q3 -4 14 -17 l-107 -13 q-3 -1 -5 1 q-2 3 2 7 l55 70 l86 0 q5 0 8 3 q3 2 3 6 q0 5 -3 6 q-3 3 -8 3 l-84 0 l0 39 l68 0 q4 0 7 4 q2 3 3 6 q0 5 -3 7 q-3 2 -7 2 l-68 0 l0 28 q0 4 -3 7 q-3 2 -8 2 q-3 0 -6 -2 q-3 -2 -3 -7 l0 -28 l-68 0 q-4 0 -6 -2 q-3 -2 -3 -7 q0 -4 3 -7 q1 -3 6 -3 l68 0 l0 -39 l-87 0 q-3 0 -6 -3 q-3 -2 -3 -6 q0 -4 3 -6 q2 -3 6 -3 l79 0 l-58 -79 Z" /><glyph glyph-name="" unicode="&#x53c2;" d="M141 74 q-14 -9 -29 -13 q-13 -4 -28 -5 q-5 0 -8 -4 q-3 -2 -3 -7 q1 -3 4 -6 q3 -2 9 -2 q12 1 29 6 q15 5 36 16 q4 2 5 6 q0 4 -1 7 q-2 3 -6 4 q-4 1 -8 -2 ZM191 29 q-23 -14 -40 -22 q-14 -5 -32 -10 q-17 -6 -31 -7 q-15 -2 -43 -2 q-5 0 -8 -3 q-3 -3 -3 -8 q1 -4 3 -7 q3 -3 8 -3 q18 0 40 4 q19 2 40 7 q18 6 40 15 q20 9 36 19 q4 2 6 6 q0 3 -2 7 q-2 4 -7 5 q-3 1 -7 -1 ZM166 51 q-27 -15 -53 -21 q-23 -7 -52 -8 q-4 -1 -7 -4 q-3 -1 -3 -6 q0 -4 3 -7 q3 -2 8 -2 q23 0 52 8 q25 6 61 23 q4 3 6 7 q1 3 -1 6 q-3 4 -6 5 q-4 1 -8 -1 ZM150 85 q0 0 1 -1 q15 -19 32 -34 q17 -13 36 -23 q4 -2 9 -1 q4 1 6 4 q2 3 1 8 q-1 3 -6 6 q-24 12 -37 24 q-9 7 -18 17 l49 0 q4 0 6 3 q3 3 3 8 q0 4 -3 6 q-2 2 -6 2 l-106 0 q4 8 7 17 q0 2 0 2 l62 6 q2 -5 5 -11 q2 -5 5 -6 q4 -1 9 0 q4 1 5 5 q1 4 0 9 q-5 11 -14 26 q-8 15 -11 20 q-2 5 -7 6 q-4 0 -8 -2 q-3 -3 -3 -7 q-1 -3 1 -7 q2 -4 9 -15 l-100 -10 q-3 -1 -5 1 q-1 1 2 5 l21 21 q3 2 2 8 q-1 5 -8 8 q-3 1 -5 0 q-3 -1 -5 -4 l-34 -39 q-4 -5 -1 -14 q4 -8 18 -5 l41 4 q-4 -10 -8 -18 l-71 0 q-5 0 -7 -3 q-2 -2 -3 -5 q0 -5 3 -8 q2 -3 7 -3 l57 0 q-2 0 -4 -2 q-10 -10 -23 -19 q-15 -8 -36 -18 q-4 -1 -6 -5 q-2 -3 -1 -8 q2 -3 6 -4 q3 -2 8 -1 q20 9 39 21 q15 9 29 22 q6 7 13 14 l44 0 Z" /><glyph glyph-name="" unicode="&#x53ca;" d="M127 11 q-1 0 -1 0 q-19 -9 -55 -19 q-6 -2 -8 -3 q-2 -3 -1 -8 q1 -5 4 -6 q4 -2 9 -1 q18 3 41 13 q14 5 26 12 q9 -5 20 -11 q24 -13 54 -20 q5 -1 8 1 q4 2 5 7 q1 4 -1 7 q-3 4 -7 5 q-25 5 -41 13 q-12 4 -21 10 q9 6 16 13 q13 12 23 28 q10 16 12 32 q1 7 0 11 q0 5 -4 7 q-3 4 -12 3 l-26 0 q-2 1 -4 2 q-1 1 -1 2 l19 43 q3 8 -3 14 q-5 5 -12 5 l-128 0 q-5 0 -7 -2 q-3 -2 -3 -6 q0 -4 3 -8 q2 -2 7 -2 l28 0 l0 -23 q0 -12 -1 -24 q-1 -15 -4 -27 q-2 -10 -6 -24 q-4 -14 -10 -24 q-5 -11 -11 -20 q-4 -7 -10 -13 q-6 -6 -9 -8 q-5 -3 -6 -8 q0 -4 3 -7 q3 -3 6 -3 q5 0 9 2 q2 2 10 9 q7 7 14 18 q5 7 11 18 q4 10 9 24 q5 15 8 30 q1 6 2 10 q0 0 0 0 q6 -20 19 -40 q11 -19 25 -31 q0 0 1 -1 ZM155 153 q2 0 4 -1 q1 -2 0 -5 l-18 -44 q-2 -5 1 -11 q5 -5 12 -6 l33 0 q3 0 5 -1 q1 0 1 -1 q-1 -7 -6 -16 q-5 -11 -13 -21 q-8 -10 -21 -19 q-5 -4 -10 -7 q-13 10 -25 28 q-9 13 -17 39 q-2 5 -5 7 q-3 2 -8 1 q-2 -1 -4 -4 q0 4 1 7 q1 14 1 31 l0 23 l69 0 Z" /><glyph glyph-name="" unicode="&#x53cb;" d="M84 77 q5 -15 15 -31 q10 -19 24 -31 q2 -2 3 -3 q-8 -4 -15 -8 q-21 -9 -54 -16 q-4 -1 -7 -4 q-2 -4 -1 -8 q1 -3 5 -6 q3 -2 7 -1 q27 6 57 19 q12 5 23 12 q7 -6 17 -10 q25 -14 54 -22 q5 -1 9 1 q3 1 4 6 q1 3 -1 7 q-1 4 -7 5 q-25 6 -41 14 q-11 4 -20 10 q4 3 8 5 q15 13 24 27 q14 18 19 36 q3 13 -2 19 q-5 4 -14 4 l-97 0 q3 10 5 20 q2 5 3 9 l113 0 q5 0 7 4 q2 2 2 5 q0 5 -2 8 q-2 2 -7 2 l-108 0 q3 11 4 21 q1 4 -2 7 q-2 4 -7 4 q-4 0 -7 -1 q-3 -3 -4 -7 q-2 -12 -5 -24 l-62 0 q-5 0 -7 -3 q-2 -3 -3 -7 q0 -3 3 -6 q1 -3 7 -3 l60 0 q-2 -6 -4 -13 q-6 -19 -15 -39 q-9 -21 -19 -35 q-10 -16 -33 -43 q-3 -4 -2 -8 q0 -3 4 -6 q3 -3 6 -3 q5 1 8 4 q15 16 29 40 q13 20 24 44 q1 2 2 5 ZM141 21 q-13 11 -26 30 q-8 12 -14 33 l79 0 q3 0 5 -1 q1 -3 1 -7 q-3 -9 -14 -26 q-7 -11 -19 -20 q-6 -4 -12 -9 q0 0 0 0 l0 0 Z" /><glyph glyph-name="" unicode="&#x53d1;" d="M160 158 q10 -4 24 -16 q4 -3 8 -3 q4 1 6 3 q3 4 3 8 q0 4 -5 6 q-14 13 -28 19 q-3 2 -7 1 q-4 -1 -5 -5 q-2 -3 -1 -7 q1 -3 5 -6 ZM86 69 q6 -16 17 -33 q9 -13 18 -22 q-7 -4 -13 -8 q-19 -8 -53 -18 q-5 0 -7 -4 q-2 -3 -1 -7 q0 -3 4 -5 q3 -3 8 -2 q32 8 55 20 q12 5 21 12 q11 -8 27 -15 q23 -11 51 -17 q5 -1 9 2 q3 2 4 5 q0 4 -2 8 q-1 2 -6 3 q-24 3 -39 11 q-17 6 -27 15 q3 3 6 5 q14 12 25 27 q10 15 14 27 q3 5 2 9 q-1 3 -3 6 q-3 3 -10 3 l-90 0 q5 10 8 21 l119 0 q2 0 6 2 q3 2 3 7 q0 4 -3 6 q-3 2 -6 3 l-112 0 q6 22 10 40 q1 5 -1 8 q-3 3 -6 4 q-5 0 -8 -1 q-3 -3 -4 -7 q-5 -25 -11 -44 l-38 0 q-7 -2 -5 5 l17 29 q1 4 0 7 q-1 3 -5 5 q-2 2 -6 1 q-4 -1 -6 -5 l-23 -44 q-4 -6 -1 -11 q3 -5 9 -5 l53 0 q-7 -16 -15 -34 q-11 -20 -22 -34 q-10 -16 -36 -43 q-3 -3 -3 -8 q1 -3 4 -6 q3 -3 7 -3 q5 0 8 4 q16 15 31 39 q14 19 26 42 ZM120 43 q-7 11 -16 30 l66 0 q4 0 5 0 q1 -2 0 -4 q-2 -3 -10 -15 q-10 -14 -25 -26 q-2 -2 -3 -3 q-9 7 -17 18 l0 0 Z" /><glyph glyph-name="" unicode="&#x53d6;" d="M33 12 q-7 0 -13 -1 q-4 0 -7 -3 q-3 -3 -3 -7 q1 -4 4 -7 q3 -3 7 -3 q24 2 63 7 q5 1 11 2 l0 -23 q0 -4 3 -7 q3 -3 6 -3 q5 0 8 3 q2 3 2 7 l0 26 q6 1 11 2 q5 2 6 5 q2 4 1 8 q-1 4 -4 6 q-3 1 -9 0 q-3 -1 -5 -1 l0 131 l10 0 q4 0 7 2 q2 3 3 8 q0 4 -3 6 q-3 2 -7 2 l-102 0 q-5 0 -6 -3 q-3 -2 -3 -5 q0 -5 3 -8 q1 -2 6 -2 l11 0 l0 -142 ZM73 16 q-11 -1 -20 -2 l0 35 l42 0 l0 -30 q-9 -1 -22 -3 ZM53 68 l0 34 l42 0 l0 -34 l-42 0 ZM53 120 l0 34 l42 0 l0 -34 l-42 0 ZM186 10 q13 -22 27 -37 q3 -4 8 -4 q3 -1 7 2 q3 3 4 6 q0 5 -4 9 q-18 19 -31 40 q6 10 13 22 q8 20 11 36 q3 18 6 37 q2 19 2 28 q0 8 -3 12 q-2 3 -5 6 q-5 2 -9 1 l-65 0 q-4 0 -6 -2 q-3 -2 -3 -7 q0 -4 3 -6 q1 -3 6 -3 l57 0 q5 0 6 -2 q1 -2 1 -4 q0 -7 -1 -24 q-2 -15 -5 -31 q-3 -13 -9 -28 q-4 -8 -9 -17 q-2 4 -4 8 q-15 29 -18 73 q-1 3 -4 6 q-4 2 -6 2 q-5 -1 -7 -4 q-2 -3 -2 -7 q9 -46 23 -77 q4 -10 8 -17 q-7 -10 -14 -19 q-13 -13 -27 -21 q-4 -3 -8 -7 q0 -4 2 -7 q2 -3 6 -5 q4 -1 8 2 q16 9 27 20 q8 9 15 19 l0 0 Z" /><glyph glyph-name="" unicode="&#x53d7;" d="M188 177 q-24 -4 -74 -7 q-50 -1 -87 -1 q-5 0 -8 -3 q-2 -2 -2 -7 q0 -4 1 -7 q3 -2 8 -3 q39 -1 101 3 q41 1 66 6 q5 1 6 5 q2 3 1 7 q-1 4 -4 6 q-2 2 -8 1 ZM150 111 l-31 0 q3 2 5 3 q1 4 0 9 q-4 11 -10 19 q-1 3 -6 4 q-3 1 -7 -1 q-4 -2 -4 -5 q-1 -4 1 -9 q3 -4 7 -14 q1 -4 4 -6 l-44 0 q1 2 3 3 q1 4 -1 9 q-5 11 -10 17 q-3 4 -8 5 q-3 1 -6 -2 q-4 -1 -5 -5 q0 -4 3 -8 q4 -5 8 -15 q1 -2 3 -4 l-24 0 q-7 0 -12 -5 q-6 -6 -5 -12 l0 -23 q0 -4 3 -7 q2 -3 6 -3 q4 0 7 2 q3 4 3 8 l0 14 q0 3 2 5 q2 2 4 2 l151 0 q4 0 6 -4 q1 -4 -1 -16 q-2 -4 0 -8 q2 -3 5 -5 q5 -1 8 1 q4 2 5 7 q3 11 3 21 q0 9 -2 13 q-1 4 -6 8 q-4 2 -9 2 l-23 0 q8 14 11 26 q2 5 0 7 q-1 4 -5 5 q-5 1 -8 0 q-3 -2 -5 -7 q-4 -12 -15 -31 q0 0 -1 0 ZM106 -6 q11 -6 22 -10 q17 -8 40 -10 q23 -3 36 -3 q6 1 8 4 q1 3 1 6 q0 3 -2 6 q-2 3 -8 3 q-27 -1 -45 1 q-16 5 -26 9 q-5 2 -8 3 q4 4 10 8 q14 9 25 22 q10 12 16 22 q3 5 2 10 q-1 4 -4 8 q-5 3 -10 3 l-107 0 q-5 0 -8 -3 q-2 -2 -3 -6 q0 -4 3 -7 q3 -2 8 -2 l90 0 q5 0 6 -2 q1 -1 0 -2 q-2 -3 -11 -13 q-10 -11 -27 -21 q-4 -2 -9 -5 q-2 1 -4 3 q-15 10 -31 27 q-4 3 -8 3 q-3 0 -6 -3 q-3 -2 -3 -6 q0 -4 3 -8 q14 -13 31 -26 q-2 -1 -5 -2 q-20 -7 -55 -14 q-5 0 -8 -3 q-2 -4 -2 -8 q0 -3 4 -6 q3 -3 8 -3 q33 7 58 17 q10 4 19 8 l0 0 Z" /><glyph glyph-name="" unicode="&#x53d8;" d="M180 106 q11 -11 26 -33 q4 -4 7 -5 q3 -1 7 1 q3 2 4 6 q1 3 -1 8 q-15 23 -29 37 q-4 3 -9 3 q-2 0 -6 -3 q-3 -3 -3 -7 q0 -3 4 -7 ZM53 120 q-8 -12 -17 -21 q-8 -8 -19 -15 q-4 -2 -5 -7 q-1 -3 1 -6 q2 -4 5 -5 q4 -1 9 2 q9 5 20 16 q11 10 22 26 q3 4 2 8 q-1 4 -5 6 q-3 2 -7 1 q-3 -1 -6 -5 ZM138 140 l0 -59 q0 -5 3 -8 q2 -2 6 -2 q5 0 8 2 q2 3 2 8 l0 59 l63 0 q3 0 6 2 q2 3 3 7 q0 5 -3 6 q-2 3 -6 3 l-87 0 q0 4 -2 8 q-5 8 -10 13 q-4 3 -7 3 q-4 0 -8 -2 q-3 -3 -4 -7 q0 -4 4 -7 q2 -3 6 -8 l-93 0 q-3 0 -6 -3 q-3 -2 -3 -6 q0 -5 3 -7 q2 -2 6 -2 l65 0 l0 -58 q0 -5 2 -8 q3 -2 8 -2 q4 0 7 2 q2 3 2 8 l0 58 l35 0 ZM124 -6 q8 -3 17 -7 q38 -13 76 -19 q6 -1 9 2 q2 2 3 6 q2 4 0 8 q-3 4 -8 4 q-44 5 -74 15 q0 1 2 1 q18 10 32 21 q13 10 19 19 q3 5 3 10 q-1 4 -5 8 q-4 4 -12 4 l-139 0 q-3 0 -6 -3 q-3 -2 -3 -6 q0 -4 3 -7 q2 -3 6 -3 l125 0 q3 0 4 0 q1 -1 0 -2 q-2 -2 -13 -11 q-12 -9 -33 -18 q-3 -2 -7 -3 q-22 10 -49 26 q-3 3 -8 2 q-3 -1 -6 -4 q-1 -4 -1 -6 q1 -4 5 -7 q17 -10 35 -20 q-4 -1 -10 -2 q-23 -7 -68 -13 q-4 0 -7 -2 q-3 -3 -3 -8 q0 -3 2 -6 q3 -3 7 -4 q41 7 72 15 q17 5 32 10 l0 0 Z" /><glyph glyph-name="" unicode="&#x53e6;" d="M158 89 q20 0 33 10 q13 10 14 33 q0 19 -12 30 q-12 11 -32 11 l-107 0 q-5 0 -9 -4 q-4 -3 -4 -8 l0 -57 q0 -5 4 -10 q3 -5 9 -5 l104 0 ZM60 108 l0 47 l101 0 q10 0 16 -5 q6 -5 7 -18 q0 -14 -7 -19 q-7 -5 -19 -5 l-98 0 ZM196 10 q0 -10 -4 -16 q-4 -6 -9 -7.5 q-5 -1.5 -12 -1.5 l-13 0 q-5 0 -7.5 -3 q-2.5 -3 -2.5 -8 q0 -4 3 -7 q3 -3 7 -3 l13 0 q25 1 36 12 q9 9 10 28 l0 19 q0 21 -8 30 q-12 14 -39 14 l-44 0 l0 7 q0 6 -3 9 q-3 2 -7 2 q-4 0 -7 -2 q-3 -4 -3 -9 l0 -7 l-77 0 q-5 0 -8 -2 q-3 -3 -3 -7 q0 -4 3 -7 q3 -3 8 -3 l75 0 q-1 -6 -3 -11 q-4 -9 -12 -19 q-9 -9 -26 -15 q-17 -6 -43 -11 q-5 -1 -8 -3 q-2 -4 -1 -8 q1 -5 4 -6 q2 -2 8 -2 q26 3 47 12 q18 7 31 19 q13 12 19 27 q3 7 4 17 l40 0 q19 0 26 -9 q6 -8 6 -19 l0 -10 Z" /><glyph glyph-name="" unicode="&#x53ea;" d="M142 58 q21 0 37.5 15 q16.5 15 16.5 42 q0 27 -15.5 42 q-15.5 15 -38.5 15 l-81 0 q-8 0 -14 -4 q-5 -6 -5 -13 l0 -78 q0 -7 5 -13 q6 -5 14 -6 l81 0 ZM166 142 q10 -12 10 -27 q0 -18 -10.5 -28 q-10.5 -10 -28.5 -10 l-76 0 l0 77 l76 0 q19 0 29 -12 ZM73 40 q-12 -18 -27 -31 q-12 -10 -29 -20 q-4 -2 -6 -7 q-1 -4 1 -7 q2 -3 5 -5 q5 -1 9 2 q15 7 31 21 q15 13 32 37 q3 2 2 7 q-1 4 -4 6 q-3 2 -7 2 q-4 -1 -7 -5 ZM147 28 q23 -18 55 -53 q3 -4 8 -5 q3 0 6 2 q4 3 5 6 q0 4 -4 8 q-31 36 -59 57 q-3 2 -7 2 q-4 0 -7 -3 q-3 -4 -2 -8 q0 -3 5 -6 l0 0 Z" /><glyph glyph-name="" unicode="&#x53ef;" d="M98 31 q18 0 31.5 11 q13.5 11 13.5 35 q0 23 -12 34.5 q-12 11.5 -33 11.5 l-49 0 q-5 0 -9 -4 q-4 -4 -4 -8 l0 -66 q0 -7 4 -11 q4 -3 9 -3 l49 0 ZM116.5 98 q7.5 -7 7.5 -21 q0 -14 -8 -21 q-8 -7 -21 -7 l-39 0 l0 56 l39 0 q14 0 21.5 -7 ZM174 23 q0 -10 -4.5 -19 q-4.5 -9 -12.5 -10.5 q-8 -1.5 -14 -1.5 l-13 0 q-5 0 -7.5 -3 q-2.5 -3 -2.5 -7 q0 -4 3 -7 q3 -3 7 -3 l13 0 q28 2 40 14 q9 9 11 30 l0 136 l20 0 q6 0 8 3 q2 3 2 7 q0 4 -2 6 q-2 2 -8 2 l-195 0 q-3 0 -6 -2 q-3 -3 -3 -6 q0 -5 3 -7 q2 -3 6 -3 l155 0 l0 -129 Z" /><glyph glyph-name="" unicode="&#x53f0;" d="M180 92 q3 -4 8 -12 q3 -5 7 -6 q3 -1 7 1 q4 2 5 6 q1 4 -1 7 q-10 19 -25 41 q-16 23 -23 32 q-2 3 -7 4 q-4 0 -7 -2 q-3 -3 -3 -7 q0 -3 2 -7 q5 -7 21 -29 q1 -3 3 -5 l-119 -12 q-3 -1 -6 2 q-2 3 2 7 l42 54 q2 4 1 8 q-1 6 -8 8 q-3 1 -5 0 q-3 -1 -6 -5 l-53 -74 q-5 -6 0 -14 q3 -8 18 -5 l143 13 q2 -2 4 -5 ZM136 -24 q20 0 35 10.5 q15 10.5 15 35.5 q0 25 -15 35.5 q-15 10.5 -35 10.5 l-91 0 q-7 0 -13 -6 q-5 -5 -5 -13 l0 -54 q0 -7 5 -13 q6 -5 13 -6 l91 0 ZM158 42 q8 -7 8 -20 q0 -12 -7.5 -19.5 q-7.5 -7.5 -26.5 -7.5 l-86 0 l0 54 l86 0 q18 0 26 -7 Z" /><glyph glyph-name="" unicode="&#x53f3;" d="M161 -24 q20 0 34.5 13.5 q14.5 13.5 14.5 38.5 q0 26 -14 39.5 q-14 13.5 -35 13.5 l-75 0 q2 2 4 5 q11 16 22 40 l108 0 q3 0 6 3 q2 3 3 7 q0 4 -3 6 q-2 2 -6 2 l-100 0 q5 12 9 25 q1 5 0 8 q-1 4 -6 5 q-4 2 -9 0 q-2 -2 -4 -7 q-6 -17 -11 -31 l-80 0 q-3 0 -6 -2 q-3 -2 -3 -6 q0 -5 3 -8 q2 -2 6 -2 l72 0 q-7 -15 -18 -32 q-11 -17 -21 -29 q-11 -13 -36 -34 q-4 -2 -4 -7 q0 -4 3 -6 q2 -3 6 -4 q5 0 9 3 q15 13 31 31 q3 4 6 8 l0 -62 q0 -7 6 -13 q5 -5 13 -5 l75 0 ZM181 52.5 q9 -9.5 9 -24.5 q0 -14 -9 -24 q-9 -10 -25 -10 l-70 0 l0 68 l70 0 q16 0 25 -9.5 Z" /><glyph glyph-name="" unicode="&#x5408;" d="M124 157 q3 0 6 -3 q15 -16 40 -35 q30 -21 47 -29 q5 -3 8 -1 q4 1 7 6 q2 3 1 7 q-1 4 -6 6 q-33 15 -52 28 q-20 16 -40 37 q-5 5 -11 5 q-7 0 -13 -6 q-18 -19 -39 -35 q-20 -14 -55 -29 q-4 -2 -5 -6 q-2 -3 0 -7 q2 -4 5 -6 q5 -2 10 0 q21 11 50 30 q24 18 39 35 q3 3 8 3 ZM70 104 q-5 0 -8 -3 q-2 -2 -3 -5 q0 -5 3 -8 q3 -3 8 -3 l104 0 q4 0 7 3 q2 3 2 8 q0 4 -2 6 q-2 2 -7 2 l-104 0 ZM159 -25 q23 0 34.5 14 q11.5 14 11.5 31 q0 20 -14 32.5 q-14 12.5 -32 12.5 l-101 0 q-9 0 -15 -5 q-5 -5 -5 -13 l0 -54 q0 -7 7 -13 q5 -4 13 -5 l101 0 ZM178 37.5 q8 -8.5 8 -17.5 q0 -12 -7 -19.5 q-7 -7.5 -21 -7.5 l-100 0 l0 53 l100 0 q12 0 20 -8.5 Z" /><glyph glyph-name="" unicode="&#x540d;" d="M108 74 q-10 -4 -22 -8 q-25 -9 -67 -17 q-4 0 -6 -2 q-3 -3 -3 -8 q1 -4 4 -7 q3 -2 7 -2 q18 3 38 8 l0 -47 q0 -5 3 -10 q3 -5 10 -5 l90 0 q22 0 34 11 q12 11 12 30 q-1 18 -11 29 q-10 11 -35 11 l-48 0 q19 9 34 18 q18 11 30 25 q17 18 22 35 q4 12 0 18 q-3 6 -14 6 l-85 0 q2 3 5 9 q3 5 1 9 q-1 3 -5 5 q-3 2 -7 0 q-3 -1 -6 -5 q-11 -20 -25 -35 q-15 -15 -35 -26 q-6 -3 -7 -5 q-2 -3 0 -7 q2 -4 6 -5 q4 -1 8 1 q21 9 40 28 q6 7 10 12 l87 0 q4 0 6 -1 q1 -2 1 -4 q-3 -10 -18 -26 q-9 -10 -23 -19 q-6 -4 -10 -6 q-1 0 -2 1 q-20 18 -37 29 q-4 2 -8 1 q-4 0 -7 -3 q-2 -4 -2 -8 q1 -4 6 -7 q12 -7 29 -23 ZM181.5 32 q6.5 -7 6.5 -15 q0 -9 -6 -16 q-6 -7 -21 -7 l-83 0 l0 45 l83 0 q14 0 20.5 -7 Z" /><glyph glyph-name="" unicode="&#x540e;" d="M55 105 l160 0 q5 0 7 3 q2 2 2 6 q0 4 -2 7 q-2 2 -7 2 l-160 0 l0 18 q0 5 2 8 q2 3 6 3 q60 1 94 3 q37 2 53 6 q6 1 8 4 q2 3 2 7 q0 4 -4 7 q-4 3 -9 2 q-32 -5 -69 -8 q-33 -2 -81 -3 q-13 0 -17 -4 q-5 -4 -5 -14 l0 -84 q0 -13 -2 -29 q-1 -13 -6 -24 q-5 -15 -14 -28 q-3 -6 -3 -9 q0 -3 4 -6 q3 -3 7 -2 q4 0 8 4 q8 13 15 29 q5 15 7 28 q4 23 4 37 l0 37 ZM166 -23 q25 1 35 17 q10 16 10 36 q0 23 -12.5 37 q-12.5 14 -32.5 15 l-80 0 q-5 0 -9 -4 q-3 -4 -3 -9 l0 -77 q0 -7 4 -11 q3 -4 8 -4 l80 0 ZM185.5 51.5 q6.5 -10.5 6.5 -21.5 q0 -14 -6 -23.5 q-6 -9.5 -20 -10.5 l-73 0 l0 67 l73 0 q13 -1 19.5 -11.5 Z" /><glyph glyph-name="" unicode="&#x542f;" d="M172 -5 l-82 0 l0 47 l82 0 q11 -1 17.5 -7 q6.5 -6 7.5 -15 q0 -10 -7 -17.5 q-7 -7.5 -18 -7.5 ZM173 140 q10 0 15 -5.5 q5 -5.5 5 -12.5 q0 -7 -5.5 -12 q-5.5 -5 -14.5 -5 l-116 0 l0 35 l116 0 ZM174 -22 q22 2 31 13 q9 11 9 28 q0 14 -10 26 q-10 12 -32 14 l-83 0 q-7 0 -13 -4 q-6 -6 -6 -13 l0 -47 q0 -7 6 -13 q6 -4 13 -4 l85 0 ZM135 158 q-3 11 -7 18 q-2 4 -6 6 q-4 0 -8 -1 q-4 -2 -5 -6 q-1 -4 1 -8 q2 -3 4 -9 l-61 0 q-7 0 -11 -4 q-5 -5 -5 -11 l0 -78 q0 -25 -6 -44 q-7 -20 -18 -36 q-3 -4 -2 -9 q1 -3 5 -5 q3 -2 7 -2 q5 1 8 6 q10 12 16 29 q10 27 10 54 l0 28 l117 0 q17 0 27.5 10 q10.5 10 10.5 26 q0 14 -10.5 25 q-10.5 11 -28.5 11 l-38 0 Z" /><glyph glyph-name="" unicode="&#x548c;" d="M81 74 q13 -18 22 -33 q2 -5 6 -6 q4 -1 7 1 q4 2 5 6 q1 3 -1 7 q-15 21 -36 49 l31 0 q5 0 8 2 q2 3 3 7 q0 4 -3 6 q-3 2 -8 3 l-34 0 l0 34 q18 3 31 6 q4 2 5 6 q2 3 0 7 q-1 4 -4 6 q-3 2 -8 0 q-11 -3 -35 -6 q-24 -4 -42 -5 q-4 -1 -7 -4 q-3 -3 -3 -7 q0 -4 4 -7 q3 -2 8 -2 q13 0 31 3 l0 -31 l-40 0 q-4 0 -6 -3 q-3 -2 -3 -6 q0 -5 3 -7 q2 -2 6 -2 l37 0 q-9 -17 -15 -26 q-11 -15 -30 -35 q-3 -4 -3 -7 q0 -3 4 -6 q3 -3 5 -3 q5 1 8 4 q14 15 27 35 q4 5 7 13 l0 -96 q0 -4 3 -7 q3 -3 7 -3 q4 0 6 3 q4 3 4 7 l0 97 ZM201 65 q0 -8 -3 -16.5 q-3 -8.5 -10 -14.5 q-7 -6 -14 -9 q-7 -3 -16 -3 l-4 0 l0 106 l4 0 q9 0 16 -3 q7 -3 14 -9 q7 -6 10 -14.5 q3 -8.5 3 -16.5 l0 -20 ZM134 12 q0 -6 2.5 -8 q2.5 -2 4.5 -2 l17 0 q12 0 23.5 4.5 q11.5 4.5 21 12.5 q9.5 8 14 20 q4.5 12 4.5 26 l0 20 q0 14 -4.5 26 q-4.5 12 -14 20.5 q-9.5 8.5 -21 12.5 q-11.5 4 -23.5 4 l-17 0 q-2 0 -4.5 -2 q-2.5 -2 -2.5 -8 l0 -126 Z" /><glyph glyph-name="" unicode="&#x5668;" d="M69 111 q22 0 32.5 7 q10.5 7 10.5 23 q0 12 -10 20.5 q-10 8.5 -33 8.5 l-29 0 q-6 0 -9.5 -3.5 q-3.5 -3.5 -3.5 -8.5 l0 -32 q0 -8 3 -11.5 q3 -3.5 10 -3.5 l29 0 ZM93 141 q0 -11 -24 -11 l-24 0 l0 22 l24 0 q24 0 24 -11 ZM177 132 l-28 0 l0 20 l28 0 q24 0 24 -10 q0 -10 -24 -10 ZM68 -5 l-24 0 l0 28 l24 0 q24 0 24 -14 q0 -14 -24 -14 ZM199 9 q0 -14 -24 -14 l-25 0 l0 28 l25 0 q24 0 24 -14 ZM195 39 q-8 2 -20 2 l-30 0 q-6 0 -9.5 -3.5 q-3.5 -3.5 -3.5 -8.5 l0 -38 q0 -8 3 -11.5 q3 -3.5 10 -3.5 l30 0 q21 0 32 7.5 q11 7.5 11 25.5 q0 14 -10 23 q-2 2 -4 3 q9 -3 16 -5 q5 -1 9 1 q3 1 4 6 q1 4 -1 7 q-2 3 -8 4 q-23 6 -40 15 q-9 5 -18 12 l57 0 q4 0 7 3 q3 3 3 7 q0 3 -3 6 q-3 2 -7 2 l-32 0 q1 3 1 4 q0 3 -3 7 q-7 6 -12 9 q22 0 32.5 7 q10.5 7 10.5 22 q0 11 -10 19.5 q-10 8.5 -33 8.5 l-33 0 q-7 0 -10 -3.5 q-3 -3.5 -3 -8.5 l0 -30 q0 -8 3 -11.5 q3 -3.5 10 -3.5 l15 0 q-2 -4 -1 -7 q1 -4 5 -6 q4 -2 9 -7 l-50 0 q4 5 6 8 q3 4 3 8 q-1 4 -4 6 q-4 3 -8 2 q-4 -1 -6 -4 q-8 -12 -15 -20 l-75 0 q-5 0 -7 -2 q-2 -3 -2 -6 q0 -4 2 -7 q2 -2 7 -3 l55 0 q-7 -5 -17 -10 q-19 -9 -44 -14 q-4 -1 -6 -6 q-1 -3 -1 -6 q2 -5 6 -7 q1 -1 8 0 l2 0 l0 -41 q0 -8 3 -11.5 q3 -3.5 10 -3.5 l29 0 q21 0 32 7.5 q11 7.5 11 25.5 q0 14 -10 23 q-10 9 -33 9 l-13 0 q6 1 13 5 q18 10 36 26 q1 1 3 3 l32 0 l1 -1 q19 -17 36 -27 q7 -3 14 -6 q3 -1 5 -2 Z" /><glyph glyph-name="" unicode="&#x56e0;" d="M92 100 q-1 -6 -3 -13 q-2 -6 -8 -20 q-14 -22 -31 -34 q-19 -10 -16 -19 q2 -4 7 -6 q3 -1 9 2 q19 11 37 34 q5 6 9.5 14.5 q4.5 8.5 8.5 16.5 q3 -7 8 -16 q8 -14 21 -29 q9 -10 22 -20 q4 -3 9 -3 q3 0 6 4 q2 4 2 7 q0 5 -5 8 q-14 8 -23.5 20 q-9.5 12 -15.5 23 q-7 10 -14 31 l46 0 q5 -1 9 3 q2 3 2 7 q0 3 -3 7 q-4 2 -10 2 l-46 0 l0 18 q0 5 -2 8 q-3 3 -8 3 q-4 0 -7 -3 q-2 -3 -2 -8 l0 -18 l-49 0 q-3 0 -6 -3 q-3 -3 -3 -6 q0 -5 3 -7 q2 -3 6 -3 l47 0 ZM30 173 q-8 0 -14 -5 q-6 -6 -6 -14 l0 -159 q0 -7 6 -13 q7 -6 14 -6 l94 0 q45 2 65 20 q20 16 23 52 l0 54 q-3 36 -25 54 q-23 19 -69 17 l-88 0 ZM39 -5 l-9 0 l0 8 l0 143 l0 9 l9 0 l78 0 q41 2 58 -15 q18 -20 17 -39 l0 -54 q-2 -22 -16 -36.5 q-14 -14.5 -50 -15.5 l-87 0 Z" /><glyph glyph-name="" unicode="&#x56fe;" d="M67 105 q12 -9 25 -18 q-1 0 -2 -1 q-25 -10 -51 -16 q-4 -1 -7 -4 q-2 -3 -1 -7 q1 -4 4 -6 q4 -2 9 -1 q16 4 40 14 q13 5 24 10 q2 -1 4 -2 q31 -15 53 -19 q14 -3 15 7 q0 4 -2 7 q-2 4 -8 4 q-25 4 -46 13 q11 6 19 14 q13 12 19 25 q4 8 1 13 q-3 5 -10 5 l-68 0 q-9 0 -13 -6 q-6 -10 -12 -15 q-6 -5 -17 -10 q-5 -2 -6 -6 q-1 -4 1 -7 q3 -4 7 -4 q3 0 8 2 q7 3 14 8 ZM80 117 q5 5 10 9 l52 0 l-3 -5 q-5 -6 -14 -14 q-8 -6 -17 -11 q-15 9 -28 21 ZM89 46 q6 -1 22 -5 q17 -4 29 -9 q5 -2 9 0 q3 3 4 7 q1 4 -1 7 q-2 2 -5 3 q-13 4 -30 8 q-18 4 -25 6 q-4 1 -8 -1 q-3 -3 -4 -6 q-1 -4 1 -7 q3 -3 8 -3 ZM147 1 q4 -1 7 -1 q4 2 5 5 q2 4 0 7 q-1 3 -6 5 q-49 18 -87 23 q-5 1 -7 -1 q-3 -2 -4 -7 q-1 -2 2 -6 q3 -2 8 -3 q31 -5 82 -22 ZM128 -23 q43 2 62 19 q20 17 23 53 l0 54 q-2 36 -24 54 q-21 18 -81 15 l-79 0 q-8 0 -13 -4 q-6 -6 -6 -13 l0 -159 q0 -7 5 -13 q6 -6 14 -6 l99 0 ZM30 -4 l0 158 l102 0 q30 -1 44 -14 q16 -16 17 -38 l0 -54 q-2 -22 -16 -36 q-14 -14 -50 -16 l-97 0 Z" /><glyph glyph-name="" unicode="&#x5728;" d="M45 63 l0 -86 q0 -4 3 -7 q3 -3 8 -3 q3 0 6 3 q3 3 3 7 l0 107 q6 9 11 16 q10 14 20 33 l119 0 q5 0 8 3 q2 3 2 6 q0 5 -2 8 q-2 2 -8 2 l-111 0 q4 9 7 17 q3 4 1 8 q-1 4 -7 6 q-4 1 -8 -1 q-3 -2 -6 -10.5 q-3 -8.5 -7 -19.5 l-59 0 q-6 0 -8 -3 q-2 -3 -2 -7 q0 -3 2 -6 q2 -3 8 -3 l50 0 q-5 -10 -13 -22 q-10 -14 -19 -24 q-9 -10 -29 -27 q-3 -2 -4 -6 q0 -4 3 -7 q4 -3 6 -3 q5 -1 8 2 q9 8 18 17 ZM141 -4 l-57 0 q-5 0 -8 -3 q-3 -2 -3 -6 q0 -4 2 -7 q3 -3 9 -3 l138 0 q3 0 6 3 q3 3 3 7 q0 4 -3 7 q-3 2 -6 2 l-62 0 l0 57 l50 0 q3 0 6 3 q2 2 3 6 q0 4 -3 7 q-2 2 -6 2 l-50 0 l0 37 q0 4 -3 7 q-2 2 -6 2 q-5 0 -8 -3 q-2 -1 -2 -6 l0 -37 l-48 0 q-5 0 -7 -2 q-3 -3 -3 -7 q0 -4 3 -7 q2 -2 7 -2 l48 0 l0 -57 Z" /><glyph glyph-name="" unicode="&#x5916;" d="M176 110 q15 -17 33 -50 q3 -3 6 -5 q4 0 8 1 q3 1 4 5 q1 4 -1 9 q-18 32 -36 52 q-3 4 -6 4 q-4 0 -8 -2 q-4 -3 -4 -7 q0 -4 4 -7 ZM162 172 q0 5 -3 7 q-3 3 -6 3 q-5 0 -8 -3 q-2 -2 -2 -7 l0 -194 q0 -4 3 -7 q3 -3 7 -3 q4 0 6 3 q3 3 3 7 l0 194 ZM79 43 q-7 -13 -20 -27 q-14 -15 -37 -29 q-5 -3 -5 -7 q0 -4 2 -7 q2 -3 7 -5 q3 -1 7 2 q13 8 31 25 q19 18 29 36 q12 19 20 41 q9 25 12 50 q1 12 -3 17 q-6 5 -12 4 l-43 0 q4 14 5 27 q0 5 -1 8 q-3 3 -8 3 q-3 1 -6 -2 q-3 -2 -3 -7 q-3 -28 -12 -51 q-10 -25 -28 -47 q-4 -4 -4 -7 q0 -3 3 -7 q3 -2 6 -2 q4 0 8 3 q18 20 31 52 q2 6 4 13 l39 0 q3 0 5 -1 q1 -2 1 -5 q-2 -13 -9 -36 q-5 -13 -10 -25 q-15 11 -27 18 q-4 2 -7 1 q-4 -1 -6 -5 q-2 -3 -1 -6 q2 -4 6 -6 q10 -6 26 -18 l0 0 Z" /><glyph glyph-name="" unicode="&#x591a;" d="M121 104 q-1 1 -2 2 q-6 6 -17 14 q-9 7 -14 10 q-3 2 -8 2 q-4 -1 -7 -5 q-2 -3 -1 -6 q1 -5 6 -7 q3 -2 12 -9 q7 -5 11 -9 q-11 -4 -26 -7 q-18 -4 -54 -5 q-5 0 -8 -3 q-3 -3 -3 -8 q1 -4 4 -7 q3 -2 8 -2 q26 1 51 6 q21 3 43 12 q17 6 36 18 q15 12 28 24 q16 16 22 30 q4 10 1 14 q-4 5 -11 5 l-91 0 q-6 0 -11 -2 q-3 -1 -7 -6 q-7 -9 -17 -15 q-9 -7 -33 -15 q-4 -2 -5 -5 q-2 -3 -1 -7 q2 -3 5 -5 q3 -2 8 0 q19 7 35 17 q14 9 22 18 q2 3 10 3 l65 0 q4 0 6 -1 q2 -1 0 -4 q-4 -9 -18 -21 q-15 -12 -29 -20 q-4 -2 -10 -6 ZM156 9 q-8 8 -19 16 q-11 9 -17 13 q-3 3 -8 2 q-4 -1 -6 -4 q-2 -4 -2 -7 q1 -4 5 -7 q4 -3 15 -11 q7 -6 12 -11 q-12 -6 -31 -9 q-21 -3 -68 -2 q-5 0 -8 -3 q-4 -3 -4 -8 q0 -4 3 -7 q4 -3 8 -3 q33 0 57 3 q26 3 45 9 q18 7 33 18 q17 11 30 28 q11 14 16 31 q4 11 3 15 q-1 4 -5 8 q-3 3 -9 3 l-69 0 q-5 0 -9 -2 q-5 -2 -8 -7 q-9 -12 -28 -21 q-19 -9 -44 -13 q-4 0 -7 -4 q-2 -3 -2 -6 q1 -4 4 -7 q2 -2 8 -2 q22 4 47 14 q20 10 36 26 q4 4 10 4 l49 0 q3 0 4 -2 q1 -2 0 -5 q-2 -11 -14 -24 q-12 -16 -27 -25 Z" /><glyph glyph-name="" unicode="&#x5927;" d="M123 76 q6 -20 19 -38 q14 -21 37 -41 q16 -14 37 -28 q5 -3 8 -2 q4 1 7 5 q2 3 1 6 q0 5 -5 8 q-26 14 -44 31 q-19 18 -27 33 q-10 13 -14 25 q-5 11 -9 29 q-1 2 -1 7 l87 0 q4 0 7 2 q2 3 2 7 q0 5 -2 7 q-3 2 -7 2 l-88 0 l0 43 q0 5 -3 9 q-2 1 -7 1 q-5 0 -7 -2 q-3 -3 -3 -8 l0 -43 l-86 0 q-5 0 -8 -2 q-1 -3 -1 -7 q0 -4 1 -7 q3 -2 8 -2 l85 0 q0 -3 -1 -6 q-2 -15 -7 -28 q-3 -9 -11 -23 q-8 -14 -17 -24 q-10 -11 -21 -20 q-8 -7 -19 -13 q-9 -5 -17 -7 q-4 -3 -6 -7 q-1 -4 1 -7 q2 -5 5 -6 q5 -1 10 1 q5 1 18 8 q13 8 25 18 q9 7 19 20 q9 9 17 23 q9 16 15 31 q1 2 2 5 l0 0 Z" /><glyph glyph-name="" unicode="&#x5934;" d="M52 157 q15 -9 37 -30 q4 -3 8 -3 q4 0 6 2 q3 3 3 8 q0 3 -3 7 q-22 21 -40 31 q-4 3 -8 2 q-4 0 -7 -4 q-2 -3 -1 -7 q1 -3 5 -6 ZM28 116 q17 -8 40 -27 q4 -3 8 -3 q4 0 7 3 q3 4 2 8 q0 3 -4 6 q-24 20 -44 30 q-5 2 -8 1 q-4 -1 -6 -5 q-2 -3 -1 -7 q2 -4 6 -6 ZM132 56 l85 0 q5 0 7 2 q2 3 2 7 q0 4 -2 7 q-2 1 -7 2 l-84 0 q1 6 1 11 l0 87 q0 5 -3 8 q-3 2 -7 2 q-4 0 -7 -2 q-3 -3 -3 -8 l0 -87 q0 -5 0 -11 l-90 0 q-5 0 -7 -2 q-2 -3 -2 -7 q0 -5 2 -7 q2 -2 7 -2 l88 0 q-1 -7 -3 -12 q-4 -12 -13 -23 q-11 -11 -30 -20 q-18 -8 -47 -12 q-4 -1 -7 -5 q-2 -3 -1 -8 q1 -3 4 -5 q3 -2 8 -1 q28 4 50 13 q21 9 35 24 q13 12 19 31 q3 7 5 18 ZM146 4 q26 -9 65 -33 q4 -3 8 -2 q5 1 6 4 q2 3 1 7 q0 5 -4 8 q-38 23 -68 33 q-5 2 -9 1 q-3 -2 -5 -5 q-1 -4 1 -7 q1 -4 5 -6 l0 0 Z" /><glyph glyph-name="" unicode="&#x5982;" d="M58 17 q-5 -5 -11 -10 q-13 -10 -30 -17 q-4 -2 -6 -6 q-1 -3 1 -8 q2 -3 5 -4 q3 -2 8 0 q18 8 30 19 q9 7 18 16 l26 -15 q4 -1 8 -1 q4 0 6 4 q1 4 1 7 q0 3 -5 6 l-23 14 q5 7 10 16 q9 17 13 30 q5 15 7 32 q2 15 2 23 q0 9 -2 12 q-1 4 -4 5 q-5 3 -10 3 l-35 0 q3 15 5 26 q0 5 -1 8 q-2 4 -6 5 q-6 0 -8 0 q-4 -3 -4 -8 q-2 -14 -6 -31 l-25 0 q-5 0 -7 -3 q-2 -2 -3 -6 q0 -4 3 -7 q2 -2 7 -2 l22 0 q-3 -10 -6 -20 q-12 -37 -20 -49 q-1 -6 -1 -11 q2 -4 8 -10 l33 -18 ZM94 125 q4 0 5 -2 q2 -1 2 -3 q0 -6 -3 -20 q-1 -13 -5 -26 q-4 -10 -9 -23 q-7 -10 -13 -20 l-30 17 q-3 2 -4 4 q0 2 1 4 q7 13 19 51 q2 9 4 18 l33 0 ZM170 162 l-23 0 q-7 0 -11.5 -4.5 q-4.5 -4.5 -4.5 -11.5 l0 -149 q0 -7 4.5 -11.5 q4.5 -4.5 11.5 -4.5 l23 0 q10 0 18 3 q8 3 14 8.5 q6 5.5 9 15 q3 9.5 3 18.5 l0 89 q0 11 -3 19.5 q-3 8.5 -9 14.5 q-6 6 -14 9.5 q-8 3.5 -18 3.5 ZM196 26 q0 -4 -2.5 -9.5 q-2.5 -5.5 -6 -9 q-3.5 -3.5 -8 -5.5 q-4.5 -2 -9.5 -2 l-20 0 l0 143 l20 0 q5 0 9.5 -2 q4.5 -2 8 -5 q3.5 -3 6 -8 q2.5 -5 2.5 -13 l0 -89 Z" /><glyph glyph-name="" unicode="&#x59cb;" d="M49 22 q-2 -3 -4 -6 q-11 -15 -28 -29 q-4 -3 -5 -7 q0 -4 3 -7 q2 -3 6 -4 q4 0 8 3 q12 10 24 25 q6 7 11 18 l23 -13 q5 -2 9 -1 q3 1 5 4 q3 4 1 8 q-1 3 -5 5 l-24 13 q1 2 2 4 q11 23 15 45 q5 20 6 48 q1 9 -3 12 q-5 5 -12 5 l-25 0 q2 15 3 24 q0 5 -1 8 q-1 4 -6 5 q-6 0 -8 -1 q-3 -2 -4 -8 q-1 -12 -3 -28 l-18 0 q-3 0 -6 -2 q-3 -3 -3 -6 q0 -4 3 -7 q2 -3 6 -3 l15 0 q-2 -10 -5 -21 q-10 -37 -15 -49 q-3 -6 -1 -11 q2 -3 8 -9 l28 -15 ZM77 127 q1 -1 1 -2 q-1 -23 -6 -43 q-4 -21 -11 -37 q-2 -3 -2 -6 l-23 12 q-4 2 -4 3 l0 4 q6 14 16 50 q2 10 4 19 l25 0 ZM102 100 q-5 -6 0 -14 q4 -8 19 -4 l84 11 l2 0 q3 -7 6 -14 q2 -4 6 -6 q4 -1 7 0 q4 1 6 5 q1 4 0 7 q-7 15 -16 31 q-9 18 -13 24 q-3 4 -7 5 q-3 1 -7 -1 q-4 -2 -4 -5 q-1 -4 2 -8 q3 -4 11 -21 l-66 -9 q-5 -2 -6.5 -0.5 q-1.5 1.5 3.5 7.5 l37 57 q2 4 2 9 q-2 5 -9 8 q-3 0 -6 -2 q-2 -1 -4 -4 l-47 -76 ZM126 69 q-8 0 -13 -6 q-6 -5 -6 -13 l0 -56 q0 -7 7 -13 q4 -5 12 -5 l55 0 q19 2 31.5 14 q12.5 12 12.5 34 q0 18 -13.5 32 q-13.5 14 -34.5 13 l-51 0 ZM127 -6 l0 56 l52 0 q12 -1 19 -9.5 q7 -8.5 7 -18.5 q-2 -16 -10 -21.5 q-8 -5.5 -19 -6.5 l-49 0 Z" /><glyph glyph-name="" unicode="&#x5b57;" d="M103 158 l-72 0 q-7 0 -13 -4 q-5 -6 -5 -12 l0 -22 q0 -4 3 -7 q2 -2 6 -3 q4 1 8 3 q2 2 2 7 l0 13 q0 3 2 5 q2 2 5 2 l156 0 q3 0 5 -4 q2 -4 -4 -17 q-1 -4 0 -7 q0 -4 5 -6 q4 -1 8 0 q3 2 5 7 q6 12 7 23 q0 8 -2 13 q-2 4 -6 6 q-4 3 -9 3 l-80 0 q-3 11 -6 18 q-3 4 -6 6 q-4 0 -8 -1 q-3 -2 -5 -6 q-1 -3 0 -8 q2 -3 4 -9 ZM124 30 q3 -6 4 -12 q1 -11 -3 -19 q-4 -8 -12 -10 q-8 -2 -14 -2 l-13 0 q-5 0 -7.5 -2.5 q-2.5 -2.5 -2.5 -6.5 q0 -4 3 -7 q3 -3 7 -3 l13 0 q28 2 40 14 q5 5 8.5 14 q3.5 9 0.5 22 q-1 6 -3 12 q-2 5 -5 10 l70 0 q3 0 6 3 q2 2 3 6 q0 5 -3 8 q-3 1 -6 1 l-83 0 q-3 3 -6 6 q-1 1 -1 2 q1 1 2 2 l53 26 q8 3 9 9 q2 8 -2 12 q-6 7 -20 7 l-100 0 q-4 0 -7 -3 q-3 -3 -3 -6 q0 -4 3 -7 q3 -3 7 -3 l82 0 q3 0 3 -2 l0 -2 l-48 -22 q-7 -4 -6 -9 q1 -4 4 -8 q1 -1 2 -2 l-80 0 q-3 0 -6 -2 q-3 -2 -3 -7 q0 -4 3 -6 q2 -3 6 -3 l98 0 q1 -1 3 -3 q2 -4 4 -7 Z" /><glyph glyph-name="" unicode="&#x5b9a;" d="M118 152 l-85 0 q-7 0 -13 -5 q-5 -5 -5 -12 l0 -22 q0 -4 3 -7 q1 -3 7 -4 q4 0 8 3 q2 3 2 8 l0 14 q0 2 2 4 q2 3 5 2 l159 0 q4 1 5 -4 q1 -3 -3 -14 q-2 -4 -1 -8 q2 -4 6 -6 q3 -1 7 0 q4 2 7 7 q3 12 4 22 q1 8 -2 12 q0 4 -5 8 q-5 2 -9 2 l-72 0 q0 2 1 3 q0 3 -3 7 q-8 10 -15 17 q-5 3 -8 3 q-5 0 -8 -4 q-3 -3 -2 -7 q0 -4 4 -7 q6 -4 11 -12 ZM60 22 q4 -5 7 -8 q6 -9 15 -16 q8 -7 18 -10 q10 -6 24 -8 q20 -3 42 -4 l54 0 q4 0 8 4 q3 3 3 7 q0 4 -3 7 q-4 3 -8 3 l-62 0 q-16 0 -26 1 l0 38 l72 0 q4 0 7 3 q2 3 2 6 q0 4 -2 7 q-2 2 -7 3 l-72 0 l0 37 l53 0 q4 0 7 3 q3 3 3 6 q0 5 -3 7 q-2 3 -7 3 l-129 0 q-5 0 -8 -3 q-2 -3 -2 -7 q0 -4 2 -6 q2 -3 8 -3 l58 0 l0 -90 q-4 1 -8 2 q-8 4 -13 9 q-7 6 -12 13 q-5 7 -11 20 q3 11 4 20 q1 9 -8 10 q-9 1 -11 -7 q-4 -24 -13 -44 q-9 -22 -26 -39 q-6 -9 -0.5 -13.5 q5.5 -4.5 12.5 -0.5 q18 17 32 50 Z" /><glyph glyph-name="" unicode="&#x5b9e;" d="M109 156 l-78 0 q-8 0 -14 -4 q-5 -6 -4 -12 l0 -24 q0 -3 3 -6 q1 -3 6 -3 q4 0 7 2 q3 3 3 7 l0 15 q0 3 1 5 q3 2 5 2 l158 0 q4 0 6 -4 q1 -4 -3 -16 q-2 -5 0 -8 q2 -3 6 -5 q4 -1 7 1 q4 2 6 6 q4 12 5 23 q0 7 -2 12 q-2 4 -7 7 q-4 2 -9 2 l-74 0 q-4 13 -9 20 q-3 5 -7 6 q-3 0 -8 -1 q-4 -3 -5 -7 q-1 -3 2 -7 q2 -4 5 -11 ZM59 113 q2 -1 12 -7 q8 -5 15 -9 q3 -3 7 -3 q4 1 6 4 q3 2 2 6 q0 4 -4 7 q-7 4 -16 11 q-9 5 -14 7 q-4 2 -8 1 q-3 -2 -5 -4 q-2 -4 -1 -8 q2 -3 6 -5 ZM43 81 q2 -2 13 -8 q9 -5 16 -11 q4 -3 9 -3 q3 1 5 4 q2 4 2 8 q0 3 -4 6 q-8 6 -18 11 q-11 7 -16 9 q-5 2 -7 1 q-4 -1 -6 -5 q-2 -4 -1 -7 q2 -3 7 -5 ZM133 38 l79 0 q5 0 8 3 q2 2 2 6 q0 4 -2 7 q-3 2 -8 2 l-78 0 l0 62 q0 6 -3 9 q-3 1 -6 1 q-5 0 -7 -2 q-3 -3 -3 -8 l0 -62 l-94 0 q-4 0 -7 -2 q-2 -3 -2 -7 q0 -4 2 -7 q3 -2 7 -2 l93 0 q-2 -7 -5 -12 q-4 -8 -13 -15 q-10 -8 -28 -14 q-18 -6 -47 -9 q-5 0 -8 -3 q-3 -3 -3 -8 q0 -3 3 -6 q4 -3 8 -3 q28 4 51 10 q22 8 36 18 q13 10 20 23 q3 7 5 19 ZM141 -6 q27 -5 68 -25 q4 -2 8 -1 q5 2 6 6 q1 3 0 7 q-1 4 -6 6 q-40 18 -71 25 q-5 1 -8 -1 q-3 -2 -4 -6 q-1 -3 1 -6 q2 -4 6 -5 l0 0 Z" /><glyph glyph-name="" unicode="&#x5bb9;" d="M107 163 l-74 0 q-7 0 -13 -6 q-5 -5 -4 -12 l0 -22 q0 -4 2 -8 q2 -2 7 -2 q4 0 7 2 q2 3 2 8 l0 15 q0 2 2 4 q3 2 6 2 l157 0 q4 0 6 -4 q1 -3 -2 -14 q-1 -4 0 -8 q2 -3 6 -5 q3 0 7 0 q4 2 6 7 q3 11 3 22 q0 7 -2 11 q-1 4 -6 7 q-4 3 -9 3 l-79 0 q-1 7 -3 12 q-2 5 -6 7 q-5 1 -8 0 q-5 -2 -7 -6 q-1 -4 1 -8 q0 -2 1 -5 ZM85 127 q-13 -11 -26 -18 q-11 -8 -26 -12 q-4 -1 -6 -5 q-2 -3 -1 -7 q1 -3 5 -5 q3 -2 8 -1 q12 4 27 13 q15 8 32 23 q3 3 3 7 q0 3 -2 6 q-4 3 -7 3 q-4 0 -7 -4 ZM151 111 q19 -8 49 -28 q4 -3 8 -2 q3 0 5 4 q3 2 2 6 q0 4 -4 6 q-29 20 -54 30 q-3 2 -7 0 q-4 0 -5 -4 q-2 -4 -1 -7 q2 -3 7 -5 ZM122 86 q4 0 6 -2 q15 -14 40 -29 q29 -17 47 -24 q5 -1 8 0 q3 2 5 6 q2 4 0 8 q-2 3 -5 5 q-32 11 -51 23 q-20 12 -39 29 q-5 4 -11 4 q-7 0 -12 -6 q-18 -15 -39 -27 q-19 -12 -54 -24 q-3 -2 -5 -5 q-2 -3 0 -8 q1 -4 5 -5 q3 -1 8 0 q21 8 50 24 q24 14 39 28 q3 3 8 3 ZM154 -25 q34 1 39 30 l0 7 q-4 33 -45 33 l-83 0 q-6 0 -9 -4 q-4 -4 -4 -10 l0 -41 q0 -9 3.5 -12 q3.5 -3 9.5 -3 l89 0 ZM174 6 q-2 -13 -21 -13 l-81 0 l0 33 l76 0 q24 0 26 -13 l0 -7 Z" /><glyph glyph-name="" unicode="&#x5c0f;" d="M157 109 q18 -33 36 -91 q3 -10 11.5 -8 q8.5 2 6.5 12 q-15 58 -36 95 q-3 5 -7 6 q-3 1 -7 -1 q-4 -2 -5 -6 q0 -3 1 -7 ZM47 116 q-8 -35 -35 -90 q-2 -6 -1 -8 q1 -4 6 -6 q3 -1 7 0 q4 1 6 6 q27 53 36 95 q1 4 -1 7 q-1 3 -6 4 q-4 1 -7 -1 q-4 -2 -5 -7 l0 0 ZM125 22 l0 149 q0 4 -2.5 7 q-2.5 3 -7.5 3 q-2 0 -3.5 -1 q-1.5 -1 -2.5 -2 q-1 -1 -2 -3 q-1 -2 -1 -4 l0 -149 q0 -10 -5 -19.5 q-5 -9.5 -13 -11 q-8 -1.5 -14 -1.5 l-13 0 q-5 0 -7.5 -2.5 q-2.5 -2.5 -2.5 -6.5 q0 -4 3 -7 q3 -3 7 -3 l13 0 q28 2 39.5 13.5 q11.5 11.5 11.5 37.5 Z" /><glyph glyph-name="" unicode="&#x5c31;" d="M188 167 q1 -1 5 -7 q3 -6 5 -10 q3 -5 7 -7 q3 -1 6 1 q4 1 5 5 q2 4 0 8 q-3 6 -6 12 q-5 6 -7 9 q-3 4 -7 4 q-3 0 -6 -1 q-4 -3 -4 -6 q-1 -4 2 -8 ZM168 6 q0 -26 23 -28 l12 0 q30 0 28 25 l0 15 q0 13 -10 13 q-10 0 -9 -13 l0 -15 q0 -6 -9 -7 l-7 0 q-9 3 -9 16 l0 74 q0 8 -6.5 10 q-6.5 2 -9.5 -3 l1 10 q1 8 1 16 l44 0 q12 0 12 9 q0 9 -12 10 l-43 0 l0 35 q0 5 -3 8 q-3 2 -7 2 q-4 0 -7 -2 q-2 -3 -2 -8 l0 -35 l-16 0 q-13 0 -13.5 -9.5 q-0.5 -9.5 13.5 -9.5 l16 0 q-1 -4 -1.5 -13.5 q-0.5 -9.5 -2.5 -23.5 q-2 -11 -6 -26 q-4 -14 -8 -25 q-5 -12 -10 -21 q-4 -7 -10 -14 q-3 -5 -7 -8 q-4 -4 -5 -8 q0 -4 3 -7 q3 -3 7 -3 q4 0 8 3 q3 1 9 9 q6 8 12 19 q4 7 10 19 q3 10 8 25 q4 15 6 33 l0 -72 ZM98 99 l0 -5 q-2 -10 -17 -10 l-43 0 l0 26 l47 0 q11 0 13 -11 ZM61 158 l-34 0 q-14 0 -14 -9 q0 -9 14 -9 l84 0 q13 0 13 9 q0 9 -13 9 l-28 0 q-5 12 -10 18 q-4 6 -11.5 2.5 q-7.5 -3.5 -5.5 -11.5 q2 -3 5 -9 ZM60 19 q0 -10 -2 -16 q-2 -6 -7 -11 q-5 -5 -11 -5 l-10 0 q-5 0 -7.5 -2.5 q-2.5 -2.5 -2.5 -6.5 q0 -4 3 -7 q3 -3 7 -3 l10 0 q19 2 29 14 q10 12 10 37 l0 47 l4 0 q28 0 33 27 l0 5 q-5 28 -33 29 l-48 0 q-16 -1 -16 -14 l0 -33 q0 -13 13 -14 l28 0 l0 -47 ZM92 42 q1 -3 5 -14 q2 -10 4 -19 q0 -5 3 -7 q3 -1 8 -1 q3 1 5 3 q2 3 1 7 q-1 9 -4 20 q-3 13 -5 17 q-2 4 -5 6 q-3 1 -7 0 q-3 -2 -5 -5 q-1 -4 0 -7 ZM29 45 q-4 -17 -17 -44 q-2 -4 -1 -8 q1 -3 6 -4 q2 -2 7 -1 q3 2 5 5 q13 27 17 49 q1 4 -1 7 q0 3 -5 4 q-4 1 -7 -1 q-3 -2 -4 -7 Z" /><glyph glyph-name="" unicode="&#x5de7;" d="M44 24 q-12 -3 -26 -5 q-4 -1 -6 -4 q-2 -3 -1 -8 q1 -4 4 -6 q3 -2 8 -1 q23 4 46 11 q16 5 27 10 q5 2 5 6 q1 4 0 7 q-2 5 -6 6 q-4 1 -9 -1 q-8 -5 -23 -9 l0 116 l21 0 q3 0 6 3 q3 3 3 6 q0 4 -3 7 q-3 2 -6 2 l-62 0 q-5 0 -7 -2 q-3 -3 -3 -7 q0 -4 3 -6 q2 -3 7 -3 l22 0 l0 -122 ZM166 80 q8 0 15 -2.5 q7 -2.5 13.5 -8.5 q6.5 -6 9.5 -14 q3 -8 3 -16 l0 -25 q0 -14 -7.5 -21 q-7.5 -7 -21.5 -7 l-29 0 q-10 -2 -10 -10 q0 -3 1.5 -6 q1.5 -3 10.5 -3 l27 0 q17 0 28.5 7 q11.5 7 15.5 16.5 q4 9.5 4 23.5 l0 25 q0 13 -4.5 25 q-4.5 12 -13.5 19.5 q-9 7.5 -17.5 10.5 q-8.5 3 -20.5 4 l-26 0 q-5 0 -4 4 l13 52 l67 0 q3 0 6 1.5 q3 1.5 3 8.5 q0 4 -3 6 q-2 2 -6 2 l-114 0 q-4 0 -7 -3 q-2 -2 -2 -5 q0 -5 2 -8 q2 -2 7 -2 l27 0 l-14 -56 q-2 -7 3 -13 q3 -5 11 -5 l33 0 Z" /><glyph glyph-name="" unicode="&#x5dee;" d="M124 -4 l-79 0 q-3 0 -6 -3 q-3 -2 -3 -6 q0 -4 3 -7 q2 -3 6 -3 l172 0 q5 0 7 3 q2 3 3 7 q0 4 -3 6 q-1 3 -7 3 l-74 0 l0 31 l55 0 q5 0 8 3 q2 2 3 6 q0 5 -3 7 q-3 2 -8 2 l-112 0 q10 10 16 19 l112 0 q5 0 8 4 q1 2 2 5 q0 5 -2 8 q-2 2 -8 2 l-101 0 q4 7 7 16 l76 0 q5 0 7 2 q3 3 3 7 q0 4 -3 6 q-2 2 -7 2 l-72 0 q1 9 2 17 l81 0 q4 0 7 3 q2 3 3 6 q0 5 -3 8 q-2 2 -7 2 l-43 0 q4 9 8 17 q2 5 0 8 q-1 4 -5 5 q-5 1 -8 0 q-3 -1 -5 -6 q-4 -9 -13 -23 q0 0 0 -1 l-47 0 q2 2 2 4.5 q0 2.5 -2 6.5 l-10 16 q-3 4 -7 4.5 q-4 0.5 -9 -2.5 q-4 -4 -3 -8 q0 -4 3 -7 l9 -14 l-49 0 q-4 0 -7 -3 q-3 -3 -3 -7 q0 -3 3 -6 q2 -3 7 -3 l78 0 q0 -8 -2 -17 l-65 0 q-4 0 -7 -2 q-1 -2 -1 -6 q0 -4 1 -7 q3 -2 7 -2 l60 0 q-3 -8 -8 -16 l-68 0 q-5 0 -7 -3 q-3 -3 -3 -7 q0 -3 3 -6 q1 -3 7 -3 l55 0 q-7 -8 -17 -17 q-14 -12 -44 -30 q-5 -1 -6 -5 q-1 -3 1 -7 q3 -3 5 -4 q5 -1 10 1 q29 16 49 31 q-2 -6 7 -6 l41 0 l0 -31 Z" /><glyph glyph-name="" unicode="&#x5e73;" d="M41 126 q7 -15 14 -41 q1 -5 4 -8 q3 -2 8 -1 q5 1 6.5 4.5 q1.5 3.5 0.5 7.5 q-6 27 -15 46 q-2 5 -6 6 q-4 2 -8 0 q-3 -2 -4 -6 q-2 -4 0 -8 ZM177 130 q-5 -15 -19 -38 q-2 -5 -1 -8 q1 -3 5 -6 q4 -1 7 -1 q4 1 6 6 q15 23 21 42 q0 4 -1 8 q-1 3 -6 4 q-4 2 -7 0 q-4 -2 -5 -7 ZM107 52 l0 -75 q0 -4 3 -7 q3 -3 6 -3 q5 0 8 3 q3 3 3 7 l0 75 l83 0 q3 0 6 3 q2 3 3 6 q0 5 -3 7 q-3 3 -6 3 l-83 0 l0 82 l77 0 q5 0 7 2 q2 3 3 8 q0 4 -3 6 q-1 2 -7 2 l-178 0 q-4 0 -7 -2 q-2 -3 -2 -6 q0 -5 2 -8 q2 -2 7 -2 l81 0 l0 -82 l-88 0 q-3 0 -6 -3 q-3 -3 -3 -7 q0 -3 3 -6 q2 -3 6 -3 l88 0 Z" /><glyph glyph-name="" unicode="&#x5e76;" d="M147 53 l0 -75 q0 -4 3 -7 q3 -3 6 -3 q5 0 8 3 q3 3 3 7 l0 75 l46 0 q5 0 8 3 q2 2 2 6 q0 5 -2.5 7.5 q-2.5 2.5 -7.5 2.5 l-46 0 l0 48 l37 0 q5 0 7 3 q2 3 3 6 q0 5 -3 7 q-1 2 -7 3 l-38 0 q9 16 14 30 q1 6 -1 9 q-2 4 -7 4 q-4 1 -7 0 q-4 -2 -5 -7 q-4 -13 -18 -36 l-56 0 q2 1 3 3 q2 3 -1 8 q-6 18 -15 29 q-2 3 -7 4 q-3 1 -7 -1 q-4 -3 -5 -7 q0 -4 3 -7 q5 -9 13 -25 q1 -3 2 -4 l-41 0 q-5 0 -8 -3 q-3 -3 -3 -7 q0 -4 3 -6 q2 -3 8 -3 l38 0 l0 -48 l-50 0 q-3 0 -6 -3 q-3 -3 -3 -7 q0 -4 3 -6 q2 -3 6 -3 l48 0 q-1 -8 -3 -13 q-2 -6 -6 -14 q-4 -8 -9 -14 q-5 -6 -10.5 -10.5 q-5.5 -4.5 -11 -8 q-5.5 -3.5 -9.5 -4.5 q-4 -2 -6 -6 q-1 -3 1 -7 q2 -3 5 -4 q4 -2 9 0 q3 1 11 6 q7 4 13.5 9.5 q6.5 5.5 11.5 11.5 q5 6 10.5 15.5 q5.5 9.5 8.5 18.5 q3 10 4 16 q0 2 0 4 l61 0 ZM147 72 l-59 0 l0 48 l59 0 l0 -48 Z" /><glyph glyph-name="" unicode="&#x5e94;" d="M71 75 q10 -18 21 -54 q1 -4 4 -6 q3 -2 8 -1 q4 1 6 4 q2 4 1 9 q-10 34 -24 58 q-1 3 -5 4 q-4 2 -8 0 q-3 -3 -4 -5 q-1 -4 1 -9 ZM116 102 q10 -20 16 -57 q1 -4 4 -6 q4 -3 7 -2 q5 1 8 4 q2 3 1 8 q-7 36 -17 61 q-2 3 -6 5 q-3 2 -7 0 q-5 -2 -6 -4 q-2 -4 0 -9 ZM160 -3 l-98 0 q-4 0 -7 -3 q-2 -3 -3 -6 q0 -4 3 -7 q2 -3 7 -3 l158 0 q3 0 6 3 q3 3 3 7 q0 4 -3 6 q-2 3 -6 3 l-38 0 q18 52 23 93 q0 5 -2 8 q-2 2 -7 3 q-4 0 -8 -1 q-3 -3 -4 -8 q-3 -36 -24 -94 q0 0 0 -1 ZM118 155 l-69 0 q-8 0 -13 -5 q-4 -6 -4 -13 l0 -85 q0 -21 -6 -39 q-4 -15 -13 -29 q-3 -4 -3 -8 q1 -3 4 -6 q3 -2 7 -2 q4 0 8 5 q5 7 11 18 q5 12 7 27 q3 14 3 28 l0 83 q0 3 2 5 q2 2 5 2 l162 0 q5 0 8 2 q3 2 3 7 q0 5 -3.5 7.5 q-3.5 2.5 -7.5 2.5 l-78 0 q0 1 -2 4 q-6 11 -13 19 q-3 4 -8 4 q-4 0 -6 -2 q-4 -3 -5 -7 q0 -4 4 -8 q3 -4 7 -10 l0 0 Z" /><glyph glyph-name="" unicode="&#x5f00;" d="M68 154 l0 -68 l-49 0 q-3 0 -6 -2 q-3 -3 -3 -7 q0 -4 3 -6 q2 -3 6 -3 l49 0 q0 -6 -1 -12.5 q-1 -6.5 -4 -14.5 q-2 -6 -5 -14 q-5 -9 -10 -15 q-5 -6 -10.5 -10 q-5.5 -4 -11 -7.5 q-5.5 -3.5 -9.5 -5.5 q-4 -2 -6 -7 q-1 -3 1 -7 q2 -3 5 -5 q4 -1 8 1 q4 2 11.5 6.5 q7.5 4.5 14.5 10.5 q6 5 12 13 q4 5 9 14 q6 10 9 20 q3 10 4 16.5 q1 6.5 2 16.5 l58 0 l0 -91 q0 -4 3 -7 q3 -3 7 -3 q4 0 7 3 q3 3 3 7 l0 91 l45 0 q3 0 6 3 q2 2 3 6 q0 5 -3 7 q-3 2 -6 2 l-45 0 l0 68 l31 0 q4 0 7 2 q2 3 3 8 q0 4 -3 6 q-3 2 -7 2 l-164 0 q-3 0 -6 -3 q-3 -2 -3 -5 q0 -5 3 -8 q2 -2 6 -2 l36 0 ZM87 154 l58 0 l0 -68 l-58 0 l0 68 Z" /><glyph glyph-name="" unicode="&#x5f0f;" d="M61 9 q-23 -4 -42 -6 q-3 0 -6 -3 q-3 -3 -2 -8 q0 -3 3 -6 q3 -3 7 -2 q25 2 65 9 q27 5 42 10 q5 1 7 5 q1 3 0 8 q-2 3 -5 5 q-3 2 -8 0 q-14 -3 -41 -9 l0 65 l33 0 q5 0 8 3 q2 3 2 6 q0 4 -2 7 q-3 2 -8 2 l-86 0 q-4 0 -7 -2 q-2 -3 -3 -7 q0 -3 3 -6 q3 -3 7 -3 l33 0 l0 -68 ZM128 125 q2 -17 7 -38 q9 -37 21 -67 q14 -29 26 -41 q10 -8 16 -8 q5 0 8 1 q4 2 7 8 q4 8 7 21 q2 11 4 30 q0 4 -2 8 q-3 2 -7 2 q-5 0 -7 -2 q-2 -3 -3 -8 q-1 -12 -3 -25 q-1 -12 -6 -12 q-2 0 -10 10 q-8 14 -18 39 q-9 26 -15 57 q-3 13 -6 25 l69 0 q5 0 7 3 q2 3 3 7 q0 4 -3 7 q-1 1 -7 2 l-72 0 q-2 15 -3 29 q0 5 -3 8 q-3 1 -7 1 q-4 0 -6 -2 q-3 -3 -3 -8 q1 -13 3 -28 l-106 0 q-3 0 -6 -2 q-3 -3 -3 -7 q0 -5 3 -8 q2 -2 6 -2 l109 0 ZM167 164 q2 -1 10 -5 q6 -4 12 -7 q4 -2 7 -2 q4 1 6 4 q3 3 2 6 q-1 4 -5 6 q-5 3 -14 8 q-7 5 -11 6 q-4 2 -7 1 q-4 -2 -5 -5 q-2 -4 0 -7 q1 -3 5 -5 l0 0 Z" /><glyph glyph-name="" unicode="&#x5f15;" d="M183 173 q0 4 -2 7 q-3 2 -7 2 q-5 0 -7 -2 q-2 -2 -2 -7 l0 -196 q0 -4 3 -7 q2 -3 6 -3 q5 0 7 3 q2 3 2 7 l0 196 ZM133 37 q-6 33 -52 30 l-47 0 q-2 1 -3 3 l0 3 l2 25 q0 2 2 2 q1 1 3 2 l43 0 q43 2 43 29 l0 11 q0 27 -43 30 l-59 0 q-5 0 -7.5 -2 q-2.5 -2 -2.5 -6 q0 -4 2.5 -7 q2.5 -3 7.5 -3 l61 0 q26 0 25 -14 l0 -5 q0 -15 -28 -14 l-45 0 q-9 0 -15 -4 q-4 -3 -5 -11 l-4 -38 q-1 -9 5 -13 q4 -6 13 -5 l51 0 q30 1 34 -15 l0 -13 q0 -8 -5 -15.5 q-5 -7.5 -13 -9 q-8 -1.5 -14 -1.5 l-13 0 q-5 0 -7.5 -2.5 q-2.5 -2.5 -2.5 -6.5 q0 -4 3 -7 q3 -3 7 -3 l13 0 q28 2 39.5 13.5 q11.5 11.5 11.5 31.5 l0 15 Z" /><glyph glyph-name="" unicode="&#x5f53;" d="M26 150 q9 -13 21 -38 q2 -5 6 -6 q4 -2 7 0 q4 1 6 5 q1 3 -1 8 q-11 25 -23 42 q-4 3 -8 4 q-3 1 -6 -1 q-4 -3 -5 -7 q0 -3 3 -7 ZM168 159 q-6 -16 -24 -39 q-3 -5 -2 -8 q0 -3 4 -6 q4 -2 8 -2 q3 1 6 5 q18 23 27 43 q2 4 0 8 q-1 4 -4 5 q-5 2 -8 0 q-4 -1 -7 -6 ZM173 45 l-142 0 q-5 0 -8 -2 q-3 -3 -3 -7 q0 -5 3 -6 q2 -3 8 -3 l142 0 q3 -32 -29 -33 l-123 0 q-5 0 -8 -3 q-2 -1 -3 -6 q0 -3 3 -7 q3 -2 8 -2 l109 0 q64 -4 63 47 l0 28 q-5 47 -58 46 l-22 0 l0 76 q0 4 -3 7 q-3 2 -7 2 q-4 0 -7 -2 q-2 -2 -3 -7 l0 -76 l-70 0 q-6 0 -8 -3 q-3 -3 -3 -7 q0 -4 3 -7 q2 -2 8 -2 l122 0 q28 -2 28 -33 Z" /><glyph glyph-name="" unicode="&#x5f69;" d="M117 179 q-14 -4 -43 -6 q-28 -3 -49 -3 q-4 0 -7 -2 q-2 -4 -2 -7 q0 -5 2 -7 q3 -2 8 -2 q22 0 58 3 q24 1 38 6 q5 1 6 4 q2 4 0 7 q0 4 -3 6 q-3 2 -8 1 ZM22 131 q6 -9 10 -27 q1 -4 4 -6 q3 -2 8 -1 q3 1 5 3 q2 4 1 8 q-5 19 -11 32 q-2 3 -6 4 q-3 1 -7 0 q-4 -2 -5 -5 q-1 -3 1 -8 ZM63 137 q0 -2 2 -10 q1 -7 1 -13 q1 -4 3 -7 q3 -2 7 -2 q4 0 6 3 q3 3 3 7 q0 7 -2 14 q-1 9 -2 11 q-1 5 -5 7 q-3 2 -6 1 q-4 -1 -6 -4 q-2 -2 -1 -7 ZM111 144 q-3 -13 -13 -34 q-3 -4 -1 -8 q1 -2 4 -4 q4 -2 7 -1 q4 1 6 5 q11 21 14 38 q2 4 0 7 q-1 3 -5 5 q-5 1 -8 -1 q-2 -2 -4 -7 ZM83 39 q14 -15 23 -27 q3 -5 7 -5 q3 -1 7 2 q4 2 4 6 q0 4 -2 7 q-15 17 -37 39 l35 0 q4 0 7 4 q1 3 2 6 q0 4 -2 7 q-2 2 -7 2 l-37 0 l0 13 q0 4 -3 7 q-3 1 -7 2 q-4 0 -7 -2 q-2 -3 -3 -7 l0 -13 l-38 0 q-5 0 -8 -3 q-2 -2 -2 -6 q0 -4 2 -7 q2 -3 8 -3 l35 0 q-9 -12 -15 -20 q-12 -12 -30 -28 q-4 -4 -5 -8 q0 -3 3 -7 q3 -3 6 -3 q5 0 9 3 q14 12 22 20.5 q8 8.5 13 14.5 l0 -56 q0 -4 3 -7 q3 -3 7 -3 q4 0 7 3 q3 3 3 7 l0 62 ZM199 177 q-12 -16 -27 -26 q-13 -11 -30 -18 q-4 -2 -6 -6 q-1 -3 1 -7 q1 -4 4 -6 q5 -1 10 1 q14 6 31 19 q14 11 33 32 q3 3 2 7 q0 4 -3 7 q-4 2 -7 2 q-4 0 -8 -5 ZM210 117 q-16 -17 -34 -29 q-15 -10 -35 -18 q-5 -2 -6 -6 q-2 -3 -1 -7 q2 -4 6 -6 q3 -2 8 0 q17 7 36 20 q18 12 39 34 q4 4 4 8 q-1 3 -4 6 q-3 3 -6 3 q-5 -1 -7 -5 ZM214 57 q-13 -17 -22 -26 q-9 -9 -20 -16 q-10 -9 -19 -13 q-11 -6 -31 -14 q-4 -1 -6 -5 q-1 -4 0 -7 q2 -4 6 -6 q4 -2 8 0 q12 5 27 13 q14 8 27 17 q12 9 25 21 q13 12 21 24 q3 3 2 7 q0 4 -4 6 q-4 3 -7 2 q-4 0 -7 -3 l0 0 Z" /><glyph glyph-name="" unicode="&#x5f88;" d="M59 173 q-8 -16 -20 -28 q-9 -10 -23 -19 q-4 -3 -5 -7 q-1 -4 2 -7 q2 -3 5 -4 q4 -1 9 2 q11 7 24 21 q12 12 25 33 q2 5 1 8 q0 4 -4 6 q-4 2 -7 1 q-4 -1 -7 -6 ZM42 64 l0 -87 q0 -4 3 -7 q2 -3 6 -3 q5 0 7 3 q3 3 3 7 l0 102 q0 2 -1 3 q12 12 25 30 q1 4 1 8 q0 3 -4 6 q-4 1 -8 1 q-3 -1 -6 -5 q-10 -18 -24 -31 q-12 -11 -27 -22 q-5 -2 -6 -6 q-1 -4 1 -7 q3 -3 5 -4 q5 -1 9 2 q7 4 16 10 ZM170 37 q-3 8 -6 16 q-4 7 -5 19 l6 0 q44 2 46 39 l0 21 q-1 38 -55 40 l-47 0 q-7 0 -11 -3 q-5 -4 -5 -12 l0 -174 q-1 -13 6.5 -14.5 q7.5 -1.5 21.5 2.5 q20 5 35 12 q4 2 7 5 q1 3 0 7 q-2 4 -6 6 q-3 1 -8 0 q-12 -5 -25 -10 q-11 -5 -11 3 l0 78 l27 0 q2 -14 8 -29 q8 -17 19 -32 q7 -9 21 -21 q15 -13 27 -19 q5 -2 8 -2 q4 0 7 4 q2 3 2 7 q-1 4 -6 8 q-13 6 -23 14 q-13 9 -20 16 q-1 2 -2 3 q22 13 36 25 q4 4 4 8 q0 4 -3 6 q-3 3 -7 4 q-4 0 -7 -4 q-12 -10 -34 -23 ZM192 113 q2 -20 -26 -23 l-53 0 l0 23 l79 0 ZM113 131 l0 23 l49 0 q31 -2 30 -23 l-79 0 Z" /><glyph glyph-name="" unicode="&#x5fae;" d="M45 174 q-6 -12 -13 -22 q-7 -9 -16 -17 q-4 -2 -5 -7 q0 -2 3 -5 q2 -3 5 -4 q4 0 8 3 q8 5 18 18 q8 10 16 27 q2 4 1 8 q-2 3 -5 5 q-4 1 -7 0 q-4 -2 -5 -6 ZM34 72 l0 -94 q0 -4 3 -7 q3 -3 7 -3 q4 0 6 3 q4 3 4 7 l0 113 q0 1 -1 2 q6 8 14 20 q2 5 1 9 q-1 3 -5 5 q-4 0 -7 0 q-4 -1 -6 -5 q-6 -14 -16 -25 q-7 -10 -19 -18 q-4 -2 -5 -6 q0 -3 2 -6 q3 -4 5 -4 q5 -1 9 2 q4 3 8 7 ZM98 125 l-3 0 q-4 0 -5 2 q-2 1 -3 5 l0 26 q0 4 -1 7 q-3 2 -7 2 q-4 0 -6 -2 q-2 -3 -2 -7 l0 -36 q0 -7 3 -10 q3 -3 10 -4 l19 0 q38 -3 42 37 l0 12 q0 4 -3 7 q-2 2 -6 2 q-4 0 -5 -2 q-2 -3 -2 -7 l0 -5 q-4 -27 -13 -26 l0 48 q0 4 -2 7 q-3 1 -7 1 q-4 0 -6 -1 q-3 -3 -3 -7 l0 -49 ZM74 93 q-4 0 -6 -2 q-3 -3 -3 -6 q0 -4 3 -7 q2 -2 6 -3 l66 0 q4 0 6 3 q2 3 3 7 q0 3 -3 6 q-2 2 -6 2 l-66 0 ZM159 103 q1 -5 1 -11 q3 -27 9 -47 q4 -11 9 -22 q0 0 0 0 q-6 -10 -12 -19 q-5 -6 -11 -12 q-6 -5 -11 -8 q-3 -3 -4 -7 q-1 -3 1 -6 q3 -4 6 -5 q4 0 9 3 q2 1 11 8 q7 7 15 17 q3 5 7 11 q1 -1 2 -2 q14 -22 24 -32 q3 -4 8 -4 q3 0 7 3 q3 3 3 6 q0 4 -3 7 q-20 22 -32 39 q3 6 6 12 q6 14 8 29 q3 15 5 24 q1 13 2 30 l0 19 l3 0 q4 0 6 2 q3 2 3 6 q0 5 -3 7 q-2 3 -6 3 l-50 0 q2 11 2 19 q0 4 -3 8 q-2 1 -5 1 q-4 0 -7 -2 q-3 -2 -3 -7 q0 -17 -3 -34 q-4 -17 -12 -32 q-2 -4 0 -7 q0 -3 4 -5 q3 -2 7 -1 q3 1 5 5 q1 2 2 4 ZM183 56 q-4 16 -6 36 q-1 19 1 44 l22 0 l0 -19 q0 -11 -1 -22 q-1 -14 -3 -26 q-2 -11 -8 -24 q0 0 -1 -1 q-2 6 -4 12 ZM62 2 q-2 -4 -2 -8 q0 -3 3 -6 q3 -2 7 -2 q4 0 8 4 q9 9 11 20 q5 14 5 33 q25 2 21 -25 l0 -8 q0 -12 3 -16 q3 -3 10 -4 q5 0 10 2 q11 9 19 17 q3 5 8 9 q3 3 3 7 q-1 4 -4 6 q-3 2 -7 2 q-3 0 -6 -4 q-6 -7 -14 -14 q-1 -1 -2 0 q0 0 0 0 l0 5 q4 45 -45 40 q-5 0 -10 -5 q-5 -5 -5 -10 q1 -15 -2 -25 q-2 -10 -11 -18 Z" /><glyph glyph-name="" unicode="&#x6001;" d="M120 124 q16 -24 30 -32.5 q14 -8.5 29.5 -16 q15.5 -7.5 36.5 -11.5 q14 -2 15.5 7 q1.5 9 -12.5 11 q-19 4 -33 9 q-14 5 -25.5 12.5 q-11.5 7.5 -29.5 35.5 l73 0 q11 0 11 8.5 q0 8.5 -11 8.5 l-75 0 l0 16 q0 5 -3 8 q-2 2 -7 2 q-5 0 -6 -2 q-3 -3 -3 -8 l0 -16 l-76 0 q-11 0 -11 -8 q0 -8 11 -9 l72 0 q-1 -4 -5 -10 q-2 -4 -10 -11 q-8 -6 -17 -11 q-9 -5 -20 -10 q-8 -2 -18 -6 q-8 -3 -16 -4 q-5 -1 -8 -3 q-2 -3 -2 -8 q1 -4 4 -6 q3 -2 8 -2 q5 1 20 5 q12 4 24 10 q9 3 20 10 q9 5 17 13 q10 8 17 18 ZM106 84 q2 -1 7 -7 q3 -4 7 -8 q2 -4 6 -5 q3 0 7 2 q3 2 3 5 q1 3 -2 7 q-3 5 -8 10 q-5 6 -7 8 q-4 3 -7 4 q-4 0 -7 -3 q-2 -3 -2 -7 q0 -4 3 -6 ZM113 40 q2 -2 6 -12 q5 -9 8 -16 q2 -4 5 -6 q3 -2 7 0 q4 1 5 4 q2 3 0 8 q-2 8 -8 18 q-5 10 -7 14 q-2 3 -6 4 q-4 1 -8 -1 q-2 -1 -3 -5 q-1 -4 1 -8 ZM69 47 l0 -39 q1 -27 30 -32 l59 0 q30 1 35 24 l0 15 q-1 11 -11 10 q-10 -1 -9 -11 l0 -9 q-1 -11 -15 -11 l-58 0 q-11 4 -12 15 l0 38 q0 11 -9.5 11 q-9.5 0 -9.5 -11 ZM31 37 q-5 -16 -17 -45 q-4 -10 3.5 -13 q7.5 -3 13.5 7 q13 29 18 49 q3 11 -6 12.5 q-9 1.5 -12 -10.5 ZM211 -13 q2 -13 12 -11 q10 2 6 16 q-8 33 -20 56 q-4 7 -12.5 3 q-8.5 -4 -4.5 -12 q9 -18 19 -52 Z" /><glyph glyph-name="" unicode="&#x6027;" d="M16 130 q0 -5 -1 -28 q-1 -20 -4 -37 q-1 -5 2 -7 q2 -3 5 -3 q4 -1 7 1 q3 2 4 6 q3 17 3 38 q2 23 2 31 q-1 5 -2 8 q-4 1 -8 1 q-4 0 -6 -2 q-2 -3 -2 -8 ZM60 173 q0 4 -2 7 q-3 2 -7 2 q-5 0 -7 -2 q-2 -2 -2 -7 l0 -196 q0 -4 3 -7 q1 -3 6 -3 q4 0 7 3 q2 3 2 7 l0 196 ZM86 130 q0 5 -2 8 q-3 2 -7 2 q-4 -1 -6 -3 q-2 -3 -2 -7 l3 -54 q0 -4 2 -7 q3 -1 7 -1 q4 0 5 2 q3 3 3 7 l-3 53 ZM154 -4 l-58 0 q-5 0 -8 -3 q-2 -2 -2 -6 q0 -4 2 -7 q3 -3 8 -3 l127 0 q3 0 6 3 q3 3 3 7 q0 4 -3 6 q-2 3 -6 3 l-51 0 l0 52 l43 0 q5 0 7 3 q2 3 2 7 q0 4 -2 6 q-2 3 -7 3 l-43 0 l0 51 l46 0 q5 0 6 3 q3 3 3 6 q0 5 -3 7 q-1 3 -6 3 l-46 0 l0 37 q0 4 -3 7 q-2 2 -6 2 q-5 0 -7 -2 q-2 -2 -2 -7 l0 -37 l-30 0 q3 13 4 29 q0 4 -3 7 q-3 3 -7 3 q-4 0 -6 -2 q-4 -3 -4 -7 q0 -19 -4 -34 q-3 -14 -11 -29 q-3 -4 -2 -7 q1 -4 5 -6 q3 -2 7 -1 q4 1 7 6 q4 9 9 22 l35 0 l0 -51 l-43 0 q-5 0 -8 -3 q-2 -3 -2 -6 q0 -4 2 -7 q2 -3 8 -3 l43 0 l0 -52 Z" /><glyph glyph-name="" unicode="&#x60c5;" d="M17 134 q0 -7 -1 -28 q-1 -21 -5 -37 q-1 -4 1 -8 q3 -3 5 -3 q5 0 8 1 q3 2 4 7 q3 17 4 37 q2 22 3 31 q0 4 -3 6 q-2 3 -6 3 q-5 0 -7 -3 q-3 -2 -3 -6 ZM59 173 q0 4 -2 7 q-3 2 -7 2 q-5 0 -7 -2 q-2 -2 -2 -7 l0 -195 q0 -4 3 -7 q2 -3 6 -3 q5 0 7 3 q2 3 2 7 l0 195 ZM84 131 q0 4 -3 6 q-3 2 -6 2 q-3 -1 -5 -3 q-2 -2 -2 -7 l4 -46 q0 -3 2 -6 q3 -2 6 -1 q4 0 6 2 q1 3 1 7 l-3 46 ZM148 111 l-47 0 q-5 0 -7 -2 q-3 -3 -3 -7 q0 -3 3 -6 q2 -2 7 -2 l121 0 q3 0 6 2 q2 3 3 6 q0 4 -3 7 q-3 2 -6 2 l-54 0 l0 11 l42 0 q4 0 6 3 q2 2 2 5 q0 4 -2 6 q-2 2 -6 2 l-42 0 l0 11 l49 0 q4 0 6 3 q2 3 3 6 q0 4 -3 6 q-2 3 -6 3 l-49 0 l0 7 q0 4 -3 7 q-3 2 -7 2 q-4 0 -7 -2 q-2 -2 -3 -7 l0 -7 l-46 0 q-4 0 -6 -3 q-3 -2 -3 -6 q0 -4 3 -6 q2 -3 6 -3 l46 0 l0 -11 l-39 0 q-4 0 -7 -2 q-1 -2 -1 -6 q0 -3 1 -5 q3 -3 7 -3 l39 0 l0 -11 ZM124 23 l0 12 l73 0 l0 -12 l-73 0 ZM124 52 l0 14 l48 0 q21 0 24 -14 l-72 0 ZM197 6 q0 -5 -2 -12 q-4 -7 -13 -8 l-10 0 q-5 0 -7.5 -2.5 q-2.5 -2.5 -2.5 -6.5 q0 -4 3 -7 q3 -3 7 -3 l10 0 q18 2 27 13 q8 11 8 27 l0 37 q-1 40 -44 40 l-51 0 q-8 0 -12.5 -3.5 q-4.5 -3.5 -4.5 -12.5 l0 -91 q0 -4 2 -7 q4 -3 7 -3 q4 0 8 3 q2 3 2 7 l0 29 l73 0 Z" /><glyph glyph-name="" unicode="&#x610f;" d="M74 133 l-55 0 q-4 0 -6 -3 q-3 -3 -3 -6 q0 -4 3 -7 q2 -2 6 -2 l195 0 q4 0 7 2 q2 3 2 7 q0 3 -2 6 q-3 3 -7 3 l-51 0 q3 9 4 16 l29 0 q3 0 5 3 q3 2 3 5 q0 4 -3 6 q-2 2 -5 2 l-64 0 q-5 8 -7.5 12.5 q-2.5 4.5 -7.5 5.5 q-3 0 -7 -1 q-4 -2 -6 -6 q1 -7 4 -11 l-70 0 q-4 0 -6 -2 q-2 -3 -2 -6 q0 -3 2 -6 q2 -2 6 -2 l33 0 q1 -9 3 -16 ZM94 133 q-2 9 -4 16 l57 0 q-1 -7 -4 -16 l-49 0 ZM159 38 q35 3 36 27 l0 13 q-3 27 -41 27 l-101 0 q-6 0 -8 -4 q-4 -3 -4 -8 l0 -41 q0 -6 4 -10 q2 -4 8 -4 l106 0 ZM176 64 q-3 -9 -17 -10 l-100 0 l0 10 l117 0 ZM59 79 l0 10 l92 0 q23 0 25 -10 l-117 0 ZM32 22 q-6 -14 -17 -34 q-3 -10 3.5 -13 q6.5 -3 11.5 4 l19 39 q3 12 -5.5 13.5 q-8.5 1.5 -11.5 -9.5 ZM63 20 l0 -22 q1 -19 20 -23 q15 -3 41 -3 q25 0 35 3 q17 3 23 21 l1 11 q-1 11 -10.5 11.5 q-9.5 0.5 -9.5 -10.5 l-1 -8 q-5 -8 -11 -9 q-6 -1 -26 -1 q-24 0 -32 1 q-9 3 -10 15 l0 14 q0 10 -10 10 q-10 0 -10 -10 ZM112 18 q4 -6 9 -13 q6 -7 13.5 -3 q7.5 4 3.5 12 q-6 10 -12 17 q-7 5 -13.5 0 q-6.5 -5 -0.5 -13 ZM189 16 q8 -13 19 -33 q2 -5 5 -7 q4 0 8 0 q3 2 5 6 q1 4 -1 9 q-9 22 -20 36 q-3 3 -8 4 q-3 0 -6 -2 q-4 -2 -5 -6 q0 -4 3 -7 l0 0 Z" /><glyph glyph-name="" unicode="&#x6210;" d="M103 44 q0 -9 -6 -15 q-6 -6 -26 -6 q-9 -2 -9 -11 q0 -3 2 -5.5 q2 -2.5 7 -3.5 q23 0 33.5 7 q10.5 7 14.5 16 q3 7 4 14 l0 26 q-6 36 -52 36 l-22 0 l0 20 q0 3 3 4 q1 2 5 1 l80 0 q0 -4 1 -11 q3 -31 10 -56 q5 -15 10 -30 q-2 -3 -6 -8 q-23 -21 -51 -37 q-3 -2 -4 -7 q0 -3 2 -7 q3 -4 7 -4 q3 -1 8 3 q28 15 49 36 q2 2 4 5 q7 -14 16 -23 q7 -10 13 -14 q7 -4 14 -4 q6 0 9 2 q3 2 5 6 q3 5 5 13 q2 10 3 32 q0 5 -1 8 q-3 3 -7 4 q-4 0 -7 -2 q-4 -2 -4 -7 q-2 -21 -3 -27 q0 -6 -3 -6 q-4 0 -11 9 q-9 10 -14 24 q-1 1 -1 2 q7 11 15 25 q9 20 17 47 q0 4 -1 7 q-2 4 -5 5 q-5 1 -8 -1 q-3 -2 -4 -6 q-8 -25 -15 -42 q-4 -7 -8 -15 q-10 34 -14 60 q-1 10 -2 19 l67 0 q4 0 8 3 q3 2 3 7 q0 5 -3 7 q-4 2 -8 2 l-20 0 q1 1 2 2 q3 3 3 7 q1 2 -2 6 q-10 10 -19 16 q-3 3 -6 3 q-4 0 -7 -4 q-2 -3 -2 -7 q1 -3 5 -5 q6 -5 14 -14 q2 -2 5 -4 l-41 0 q-1 14 -1 27 q0 3 -2 6 q-2 3 -8 3 q-4 0 -7 -3 q-2 -3 -2 -7 q0 -12 1 -26 l-87 0 q-8 1 -14 -4 q-4 -5 -4 -14 l0 -65 q0 -23 -5 -45 q-5 -17 -13 -33 q-3 -5 -2 -9 q0 -2 4 -5 q2 -3 7 -2 q4 0 7 5 q6 8 11 21 q5 13 7 29 q2 18 2 34 l0 26 l21 0 q28 1 33 -19 l0 -21 Z" /><glyph glyph-name="" unicode="&#x6240;" d="M48 51 l11 0 q45 0 52 35 l0 11 q-5 34 -45 34 l-18 0 l0 13 q0 5 2 8 q2 2 5 2 q22 1 35 2 q13 2 20 3 q4 1 7 5 q1 2 1 6 q0 4 -4 7 q-2 2 -8 1 q-12 -2 -26 -4 q-12 -1 -31 -2 q-12 -1 -16 -4 q-4 -5 -4 -14 l0 -105 q0 -10 -2 -23 q-1 -10 -4 -19 q-4 -12 -10 -23 q-3 -5 -3 -8 q0 -3 4 -6 q3 -3 7 -2 q5 0 8 4 q6 10 11 24 q4 12 5 23 q3 19 3 30 l0 2 ZM92 97 l0 -11 q-4 -16 -30 -16 l-14 0 l0 43 l18 0 q23 0 26 -16 ZM185 101 l0 -122 q0 -11 9.5 -10.5 q9.5 0.5 9.5 10.5 l0 122 l19 0 q3 0 6 3 q3 3 3 7 q0 3 -3 6 q-2 2 -6 3 l-78 0 l0 26 q0 5 2 8 q2 1 5 1 q28 2 44 3 q15 2 24 4 q4 1 7 4 q1 3 1 7 q0 4 -4 7 q-2 2 -9 1 q-14 -2 -31 -4 q-16 -2 -38 -4 q-12 0 -16 -4 q-4 -4 -4 -14 l0 -103 q0 -10 -3 -22 q-3 -11 -9 -20 q-8 -12 -19 -23 q-5 -7 0 -13 q5 -6 13 -2 q13 10 21 25 q8 12 12 24 q4 20 4 31 l0 49 l40 0 Z" /><glyph glyph-name="" unicode="&#x624d;" d="M145 16 q0 -10 -5 -19.5 q-5 -9.5 -13 -11 q-8 -1.5 -14 -1.5 l-13 0 q-5 0 -7.5 -2.5 q-2.5 -2.5 -2.5 -6.5 q0 -4 3 -7 q3 -3 7 -3 l13 0 q28 2 40 13.5 q12 11.5 12 37.5 l0 109 l55 0 q3 0 6 3 q2 3 3 7 q0 4 -3 7 q-3 1 -6 2 l-55 0 l0 28 q0 5 -3 8 q-3 2 -7 2 q-4 0 -7 -2 q-3 -3 -3 -8 l0 -28 l-121 0 q-4 0 -7 -2 q-2 -3 -2 -7 q0 -5 2 -8 q2 -2 7 -2 l114 0 q-24 -30 -54 -53 q-28 -25 -67 -45 q-4 -3 -5 -6 q-2 -3 0 -6 q3 -4 5 -6 q5 -1 10 1 q30 14 64 42 q25 21 54 53 l0 -89 Z" /><glyph glyph-name="" unicode="&#x6280;" d="M218 -32 q4 -2 8 0 q4 2 6 6 q1 3 0 7 q-2 3 -7 5 q-30 12 -54 26 q7 6 12 11 q14 14 25 31 q9 16 15 29 q2 4 1 8 q-1 4 -3 7 q-4 2 -10 2 l-47 0 l0 33 l55 0 q4 0 7 3 q2 3 2 6 q0 5 -2 8 q-3 2 -7 2 l-55 0 l0 22 q0 4 -4 7 q-3 2 -6 2 q-5 0 -7 -2 q-3 -2 -3 -7 l0 -22 l-48 0 q-5 0 -8 -3 q-2 -3 -2 -7 q0 -3 2 -6 q3 -3 8 -3 l48 0 l0 -33 l-41 0 q-5 0 -7 -1 q-2 -3 -2 -7 q0 -4 2 -7 q2 -2 7 -2 l92 0 q4 0 5 -2 q1 -2 0 -4 q-2 -4 -10 -17 q-9 -15 -25 -29 q-4 -4 -9 -8 q-19 16 -39 42 q-3 4 -6 5 q-4 0 -8 -2 q-3 -3 -3 -7 q0 -3 2 -7 q21 -24 40 -41 q-4 -3 -9 -6 q-18 -9 -52 -19 q-4 -1 -6 -5 q-2 -3 -1 -7 q1 -3 4 -6 q4 -2 8 -1 q31 9 54 22 q9 5 17 11 q34 -25 61 -34 ZM42 67 q-12 -6 -25 -11 q-6 -5 -3 -12 q3 -7 11 -5 q7 3 15 6 l0 -31 q0 -15 -5 -21.5 q-5 -6.5 -16 -7.5 q-9 -2 -9 -11 q0 -3 2 -5.5 q2 -2.5 7 -3.5 q14 1 23.5 7.5 q9.5 6.5 13.5 16.5 q4 10 4 25 l0 40 q14 7 24 14 q6 5 1 11.5 q-5 6.5 -13 2.5 q-4 -3 -11 -7 l0 46 l18 0 q5 0 6 3 q3 3 3 6 q0 5 -3 7 q-1 2 -6 3 l-18 0 l0 32 q0 5 -4 8 q-2 2 -6 2 q-5 0 -7 -2 q-2 -3 -2 -8 l0 -32 l-23 0 q-4 0 -7 -3 q-2 -3 -2 -7 q0 -4 2 -6 q3 -3 7 -3 l23 0 l0 -54 Z" /><glyph glyph-name="" unicode="&#x62f7;" d="M166 117 l-11 0 l0 22 l30 0 q-6 -8 -12 -14 q-4 -4 -7 -8 ZM162 25 q41 2 39 -17 l0 -4 q-4 -21 -34 -21 l-18 0 q-6 0 -9 -2 q-3 -2 -3 -7 q0 -6 3 -8 q3 -2 9 -3 l18 0 q50 3 55 41 l0 5 q-1 38 -60 35 l-22 0 q-7 0 -4 6 l4 14 l75 0 q5 0 7 3 q2 2 2 6 q0 4 -2 6 q-2 3 -7 3 l-61 0 q1 2 5 4 q7 6 13 13 l49 0 q4 0 6 2 q3 3 3 7 q0 4 -3 6 q-2 2 -6 3 l-30 0 q0 1 1 1 q17 18 28 35 q2 3 1 7 q-1 4 -4 6 q-4 2 -8 2 q-3 -1 -6 -4 q-6 -9 -10 -16 q0 5 -3 7 q-3 1 -7 1 l-28 0 l0 16 q0 5 -3 7 q-3 3 -7 3 q-5 0 -7 -3 q-2 -2 -2 -7 l0 -16 l-32 0 q-4 0 -6 -1 q-3 -3 -3 -7 q0 -4 3 -6 q2 -2 6 -3 l32 0 l0 -22 l-43 0 q-5 0 -8 -3 q-1 -2 -1 -6 q0 -5 1 -7 q3 -2 8 -2 l52 0 q-13 -13 -26 -20 q-13 -9 -42 -21 q-4 -2 -6 -6 q0 -3 1 -7 q3 -4 5 -5 q5 -2 9 0 q14 6 30 17 l-3 -14 q-2 -8 3 -13 q4 -5 11 -5 l35 0 ZM42 67 q-12 -6 -25 -11 q-6 -5 -3 -12 q3 -7 11 -5 q7 3 15 6 l0 -31 q0 -15 -5 -21.5 q-5 -6.5 -16 -7.5 q-9 -2 -9 -11 q0 -3 2 -5.5 q2 -2.5 7 -3.5 q14 1 23.5 7.5 q9.5 6.5 13.5 16.5 q4 10 4 25 l0 40 q14 7 24 14 q6 5 1 11.5 q-5 6.5 -13 2.5 q-4 -3 -11 -7 l0 46 l18 0 q5 0 6 3 q3 3 3 6 q0 5 -3 7 q-1 2 -6 3 l-18 0 l0 32 q0 5 -4 8 q-2 2 -6 2 q-5 0 -7 -2 q-2 -3 -2 -8 l0 -32 l-23 0 q-4 0 -7 -3 q-2 -3 -2 -7 q0 -4 2 -6 q3 -3 7 -3 l23 0 l0 -54 Z" /><glyph glyph-name="" unicode="&#x6301;" d="M116 20 q6 -5 10 -10 q3 -4 7 -4 q4 0 7 2 q3 3 3 7 q0 3 -3 7 q-3 5 -9 10 q-7 7 -10 9 q-4 3 -8 3 q-3 -1 -6 -4 q-2 -3 -2 -7 q0 -3 4 -6 q2 -2 7 -7 ZM176 19 q0 -11 -4.5 -20 q-4.5 -9 -12 -10.5 q-7.5 -1.5 -15.5 -1.5 l-6 0 q-5 0 -7.5 -2.5 q-2.5 -2.5 -2.5 -6.5 q0 -4 3 -7 q3 -3 7 -3 l6 0 q28 1 40 13 q11 11 11 38 l0 31 l29 0 q5 0 8 3 q2 3 2 6 q0 5 -2 7 q-3 3 -8 3 l-29 0 l0 23 l25 0 q4 0 6 3 q3 3 3 6 q0 5 -3 7 q-2 3 -6 3 l-53 0 l0 25 l45 0 q4 0 7 2 q3 2 3 6 q0 5 -3 7 q-3 3 -7 3 l-45 0 l0 19 q0 4 -4 7 q-3 2 -7 2 q-4 0 -6 -2 q-3 -2 -3 -7 l0 -19 l-44 0 q-5 0 -6 -3 q-3 -3 -3 -7 q0 -4 3 -6 q1 -2 6 -2 l44 0 l0 -25 l-50 0 q-5 0 -8 -3 q-2 -3 -2 -7 q0 -4 2 -6 q3 -3 8 -3 l79 0 l0 -23 l-80 0 q-5 0 -8 -3 q-2 -3 -2 -7 q0 -3 2 -6 q3 -3 8 -3 l80 0 l0 -31 ZM42 67 q-12 -6 -25 -11 q-6 -5 -3 -12 q3 -7 11 -5 q7 3 15 6 l0 -31 q0 -15 -5 -21.5 q-5 -6.5 -16 -7.5 q-9 -2 -9 -11 q0 -3 2 -5.5 q2 -2.5 7 -3.5 q14 1 23.5 7.5 q9.5 6.5 13.5 16.5 q4 10 4 25 l0 40 q14 7 24 14 q6 5 1 11.5 q-5 6.5 -13 2.5 q-4 -3 -11 -7 l0 46 l18 0 q5 0 6 3 q3 3 3 6 q0 5 -3 7 q-1 2 -6 3 l-18 0 l0 32 q0 5 -4 8 q-2 2 -6 2 q-5 0 -7 -2 q-2 -3 -2 -8 l0 -32 l-23 0 q-4 0 -7 -3 q-2 -3 -2 -7 q0 -4 2 -6 q3 -3 7 -3 l23 0 l0 -54 Z" /><glyph glyph-name="" unicode="&#x6309;" d="M151 155 l-44 0 q-8 0 -13 -5 q-6 -6 -5 -12 l0 -22 q0 -3 3 -6 q2 -3 7 -3 q3 0 6 2 q3 3 3 7 l0 13 q0 3 3 5 q2 2 4 2 l66 0 q33 1 30 -8 l0 -6 q0 -5 2 -9 q1 -3 6 -3 q4 -1 9 0 q2 4 2 12 l0 7 q4 25 -49 26 l-11 0 q1 3 -2 8 q-5 10 -11 16 q-3 3 -7 3 q-4 1 -8 -1 q-3 -3 -3 -7 q0 -4 3 -7 q4 -4 9 -12 ZM206 82 l19 0 q5 0 8 3 q2 1 2 6 q0 4 -2 7 q-3 2 -8 2 l-68 0 q3 8 6 15 q2 5 0 9 q-2 3 -6 4 q-4 1 -7 -1 q-4 -1 -6 -5 q-3 -12 -8 -22 l-44 0 q-5 0 -7 -3 q-2 -2 -2 -6 q0 -5 2 -7 q2 -2 7 -2 l36 0 q-2 -4 -4 -8 q-14 -24 -23 -35 q-4 -7 -4 -11 q2 -5 8 -8 l36 -17 q-7 -3 -16 -6 q-16 -6 -40 -10 q-6 0 -8 -3 q-3 -3 -3 -7 q0 -4 4 -7 q3 -1 8 -1 q19 3 39 9 q14 5 28 12 q3 2 8 5 l57 -26 q5 -2 8 0 q4 2 6 5 q2 4 0 7 q-2 4 -7 6 l-49 21 q32 32 30 74 ZM187 82 q3 -37 -29 -66 l-35 15 q-2 0 -2 1 q-1 1 0 3 q12 16 24 39 q2 4 3 8 l39 0 ZM42 67 q-12 -6 -25 -11 q-6 -5 -3 -12 q3 -7 11 -5 q7 3 15 6 l0 -31 q0 -15 -5 -21.5 q-5 -6.5 -16 -7.5 q-9 -2 -9 -11 q0 -3 2 -5.5 q2 -2.5 7 -3.5 q14 1 23.5 7.5 q9.5 6.5 13.5 16.5 q4 10 4 25 l0 40 q14 7 24 14 q6 5 1 11.5 q-5 6.5 -13 2.5 q-4 -3 -11 -7 l0 46 l18 0 q5 0 6 3 q3 3 3 6 q0 5 -3 7 q-1 2 -6 3 l-18 0 l0 32 q0 5 -4 8 q-2 2 -6 2 q-5 0 -7 -2 q-2 -3 -2 -8 l0 -32 l-23 0 q-4 0 -7 -3 q-2 -3 -2 -7 q0 -4 2 -6 q3 -3 7 -3 l23 0 l0 -54 Z" /><glyph glyph-name="" unicode="&#x6311;" d="M85 157 q8 -18 13 -50 q2 -5 4 -7 q3 -2 7 -1 q4 0 6 3 q2 3 2 8 q-5 32 -14 54 q-2 4 -5 5 q-3 2 -7 0 q-5 -1 -6 -4 l0 -8 ZM123 78 q-11 -10 -19 -16 q-9 -6 -25 -14 q-4 -3 -6 -6 q-1 -4 1 -8 q2 -3 7 -4 q4 -1 8 1 q11 6 24 16 q4 4 10 9 q-10 -54 -41 -70 q-3 -1 -5 -5 q-1 -4 1 -7 q3 -4 7 -5 q3 -1 8 2 q44 27 49 87 l0 114 q0 5 -3 8 q-3 2 -7 2 q-5 0 -6 -2 q-3 -3 -3 -8 l0 -94 ZM181 67 q17 -14 30 -25 q4 -4 9 -4 q3 1 6 3 q3 4 3 7 q-1 4 -4 8 q-18 13 -44 30 l0 16 q25 25 38 45 q2 4 2 8 q-1 3 -5 5 q-4 3 -7 2 q-4 -1 -7 -6 q-7 -12 -21 -28 l0 44 q0 5 -4 8 q-3 2 -7 2 q-4 0 -6 -2 q-3 -3 -3 -8 l0 -176 q0 -11 10 -19 q6 -3 13 -4 l8 0 q39 0 40 33 l0 5 q1 4 -2 7 q-3 2 -7 3 q-4 0 -7 -2 q-3 -2 -3 -7 l0 -6 q-2 -17 -22 -15 q-5 0 -8 4 q-3 3 -2 7 l0 65 ZM42 67 q-12 -6 -25 -11 q-6 -5 -3 -12 q3 -7 11 -5 q7 3 15 6 l0 -31 q0 -15 -5 -21.5 q-5 -6.5 -16 -7.5 q-9 -2 -9 -11 q0 -3 2 -5.5 q2 -2.5 7 -3.5 q14 1 23.5 7.5 q9.5 6.5 13.5 16.5 q4 10 4 25 l0 40 q14 7 24 14 q6 5 1 11.5 q-5 6.5 -13 2.5 q-4 -3 -11 -7 l0 46 l18 0 q5 0 6 3 q3 3 3 6 q0 5 -3 7 q-1 2 -6 3 l-18 0 l0 32 q0 5 -4 8 q-2 2 -6 2 q-5 0 -7 -2 q-2 -3 -2 -8 l0 -32 l-23 0 q-4 0 -7 -3 q-2 -3 -2 -7 q0 -4 2 -6 q3 -3 7 -3 l23 0 l0 -54 Z" /><glyph glyph-name="" unicode="&#x6362;" d="M148 45 l-1 -1 l-34 0 l0 59 q0 3 2 5 q3 2 5 2 l28 0 l0 -65 ZM223 67 q0 25 -17 43 q-12 11 -26 15 q10 11 17.5 20.5 q7.5 9.5 9.5 16.5 q1 5 -2 9.5 q-3 4.5 -12 4.5 l-58 0 q-4 0 -8 -2 q-4 -1 -6 -5 q-4 -7 -11 -13 q-5 -5 -18 -12 q-2 -2 -4 -6 q-1 -3 2 -7 q1 -3 5 -4 q4 0 8 2 q10 6 16 13 q8 6 14 13 q2 4 10 4 l33 0 q5 1 5 -4 l-6 -9 q-7 -8 -17 -19 l-50 0 q-5 0 -10 -4 q-4 -4 -4 -10 l0 -69 l-10 0 q-5 0 -8 -3 q-1 -3 -2 -7 q0 -4 2 -6 q3 -3 8 -3 l58 0 q-22 -25 -60 -38 q-5 -1 -7 -4 q-2 -3 -1 -7 q1 -4 4 -6 q3 -2 9 -1 q47 19 72 47 q23 -34 65 -48 q5 -2 9 -1 q5 2 6 7 q1 3 -4 8 q-37 10 -62 43 l55 0 q4 0 7 3 q3 3 3 6 q0 5 -3 7 q-2 3 -7 3 l-5 0 l0 23 ZM204 44 l-37 0 l0 66 q14 -1 26 -14 q11 -12 11 -29 l0 -23 ZM42 67 q-12 -6 -25 -11 q-6 -5 -3 -12 q3 -7 11 -5 q7 3 15 6 l0 -31 q0 -15 -5 -21.5 q-5 -6.5 -16 -7.5 q-9 -2 -9 -11 q0 -3 2 -5.5 q2 -2.5 7 -3.5 q14 1 23.5 7.5 q9.5 6.5 13.5 16.5 q4 10 4 25 l0 40 q14 7 24 14 q6 5 1 11.5 q-5 6.5 -13 2.5 q-4 -3 -11 -7 l0 46 l18 0 q5 0 6 3 q3 3 3 6 q0 5 -3 7 q-1 2 -6 3 l-18 0 l0 32 q0 5 -4 8 q-2 2 -6 2 q-5 0 -7 -2 q-2 -3 -2 -8 l0 -32 l-23 0 q-4 0 -7 -3 q-2 -3 -2 -7 q0 -4 2 -6 q3 -3 7 -3 l23 0 l0 -54 Z" /><glyph glyph-name="" unicode="&#x63a5;" d="M131 -4 q-19 -6 -46 -9 q-5 0 -9 -3 q-3 -2 -3 -7 q0 -3 3 -6 q3 -3 9 -3 q26 3 48 10 q12 4 22 10 l60 -20 q5 -1 9 1 q3 1 5 5 q1 4 -1 7 q-2 4 -6 5 l-49 15 q10 8 20 22 q9 14 12 26 l17 0 q3 0 6 2 q3 3 3 7 q0 3 -3 6 q-3 3 -6 3 l-67 0 q7 12 11 21 l51 0 q5 0 7 3 q2 3 2 6 q0 4 -2 7 q-2 2 -7 2 l-24 0 q2 7 4 17 q2 12 4 17 l13 0 q5 0 7 3 q2 3 2 7 q0 4 -2 6 q-2 2 -7 2 l-47 0 q0 1 0 2 q-3 10 -8 17 q-3 5 -6 6 q-4 1 -8 -1 q-4 -3 -5 -7 q-1 -4 1 -7 q2 -4 5 -10 l-48 0 q-5 0 -7 -2 q-3 -2 -3 -6 q0 -4 3 -7 q2 -2 7 -3 l17 0 q0 0 0 0 q1 -3 6 -17 q2 -10 3 -17 l-22 0 q-4 0 -7 -2 q-2 -4 -2 -7 q0 -4 3 -7 q2 -2 6 -2 l43 0 q-5 -11 -12 -21 l-40 0 q-5 0 -7 -3 q-2 -3 -2 -6 q0 -4 2 -7 q2 -2 7 -2 l27 0 q-7 -9 -15 -17 q-10 -10 -9 -17 q2 -9 11 -12 l24 -7 ZM178 32 q-9 -13 -19 -21 q-3 -2 -5 -4 l-33 11 q-5 1 -2 5 q13 12 23 26 l43 0 q-3 -9 -7 -17 ZM143 106 q-2 9 -4 21 q-3 9 -4 13 l47 0 q-1 -4 -3 -13 q-3 -12 -6 -21 l-30 0 ZM42 67 q-12 -6 -25 -11 q-6 -5 -3 -12 q3 -7 11 -5 q7 3 15 6 l0 -31 q0 -15 -5 -21.5 q-5 -6.5 -16 -7.5 q-9 -2 -9 -11 q0 -3 2 -5.5 q2 -2.5 7 -3.5 q14 1 23.5 7.5 q9.5 6.5 13.5 16.5 q4 10 4 25 l0 40 q14 7 24 14 q6 5 1 11.5 q-5 6.5 -13 2.5 q-4 -3 -11 -7 l0 46 l18 0 q5 0 6 3 q3 3 3 6 q0 5 -3 7 q-1 2 -6 3 l-18 0 l0 32 q0 5 -4 8 q-2 2 -6 2 q-5 0 -7 -2 q-2 -3 -2 -8 l0 -32 l-23 0 q-4 0 -7 -3 q-2 -3 -2 -7 q0 -4 2 -6 q3 -3 7 -3 l23 0 l0 -54 Z" /><glyph glyph-name="" unicode="&#x63a8;" d="M175 -4 l0 31 l36 0 q4 0 7 2 q3 2 3 6 q0 4 -3 7 q-3 2 -7 2 l-36 0 l0 31 l35 0 q4 0 7 3 q3 3 3 7 q0 3 -3 6 q-3 2 -7 2 l-35 0 l0 31 l40 0 q5 0 7 3 q3 2 3 6 q0 4 -3 7 q-2 2 -7 2 l-33 0 q0 1 1 3 q1 4 -1 8 q-6 14 -13 22 q-3 4 -7 5 q-3 0 -7 -2 q-3 -3 -3 -7 q-1 -3 2 -7 q5 -7 11 -19 q1 -1 2 -3 l-46 0 q5 12 10 27 q1 4 -1 8 q-1 3 -5 5 q-4 1 -7 -1 q-4 -2 -5 -7 q-6 -19 -15 -36 q-8 -14 -21 -28 q-3 -4 -3 -8 q0 -3 3 -6 q3 -2 7 -3 q4 1 8 4 q4 4 8 10 l0 -111 q0 -8 5 -13 q6 -6 15 -6 l98 0 q4 0 7 3 q3 3 3 7 q0 4 -3 6 q-3 3 -7 3 l-43 0 ZM156 93 l-36 0 l0 24 q0 3 1 5 q2 2 5 2 l30 0 l0 -31 ZM156 44 l-36 0 l0 31 l36 0 l0 -31 ZM156 -4 l-29 0 q-3 0 -5 2 q-2 2 -2 6 l0 23 l36 0 l0 -31 ZM42 67 q-12 -6 -25 -11 q-6 -5 -3 -12 q3 -7 11 -5 q7 3 15 6 l0 -31 q0 -15 -5 -21.5 q-5 -6.5 -16 -7.5 q-9 -2 -9 -11 q0 -3 2 -5.5 q2 -2.5 7 -3.5 q14 1 23.5 7.5 q9.5 6.5 13.5 16.5 q4 10 4 25 l0 40 q14 7 24 14 q6 5 1 11.5 q-5 6.5 -13 2.5 q-4 -3 -11 -7 l0 46 l18 0 q5 0 6 3 q3 3 3 6 q0 5 -3 7 q-1 2 -6 3 l-18 0 l0 32 q0 5 -4 8 q-2 2 -6 2 q-5 0 -7 -2 q-2 -3 -2 -8 l0 -32 l-23 0 q-4 0 -7 -3 q-2 -3 -2 -7 q0 -4 2 -6 q3 -3 7 -3 l23 0 l0 -54 Z" /><glyph glyph-name="" unicode="&#x641c;" d="M152 -15 q32 -16 69 -17 q10 0 10 8.5 q0 8.5 -10 9.5 q-23 1 -50 10 q9 6 17 12 q20 17 29 33 q5 6 1 15 q-5 2 -11 2 l-43 0 l0 16 l17 0 q41 0 41 38 l0 26 q0 34 -35 34 l-6 0 q-10 0 -10 -8.5 q0 -8.5 10 -8.5 l6 0 q16 0 16 -17 l0 -5 l-23 0 q-10 0 -10 -9 q0 -9 10 -9 l23 0 l0 -3 q0 -20 -22 -20 l-17 0 l0 80 q0 9 -9.5 9 q-9.5 0 -9.5 -9 l0 -80 l-30 0 q-3 1 -6 3 q-2 2 -2 5 l0 15 l18 0 q9 0 9 9 q0 9 -9 9 l-18 0 l0 16 q0 5 1 6 q2 2 8 3 q8 1 14 3 q9 3 6.5 10.5 q-2.5 7.5 -11.5 6.5 q-10 -3 -20 -4 q-10 -1 -14 -5 q-3 -4 -3 -11 l0 -66 q0 -7 5 -12 q6 -6 14 -6 l38 0 l0 -16 l-47 0 q-11 0 -11 -9 q0 -9 11 -9 l87 0 q6 0 5 -4 q-2 -3 -16 -15 q-9 -7 -22 -15 q-4 3 -8 6 q-10 8 -22 21 q-10 5 -14.5 0 q-4.5 -5 0.5 -12 q11 -10 26 -23 q-8 -4 -17 -6 q-17 -4 -36 -5 q-9 -4 -9 -11 q0 -7 10 -8 q22 1 45 7 q12 4 25 10 ZM42 67 q-12 -6 -25 -11 q-6 -5 -3 -12 q3 -7 11 -5 q7 3 15 6 l0 -31 q0 -15 -5 -21.5 q-5 -6.5 -16 -7.5 q-9 -2 -9 -11 q0 -3 2 -5.5 q2 -2.5 7 -3.5 q14 1 23.5 7.5 q9.5 6.5 13.5 16.5 q4 10 4 25 l0 40 q14 7 24 14 q6 5 1 11.5 q-5 6.5 -13 2.5 q-4 -3 -11 -7 l0 46 l18 0 q8 0 8 9 q0 9 -8 10 l-18 0 l0 32 q0 5 -4 8 q-2 2 -6 2 q-5 0 -7 -2 q-2 -3 -2 -8 l0 -32 l-23 0 q-4 0 -7 -3 q-2 -3 -2 -7 q0 -4 2 -6 q3 -3 7 -3 l23 0 l0 -54 Z" /><glyph glyph-name="" unicode="&#x652f;" d="M115 3 q7 -4 13 -8 q19 -10 43 -18 q25 -8 39 -8 q6 0 10 2 q3 2 4 6 q1 5 -2 8 q-3 4 -9 5 q-30 2 -50 9 q-18 6 -30 15 q7 5 13 10 q18 14 31 32 q13 15 19 29 q2 5 1 10 q-1 4 -4 7 q-3 3 -10 3 l-57 0 l0 26 l82 0 q3 0 7 3 q2 3 2 6 q0 5 -3 8 q-2 2 -6 2 l-82 0 l0 23 q0 4 -3 7 q-3 2 -7 2 q-4 0 -7 -2 q-2 -2 -3 -7 l0 -23 l-82 0 q-5 0 -8 -3 q-2 -3 -2 -7 q0 -3 2 -6 q2 -3 8 -3 l82 0 l0 -26 l-62 0 q-5 0 -8 -2 q-3 -3 -3 -7 q0 -3 3 -7 q2 -3 8 -3 l123 0 q3 0 4 -1 q1 -1 0 -2 q-2 -6 -11 -19 q-26 -31 -42 -39 q-9 5 -16 12 q-13 12 -29 35 q-2 3 -7 4 q-4 0 -7 -2 q-3 -2 -4 -6 q0 -4 3 -8 q14 -17 31 -34 q6 -5 12 -10 q-8 -5 -15 -8 q-23 -9 -67 -20 q-4 -1 -7 -4 q-2 -3 -2 -7 q1 -5 5 -7 q2 -2 7 -1 q39 10 69 22 q13 6 24 12 l0 0 Z" /><glyph glyph-name="" unicode="&#x6539;" d="M133 93 q0 -1 0 -2 q4 -23 11 -40 q6 -12 14 -24 q-2 -4 -7 -8 q-12 -14 -42 -32 q-4 -3 -5 -7 q0 -4 2 -7 q3 -4 7 -5 q3 -1 8 2 q13 8 27 21 q14 11 22 21 q19 -23 45 -42 q5 -3 8 -2 q4 0 7 4 q3 4 2 7 q-1 4 -5 7 q-23 17 -35 30 q-6 5 -10 10 q4 6 8 15 q10 22 15 44 q5 25 5 47 l13 0 q4 0 7 3 q3 3 3 7 q0 4 -3 7 q-3 2 -7 2 l-78 0 q0 10 1 21 q0 5 -3 8 q-2 2 -6 2 q-4 1 -8 -2 q-2 -4 -2 -8 q0 -30 -7 -58 q-6 -23 -19 -48 q-2 -5 -2 -8 q1 -4 5 -6 q4 -2 8 -1 q3 2 5 6 q10 15 16 36 ZM164 50 q-8 16 -13 39 q-4 17 -1 43 l40 0 q0 -24 -3 -44 q-3 -17 -10 -35 q-3 -6 -7 -14 q-4 7 -6 11 ZM25 94 q-1 -4 -1 -6 l0 -99 q1 -7 5 -10 q3 -3 11 -2 l62 18 q3 1 6 5 q2 3 1 7 q-1 4 -5 6 q-3 2 -7 1 l-50 -15 q-2 0 -2 4 l0 80 l9 0 q40 2 48 35 l0 14 q-7 35 -54 35 l-27 0 q-5 0 -8 -2 q-3 -3 -3 -7 q0 -4 3 -7 q3 -2 8 -2 l30 0 q30 -2 32 -19 l0 -11 q-3 -15 -27 -19 l-20 0 q-5 0 -8 -2 q-2 -2 -4 -6 l1 2 Z" /><glyph glyph-name="" unicode="&#x6574;" d="M117 125 q-3 19 -41 19 l0 9 l37 0 q3 0 5 2 q3 2 3 6 q0 3 -3 6 q-2 2 -5 2 l-37 0 l0 4 q0 4 -3 7 q-2 2 -6 2 q-5 0 -7 -2 q-2 -3 -2 -7 l0 -4 l-37 0 q-4 0 -6 -2 q-2 -3 -2 -6 q0 -4 2 -6 q2 -2 6 -2 l37 0 l0 -9 l-32 0 q-4 0 -8 -3 q-3 -3 -3 -7 l0 -16 q0 -5 3 -9 q3 -3 8 -3 l24 0 q-5 -6 -12 -10 q-8 -6 -21 -11 q-4 -1 -5 -4 q-2 -3 0 -8 q1 -2 5 -4 q2 -1 7 0 q10 4 22 13 q6 3 12 8 l0 -17 q0 -3 2 -6 q2 -3 7 -3 q4 0 6 2 q3 4 3 7 l0 18 q11 -8 20 -15 q3 -3 7 -3 q3 0 6 3 q3 3 3 6 q-1 4 -4 6 q-11 8 -25 18 q32 1 34 19 ZM118 131 q-5 -14 7 -16 q5 1 8 5 q5 7 9 17 q4 -9 9 -17 q6 -9 12 -18 q-4 -3 -9 -6 q-10 -6 -28 -12 q-4 -1 -5 -4 q-2 -3 -1 -7 q1 -4 5 -6 q3 -1 7 0 q9 3 19 8 q11 5 17 9 q4 3 7 6 q8 -6 17 -12 q14 -8 22 -11 q5 -2 9 0 q2 1 4 5 q2 3 0 8 q-2 3 -6 5 q-17 5 -26 12 q-4 2 -8 6 q7 9 11 17 q8 14 12 28 l10 0 q3 0 6 3 q2 3 2 6 q0 4 -2 7 q-3 2 -6 2 l-67 0 q1 3 2 6 q1 5 -2 9 q-3 2 -7 2 q-4 0 -6 -1 q-3 -2 -4 -6 q-2 -14 -7 -25 q-3 -9 -11 -20 ZM167 127 q-5 9 -10 21 l33 0 q-3 -11 -7 -20 q-3 -6 -8 -13 q-4 6 -8 12 ZM58 121 l-26 0 l0 8 l26 0 l0 -8 ZM76 129 l10 0 q15 0 15 -4 q0 -4 -14 -4 l-11 0 l0 8 ZM54 -8 l-34 0 q-4 0 -6 -2 q-3 -3 -3 -7 q0 -4 3 -7 q2 -1 6 -1 l195 0 q8 1 8 8 q0 8 -8 9 l-85 0 l0 17 l63 0 q3 0 5 2 q3 3 3 7 q0 3 -3 6 q-2 2 -5 2 l-63 0 l0 18 l69 0 q4 0 7 2 q2 3 2 6 q0 5 -2 7 q-3 2 -7 2 l-161 0 q-5 0 -7 -2 q-2 -3 -2 -7 q0 -4 2 -6 q3 -2 7 -2 l74 0 l0 -52 l-39 0 l0 28 q0 4 -2 7 q-3 3 -7 3 q-5 0 -7 -3 q-2 -2 -3 -7 l0 -28 Z" /><glyph glyph-name="" unicode="&#x6587;" d="M106 31 q-14 -12 -33 -21 q-11 -7 -28 -13 q-14 -6 -26 -8 q-5 -1 -7 -5 q-2 -4 -1 -8 q1 -3 4 -5 q4 -3 9 -1 q8 1 28 9 q19 8 38 18 q14 7 30 21 q0 0 1 0 q10 -9 23 -17 q31 -20 68 -32 q5 -2 9 0 q3 2 5 6 q1 3 -1 7 q-2 4 -6 6 q-34 11 -53 21 q-19 11 -32 21 q5 5 12 12 q13 15 22 32 q7 15 10 26 q5 13 5 31 l32 0 q5 0 8 3 q2 3 2 6 q1 5 -2 8 q-2 2 -8 2 l-84 0 q0 1 0 2 q-3 14 -8 24 q-3 4 -7 6 q-3 1 -7 0 q-5 -3 -6 -7 q0 -3 1 -8 q3 -6 6 -17 l-89 0 q-4 0 -7 -3 q-3 -3 -3 -7 q0 -3 2 -6 q3 -3 8 -3 l33 0 q5 -25 19 -52 q12 -26 28 -43 q2 -3 5 -5 ZM161 108 q-3 -15 -10 -28 q-6 -11 -16 -24 q-7 -8 -14 -14 q-17 16 -30 40 q-10 18 -18 49 l91 0 q0 -11 -3 -23 l0 0 Z" /><glyph glyph-name="" unicode="&#x65b0;" d="M60 164 l-35 0 q-5 0 -7 -2 q-2 -3 -2 -7 q0 -4 2 -6 q2 -3 7 -3 l89 0 q4 0 7 3 q3 3 3 6 q0 4 -3 7 q-3 2 -7 2 l-32 0 q-2 7 -5 12 q-2 5 -5 6 q-4 2 -8 0 q-5 -1 -6 -5 q-1 -4 1 -8 q0 -2 1 -5 ZM33 34 q-6 -13 -20 -31 q-3 -4 -2 -8 q0 -4 3 -6 q3 -2 7 -2 q4 1 7 4 q15 20 21 37 q2 3 1 7 q-1 4 -5 6 q-3 1 -7 -1 q-4 -2 -5 -6 ZM91 29 q5 -9 8 -22 q2 -5 5 -6 q3 -2 8 0 q3 1 5 3 q2 3 0 8 q-4 15 -10 25 q-2 4 -6 5 q-3 1 -7 -1 q-3 -2 -4 -5 q-1 -4 1 -7 ZM185 100 l0 -123 q0 -4 3 -7 q3 -3 7 -3 q4 0 7 3 q3 3 3 7 l0 123 l17 0 q4 0 6 3 q3 3 3 7 q0 3 -3 6 q-2 2 -6 3 l-69 0 l0 27 q-1 5 1 7 q2 2 4 2 q26 1 41 2 q15 2 23 3 q5 1 7 4 q2 3 2 7 q0 4 -4 7 q-3 2 -9 1 q-13 -2 -30 -4 q-14 -1 -34 -2 q-13 0 -17 -4 q-4 -4 -4 -14 l0 -90 q0 -12 -2 -27 q-2 -12 -5 -23 q-5 -14 -12 -27 q-3 -5 -3 -8 q1 -4 3 -6 q4 -3 9 -2 q3 0 6 4 q8 12 13 27 q5 15 7 27 q3 22 4 35 l0 35 l32 0 ZM62 21 q0 -10 -3 -18 q-3 -8 -7.5 -10.5 q-4.5 -2.5 -10.5 -3.5 q-5 0 -7.5 -2.5 q-2.5 -2.5 -2.5 -6.5 q0 -4 3 -7 q3 -3 7 -3 q18 2 29 13.5 q11 11.5 12 37.5 l0 29 l32 0 q3 0 6 3 q3 3 3 6 q0 4 -3 7 q-3 2 -6 2 l-32 0 l0 19 l34 0 q5 0 8 3 q2 3 2 6 q0 4 -2 6 q-3 3 -8 3 l-17 0 q6 14 9 25 q1 5 -1 8 q-2 2 -6 4 q-4 1 -7 -1 q-3 -2 -4 -7 q-3 -11 -11 -29 l-23 0 q0 1 1 1 q1 3 1 7 q-3 13 -7 21 q-2 4 -6 6 q-3 2 -7 0 q-4 -3 -5 -6 q-1 -4 1 -7 q2 -6 5 -17 q1 -3 3 -5 l-19 0 q-5 0 -7 -3 q-2 -2 -2 -6 q0 -4 2 -7 q2 -2 7 -2 l39 0 l0 -19 l-36 0 q-5 0 -7 -2 q-2 -3 -2 -7 q0 -3 2 -6 q2 -2 7 -3 l37 0 l-1 -29 Z" /><glyph glyph-name="" unicode="&#x65b9;" d="M178 19 q0 -10 -5 -19 q-5 -9 -13 -11 q-8 -2 -14 -2 l-36 0 q-5 0 -7.5 -2.5 q-2.5 -2.5 -2.5 -6.5 q0 -4 3 -7 q3 -3 7 -3 l36 0 q26 1 38 13 q12 12 13 38 l0 28 q-2 50 -78 51 l-28 0 q1 8 1 17 l0 12 l124 0 q6 0 8 4 q2 3 2 6 q0 5 -3 7 q-1 2 -7 2 l-87 0 q3 3 4 6 q1 3 -1 8 q-6 11 -13 19 q-3 3 -7 4 q-4 0 -8 -3 q-3 -3 -3 -7 q0 -4 3 -7 q4 -5 10 -15 q1 -3 3 -5 l-98 0 q-3 0 -6 -2 q-3 -2 -3 -7 q0 -4 2 -7 q3 -3 7 -3 l53 0 l0 -33 q-1 -13 -3.5 -24 q-2.5 -11 -7.5 -23 q-5 -12 -10.5 -21 q-5.5 -9 -13.5 -18 q-4 -5 -10.5 -11 q-6.5 -6 -10.5 -8 q-4 -3 -5 -7 q-1 -4 2 -7 q2 -3 5 -4 q5 -1 9 2 q5 3 11.5 9 q6.5 6 13.5 13.5 q7 7.5 17.5 28 q10.5 20.5 14.5 35 q4 14.5 5 21.5 l28 0 q57 -1 61 -33 l0 -28 Z" /><glyph glyph-name="" unicode="&#x65f6;" d="M64 70 l0 -21 q-4 -38 -34 -40 l0 61 l34 0 ZM30 86 l0 54 q29 -1 34 -35 l0 -19 l-34 0 ZM121 30 q2 -5 5 -7 q2 -2 7 -1 q4 1 7 5 q1 3 1 7 q-9 31 -19 51 q-2 4 -6 5 q-3 2 -7 0 q-4 -2 -5 -5 q-1 -4 1 -8 q9 -18 16 -47 ZM185 172 q0 5 -2 8 q-3 2 -8 2 q-4 0 -7 -2 q-2 -3 -2 -8 l0 -32 l-65 0 q-4 0 -7 -3 q-3 -3 -3 -7 q0 -4 3 -6 q2 -3 7 -3 l65 0 l0 -102 q0 -10 -5 -19.5 q-5 -9.5 -13 -11 q-8 -1.5 -14 -1.5 l-13 0 q-5 0 -7.5 -2.5 q-2.5 -2.5 -2.5 -6.5 q0 -4 3 -7 q3 -3 7 -3 l13 0 q28 2 39.5 13.5 q11.5 11.5 11.5 37.5 l0 102 l26 0 q4 0 7 3 q3 3 3 6 q0 5 -3 7 q-3 2 -7 3 l-26 0 l0 32 ZM37 160 l-10 0 q-8 0 -12.5 -4.5 q-4.5 -4.5 -4.5 -12.5 l0 -137 q0 -8 4.5 -12.5 q4.5 -4.5 12.5 -4.5 l9 0 q44 8 47 60 l0 56 q-3 45 -46 55 Z" /><glyph glyph-name="" unicode="&#x660e;" d="M32 20 q49 9 54 56 l0 40 q-5 46 -54 53 l-9 0 q-5 0 -9 -3 q-4 -3 -4 -9 l0 -122 q0 -7 4 -11 q3 -4 9 -4 l9 0 ZM68 84 q1 -35 -31 -45 l-8 0 l0 45 l39 0 ZM29 102 l0 49 l8 0 q33 -10 31 -49 l-39 0 ZM127 59 l0 39 l57 0 l0 -39 l-57 0 ZM184 116 l-57 0 l0 39 l11 0 q37 -2 46 -39 ZM203 113 q-4 54 -63 60 l-15 0 q-7 0 -12 -4 q-6 -5 -5 -13 l0 -89 q0 -21 -4 -35 q-3 -9 -9 -17 q-7 -10 -19 -16 q-11 -7 -31 -10 q-10 -3 -7 -13 q5 -8 15 -6 q18 4 32 11 q15 8 25 20 q8 11 13 26 q1 5 3 14 l58 0 l0 -20 q1 -10 -4.5 -19 q-5.5 -9 -13.5 -11 q-8 -2 -14 -2 l-5 0 q-5 0 -7.5 -2.5 q-2.5 -2.5 -2.5 -6.5 q0 -4 3 -7 q3 -3 7 -3 l5 0 q27 2 39 14.5 q12 12.5 12 36.5 l0 92 Z" /><glyph glyph-name="" unicode="&#x6613;" d="M177 122 q-2 -14 -56 -15 l-63 0 l0 15 l119 0 ZM58 139 l0 16 l60 0 q56 -1 59 -16 l-119 0 ZM195 13 q-1 -10 -6 -16 q-5 -6 -12.5 -7.5 q-7.5 -1.5 -14.5 -1.5 l-11 0 q-5 0 -7.5 -2.5 q-2.5 -2.5 -2.5 -6.5 q0 -4 3 -7 q3 -3 7 -3 l11 0 q28 2 40 14 q10 10 11 30 l0 12 q-3 47 -56 50 l-74 0 q3 7 7 14 l28 0 q74 0 78 34 l0 16 q-9 35 -79 34 l-66 0 q-5 0 -9 -3 q-4 -4 -4 -10 l0 -56 q0 -6 4 -11 q3 -4 9 -4 l18 0 q-9 -15 -23.5 -24.5 q-14.5 -9.5 -23 -12.5 q-8.5 -3 -10.5 -7 q-2 -3 -1 -7 q2 -5 5 -7 q4 -3 11 0 q11 5 21.5 11.5 q10.5 6.5 20.5 14.5 l30 0 q-7 -13 -18 -21 q-11 -8 -21 -12 q-10 -4 -26 -7 q-4 -1 -7 -5 q-2 -3 -1 -8 q1 -3 4 -6 q3 -3 9 -1 q16 4 30 10.5 q14 6.5 27.5 17 q13.5 10.5 24.5 32.5 l30 0 q-5 -15 -18.5 -29.5 q-13.5 -14.5 -27.5 -23 q-14 -8.5 -33 -15.5 q-5 -2 -7 -6 q-2 -4 -1 -7 q2 -4 6 -6 q3 -2 8 0 q20 8 35.5 17.5 q15.5 9.5 27.5 20.5 q12 11 19 22.5 q7 11.5 11 25.5 q23 -5 24 -31 l0 -12 Z" /><glyph glyph-name="" unicode="&#x662f;" d="M114 94 q77 -3 81 34 l0 14 q-7 33 -81 31 l-52 0 l-9 0 q-5 0 -9 -4 q-3 -3 -3 -8 l0 -53 q0 -6 3 -10 q3 -4 9 -4 l61 0 ZM177 125 q-5 -14 -61 -14 l-57 0 l0 14 l118 0 ZM59 142 l0 13 l57 0 q56 1 61 -13 l-118 0 ZM54 9 q4 -5 9.5 -10 q5.5 -5 20.5 -13 q15 -8 34 -10 q21 -1 43 -1 l56 0 q6 0 8 2 q3 3 3 7 q0 5 -3 8 q-2 2 -8 2 l-89 0 l0 27 l72 0 q4 0 7 2 q2 4 2 7 q0 4 -3 7 q-2 2 -6 2 l-72 0 l0 23 l86 0 q9 1 10 10 q0 4 -2 7 q-2 2 -8 2 l-195 0 q-3 0 -6 -2 q-3 -3 -3 -7 q0 -4 2 -7 q3 -3 7 -3 l89 0 l0 -65 q-7 1 -18 7.5 q-11 6.5 -16 11 q-5 4.5 -12 14.5 q3 8 4 14 q1 4 -1 7 q-1 3 -6 5 q-9 2 -12.5 -9.5 q-3.5 -11.5 -13 -29 q-9.5 -17.5 -16 -25 q-6.5 -7.5 -6.5 -12.5 q0 -4 3 -7 q4 -2 7 -2 q5 0 9 4 q5 5 10.5 13 q5.5 8 13.5 21 Z" /><glyph glyph-name="" unicode="&#x6682;" d="M182 120 l0 -53 q0 -5 2 -7 q2 -2 7 -3 q5 1 6 2 q3 3 3 8 l0 53 l23 0 q3 0 6 3 q3 3 3 6 q0 4 -3 7 q-3 2 -6 2 l-74 0 l0 8 q0 5 2 8 q3 1 5 1 q24 2 38 4 q13 2 19 4 q6 1 8 5 q2 2 2 6 q-1 4 -5 7 q-3 1 -8 1 q-14 -3 -27 -5 q-14 -2 -33 -4 q-12 -1 -16 -4 q-4 -5 -4 -14 l0 -49 q0 -5 -2 -16 q-2 -11 -5.5 -16 q-3.5 -5 -3.5 -8 q0 -4 4 -7 q6 -3 13 2 q6 7 8.5 15 q2.5 8 3.5 16 q1 8 1 14 l0 14 l33 0 ZM134 -24 q63 -3 71 30 l0 14 q-8 34 -66 33 l-80 0 l-10 0 q-4 0 -8 -4 q-4 -4 -4 -8 l0 -50 q-1 -5 4 -11 q3 -4 8 -4 l85 0 ZM185 5 q-4 -13 -49 -11 l-79 0 l0 11 l128 0 ZM57 21 l0 14 l79 0 q44 1 49 -14 l-128 0 ZM82 106 l32 0 q2 0 5 1 q3 3 3 6 q0 3 -2 6 q-4 3 -6 3 l-32 0 l0 6 q0 5 -3 7 q-3 2 -7 2 q-4 0 -6 -2 q-3 -2 -3 -7 l0 -6 l-25 0 q-4 0 -2 3 l15 21 l62 0 q3 0 6 2 q2 3 2 7 q0 3 -3 6 q-2 1 -5 1 l-51 0 l5 7 q2 3 1 6 q0 3 -3 6 q-7 3 -12 -3 l-10 -16 l-25 0 q-3 0 -6 -2 q-2 -3 -2 -5 q0 -4 2 -6 q3 -3 6 -3 l14 0 l-18 -25 q-3 -6 -1 -10 q3 -4 8 -5 l42 0 l0 -12 l-43 -2 q-9 -1 -9 -10 q2 -9 11 -8 l41 2 l0 -10 q0 -9 9 -10 q9 1 10 10 l0 11 l31 1 q4 0 7 3 q2 3 2 6 q-1 5 -4 7 q-3 2 -7 2 l-29 -1 l0 11 Z" /><glyph glyph-name="" unicode="&#x66f4;" d="M87 7 q-5 5 -9 9 q-5 5 -11 15 q-3 4 -7 4 q-4 1 -7 -1 q-3 -3 -4 -6 q-1 -4 2 -8 q8 -12 14 -17 q2 -2 4 -4 q-2 -1 -5 -2 q-17 -6 -44 -9 q-4 0 -7 -3 q-3 -3 -3 -8 q0 -3 3 -6 q4 -3 9 -3 q26 4 46 10 q11 4 19 8 q7 -5 34 -9 q19 -2 40 -2 l59 0 q4 0 8 2 q3 3 3 7 q0 5 -4 8 q-3 2 -7 2 l-66 -1 q-20 0 -30 1 q-10 1 -19 4 q11 9 17 20 q4 9 6 25 l24 0 q50 1 55 38 l0 17 q-6 37 -61 37 l-18 0 l0 18 l85 0 q4 0 7 2 q3 3 3 8 q0 4 -1 6 q-3 2 -8 2 l-191 0 q-5 0 -7 -2 q-2 -3 -2 -6 q0 -5 3 -8 q1 -2 6 -2 l86 0 l0 -18 l-53 0 l-11 0 q-4 0 -9 -4 q-3 -4 -3 -8 l0 -65 q0 -9 4 -12 q3 -3 8 -3 l63 0 q-1 -11 -5 -18 q-4 -9 -16 -18 ZM109 60 l-53 0 l-3 0 l0 21 l56 0 l0 -21 ZM128 81 l60 0 q-1 -19 -33 -21 l-27 0 l0 21 ZM109 99 l-56 0 l0 18 l56 0 l0 -18 ZM128 117 l19 0 q37 0 41 -18 l-60 0 l0 18 Z" /><glyph glyph-name="" unicode="&#x66ff;" d="M65 100 q14 -13 23 -22 q7 -5 14 -1 q7 8 0 14 q-12 11 -27 24 l28 0 q4 0 7 3 q3 3 3 7 q0 3 -3 6 q-3 3 -7 3 l-29 0 q0 1 0 2 l0 13 l25 0 q4 0 7 2 q2 3 2 6 q0 4 -2 6 q-3 2 -7 2 l-25 0 l0 8 q-1 9 -9 9 q-8 -1 -9 -9 l0 -8 l-31 0 q-4 0 -7 -2 q-2 -2 -2 -6 q0 -3 2 -6 q3 -2 7 -2 l31 0 l0 -13 q0 -1 0 -2 l-37 0 q-4 0 -7 -3 q-2 -3 -2 -6 q0 -4 3 -7 q2 -2 6 -3 l33 0 q-1 -6 -16.5 -19 q-15.5 -13 -19 -14.5 q-3.5 -1.5 -5.5 -5.5 q-1 -3 0 -7 q3 -4 6 -5 q3 -2 8 0 q3 1 17.5 13 q14.5 12 19.5 19 q2 2 3 4 ZM169 107 q8 -10 16 -17 q17 -16 30 -22 q5 -2 9 -1 q3 1 6 5 q2 3 0 7 q-2 4 -6 6 q-16 8 -28 17 q-6 6 -13 14 l36 0 q4 0 7 3 q2 3 2 7 q0 3 -2 6 q-3 3 -7 3 l-42 0 q0 0 0 2 l0 12 l34 0 q4 0 7 2 q2 3 2 6 q0 4 -2 6 q-3 2 -7 2 l-34 0 l0 8 q0 8 -9 9 q-9 0 -10 -9 l0 -8 l-25 0 q-5 0 -6 -2 q-2 -2 -2 -6 q0 -3 2 -6 q1 -2 6 -2 l25 0 l0 -12 q0 -1 0 -2 l-30 0 q-4 0 -6 -3 q-3 -3 -3 -6 q0 -4 3 -7 q2 -2 6 -3 l26 0 q-1 -2 -4 -6.5 q-3 -4.5 -14.5 -12.5 q-11.5 -8 -16 -9.5 q-4.5 -1.5 -6.5 -5.5 q-1 -3 1 -7 q1 -3 5 -5 q4 -1 7 0 q3 1 14.5 8 q11.5 7 19 16 q7.5 9 9.5 13 ZM131 -24 q58 -1 65 37 l0 17 q-5 38 -64 38 l-62 0 l-10 0 q-5 0 -9 -4 q-4 -4 -4 -8 l0 -65 q-1 -7 3 -11 q4 -4 10 -4 l71 0 ZM177 13 q-2 -19 -49 -19 l-62 0 l0 19 l111 0 ZM66 31 l0 19 l4 0 l64 0 q41 0 43 -19 l-111 0 Z" /><glyph glyph-name="" unicode="&#x6700;" d="M135 106 q56 -1 61 28 l0 12 q-8 28 -61 28 l-69 0 l-9 0 q-7 0 -12 -5 q-5 -5 -5 -13 l0 -33 q-1 -7 5 -12 q5 -5 12 -5 l78 0 ZM177 132 q-4 -9 -41 -10 l-70 0 l-7 0 l0 6 l0 4 l118 0 ZM59 148 l0 3 l0 7 l7 0 l70 0 q36 0 41 -10 l-118 0 ZM115 -9 l7 1 q5 1 7 4 q2 3 2 6 q-1 4 -3 6 q-3 3 -8 2 l-5 -1 l0 69 l101 0 q5 0 8 3 q2 3 2 6 q0 4 -3 7 q-1 2 -6 2 l-198 0 q-4 0 -6 -2 q-3 -3 -3 -7 q0 -4 2 -6 q3 -3 7 -3 l14 0 l0 -75 l-13 0 q-4 0 -7 -3 q-3 -3 -2 -8 q0 -3 3 -6 q3 -2 8 -2 l75 6 l0 -13 q0 -4 2 -7 q3 -3 7 -3 q5 0 7 3 q2 3 2 7 l0 14 ZM53 4 l0 14 l44 0 l0 -11 l-44 -3 ZM53 34 l0 14 l44 0 l0 -14 l-44 0 ZM53 64 l0 14 l44 0 l0 -14 l-44 0 ZM176 -9 q20 -15 36 -22 q5 -2 9 0 q3 1 5 6 q1 2 0 7 q-2 4 -6 6 q-18 6 -32 15 q8 8 15 19 q7 10 11 27 q2 9 -2 14 q-4 5 -11 5 l-61 0 q-5 0 -7 -3 q-3 -2 -3 -7 q0 -3 2 -6 q3 -3 8 -3 l51 0 q3 0 4 -1 q1 -1 0 -3 q-2 -8 -7 -16 q-5 -9 -13 -16 q-12 9 -22 26 q-3 3 -7 4 q-4 0 -6 -2 q-4 -2 -4 -6 q0 -3 2 -6 q12 -16 24 -27 q-15 -10 -31 -16 q-3 -2 -5 -5 q-2 -3 0 -7 q1 -4 6 -6 q5 -1 10 1.5 q5 2.5 20 11.5 q7 5 14 10 l0 0 Z" /><glyph glyph-name="" unicode="&#x6709;" d="M78 32 l0 24 l102 0 l0 -24 l-102 0 ZM78 73 l0 23 l53 0 q45 -1 49 -23 l-102 0 ZM180 15 q-1 -8 -4 -16 q-7 -9 -13 -10.5 q-6 -1.5 -12 -1.5 l-2 0 q-5 0 -7.5 -2.5 q-2.5 -2.5 -2.5 -6.5 q0 -4 3 -7 q3 -3 7 -3 l2 0 q25 2 36 13 q11 11 12 32 l0 55 q-1 46 -70 45 l-46 0 q7 11 14 22 l115 0 q5 0 8 3 q2 2 3 6 q0 5 -3 7 q-3 3 -8 3 l-105 0 q5 8 7 15 q4 10 -5 13 q-8 2 -13 -5 q-6 -13 -10 -23 l-67 0 q-3 0 -6 -3 q-3 -3 -3 -7 q0 -4 3 -6 q2 -3 6 -3 l56 0 q-5 -8 -13 -18 q-8 -11 -17 -19 q-10 -10 -29 -24 q-6 -7 -2 -13 q5 -7 14 -3 q13 10 31 27 l0 -108 q0 -4 2 -7 q3 -3 7 -3 q4 0 7 3 q3 3 3 7 l0 38 l102 0 Z" /><glyph glyph-name="" unicode="&#x670b;" d="M51 63 l0 37 l39 0 l0 -37 l-39 0 ZM51 118 l0 36 q33 0 39 -36 l-39 0 ZM90 19 q0 -10 -3.5 -18 q-3.5 -8 -7.5 -10 q-4 -2 -12 -3 q-5 0 -7.5 -2.5 q-2.5 -2.5 -2.5 -6.5 q0 -4 3 -7 q3 -3 7 -3 q20 1 31.5 12.5 q11.5 11.5 10.5 37.5 l0 90 q-1 56 -53 63 l-7 0 q-7 0 -11 -3 q-6 -6 -6 -13 l0 -98 q0 -13 -0.5 -23 q-0.5 -10 -3 -20.5 q-2.5 -10.5 -6.5 -17.5 q-4 -7 -9 -13 q-3 -4 -2 -8 q1 -3 5 -6 q5 -3 8.5 -1 q3.5 2 7 6.5 q3.5 4.5 8 14 q4.5 9.5 7 20.5 q2.5 11 3 19.5 q0.5 8.5 1.5 15.5 l39 0 l0 -26 ZM153 63 l0 37 l41 0 l0 -37 l-41 0 ZM153 118 l0 36 q35 0 41 -36 l-41 0 ZM194 19 q0 -10 -3.5 -18 q-3.5 -8 -7.5 -10 q-4 -2 -12 -3 q-5 0 -7.5 -2.5 q-2.5 -2.5 -2.5 -6.5 q0 -4 3 -7 q3 -3 7 -3 q20 1 31.5 12.5 q11.5 11.5 10.5 37.5 l0 90 q-1 56 -53 63 l-9 0 q-7 0 -11 -3 q-6 -6 -6 -13 l0 -98 q0 -13 -0.5 -23 q-0.5 -10 -3 -20.5 q-2.5 -10.5 -6.5 -17.5 q-4 -7 -9 -13 q-3 -4 -2 -8 q1 -3 5 -6 q5 -3 8.5 -1 q3.5 2 7 6.5 q3.5 4.5 8 14 q4.5 9.5 7 20 q2.5 10.5 3 19.5 q0.5 9 1.5 16 l41 0 l0 -26 Z" /><glyph glyph-name="" unicode="&#x672a;" d="M130 57 q15 -16 32 -31 q24 -21 52 -35 q5 -3 9 -2 q3 1 6 4 q2 4 1 8 q-1 3 -6 6 q-36 20 -56 38 q-15 13 -30 32 l79 0 q6 0 8 3 q2 3 2 6.5 q0 3.5 -2 6.5 q-2 3 -8 3 l-87 0 l0 31 l64 0 q3 0 6 3 q3 3 3 7 q0 3 -3 6 q-2 2 -6 2 l-64 0 l0 28 q0 4 -2 7 q-3 2 -7 2 q-5 0 -7 -2 q-2 -2 -2 -7 l0 -28 l-64 0 q-4 0 -7 -2 q-3 -3 -3 -6 q0 -5 3 -8 q3 -2 7 -2 l64 0 l0 -31 l-88 0 q-5 0 -7.5 -2.5 q-2.5 -2.5 -2.5 -7.5 q0 -5 2 -7 q2 -2 8 -2 l79 0 q-17 -21 -37 -38 q-21 -17 -49 -32 q-4 -2 -5 -5 q-2 -4 0 -8 q2 -3 5 -5 q5 -1 9 2 q22 10 48 30 q17 15 38 37 l0 -81 q0 -4 2 -7 q2 -3 7 -3 q5 0 7 3 q2 3 2 7 l0 80 Z" /><glyph glyph-name="" unicode="&#x6765;" d="M126 43 q13 -13 29 -26 q22 -17 47 -29 q5 -3 8.5 -2.5 q3.5 0.5 6 4.5 q2.5 4 1.5 9 q-2 4 -7 5 q-31 16 -51 32 q-13 10 -27 25 l78 0 q5 0 7.5 2.5 q2.5 2.5 3 7 q0.5 4.5 -2.5 7.5 q-3 2 -8 2 l-85 0 l0 56 l74 0 q6 0 8 2.5 q2 2.5 2.5 7 q0.5 4.5 -1.5 6.5 q-3 3 -8 3 l-75 0 l0 18 q0 4 -3 7 q-3 2 -8 2 q-3 0 -6 -2 q-3 -2 -3 -7 l0 -18 l-77 0 q-4 0 -7 -3 q-3 -3 -3 -7 q0 -3 3 -6 q2 -3 7 -3 l77 0 l0 -56 l-87 0 q-3 0 -6 -3 q-3 -2 -3 -6 q0 -4 3 -7 q2 -3 6 -3 l80 0 q-16 -16 -34 -29 q-19 -14 -45 -24 q-4 -2 -6 -6 q-1 -3 0 -8 q2 -3 5 -4 q4 -2 9 0 q20 8 44 25 q16 11 34 28 l0 -66 q0 -4 3 -7 q3 -3 6 -3 q5 0 8 3 q3 3 3 7 l0 66 ZM51 114 q6 -8 13 -23 q3 -5 6 -6 q3 -1 6 0 q5 1 6 5 q2 4 0 8 q-8 16 -15 27 q-3 3 -6 4 q-4 1 -8 -2 q-3 -1 -4 -5 q0 -4 2 -8 ZM165 123 q-3 -10 -11 -23 q-2 -5 -1 -9 q1 -4 4 -6 q4 -1 8 0 q3 0 5 5 q10 16 13 28 q1 4 0 7 q-1 3 -6 5 q-5 1 -8 -1 q-3 -2 -4 -6 l0 0 Z" /><glyph glyph-name="" unicode="&#x67d3;" d="M35 164 q10 -5 23 -15 q3 -3 8 -3 q3 0 6 4 q3 3 2 6 q0 4 -3 8 q-15 10 -27 17 q-5 1 -8 1 q-4 -1 -5 -5 q-2 -4 -1 -8 q1 -3 5 -5 ZM22 129 q10 -3 23 -14 q4 -2 8 -2 q4 0 6 4 q2 4 2 7 q-1 3 -4 6 q-15 12 -27 16 q-5 3 -9 1 q-4 -1 -4 -5 q-2 -4 -1 -7 q1 -4 6 -6 ZM72 115 q-13 -12 -27 -19 q-11 -8 -27 -12 q-4 -1 -6 -5 q-2 -3 -1 -7 q1 -3 5 -5 q3 -2 8 -1 q13 4 29 12 q14 8 33 24 q3 3 3 7 q0 4 -3 6 q-2 4 -6 4 q-4 0 -8 -4 ZM124 142 q-1 -3 -1.5 -8 q-0.5 -5 -3.5 -10 q-2 -5 -5 -11 q-4 -5 -8 -10 q-5 -4 -10 -8 q-4 -3 -10 -6 q-3 -3 -7 -4 q-5 -1 -7 -5 q-1 -4 0 -7 q2 -4 6 -5 q4 -2 8 0 q2 0 11 4 q6 3 13 9 q4 4 10 9 q5 5 9 11 q5 9 8 16 q3 8 4 12 q1 6 1 13 l21 0 q3 0 5 -2 q2 -2 2 -5 l0 -41 q0 -6 3 -10 q3 -5 8 -8 q5 -2 10 -3 l18 0 q5 0 10 3 q4 3 6 9 q2 4 2 7 l0 16 q0 5 -3 7 q-1 2 -6 3 q-4 0 -7 -3 q-2 -2 -2 -7 l0 -11 q-1 -2 -2 -4 q-1 -2 -4 -2 l-8 0 q-2 1 -4 2 q-2 2 -1 4 l0 45 q0 8 -6 13 q-5 4 -13 4 l-28 0 l0 12 q0 5 -3 8 q-3 3 -7 3 q-5 0 -6 -3 q-3 -3 -3 -8 l0 -12 l-29 0 q-5 0 -8 -2 q-1 -2 -2 -6 q0 -4 2 -7 q3 -2 8 -2 l29 0 ZM132 20 q16 -11 35 -20 q24 -13 50 -22 q6 -1 9 1 q4 2 5 6 q1 4 0 7 q-3 4 -8 5 q-34 10 -55 21 q-12 8 -27 19 l82 0 q4 0 7 3 q2 2 2 6 q0 4 -2 7 q-3 2 -7 3 l-91 0 l0 13 q0 4 -4 7 q-2 2 -6 3 q-5 0 -7 -3 q-2 -2 -2 -7 l0 -13 l-92 0 q-4 0 -7 -3 q-2 -3 -2 -7 q0 -4 2 -7 q3 -2 7 -2 l83 0 q-18 -15 -37 -24 q-20 -10 -47 -16 q-4 -1 -6 -6 q-3 -2 -2 -6 q1 -4 5 -7 q3 -2 9 -1 q20 5 46 18 q18 8 41 25 l0 -43 q0 -4 2 -7 q3 -3 7 -3 q5 0 6 3 q4 3 4 7 l0 43 Z" /><glyph glyph-name="" unicode="&#x67e5;" d="M178 41 q-6 -16 -28 -16 l-83 0 l0 16 l111 0 ZM67 58 l0 15 l84 0 q22 -1 27 -15 l-111 0 ZM74 91 l-8 0 q-2 0 -5 0 q5 3 11 6 q17 11 39 30 l0 -35 q0 0 0 -1 l-37 0 ZM22 -3 q-5 0 -7 -3 q-3 -3 -3 -6 q0 -4 3 -7 q2 -3 7 -3 l196 0 q5 0 7 3 q2 3 3 7 q0 4 -3 6 q-2 3 -7 3 l-196 0 ZM153 7 q39 2 44 33 l0 13 q-2 32 -42 38 l-25 0 q0 1 0 1 l0 36 q16 -14 29.5 -23 q13.5 -9 29 -17.5 q15.5 -8.5 26.5 -12.5 q5 -2 9 0 q3 1 6 5 q2 4 0 7 q-2 5 -7 7 q-35 13 -55 28 q-12 7 -26 20 l73 0 q4 0 7 3 q2 3 2 7 q0 3 -2 6 q-2 3 -7 3 l-85 0 l0 12 q0 4 -2 7 q-3 2 -7 2 q-5 0 -7 -2 q-2 -2 -3 -7 l0 -12 l-85 0 q-5 0 -8 -3 q-2 -3 -2 -6 q0 -5 2 -7 q2 -3 8 -3 l76 0 q-17 -16 -37 -28 q-20 -12 -47 -21 q-4 -2 -6 -6 q-2 -2 -1 -7 q2 -3 5 -6 q3 -1 9 0 q12 5 27 11 q-5 -4 -5 -12 l0 -48 q0 -7 6 -12 q6 -5 13 -6 l87 0 Z" /><glyph glyph-name="" unicode="&#x6807;" d="M112 164 q-5 0 -8 -2 q-3 -3 -3 -7 q0 -4 3 -6 q2 -3 8 -3 l98 0 q4 0 7 3 q3 3 3 6 q0 4 -3 7 q-2 2 -7 2 l-98 0 ZM114 68 q-8 -25 -28 -64 q-2 -4 -1 -8 q1 -4 4 -5 q4 -1 8 0 q4 0 6 4 q21 38 29 67 q2 6 -1 9 q-1 2 -5 4 q-5 1 -8 -1 q-4 -2 -4 -6 ZM195 60 q10 -24 19 -66 q1 -4 5 -6 q3 -2 7 -2 q4 1 7 5 q1 2 1 7 q-9 42 -22 70 q-2 4 -5 5 q-4 2 -9 0 q-3 -1 -4 -5 q-2 -4 1 -8 ZM64 82 q6 -13 10 -24 q2 -5 6 -7 q4 -1 7 0 q5 2 6 5 q2 4 0 8 q-11 23 -28 55 l19 0 q3 0 6 3 q3 3 3 6 q0 5 -3 7 q-3 2 -6 3 l-20 0 l0 33 q0 5 -3 7 q-2 3 -6 3 q-5 0 -8 -3 q-2 -2 -2 -7 l0 -33 l-21 0 q-5 0 -7 -3 q-3 -3 -3 -7 q0 -4 3 -6 q1 -3 7 -3 l19 0 q-5 -19 -11 -31 q-6 -15 -19 -36 q-3 -4 -2 -7 q1 -4 4 -6 q3 -2 7 -1 q4 1 6 5 q9 14 17 33 l0 -99 q0 -4 2 -7 q3 -3 8 -3 q4 0 6 3 q3 3 3 7 l0 105 ZM156 16 q0 -15 -7.5 -22 q-7.5 -7 -22.5 -7 q-9 -2 -9 -11 q0 -3 2 -5.5 q2 -2.5 7 -3.5 q18 0 30 7 q12 7 16 17 q4 10 4 25 l0 77 l48 0 q4 0 7 3 q3 3 3 6 q0 5 -3 7 q-3 3 -7 3 l-126 0 q-5 0 -8 -3 q-3 -3 -3 -7 q0 -4 3 -6 q2 -3 8 -3 l58 0 l0 -77 Z" /><glyph glyph-name="" unicode="&#x6837;" d="M65 85 q6 -11 10 -21 q1 -6 6 -6 q3 -1 6 0 q5 0 6 4 q2 5 0 9 q-10 20 -26 49 l17 0 q3 0 6 3 q3 3 3 6 q0 5 -3 7 q-2 2 -6 3 l-19 0 l0 33 q0 5 -3 7 q-3 3 -6 3 q-5 0 -8 -3 q-2 -2 -2 -7 l0 -33 l-23 0 q-5 0 -7 -3 q-2 -3 -3 -7 q0 -4 3 -6 q1 -3 7 -3 l16 0 q-4 -17 -8 -27 q-6 -14 -18 -34 q-3 -3 -2 -7 q1 -3 5 -5 q3 -2 6 -1 q4 1 7 5 q8 14 16 34 q0 1 1 3 l0 -110 q0 -4 2 -7 q4 -3 8 -3 q4 0 6 3 q3 3 3 7 l0 107 ZM152 19 l0 -43 q0 -4 3 -7 q1 -3 6 -3 q5 0 7 3 q2 3 2 7 l0 43 l52 0 q4 0 6 3 q3 3 3 7 q0 4 -3 7 q-2 2 -6 2 l-52 0 l0 35 l40 0 q5 0 7 2 q3 3 3 7 q0 4 -3 6 q-2 3 -7 3 l-40 0 l0 31 l46 0 q5 0 7 3 q2 2 2 6 q0 4 -2 7 q-2 2 -7 2 l-26 0 q6 17 10 30 q1 5 -2 9 q-2 3 -5 3 q-5 1 -8 0 q-3 -3 -4 -8 q-3 -13 -13 -34 l-26 0 q3 2 4 4 q2 4 0 9 q-5 13 -11 22 q-3 4 -7 5 q-3 1 -7 -2 q-4 -2 -5 -6 q0 -3 2 -8 q5 -6 10 -18 q1 -4 4 -6 l-23 0 q-5 0 -8 -2 q-2 -3 -2 -7 q0 -4 2 -6 q3 -3 8 -3 l43 0 l0 -31 l-36 0 q-4 0 -7 -3 q-2 -3 -3 -6 q0 -5 3 -7 q3 -2 7 -2 l36 0 l0 -35 l-54 0 q-5 0 -8 -3 q-3 -3 -3 -6 q0 -4 3 -7 q3 -3 8 -3 l54 0 Z" /><glyph glyph-name="" unicode="&#x6a21;" d="M41 113 q-4 -16 -9 -27 q-6 -13 -19 -33 q-3 -4 -2 -8 q1 -3 4 -5 q3 -2 7 -1 q4 1 6 5 q7 11 14 26 l0 -93 q0 -4 3 -7 q2 -3 7 -3 q4 0 7 3 q2 3 2 7 l0 107 q6 -10 11 -18 q2 -5 6 -6 q3 -1 7 1 q3 2 4 5 q1 5 -1 7 q-10 17 -26 40 l15 0 q4 0 7 2 q2 3 2 7 q0 5 -2 6 q-2 3 -7 3 l-16 0 l0 43 q0 4 -2 7 q-3 2 -7 2 q-5 0 -7 -2 q-2 -2 -3 -7 l0 -43 l-19 0 q-5 0 -7 -3 q-3 -2 -3 -6 q0 -4 3 -7 q1 -2 7 -2 l18 0 ZM172 147 l0 -7 q0 -5 3 -8 q3 -2 8 -2 q3 0 6 3 q3 3 3 7 l0 7 l25 0 q4 0 6 3 q3 3 3 6 q0 4 -3 7 q-1 2 -6 2 l-25 0 l0 9 q0 4 -3 7 q-3 2 -6 2 q-5 0 -8 -2 q-2 -2 -3 -7 l0 -9 l-43 0 l0 9 q0 4 -2 7 q-3 2 -7 2 q-5 0 -7 -2 q-2 -2 -3 -7 l0 -9 l-24 0 q-4 0 -7 -2 q-3 -3 -3 -7 q0 -4 3 -6 q2 -3 7 -3 l24 0 l0 -7 q0 -4 3 -7 q2 -2 7 -2 q4 0 7 3 q2 3 2 6 l0 7 l43 0 ZM153 4 q13 -13 22 -18.5 q9 -5.5 22 -10.5 q13 -5 23 -6 q4 -1 8 1 q3 1 5 6 q1 3 -1 7 q-2 4 -8 5 q-10 1 -17 3 q-11 3 -17.5 7 q-6.5 4 -11.5 8 q-5 4 -8.5 8 q-3.5 4 -5.5 7 l54 0 q5 0 7 3 q2 3 3 7 q0 4 -3 7 q-2 2 -7 2 l-58 0 q0 2 0 5 l0 7 l11 0 q41 0 44 32 l0 11 q-3 29 -44 32 l-55 0 l-9 0 q-6 0 -9 -4 q-3 -3 -3 -8 l0 -49 q0 -6 3 -10 q3 -4 9 -4 l34 0 l0 -7 q0 -3 0 -5 l-54 0 q-3 0 -6 -3 q-3 -3 -3 -6 q0 -4 3 -7 q2 -3 6 -3 l51 0 q0 -1 0 -2 q-3 -6 -9 -12.5 q-6 -6.5 -17 -11.5 q-11 -4 -28 -7 q-6 -1 -8 -5 q-2 -3 -2 -7 q1 -3 4 -6 q4 -2 8 -1 q19 3 34 9 q14 7 21.5 14.5 q7.5 7.5 11.5 11.5 ZM196 81 q-3 -11 -22 -12 l-60 0 l0 12 l82 0 ZM114 97 l0 13 l56 0 q22 -1 26 -13 l-82 0 Z" /><glyph glyph-name="" unicode="&#x6b21;" d="M21 156 q11 -13 24 -38 q2 -5 7 -6 q4 -1 7 1 q4 1 6 5 q1 4 -1 9 q-14 26 -27 42 q-3 3 -7 4 q-4 0 -8 -3 q-4 -2 -5 -6 q0 -4 4 -8 ZM57 69 q-7 -24 -18 -44 q-10 -17 -25 -34 q-4 -3 -4 -8 q0 -3 4 -7 q3 -2 6 -2 q5 0 8 3 q14 14 26 36 q12 18 22 50 q2 5 0 9 q-2 3 -6 4 q-5 1 -8 -1 q-3 -2 -5 -6 ZM150 46 q4 -11 10 -21 q10 -17 26 -33 q12 -10 28 -21 q5 -3 9 -3 q4 1 7 5 q2 3 2 7 q-1 5 -6 8 q-18 11 -30 23 q-14 14 -21 24 q-7 10 -9 19 q-3 8 -5 20 q-1 6 -2 16 q0 3 0 5 q0 0 0 1 l0 37 l45 0 q3 0 5 -2 q1 -2 0 -4 q-1 -5 -5 -14 q-4 -12 -15 -28 q-2 -3 -1 -8 q1 -3 5 -5 q3 -2 7 -1 q4 1 7 4 q12 20 17 35 q3 9 6 20 q1 8 -2 13 q-3 5 -7 7 q-5 2 -10 2 l-91 0 q2 10 3 20 q0 5 -3 8 q-3 2 -6 2 q-5 0 -7 -2 q-3 -3 -4 -7 q-1 -21 -6 -40 q-7 -20 -20 -36 q-4 -6 -4 -9 q1 -3 4 -5 q3 -3 8 -3 q2 0 6 4 q14 16 23 42 q0 3 2 7 l25 0 l0 -37 q0 -11 -2 -19 q-2 -11 -6 -21 q-2 -8 -8 -18 q-7 -11 -13 -18 q-9 -9 -17 -16 q-7 -5 -15 -10 q-8 -4 -13 -6 q-5 -3 -7 -7 q-1 -4 0 -7 q3 -4 7 -6 q4 -1 8 1 q4 1 15 7 q11 6 20 14 q7 6 17 17 q6 7 12 17 q6 11 11 22 l0 0 Z" /><glyph glyph-name="" unicode="&#x6b65;" d="M118 87 l0 -68 q0 -4 3 -7 q3 -3 7 -3 q4 0 7 3 q3 3 3 7 l0 68 l82 0 q4 0 7 3 q3 3 3 7 q0 4 -3 7 q-3 2 -7 2 l-82 0 l0 32 l63 0 q5 0 8 2 q2 3 2 7 q0 5 -2 7 q-3 2 -8 2 l-63 0 l0 18 q0 4 -3 7 q-3 2 -7 2 q-4 0 -7 -2 q-3 -2 -3 -7 l0 -68 l-41 0 l0 49 q0 4 -2 6 q-3 3 -8 3 q-4 0 -7 -3 q-2 -2 -2 -6 l0 -49 l-33 0 q-4 0 -7 -3 q-2 -3 -2 -6 q0 -4 2 -7 q2 -3 7 -3 l93 0 ZM76 70 q-8 -14 -20 -25 q-10 -9 -23 -16 q-4 -2 -5 -7 q-1 -3 1 -7 q2 -4 5 -5 q5 -1 10 2 q11 6 24 18 q12 10 25 28 q3 5 3 9 q-1 4 -5 6 q-4 2 -7 1 q-5 -1 -8 -4 ZM195 64 q-9 -18 -21 -31 q-16 -17 -34 -27 q-20 -10 -48 -15 q-28 -3 -67 0 q-6 0 -9 -1 q-3 -2 -5 -7 q-1 -4 1 -7 q3 -4 8 -5 q38 -3 78 3 q21 3 47 16 q20 9 42 30 q18 19 26 37 q2 4 1 8 q-2 4 -5 5 q-5 2 -8 1 q-4 -2 -6 -7 l0 0 Z" /><glyph glyph-name="" unicode="&#x6bd4;" d="M120 109 l0 64 q0 5 -3 8 q-3 2 -6 2 q-5 0 -8 -2 q-2 -3 -2 -8 l0 -175 q0 -12 10 -19 q5 -4 13 -4 q27 -1 54 0 q6 0 12 2 q4 2 7 5 q3 4 4 7 q1 3 2 8 q1 7 1 21 q0 3 -3 7 q-3 3 -6 3 q-5 0 -8 -3 q-2 -3 -3 -7 q0 -12 -1 -15 q0 -1 -1 -3 q-1 -2 -3 -4 q-3 -3 -9 -3 q-17 -1 -39 0 q-6 0 -8.5 2 q-2.5 2 -2.5 8 l0 84 q24 12 47 24 q16 8 27 17 q3 3 4 7 q0 4 -2 7 q-3 3 -7 3 q-4 0 -7 -2 q-10 -7 -29 -18 q-16 -9 -33 -16 ZM30 123 l0 48 q0 6 -3 9 q-3 2 -7 2 q-4 -1 -6 -3 q-3 -3 -3 -8 l0 -183 q-1 -9 3 -12 q3 -3 7 -3 q4 0 13 3 q29 9 49 18 q5 2 6 6 q1 3 0 6 q-2 4 -5 5 q-4 2 -8 0 q-18 -8 -38 -15 q-4 -2 -6 -1 q-2 1 -2 6 l0 104 l48 0 q4 0 7 3 q2 2 2 6 q0 4 -2 7 q-2 2 -7 2 l-48 0 Z" /><glyph glyph-name="" unicode="&#x6cd5;" d="M22 156 q13 -5 32 -18 q5 -3 8 -3 q4 0 7 4 q3 3 3 7 q-1 4 -6 8 q-20 14 -35 21 q-5 2 -9 1 q-4 -2 -5 -6 q-2 -4 -1 -7 q1 -4 6 -7 ZM17 100 q14 -5 32 -19 q5 -3 9 -3 q3 0 6 4 q3 3 2 7 q0 4 -4 7 q-19 15 -35 22 q-6 3 -10 1 q-3 -1 -5 -5 q-2 -4 -1 -8 q2 -3 6 -6 ZM51 54 q-6 -21 -16 -38 q-8 -15 -19 -30 q-4 -4 -4 -9 q0 -2 4 -6 q3 -3 7 -3 q4 1 8 5 q11 12 20 30 q9 18 20 46 q3 6 -1 10 q-4 3 -8 4 q-3 0 -6 -1 q-3 -4 -5 -8 ZM110 -4 q0 0 0 1 l43 72 l70 0 q4 0 7 2 q3 3 3 7 q0 5 -3 7 q-3 2 -7 2 l-66 0 l0 40 l50 0 q4 0 7 3 q2 3 2 7 q0 3 -2 6 q-3 2 -7 2 l-50 0 l0 28 q0 4 -2 7 q-3 2 -7 2 q-5 0 -7 -2 q-2 -2 -2 -7 l0 -28 l-45 0 q-5 0 -8 -2 q-2 -3 -2 -6 q0 -5 2 -8 q3 -2 8 -2 l45 0 l0 -40 l-58 0 q-5 0 -8 -2 q-2 -3 -2 -7 q0 -4 2 -7 q3 -2 8 -2 l48 0 l-47 -76 q-3 -7 -0.5 -12.5 q2.5 -5.5 10.5 -5.5 l111 10 q3 -5 5 -10 q2 -4 5 -6 q3 -2 8 0 q3 1 6 5 q2 3 0 8 q-15 32 -28 52 q-2 4 -6 5 q-4 1 -9 -2 q-3 -2 -3 -6 q-1 -3 2 -7 q5 -8 12 -21 l-85 -7 Z" /><glyph glyph-name="" unicode="&#x6ce8;" d="M21 156 q11 -6 28 -22 q4 -4 8 -4 q3 0 7 4 q3 3 3 6 q0 4 -4 8 q-17 16 -31 25 q-5 3 -9 2 q-4 -1 -6 -5 q-2 -3 -1 -7 q1 -4 5 -7 ZM16 97 q12 -8 29 -24 q2 -3 7 -3 q4 0 7 3 q3 2 3 7 q0 3 -3 6 q-17 18 -32 27 q-4 3 -9 2 q-3 -1 -5 -4 q-3 -4 -2 -8 q1 -3 5 -6 ZM51 49 q-6 -19 -16 -35 q-8 -14 -21 -28 q-4 -4 -4 -8 q0 -3 3 -6 q4 -3 7 -4 q5 1 8 5 q11 10 22 28 q10 17 21 42 q2 5 -1 9 q-3 4 -7 5 q-4 1 -7 -1 q-3 -2 -5 -7 ZM160 144 q3 3 3 7 q1 4 -2 7 q-10 13 -20 22 q-4 3 -8 3 q-5 -1 -7 -4 q-3 -3 -2 -7 q0 -4 4 -7 q7 -6 16 -18 q1 -1 2 -3 l-61 0 q-5 0 -8 -2 q-2 -2 -3 -6 q0 -5 3 -8 q2 -2 8 -2 l56 0 l0 -53 l-49 0 q-5 0 -7 -3 q-2 -3 -2 -7 q0 -5 2 -6 q1 -3 7 -3 l49 0 l0 -59 l-66 0 q-4 0 -7 -3 q-2 -2 -2 -6 q0 -4 2 -7 q3 -3 7 -3 l148 0 q4 0 7 3 q2 3 2 7 q0 5 -2 6 q-2 3 -7 3 l-64 0 l0 59 l49 0 q4 0 6 3 q2 2 2 6 q0 5 -2 7 q-2 2 -6 3 l-49 0 l0 53 l54 0 q4 0 7 3 q2 3 2 7 q0 4 -2 6 q-2 2 -7 2 l-53 0 Z" /><glyph glyph-name="" unicode="&#x6d41;" d="M23 155 q9 -5 25 -18 q4 -3 8 -3 q3 0 7 4 q3 3 3 7 q-1 4 -5 7 q-16 13 -29 20 q-4 2 -8 1 q-5 -1 -7 -5 q-2 -4 -1 -7 q2 -4 7 -6 ZM17 100 q11 -4 25 -16 q4 -3 8 -3 q4 0 7 3 q3 3 3 7 q0 5 -4 8 q-15 12 -28 19 q-5 2 -9 1 q-3 -1 -6 -5 q-2 -3 -1 -7 q1 -4 5 -7 ZM44 58 q-4 -21 -12 -39 q-7 -16 -19 -31 q-3 -4 -2 -9 q0 -3 4 -6 q2 -2 7 -2 q4 1 7 5 q10 13 19 33 q9 18 14 47 q1 3 -1 7 q-2 3 -6 4 q-5 1 -8 -2 q-2 -2 -3 -7 ZM197 80 q4 -6 7 -11 q3 -5 6 -6 q4 -2 8 0 q4 2 5 6 q1 3 -1 7 q-15 30 -30 49 q-4 4 -8 4 q-3 1 -7 -2 q-3 -3 -3 -7 q0 -4 2 -7 q6 -6 10 -14 l-72 -6 q-3 0 -4 1.5 q-1 1.5 2 4.5 l36 43 l64 0 q5 0 8 3 q2 3 2 7 q0 3 -2 6 q-3 3 -8 3 l-60 0 q-3 8 -7 14 q-3 5 -6 6 q-4 1 -8 -1 q-4 -3 -5 -7 q-1 -4 1 -7 q1 -2 3 -5 l-52 0 q-5 0 -8 -3 q-2 -3 -2 -6 q0 -5 3 -7 q2 -3 7 -3 l44 0 l-46 -53 q-4 -7 -0.5 -13 q3.5 -6 18.5 -5 l102 9 q0 1 1 0 ZM92 57 l-1 -13 q0 -14 -2.5 -22.5 q-2.5 -8.5 -5.5 -14 q-3 -5.5 -10 -10.5 q-7 -5 -18 -8 q-5 -2 -7 -6 q-1 -3 0 -6 q2 -4 6 -5 q4 -1 8 0 q12 3 21.5 9 q9.5 6 15 14 q5.5 8 8.5 18.5 q3 10.5 4 30.5 l0 13 q0 4 -4 8 q-3 2 -6 2 q-5 0 -7 -3 q-2 -3 -2 -7 ZM147 58 q0 4 -3 7 q-3 2 -6 2 q-5 0 -7 -2 q-3 -3 -3 -7 l0 -76 q0 -6 3 -7 q3 -2 7 -2 q4 0 6 2 q3 2 3 7 l0 76 ZM168 -9 q0 -8 4 -11.5 q4 -3.5 13 -3.5 q15 -1 21 0 q9 0 15 4 q6 4 8 15 q2 5 2 20 q0 4 -3 7 q-3 2 -6 2 q-4 0 -6 -2 q-2 -2 -2 -7 q-1 -15 -3.5 -18.5 q-2.5 -3.5 -9.5 -3.5 q-3 0 -8 0 q-4 0 -5.5 1 q-1.5 1 -1.5 5 l0 59 q0 5 -2 9 q-3 3 -7 3 q-5 0 -8 -4 q-1 -4 -1 -8 l0 -67 Z" /><glyph glyph-name="" unicode="&#x6d4f;" d="M118 26 l18 -28 q2 -3 5 -5 q4 -3 8 -2 q4 2 6 6 q2 5 -1 10 q-15 23 -27 41 q9 28 7 66 l0 15 l11 0 q5 1 6 3 q2 3 2 7 q0 4 -2 7 q-1 2 -6 2 l-24 0 l-2 5 q-6 13 -10 21 q-3 4 -8 5 q-4 0 -7 -1 q-4 -3 -5 -7 q-1 -4 2 -8 q3 -5 7 -15 l-30 0 q-4 0 -7 -3 q-2 -3 -2 -6 q0 -4 2 -7 q2 -3 7 -3 l47 0 l0 -15 q0 -11 0 -23 q0 -12 -3 -21 q-16 20 -27 34 q-4 5 -9 5 q-4 0 -7 -3 q-3 -3 -3 -7 q1 -3 3 -6 l35 -47 q-4 -14 -9 -21.5 q-5 -7.5 -12.5 -17 q-7.5 -9.5 -25.5 -23.5 q-4 -4 -5 -8 q0 -4 2 -6 q2 -3 6 -4 q4 -1 8 2 q3 2 11 8.5 q8 6.5 16 15.5 q8 9 13 16 q5 7 10 18 ZM186 143 q0 5 -3 8 q-2 2 -6 2 q-5 0 -7 -3 q-2 -2 -2 -7 l0 -115 q0 -5 2 -8 q2 -2 7 -2 q4 0 6 2 q3 3 3 8 l0 115 ZM47 51 q-4 -20 -13 -36 q-7 -14 -19 -29 q-3 -4 -3 -8 q0 -3 4 -6 q2 -2 7 -3 q4 1 8 5 q10 11 19 29 q9 17 16 43 q1 5 -1 9 q-2 3 -6 4 q-4 1 -7 -1 q-4 -2 -5 -7 ZM20 158 q9 -6 20 -18 q4 -4 7 -5 q4 0 8 2 q4 3 4 7 q0 4 -3 8 q-12 14 -24 22 q-4 3 -8 3 q-4 -1 -7 -5 q-2 -3 -2 -7 q1 -4 5 -7 ZM16 101 q9 -5 22 -18 q5 -4 8 -5 q4 0 8 4 q3 3 3 6 q0 4 -3 8 q-15 14 -27 21 q-4 3 -9 3 q-3 -1 -6 -5 q-2 -3 -2 -7 q1 -4 6 -7 l0 0 ZM222 171 q0 5 -4 8 q-3 2 -7 2 q-4 0 -6 -2 q-3 -3 -3 -8 l0 -154 q0 -15 -7.5 -22 q-7.5 -7 -22.5 -7 q-9 -2 -9 -11 q0 -3 2 -5.5 q2 -2.5 7 -3.5 q18 0 30 7 q12 7 16 17 q4 10 4 25 l0 154 Z" /><glyph glyph-name="" unicode="&#x6dfb;" d="M22 158 q10 -6 26 -20 q4 -4 9 -4 q3 0 6 2 q4 4 4 8 q0 4 -4 8 q-17 15 -31 23 q-4 3 -8 2 q-4 -1 -7 -5 q-2 -3 -1 -7 q1 -4 6 -7 ZM17 102 q10 -6 24 -19 q4 -3 8 -3 q4 -1 7 2 q3 3 4 7 q0 5 -5 8 q-15 14 -28 21 q-4 3 -9 2 q-3 -1 -6 -5 q-2 -2 -1 -6 q1 -5 6 -7 ZM43 53 q-4 -21 -10.5 -35.5 q-6.5 -14.5 -18.5 -32.5 q-3 -4 -2 -9 q0 -2 3 -5 q3 -3 8 -3 q4 1 8 5 q10 13 18.5 31 q8.5 18 14.5 46 q0 6 -2 8 q-3 3 -7 4 q-5 0 -8 -2 q-3 -2 -4 -7 ZM155 115 q13 -18 30 -32 q17 -14 34 -21 q4 -2 8 -1 q3 1 5 3 q3 4 1 7 q-2 4 -7 6 q-19 11 -30.5 20 q-11.5 9 -17.5 18 l39 0 q5 0 7 3 q2 3 2 7 q0 3 -2 6 q-2 3 -7 3 l-75 0 q4 10 6 19 q4 1 8 1 q30 0 49 4 q5 1 7 4 q2 3 1 7 q-1 4 -4 6 q-3 2 -8 1 q-18 -3 -54 -5 q-36 -1 -62 0 q-5 0 -8 -2 q-3 -3 -3 -7 q-1 -4 2 -7 q2 -2 7 -2 q19 -1 46 0 q-3 -11 -8 -19 l-46 0 q-4 0 -7 -3 q-2 -3 -2 -6 q0 -4 3 -7 q2 -2 6 -3 l36 0 q-9 -13 -20 -20.5 q-11 -7.5 -26 -14.5 q-4 -2 -6 -6 q-1 -2 0 -6 q1 -3 5 -5 q3 -2 8 0 q14 5 26 13.5 q12 8.5 21 18.5 q9 10 15 20 l21 0 ZM91 50 q-5 -15 -12 -26 q-7 -11 -16 -22 q-4 -3 -4 -8 q0 -3 3 -6 q3 -3 7 -3 q4 0 7 4 q10 8 18 21.5 q8 13.5 16 34.5 q2 3 0 7 q-2 4 -6 5 q-5 1 -7 0 q-4 -2 -6 -7 ZM158 39 q7 -17 10 -45 q1 -4 4 -7 q3 -2 7 -1 q4 1 6 3 q2 2 2 7 q-4 29 -11 49 q-2 4 -5 6 q-3 2 -7 0 q-4 -2 -6 -5 q-2 -3 0 -7 ZM189 45 q10 -18 20 -52 q1 -4 6 -7 q2 -1 7 0 q3 1 5 3 q2 3 1 9 q-9 33 -21 56 q-3 4 -7 5 q-4 1 -7 -1 q-4 -1 -5 -5 q-1 -4 1 -8 ZM148 79 q0 5 -4 8 q-3 2 -7 2 q-4 0 -6 -2 q-3 -3 -3 -8 l0 -62 q0 -15 -7.5 -22 q-7.5 -7 -22.5 -7 q-9 -2 -9 -11 q0 -3 2 -5.5 q2 -2.5 7 -3.5 q18 0 30 7 q12 7 16 17 q4 10 4 25 l0 62 Z" /><glyph glyph-name="" unicode="&#x6e32;" d="M131 163 l-46 0 q-8 0 -13 -4 q-5 -6 -5 -13 l0 -21 q0 -4 2 -8 q3 -3 7 -3 q4 0 8 3 q2 3 2 8 l0 14 q0 3 2 4 q2 2 5 2 l106 0 q4 0 6 -3 q0 -3 -2 -15 q-1 -3 0 -7 q1 -3 5 -5 q4 -1 7 0 q4 2 6 7 q3 11 3 20 q0 8 -1 12 q-2 4 -7 6.5 q-5 2.5 -8 2.5 l-55 0 q-2 8 -5 13 q-3 5 -7 6 q-3 1 -7 0 q-4 -1 -6 -5 q-1 -4 1 -8 q1 -3 2 -6 ZM107 132 q-4 0 -6 -2 q-3 -3 -3 -7 q0 -4 3 -7 q2 -2 6 -2 l73 0 q4 0 6 2 q3 3 3 7 q0 4 -3 7 q-2 2 -6 2 l-73 0 ZM76 -3 q-4 0 -7 -3 q-2 -3 -2 -6 q0 -4 2 -7 q3 -3 7 -3 l142 0 q5 0 7 3 q2 3 2 7 q0 4 -2 6 q-2 3 -7 3 l-142 0 ZM20 155 q11 -7 25 -20 q3 -3 8 -4 q3 0 6 3 q4 3 4 8 q0 3 -4 7 q-14 15 -27 23 q-5 3 -9 2 q-5 -1 -7 -4 q-2 -3 -1 -7 q1 -5 5 -8 ZM17 98 q10 -6 25 -19 q3 -4 8 -4 q4 0 7 3 q3 4 3 7 q0 4 -3 8 q-16 14 -30 22 q-4 2 -9 1 q-2 -1 -5 -3 q-3 -4 -2 -8 q1 -5 6 -7 ZM28 15 q-5 -14 -15 -30 q-3 -4 -2 -9 q0 -4 3 -6 q4 -3 8 -2 q5 1 8 6 q9 12 16 30 q8 18 14 45 q2 6 -2 9 q-2 2 -7 3 q-5 1 -7 -1 q-3 -2 -5 -8 q-4 -21 -11 -37 ZM181 66 l-76 0 l0 17 l49 0 q12 -1 18.5 -6 q6.5 -5 8.5 -11 ZM182 48 q-2 -7 -6 -11.5 q-4 -4.5 -20 -7.5 l-51 0 l0 19 l77 0 ZM161 11 q14 0 24.5 7 q10.5 7 14 17.5 q3.5 10.5 3.5 20.5 q0 8 -3 16.5 q-3 8.5 -9 15 q-6 6.5 -14 9.5 q-8 3 -16 3 l-56 0 q-7 0 -13 -4 q-6 -6 -6 -13 l0 -54 q0 -8 6 -12 q6 -6 13 -6 l56 0 Z" /><glyph glyph-name="" unicode="&#x70b9;" d="M151 32 q50 1 53 30 l0 12 q-4 31 -53 33 l-32 0 l0 26 l87 0 q4 0 7 3 q2 3 3 6 q0 5 -3 8 q-2 2 -7 2 l-87 0 l0 21 q0 4 -3 7 q-2 2 -7 2 q-4 0 -7 -2 q-1 -2 -3 -7 l0 -66 l-34 0 l-8 0 q-8 0 -13 -5 q-6 -5 -6 -13 l0 -39 q0 -6 6 -13 q5 -5 13 -5 l94 0 ZM184 73 l0 -8 q-3 -14 -33 -14 l-86 0 l-7 0 l0 7 l0 23 l0 7 l7 0 l86 0 q30 0 33 -15 ZM30 15 q-2 -7 -6.5 -15.5 q-4.5 -8.5 -9 -14.5 q-4.5 -6 -3 -11.5 q1.5 -5.5 7 -6 q5.5 -0.5 9.5 4 q4 4.5 7.5 11.5 q3.5 7 7.5 15 q4 8 5.5 14 q1.5 6 -1.5 9.5 q-3 3.5 -9 2 q-6 -1.5 -8 -8.5 ZM86.5 15 q-2.5 -5 -6 -15 q-3.5 -10 -5.5 -17 q-2 -7 -0.5 -10 q1.5 -3 6 -4.5 q4.5 -1.5 8 0 q3.5 1.5 6 8 q2.5 6.5 5.5 15.5 q3 9 4 15.5 q1 6.5 -2 10 q-3 3.5 -8 3 q-5 -0.5 -7.5 -5.5 ZM135 8 q1 -3 4 -13 q3 -10 4 -16.5 q1 -6.5 5 -9 q4 -2.5 8 -2 q4 0.5 6 4 q2 3.5 1 10.5 q-1 7 -4 18 q-3 11 -4.5 15 q-1.5 4 -6 6 q-4.5 2 -8 0.5 q-3.5 -1.5 -5 -5 q-1.5 -3.5 -0.5 -8.5 ZM187 8 l18 -30 q4 -7 7 -9 q3 -2 7 -1 q4 1 6 5.5 q2 4.5 -4 16.5 q-6 12 -15 23.5 q-9 11.5 -15 8.5 q-6 -3 -6.5 -6.5 q-0.5 -3.5 2.5 -7.5 l0 0 Z" /><glyph glyph-name="" unicode="&#x7248;" d="M44 60 l4 0 q10 0 16 -7.5 q6 -7.5 6 -24.5 l0 -50 q0 -4 2 -7 q2 -3 7 -3 q4 0 7 3 q2 3 2 7 l0 51 q0 21 -10 35.5 q-10 14.5 -30 14.5 l-4 0 l0 26 l49 0 q5 0 8 3 q1 2 1 6 q0 4 -1 7 q-3 2 -8 2 l-7 0 l0 50 q0 4 -3 7 q-3 2 -7 2 q-4 0 -7 -2 q-2 -2 -2 -7 l0 -50 l-23 0 l0 49 q0 5 -4 8 q-3 2 -7 2 q-4 0 -6 -2 q-3 -3 -3 -8 l0 -113 q0 -11 -2 -27 q-1 -12 -5 -31 q-1 -7 -5 -19 q-2 -5 -1 -8 q2 -4 6 -6 q4 -1 8 0 q4 2 6 7 q2 7 6 26 q4 18 6 37 q1 13 1 21 l0 1 ZM136 105 q0 -18 4 -40 q3 -16 12 -31 q4 -8 13 -18 q-3 -3 -5 -5 q-14 -13 -36 -25 q-5 -3 -6 -6 q-1 -4 1 -8 q2 -4 7 -5 q3 0 7 2 q14 7 32 22 q6 5 12 10 q17 -17 39 -31 q5 -3 8 -2 q4 1 7 5 q2 3 2 6 q-1 5 -6 8 q-19 12 -31 22 q-3 3 -6 6 q2 2 5 6 q12 19 21 42 q8 19 11 38 q1 12 -4 17 q-3 5 -11 5 l-85 0 l0 22 q0 4 1 7 q2 2 5 2 q35 0 56 1 q21 0 31 1 q6 1 8 5 q2 3 2 8 q0 4 -4 6 q-3 2 -9 2 q-19 -2 -40 -4 q-20 0 -49 -1 q-12 0 -15 -3 q-5 -5 -5 -14 l0 -85 q0 -13 -2 -30 q-1 -12 -4 -24 q-3 -15 -9 -29 q-3 -5 -2 -9 q0 -3 4 -6 q4 -2 7 -1 q5 0 8 4 q5 9 10 31 q3 13 5 28 q2 23 2 36 l0 35 l9 0 ZM171 37 q-8 12 -14 36 q-2 11 -2 32 l47 0 q5 0 6 -2 q1 -1 1 -3 q-2 -12 -9 -29 q-5 -15 -15 -30 q-3 -6 -8 -12 q-4 4 -6 8 Z" /><glyph glyph-name="" unicode="&#x7279;" d="M56 60 q-17 -7 -33 -13 q-5 -2 -6 -5 q-1 -4 1 -8 q1 -3 6 -5 q4 -1 8 1 q12 4 24 10 l0 -63 q0 -4 2 -7 q3 -3 7 -3 q4 0 7 3 q2 3 2 7 l0 73 q13 7 23 14 q4 3 4 6 q0 4 -2 7 q-3 4 -7 4 q-4 0 -8 -3 q-3 -3 -10 -6 l0 46 l15 0 q5 0 7 3 q3 3 3 6 q0 5 -3 7 q-2 3 -7 3 l-15 0 l0 37 q0 4 -2 7 q-3 2 -7 2 q-5 0 -7 -2 q-2 -2 -2 -7 l0 -37 l-17 0 q2 13 3 24 q0 5 -3 8 q-2 2 -7 2 q-4 0 -6 -2 q-3 -2 -3 -7 q0 -27 -12 -72 q-1 -4 1 -7 q2 -3 5 -4 q5 -1 8 1 q3 2 4 6 q4 17 7 32 l20 0 l0 -58 ZM187 53 l0 -30 q0 -19 -5.5 -27 q-5.5 -8 -15.5 -8 l-11 0 q-10 0 -11 -9 q1 -9 11 -10 l10 0 q24 1 33 15 q9 14 9 39 l0 30 l18 0 q4 0 7 3 q2 2 3 6 q0 4 -3 7 q-3 2 -7 2 l-18 0 l0 24 l17 0 q4 0 7 3 q3 2 3 6 q0 5 -3 7 q-2 2 -7 2 l-51 0 l0 27 l42 0 q4 0 7 3 q2 3 2 7 q0 4 -2 6 q-3 2 -7 2 l-42 0 l0 16 q0 4 -3 7 q-2 2 -6 2 q-5 0 -7 -2 q-2 -2 -2 -7 l0 -16 l-40 0 q-4 0 -7 -2 q-2 -2 -2 -6 q0 -4 2 -7 q2 -2 7 -3 l40 0 l0 -27 l-46 0 q-5 0 -8 -2 q-2 -3 -2 -7 q0 -4 2 -6 q3 -3 8 -3 l78 0 l0 -24 l-74 0 q-5 0 -7 -2 q-3 -3 -3 -7 q0 -4 3 -6 q2 -2 7 -3 l74 0 ZM121 29 q7 -7 17 -21 q3 -4 6 -5 q4 0 8 2 q3 2 4 6 q0 4 -2 7 q-11 14 -21 24 q-3 3 -6 3 q-4 0 -7 -3 q-3 -3 -3 -7 q0 -4 4 -6 Z" /><glyph glyph-name="" unicode="&#x73b0;" d="M45 20 q-13 -2 -26 -3 q-4 -1 -6 -4 q-3 -3 -2 -8 q1 -4 4 -6 q2 -3 8 -2 q23 4 45 9 q16 4 27 9 q4 2 6 5 q1 4 0 8 q-2 4 -6 5 q-4 1 -9 -1 q-8 -3 -22 -7 l0 55 l18 0 q4 0 7 3 q2 2 2 6 q0 4 -3 7 q-2 2 -6 2 l-18 0 l0 52 l21 0 q3 0 6 2 q3 3 3 7 q0 4 -3 7 q-2 2 -6 2 l-62 0 q-5 0 -7 -3 q-2 -2 -3 -6 q0 -4 3 -7 q1 -2 7 -2 l22 0 l0 -52 l-19 0 q-4 0 -7 -2 q-2 -3 -3 -7 q0 -4 2 -6 q3 -3 8 -3 l19 0 l0 -60 ZM156 32 l0 -40 q0 -8 3 -12 q5 -5 14 -5 q20 -1 35 0 q8 0 12 4 q5 4 6 10 q2 11 2 27 q0 4 -3 7 q-2 3 -7 3 q-4 0 -7 -3 q-2 -3 -2 -7 q0 -12 -1 -17 q-2 -5 -9 -6 q-8 0 -18 0 q-7 1 -7 8 l0 43 q0 4 -3 7 q-3 3 -6 3 q-2 0 -3 -1 q2 7 2 16 l0 46 q0 5 -3 8 q-3 2 -6 2 q-5 0 -8 -2 q-2 -3 -2 -8 l0 -46 q0 -7 -2 -13 q-2 -9 -5 -16 q-2 -6 -8 -14 q-6 -8 -12 -13 q-9 -7 -17 -11 q-6 -4 -15 -8 q-7 -3 -13 -4 q-4 -2 -6 -6 q-2 -3 -1 -8 q2 -3 6 -5 q3 -2 8 0 q4 1 14 5 q12 5 22 12 q7 4 15 12 q6 5 12 13 q8 10 13 19 ZM149 155 q21 -1 31 -11.5 q10 -10.5 11 -28.5 l0 -52 q0 -5 3 -7 q2 -3 6 -3 q5 0 7 3 q3 2 3 7 l0 52 q0 25 -15.5 41 q-15.5 16 -45.5 17 l-31 0 q-4 0 -10 -4 q-4 -4 -4 -10 l0 -96 q0 -5 2 -7 q3 -3 8 -3 q3 0 7 3 q2 2 2 7 l0 85 q0 4 3 6 q1 1 4 1 l19 0 Z" /><glyph glyph-name="" unicode="&#x751f;" d="M107 -3 l-81 0 q-12 0 -12.5 -9.5 q-0.5 -9.5 12.5 -9.5 l183 0 q12 0 12 9.5 q0 9.5 -12 9.5 l-82 0 l0 52 l63 0 q11 0 11 9.5 q0 9.5 -11 9.5 l-63 0 l0 51 l70 0 q12 0 12 9.5 q0 9.5 -12 9.5 l-70 0 l0 34 q0 5 -3 7 q-3 3 -8 3 q-3 0 -6 -3 q-3 -2 -3 -7 l0 -34 l-52 0 q4 14 5 29 q0 4 -2 7 q-3 3 -7 3 q-5 0 -7 -2 q-3 -3 -3 -7 q-2 -21 -8 -40 q-6 -18 -19 -35 q-4 -5 -4 -8 q0 -3 3 -6 q3 -3 7 -3 q4 0 8 4 q13 16 21 39 l58 0 l0 -51 l-64 0 q-4 0 -7 -3 q-3 -3 -3 -7 q0 -3 3 -6 q2 -3 7 -3 l64 0 l0 -52 Z" /><glyph glyph-name="" unicode="&#x7528;" d="M130 58 l0 40 l55 0 l0 -40 l-55 0 ZM130 154 l13 0 q39 -1 42 -30 l0 -9 l-55 0 l0 39 ZM110 115 l-55 0 l0 39 l55 0 l0 -39 ZM55 58 l0 40 l55 0 l0 -40 l-55 0 ZM186 19 q0 -10 -1.5 -17 q-1.5 -7 -5 -10.5 q-3.5 -3.5 -9.5 -4.5 l-11 0 q-5 0 -7.5 -2.5 q-2.5 -2.5 -2.5 -6.5 q0 -4 3 -7 q3 -3 7 -3 l11 0 q17 2 26 14.5 q9 12.5 9 36.5 l0 101 q-1 52 -63 52 l-90 0 q-6 0 -11 -3 q-6 -6 -6 -13 l0 -95 q0 -13 -1 -23 q0 -11 -3 -22 q-3 -11 -7 -18 q-4 -7 -9 -14 q-5 -10 1.5 -14 q6.5 -4 14.5 0 q7 7 12 19 q4 9 6 20 q3 11 4 24 q1 4 1 8 l56 0 l0 -59 q0 -8 10 -8 q10 0 10 9 l0 58 l56 0 l0 -22 Z" /><glyph glyph-name="" unicode="&#x7684;" d="M80 56 l0 -21 q-2 -32 -29 -37 l-21 0 l0 58 l50 0 ZM30 74 l0 54 l27 0 q22 -1 23 -40 l0 -14 l-50 0 ZM51 -21 q45 3 48 57 l0 52 q0 60 -38 59 q5 13 7 22 q1 6 -2 9 q-2 4 -7 4 q-4 0 -7 -1 q-4 -3 -5 -8 q-2 -10 -8 -26 l-16 0 q-5 0 -9 -4 q-4 -3 -4 -8 l0 -141 q0 -5 5 -10 q2 -5 8 -5 l28 0 ZM202 20 q0 -10 -5 -19.5 q-5 -9.5 -13 -11 q-8 -1.5 -14 -1.5 l-23 0 q-5 0 -7.5 -2.5 q-2.5 -2.5 -2.5 -6.5 q0 -4 3 -7 q3 -3 7 -3 l23 0 q29 2 40.5 13.5 q11.5 11.5 10.5 37.5 l0 61 q3 64 -59 64 l-21 0 q3 11 4 27 q0 10 -9 9.5 q-9 -0.5 -10 -7.5 q-1 -19 -7 -35 q-5 -14 -14 -29 q-3 -10 3 -13.5 q6 -3.5 13 3.5 q7 10 14 27 l26 0 q38 0 41 -47 l0 -60 ZM157 40 q5 -8 12.5 -5 q7.5 3 5.5 12 q-12 27 -25 45 q-6 7 -13 2 q-7 -5 -3 -13 q10 -14 23 -41 Z" /><glyph glyph-name="" unicode="&#x76ee;" d="M112 -23 q58 8 59 59 l0 73 q-10 59 -76 60 l-58 0 l-8 0 q-8 0 -13 -4 q-6 -6 -6 -13 l0 -156 q0 -7 7 -13 q5 -5 12 -6 l83 0 ZM152 35 q-2 -32 -42 -39 l-80 0 l0 39 l122 0 ZM30 54 l0 38 l122 0 l0 -38 l-122 0 ZM30 111 l0 40 l65 0 q49 -3 56 -40 l-121 0 Z" /><glyph glyph-name="" unicode="&#x76f4;" d="M48 -4 l-29 0 q-3 0 -6 -3 q-3 -2 -3 -6 q0 -4 3 -7 q2 -3 6 -3 l201 0 q3 0 6 3 q2 3 3 7 q0 4 -3 6 q-2 3 -6 3 l-24 0 l0 76 q-3 51 -59 60 l-8 0 l0 16 l79 0 q4 0 6 3 q3 3 3 6 q0 4 -3 7 q-2 2 -6 2 l-79 0 l0 7 q0 4 -2 7 q-3 2 -7 2 q-5 0 -7 -2 q-2 -2 -3 -7 l0 -7 l-79 0 q-5 0 -8 -2 q-2 -3 -2 -7 q0 -4 2 -6 q3 -3 8 -3 l79 0 l0 -16 l-36 0 l-11 0 q-5 0 -10 -5 q-5 -4 -5 -10 l0 -121 ZM68 -4 l0 16 l108 0 l0 -16 l-108 0 ZM68 29 l0 16 l108 0 l0 -16 l-108 0 ZM176 61 l-108 0 l0 18 l108 0 l0 -18 ZM131 114 q27 -1 40 -18 l-103 0 l0 18 l63 0 Z" /><glyph glyph-name="" unicode="&#x76f8;" d="M73 87 l16 -29 q2 -6 6 -7 q4 -1 7 0 q4 2 5 6 q2 3 0 8 q-13 22 -32 54 l26 0 q4 0 6 3 q3 3 3 6 q0 5 -3 7 q-2 2 -6 3 l-28 0 l0 36 q0 4 -2 7 q-3 2 -7 2 q-5 0 -7 -2 q-2 -2 -2 -7 l0 -36 l-31 0 q-5 0 -7 -3 q-2 -3 -3 -7 q0 -4 3 -6 q1 -3 7 -3 l28 0 q-7 -19 -13 -32 q-8 -16 -26 -40 q-3 -3 -2 -8 q1 -3 4 -6 q3 -2 7 -1 q4 1 6 5 q12 17 24 40 q1 3 3 6 l0 -105 q0 -4 2 -7 q3 -3 7 -3 q4 0 7 3 q2 3 2 7 l0 109 ZM161 -22 q51 -2 58 53 l0 86 q-9 53 -62 52 l-18 0 l-9 0 q-5 1 -9 -3 q-4 -3 -4 -9 l0 -164 q0 -5 4 -10 q3 -5 9 -5 l31 0 ZM200 37 q-2 -40 -37 -40 l-27 0 l0 40 l64 0 ZM136 56 l0 37 l64 0 l0 -37 l-64 0 ZM136 112 l0 39 l16 0 q46 0 48 -39 l-64 0 Z" /><glyph glyph-name="" unicode="&#x770b;" d="M153 -23 q38 2 40 39 l0 32 q-4 31 -42 35 l-69 0 q8 9 11 15 l118 0 q4 0 7 2 q2 3 3 7 q0 4 -3 6 q-3 2 -7 2 l-107 0 q2 4 5 8 q1 2 2 4 l74 0 q4 0 7 2 q2 3 2 7 q0 3 -2 6 q-3 2 -7 2 l-65 0 q3 5 6 11 q2 0 7 0 q38 0 62 5 q4 0 6 4 q1 3 1 6 q-1 4 -4 7 q-2 1 -7 1 q-23 -4 -70 -5 q-46 -1 -80 0 q-5 1 -8 -2 q-2 -2 -2 -6 q-1 -4 1 -7 q2 -3 7 -3 q27 -1 65 -1 q-3 -5 -5 -10 l-54 0 q-4 0 -7 -2 q-3 -3 -3 -6 q0 -4 3 -7 q3 -2 7 -2 l45 0 q0 0 -1 -1 q-3 -5 -7 -11 l-63 0 q-4 0 -6 -2 q-3 -2 -3 -6 q0 -4 3 -7 q2 -2 6 -2 l51 0 q-11 -13 -20 -21 q-10 -10 -33 -26 q-4 -2 -4 -6 q-1 -3 2 -7 q2 -4 6 -5 q4 0 8 3 q13 9 27 22 l0 -67 q-1 -4 3 -10 q3 -4 9 -4 l85 0 ZM174 6 q-2 -9 -21 -11 l-79 0 l0 11 l100 0 ZM74 23 l0 13 l100 0 l0 -13 l-100 0 ZM74 53 l0 12 l79 0 q18 -2 21 -12 l-100 0 Z" /><glyph glyph-name="" unicode="&#x7801;" d="M63 -8 q30 4 36 35 l0 22 q-5 36 -30 40 l-10 0 l-4 0 q6 19 12 49 l30 0 q4 0 7 3 q3 3 3 7 q0 3 -3 6 q-2 3 -7 3 l-72 0 q-5 0 -8 -3 q-2 -3 -2 -6 q0 -5 2 -7 q2 -3 8 -3 l22 0 q-3 -28 -12 -48 q-8 -18 -22 -39 q-3 -4 -2 -7 q0 -4 4 -6 q2 -3 6 -2 q4 0 7 4 q4 5 8 12 l0 -45 q0 -5 5 -10 q3 -5 8 -5 l14 0 ZM79 48 l0 -13 q-2 -24 -23 -24 l0 61 q21 0 23 -24 ZM200 84 q9 0 11 8 l0 31 q0 19 -11.5 34.5 q-11.5 15.5 -37.5 16.5 l-49 0 q-6 0 -9 -2 q-3 -2 -3 -7 q-1 -5 3 -7 q3 -2 9 -2 l47 0 q14 -1 23 -10.5 q9 -9.5 8 -29.5 l0 -21 q-2 -9 9 -11 ZM114 38 q-5 0 -7 -3 q-3 -3 -3 -6 q0 -4 3 -7 q1 -3 7 -3 l81 0 q4 0 6 3 q3 3 3 7 q0 4 -3 7 q-1 2 -6 2 l-81 0 ZM235 29 q-1 27 -21 39.5 q-20 12.5 -40 12.5 l-37 0 q-2 0 -3 1 q-1 1 -1 3 l7 42 q0 10 -9 12 q-10 0 -11 -9 l-8 -47 q-2 -11 2 -16 q4 -5 17 -5 l44 0 q13 0 26 -8 q13 -8 14 -25 l0 -20 q-1 -10 -8 -16 q-7 -6 -18 -6 l-40 0 q-8 0 -11 -8 q1 -10 10 -11 l45 0 q21 3 31.5 15.5 q10.5 12.5 10.5 25.5 l0 20 Z" /><glyph glyph-name="" unicode="&#x786e;" d="M124 51 l0 22 l28 0 l0 -22 l-28 0 ZM152 91 l-28 0 l0 16 q0 3 2 5 q1 1 4 1 l22 0 l0 -22 ZM170 113 l7 0 q22 -5 23 -22 l-30 0 l0 22 ZM63 -9 q29 5 30 35 l0 37 q-1 31 -33 37 l-12 0 q8 21 12 50 l22 0 q5 0 8 2 q1 3 1 8 q0 4 -1 6 q-3 2 -8 2 l-63 0 q-5 0 -7 -2 q-2 -3 -2 -6 q0 -5 2 -8 q2 -2 7 -2 l22 0 q-2 -22 -8 -41 q-7 -19 -19 -39 q-3 -3 -2 -7 q0 -4 4 -6 q2 -2 6 -2 q4 1 7 6 q2 2 3 4 l0 -59 q0 -6 3 -10 q4 -4 10 -5 l18 0 ZM74 66 l0 -39 q0 -17 -24 -16 l0 70 q23 0 24 -15 ZM201 14 q0 -15 -6.5 -20.5 q-6.5 -5.5 -12.5 -4.5 q-9 -2 -9 -11 q0 -3 2 -5.5 q2 -2.5 7 -3.5 q10 0 20.5 6 q10.5 6 14 16 q3.5 10 3.5 23 l0 69 q0 41 -41 49 l-1 0 q4 4 7 8 q7 9 11 16 q3 7 2 11 q-1 4 -4 6 q-3 2 -7 2 l-52 0 q-5 0 -8 -1 q-4 -2 -7 -5 q-9 -14 -31 -30 q-3 -3 -4 -7 q0 -4 1 -7 q3 -3 7 -4 q4 0 8 3 q19 15 30 29 q1 2 3 2 q3 2 6 2 l29 0 q2 0 4 -2 q1 0 0 -1 q-2 -3 -5 -7 q-3 -5 -14 -13 q-1 -1 -1 -2 l-32 0 q-7 0 -11 -5 q-5 -4 -5 -11 l0 -85 q0 -7 -1 -13 q-1 -8 -3 -15 q-2 -6 -4 -12 q-4 -4 -8 -8 q-3 -4 -3 -7 q1 -3 6 -6 q5 -4 7 -2 q4 2 8 6 q4 2 7 8 q3 7 5 14 q2 7 3 16 q1 8 2 16 l0 5 l28 0 l0 -51 q0 -4 3 -6 q1 -3 6 -3 q4 0 7 3 q2 2 2 6 l0 51 l31 0 l0 -19 ZM170 51 l0 22 l31 0 l0 -22 l-31 0 Z" /><glyph glyph-name="" unicode="&#x79cd;" d="M67 73 l12 -20 q3 -4 7 -5 q3 -1 7 1 q3 2 4 5 q1 4 -1 7 q-11 17 -29 39 l26 0 q4 0 6 3 q3 3 3 7 q0 3 -2 6 q-2 2 -7 3 l-26 0 l0 32 q15 3 26 6 q4 1 6 5 q1 4 0 7 q-1 4 -5 6 q-4 1 -8 0 q-10 -3 -27 -6 q-18 -4 -36 -5 q-5 0 -7 -3 q-3 -3 -2 -7 q0 -4 3 -7 q3 -3 8 -3 q11 1 22 3 l0 -28 l-27 0 q-4 0 -7 -3 q-3 -3 -3 -6 q0 -5 3 -8 q3 -2 7 -2 l25 0 q-6 -15 -11 -25 q-7 -15 -21 -33 q-3 -4 -2 -8 q1 -3 4 -5 q3 -2 7 -2 q4 1 7 5 q9 13 18 34 l0 -89 q0 -4 3 -8 q3 -3 8 -2 q8 1 9 10 l0 96 ZM153 29 l0 -51 q0 -4 2 -7 q2 -3 7 -3 q4 0 7 3 q2 3 2 7 l0 51 q45 5 48 44 l0 19 q-1 45 -48 48 l0 34 q0 4 -3 7 q-2 2 -6 2 q-5 0 -7 -2 q-2 -2 -2 -7 l0 -34 l-25 0 l-8 0 q-6 0 -9 -3 q-4 -4 -4 -10 l0 -83 q0 -7 4 -12 q3 -3 9 -3 l33 0 ZM153 47 l-27 0 l0 75 l2 0 l25 0 l0 -75 ZM171 122 q27 -2 29 -30 l0 -19 q-2 -23 -29 -26 l0 75 Z" /><glyph glyph-name="" unicode="&#x7ad9;" d="M51 165 q3 -5 7 -15 q2 -6 6 -8 q3 -1 8 0 q4 2 6 6 q1 3 1 7 q-6 13 -11 21 q-3 4 -7 5 q-3 1 -7 -1 q-4 -3 -5 -7 q-1 -4 2 -8 ZM19 139 q-3 0 -6 -2 q-3 -4 -3 -8 q0 -4 2 -6 q3 -3 7 -3 l82 0 q4 0 7 3 q3 3 3 6 q0 5 -3 7 q-2 2 -7 3 l-82 0 ZM24 91 q1 -6 5 -28 q3 -21 3 -38 q0 -5 3 -7 q3 -3 8 -3 q3 1 6 3 q2 3 2 8 q-1 17 -4 38 q-3 22 -5 32 q-1 4 -5 6 q-3 1 -6 1 q-5 -1 -6 -4 q-3 -3 -1 -8 ZM170 -23 q47 4 52 36 l0 25 q-4 36 -50 39 l-4 0 l0 43 l50 0 q5 0 8 3 q2 3 2 6 q0 5 -3 7 q-2 2 -7 3 l-50 0 l0 34 q0 4 -2 7 q-3 2 -8 2 q-3 0 -6 -2 q-2 -2 -3 -7 l0 -96 l-16 0 l-10 0 q-5 0 -9 -4 q-4 -4 -4 -9 l0 -50 q-1 1 -3 2 q-3 2 -8 0 q-6 -2 -15 -5 q4 20 7 46 q4 31 6 44 q0 5 -3 8 q-2 2 -7 3 q-4 0 -7 -3 q-3 -3 -3 -8 q0 -9 -4 -41 q-4 -30 -10 -53 q0 0 0 -1 q-21 -3 -44 -4 q-3 0 -6 -3 q-3 -3 -2 -8 q0 -3 3 -6 q3 -3 8 -2 q27 2 52 7 q18 3 32 8 q3 1 4 2 l0 -8 q0 -5 3 -10 q4 -5 10 -5 l47 0 ZM202 38 l0 -24 q-3 -16 -29 -18 l-44 0 l0 62 l44 0 q27 -3 29 -20 Z" /><glyph glyph-name="" unicode="&#x7ae0;" d="M70 129 l-51 0 q-4 0 -6 -2 q-3 -3 -3 -7 q0 -4 3 -7 q2 -1 6 -1 l191 0 q4 0 7 2 q3 2 3 6 q0 5 -3 7 q-3 2 -7 2 l-51 0 l7 16 q1 2 1 3 l26 0 q3 0 7 3 q2 3 2 6 q0 4 -3 7 q-3 2 -6 2 l-67 0 q-3 7 -6 11 q-3 5 -7 6 q-4 1 -8 -1 q-4 -3 -5 -7 q-1 -4 0.5 -6 q1.5 -2 2.5 -3 l-67 0 q-4 0 -6 -2 q-3 -3 -3 -7 q0 -4 2 -6 q3 -3 7 -3 l27 0 q0 -1 1 -2 l6 -17 ZM89 129 l-5 19 l62 0 l-7 -19 l-50 0 ZM106 -2 l0 -22 q0 -4 3 -7 q3 -3 6 -3 q5 0 7 3 q3 3 3 7 l0 22 l86 0 q4 0 7 3 q2 2 3 5 q0 5 -3 7 q-3 3 -7 3 l-86 0 l0 11 l11 0 q55 -1 59 30 l0 12 q-3 32 -60 30 l-74 0 l-8 0 q-8 0 -12 -5 q-7 -6 -6 -12 l0 -38 q-1 -7 6 -13 q4 -4 12 -4 l53 0 l0 -11 l-87 0 q-4 0 -7 -3 q-2 -3 -2 -7 q0 -3 2 -5 q3 -3 7 -3 l87 0 ZM176 54 q-4 -11 -39 -10 l-76 0 l-7 0 l0 6 l0 4 l122 0 ZM54 71 l0 4 l0 8 l7 0 l75 0 q35 0 40 -12 l-122 0 Z" /><glyph glyph-name="" unicode="&#x7aef;" d="M36 163 q4 -6 8 -16 q2 -5 6 -7 q4 -2 8 0 q4 2 6 5 q2 4 0 9 q-5 12 -11 20 q-3 4 -7 5 q-3 1 -8 -2 q-4 -2 -5 -6 q0 -3 3 -8 ZM21 135 q-4 0 -7 -3 q-2 -3 -2 -6 q0 -4 2 -7 q3 -3 7 -3 l62 0 q4 0 7 3 q3 3 3 7 q0 4 -3 7 q-3 2 -7 2 l-62 0 ZM23 90 q1 -5 2 -24 q1 -18 1 -32 q0 -4 2 -6 q3 -3 7 -3 q4 0 7 2 q3 3 3 7 q0 14 -2 33 q-1 18 -2 26 q-1 4 -4 6 q-3 2 -6 1 q-4 0 -7 -3 q-2 -2 -1 -7 ZM51 16 l-32 -6 q-4 -1 -7 -5 q-2 -2 -1 -7 q1 -4 5 -7 q3 -1 7 0 l61 12 q4 0 7 4 q2 3 1 7 q-1 4 -4 6 q-2 2 -8 1 l-9 -2 q3 20 6 43 q3 29 4 40 q0 4 -3 8 q-2 2 -6 2 q-4 0 -6 -2 q-3 -3 -3 -8 q0 -8 -4 -37 q-2 -27 -7 -48 l-1 -1 ZM152 139 l-27 0 q-4 0 -6 1 q-2 2 -2 6 l0 18 q0 4 -3 7 q-1 2 -6 2 q-4 0 -7 -3 q-2 -2 -2 -6 l0 -29 q0 -7 4 -11 q4 -3 11 -3 l65 0 q46 0 45 44 q0 4 -2 7 q-2 3 -7 3 q-4 0 -6 -3 q-2 -3 -2 -7 q-1 -29 -36 -26 l0 35 q0 4 -3 7 q-2 2 -7 2 q-4 0 -6 -2 q-3 -2 -3 -7 l0 -35 ZM185 -24 q0 -4 3 -7 q3 -3 5 -3 l3 0 q14 1 23 14 q7 13 7 32 l0 16 q-1 40 -48 41 l-15 0 q5 14 7 17 l53 0 q4 0 7 3 q3 3 3 7 q0 4 -3 7 q-3 2 -7 2 l-121 0 q-3 0 -7 -2 q-2 -3 -2 -7 q0 -4 2 -7 q3 -3 7 -3 l48 0 q-5 -10 -9 -17 l-27 0 q-7 0 -12 -5 q-4 -5 -4 -10 l0 -77 q1 -8 8 -9 q5 0 7 3 q2 3 2 6 l0 68 q0 2 2 4 q3 2 6 2 l12 0 l0 -63 q0 -4 2 -7 q3 -3 6 -3 q9 0 10 10 l0 63 l19 0 l0 -63 q0 -4 2 -7 q3 -3 7 -3 q3 0 4 1 l0 -3 ZM209 10 q0 -14 -3.5 -19 q-3.5 -5 -9.5 -6 l-3 0 q-2 0 -4 -1 q1 1 1 2 l0 64 q15 -3 19 -22 l0 -18 Z" /><glyph glyph-name="" unicode="&#x7b2c;" d="M108 50 l-56 0 q-7 0 -6 4 l1 9 q0 5 7 5 l54 0 l0 -18 ZM128 103 l32 0 q25 0 25 -9 q0 -9 -25 -9 l-32 0 l0 18 ZM65 146 q2 -6 5 -15 q1 -4 3 -7 q3 -2 7 -1 q5 1 6 4 q2 2 1 7 q-1 6 -2 12 l22 0 q4 0 7 3 q1 3 1 6 q0 4 -1 7 q-3 2 -7 2 l-54 0 q1 3 2 5 q2 5 0 9 q-2 3 -6 4 l-7 0 q-4 -2 -5 -7 q-3 -12 -9 -22 q-5 -9 -13 -17 q-3 -4 -3 -8 q0 -3 3 -6 q2 -2 6 -3 q4 0 8 4 q7 7 14 19 q1 2 2 4 l20 0 ZM166 146 q2 -4 4 -14 q1 -5 4 -6 q3 -2 8 -1 q3 0 5 3 q2 3 1 8 q-1 6 -3 10 l35 0 q3 0 6 3 q2 3 2 6 q0 4 -2 7 q-3 2 -6 2 l-71 0 q1 4 2 7 q1 5 -1 8 q-2 3 -6 3 q-3 1 -7 0 q-3 -2 -4 -7 q-2 -11 -6 -20 q-4 -7 -12 -15 q-3 -4 -2 -8 q1 -4 3 -6 q4 -2 8 -2 q4 0 7 3 q6 8 11 19 l24 0 ZM184 32 q22 0 23 -12 l0 -9 q-3 -7 -11 -9.5 q-8 -2.5 -16 -1.5 l-13 0 q-5 0 -7.5 -2.5 q-2.5 -2.5 -2.5 -6.5 q0 -4 3 -7 q3 -3 7 -3 l13 0 q42 3 45 30 l0 10 q0 29 -46 29 l-51 0 l0 18 l29 0 q44 1 49 21 l0 8 q-3 23 -47 24 l-120 0 q-5 0 -7 -2 q-3 -3 -3 -6 q0 -4 2 -7 q3 -3 8 -3 l69 0 l0 -18 l-63 0 q-7 0 -11 -2 q-4 -3 -5 -9 l-4 -27 q-1 -5 3 -10 q4 -4 10 -5 l56 0 q-15 -12 -31 -20 q-19 -10 -44 -18 q-4 -1 -7 -4 q-2 -3 -1 -8 q2 -3 5 -6 q5 -2 9 0 q20 5 43 18 q18 9 40 27 l0 -44 q0 -4 3 -7 q3 -3 7 -3 q5 0 7 3 q3 3 3 7 l0 55 l56 0 Z" /><glyph glyph-name="" unicode="&#x7b49;" d="M68 6 q4 -6 11 -16 q3 -4 7 -5 q3 -1 7 1 q4 2 5 5 q1 4 -1 8 q-8 12 -15 20 q-3 3 -7 4 q-3 0 -7 -3 q-3 -2 -4 -6 q0 -4 4 -8 ZM61 149 q1 0 1 -1 q4 -6 8 -17 q2 -4 5 -6 q3 -1 7 0 q4 1 5 4 q2 3 0 8 q-1 6 -4 12 l31 0 q3 0 6 3 q3 3 3 6 q0 4 -3 6 q-3 3 -6 3 l-61 0 q1 2 2 4 q2 4 0 8 q-1 3 -6 4 q-3 1 -6 0 q-4 -1 -6 -6 q-3 -12 -9 -22 q-6 -8 -14 -15 q-3 -3 -4 -7 q0 -4 3 -7 q3 -2 6 -2 q4 0 8 3 q7 6 15 17 q1 3 3 5 l16 0 ZM174 62 l46 0 q4 0 6 3 q3 3 3 7 q0 4 -3 7 q-2 2 -6 2 l-89 0 l0 19 l66 0 q5 0 7 2 q3 3 3 7 q0 4 -3 6 q-2 2 -7 2 l-66 0 l0 7 q0 4 -3 6 q2 1 4 3 q6 6 12 15 l0 1 l28 0 q4 -7 10 -18 q1 -4 4 -6 q3 -2 8 0 q3 2 4 4 q2 4 0 8 q-2 6 -5 12 l30 0 q4 0 7 3 q3 3 3 6 q0 4 -3 7 q-3 2 -7 2 l-70 0 q1 2 1 3 q2 5 0 8 q-2 4 -6 4 q-4 1 -7 0 q-3 -1 -4 -6 q-3 -9 -8 -17 q-3 -7 -10 -14 q-3 -3 -4 -6 q0 -3 2 -6 q-2 0 -3 -2 q-2 -3 -2 -7 l0 -7 l-67 0 q-4 0 -6 -2 q-3 -2 -3 -6 q0 -4 3 -7 q2 -2 6 -2 l67 0 l0 -19 l-88 0 q-5 0 -7 -3 q-2 -2 -2 -6 q0 -4 2 -7 q2 -3 7 -3 l131 0 l0 -16 l-124 0 q-5 0 -8 -2 q-2 -3 -2 -7 q0 -5 2 -6 q3 -3 8 -3 l124 0 l0 -9 q0 -10 -4.5 -18.5 q-4.5 -8.5 -13 -11 q-8.5 -2.5 -14.5 -2.5 l-2 0 q-5 0 -7.5 -2.5 q-2.5 -2.5 -2.5 -6.5 q0 -4 3 -7 q3 -3 7 -3 l2 0 q24 0 37.5 13 q13.5 13 13.5 38 l0 9 l42 0 q5 0 7 3 q2 2 2 6 q0 5 -2 7 q-2 2 -7 2 l-42 0 l0 16 Z" /><glyph glyph-name="" unicode="&#x7bad;" d="M168 151 l0 -1 q4 -5 9 -15 q2 -4 6 -6 q2 -2 7 0 q4 2 6 6 q1 3 -1 7 q-3 5 -5 9 l32 0 q3 0 5 2 q3 3 3 7 q0 4 -3 7 q-2 2 -5 2 l-69 0 q1 4 0 8 q-2 6 -12 5 q-4 -2 -6 -7 q-3 -9 -8 -17 q-5 -6 -12 -13 q-3 -3 -3 -7 q0 -3 2 -6 q2 -3 6 -4 q4 0 8 4 q6 5 12 14 q2 3 3 5 l25 0 ZM142 119 l-40 0 q0 4 -1 7 q-1 5 -3 8 q-2 4 -5 6 q-4 2 -7 0 l0 2 q-2 4 -3 8 l22 0 q4 0 7 3 q2 2 2 6 q0 4 -2 6 q-3 3 -7 3 l-51 0 q1 1 1 2 q2 4 1 8 q-2 3 -5 4 q-5 1 -7 0 q-4 -1 -6 -5 q-4 -11 -10 -20 q-5 -6 -12 -14 q-4 -3 -4 -6 q-1 -3 2 -7 q3 -3 6 -3 q4 0 8 3 q7 6 14 16 q1 2 3 4 l17 0 q0 -1 1 -2 q2 -4 5 -11 q1 -4 4 -7 q3 -2 7 -1 q0 -1 1 -2 q0 -1 2 -5 q0 -2 1 -3 l-64 0 q-3 0 -6 -3 q-3 -3 -3 -6 q0 -5 2 -7 q3 -3 7 -3 l202 0 q3 0 6 3 q3 3 3 7 q0 3 -3 6 q-3 3 -6 3 l-58 0 q1 1 4 9 q1 5 -1 9 q-2 3 -7 4 q-3 1 -6 -1 q-4 -2 -5 -7 q-1 -2 -2 -6 q-2 -5 -4 -8 ZM47 25 l0 16 l51 0 l0 -16 l-51 0 ZM47 58 l0 15 l30 0 q17 0 21 -15 l-51 0 ZM161 73 q0 5 -3 8 q-2 2 -6 2 q-5 0 -8 -2 q-3 -3 -3 -8 l0 -58 q0 -5 3 -8 q3 -3 8 -3 q4 0 6 3 q3 3 3 8 l0 58 ZM210 86 q0 5 -4 8 q-3 2 -7 2 q-4 0 -6 -2 q-3 -3 -3 -8 l0 -68 q0 -15 -7.5 -22 q-7.5 -7 -24.5 -7 q-9 -2 -9 -11 q0 -3 2 -5.5 q2 -2.5 7 -3.5 q20 0 32 7 q12 7 16 17 q4 10 4 25 l0 68 ZM98 6 q-2 -7 -5 -10 q-8 -7 -20 -7 q-9 -2 -9 -11 q0 -3 2 -5.5 q2 -2.5 7 -3.5 q15 0 28.5 8.5 q13.5 8.5 15.5 34.5 l0 41 q-2 35 -39 38 l-33 0 q-7 1 -13 -5 q-4 -4 -4 -11 l0 -97 q0 -4 3 -7 q2 -3 6 -3 q5 0 8 3 q2 3 2 7 l0 30 l51 0 l0 -2 Z" /><glyph glyph-name="" unicode="&#x7bb1;" d="M62 148 q3 -6 7 -16 q2 -4 5 -6 q3 -1 7 0 q4 1 6 4 q2 3 0 8 q-2 5 -4 10 l23 0 q5 0 7 3 q2 3 2 6 q0 4 -2 7 q-2 2 -7 2 l-54 0 q1 3 1 5 q1 4 -1 8 q-2 3 -6 4 q-3 1 -7 -1 q-4 -2 -5 -6 q-2 -13 -8 -23 q-5 -9 -13 -18 q-3 -4 -3 -8 q0 -3 3 -6 q4 -3 7 -3 q4 0 8 5 q7 7 14 19 q1 3 3 6 l17 0 ZM164 149 q0 -1 1 -2 q3 -5 7 -15 q1 -5 5 -6 q3 -1 6 0 q4 1 7 4 q2 3 0 8 q-3 6 -6 11 l36 0 q4 0 6 2 q3 4 3 7 q0 4 -2 6 q-3 3 -7 3 l-72 0 q4 8 2 11 q-3 3 -7 4 q-4 1 -7 0 q-4 -3 -5 -7 q-3 -11 -6 -20 q-4 -7 -11 -15 q-3 -3 -3 -7 q0 -4 3 -7 q3 -2 7 -2 q4 0 7 3 q7 8 11 17 q2 3 3 5 l22 0 ZM76 55 q9 -14 15 -25 q2 -5 6 -6 q4 -1 7 0 q4 3 5 6 q1 3 -1 7 q-12 19 -30 44 l23 0 q5 0 7 3 q3 2 3 6 q0 4 -3 7 q-2 2 -7 2 l-25 0 l0 18 q0 5 -3 8 q-2 2 -7 2 q-4 0 -7 -2 q-2 -2 -2 -8 l0 -18 l-33 0 q-5 0 -7 -3 q-2 -2 -2 -6 q0 -5 2 -6 q2 -3 7 -3 l30 0 q-8 -15 -14 -25 q-8 -13 -24 -31 q-3 -4 -3 -8 q0 -3 3 -6 q3 -3 7 -2 q4 0 8 4 q11 13 23 32 q1 3 3 6 l0 -74 q0 -4 2 -7 q3 -3 7 -3 q5 0 7 3 q3 3 3 7 l0 78 ZM170 -22 q46 2 47 40 l0 61 q-4 38 -45 38 l-31 0 l-9 0 q-5 0 -9 -4 q-3 -3 -3 -8 l0 -113 q-1 -5 3 -10 q4 -4 9 -4 l38 0 ZM198 18 q-2 -20 -27 -22 l-33 0 l0 22 l60 0 ZM138 36 l0 23 l60 0 l0 -23 l-60 0 ZM138 77 l0 20 l0 3 l34 0 q24 -1 26 -23 l-60 0 Z" /><glyph glyph-name="" unicode="&#x7bc7;" d="M154 28 l-28 0 l0 19 l28 0 l0 -19 ZM171 47 q26 0 30 -19 l-30 0 l0 19 ZM107 28 l-27 0 l0 19 l27 0 l0 -19 ZM128 125 q-1 7 -4 12 q-2 5 -6 5 q-4 1 -7 0 q-5 -2 -6 -5 q-1 -4 1 -9 q1 -1 2 -3 l-61 0 q-5 -1 -10 -5 q-5 -5 -5 -10 l0 -61 q0 -19 -5 -35 q-5 -17 -14 -30 q-3 -4 -2 -8 q1 -3 5 -6 q3 -2 7 -2 q5 1 8 6 q7 9 13 26 q8 20 8 43 l0 32 l115 0 q42 0 46 22 l0 6 q-3 21 -45 22 l-40 0 ZM52 107 l113 0 q29 0 29 -7 q0 -7 -29 -7 l-113 0 l0 14 ZM64 148 q2 -5 4 -13 q1 -4 4 -7 q3 -1 7 -1 q9 1 9 9 q-2 7 -4 12 l22 0 q5 0 7 3 q2 3 2 6 q0 4 -2 7 q-2 2 -7 2 l-51 0 q1 2 2 4 q2 4 0 8 q-1 3 -5 4 q-4 1 -7 0 q-3 -1 -5 -5 q-5 -13 -11 -22 q-6 -8 -14 -16 q-4 -3 -4 -7 q-1 -4 2 -6 q3 -3 6 -3 q4 0 8 3 q7 6 15 17 q1 2 3 5 l19 0 ZM167 148 q2 -4 5 -12 q1 -5 4 -7 q4 -2 7 -1 q4 1 6 4 q3 3 1 8 q-2 4 -3 8 l34 0 q4 0 6 3 q3 3 3 6 q0 4 -3 7 q-2 2 -6 2 l-67 0 q1 2 2 4 q1 5 0 8 q-2 4 -7 5 q-4 0 -7 -1 q-3 -1 -4 -6 q-2 -7 -5 -12 q-4 -6 -8 -10 q-3 -3 -3 -8 q0 -3 3 -6 q3 -2 6 -2 q4 0 7 3 q3 3 6 7 l23 0 ZM221 26 q-5 37 -45 39 l-99 0 q-6 0 -12 -5 q-5 -5 -5 -12 l0 -71 q0 -4 3 -7 q3 -3 7 -3 q4 0 7 3 q2 3 3 7 l0 34 l27 0 l0 -26 q0 -4 3 -7 q3 -2 6 -2 q5 0 7 2 q3 3 3 7 l0 26 l28 0 l0 -26 q0 -4 2 -7 q2 -2 6 -2 q5 0 6 2 q3 3 3 7 l0 26 l30 0 q1 -9 -3.5 -16.5 q-4.5 -7.5 -15.5 -10.5 q-5 -4 -4 -8 q1 -5 5 -7 q3 -2 10 -1 q11 2 20 14 q8 12 8 29 l0 15 Z" /><glyph glyph-name="" unicode="&#x7c7b;" d="M102 120 q-14 -7 -24 -11 q-17 -7 -46 -13 q-4 -1 -6 -5 q-2 -3 -1 -6 q1 -4 4 -6 q3 -2 8 -1 q21 5 45 14 q13 5 31 16 l0 -22 q0 -4 2 -7 q3 -3 7 -3 q5 0 6 3 q4 3 4 7 l0 34 l80 0 q4 0 7 3 q3 3 3 6 q0 4 -3 7 q-3 2 -7 2 l-43 0 q14 12 22 23 q2 4 2 8 q-1 3 -4 5 q-4 3 -7 2 q-4 -1 -7 -5 q-6 -8 -19 -19 q-2 -4 -3 -8 q0 -2 3 -6 q0 0 0 0 l-24 0 l0 35 q0 4 -4 7 q-2 2 -6 2 q-5 0 -7 -2 q-2 -2 -2 -7 l0 -35 l-23 0 q2 2 2 5 q1 3 -2 7 q-12 14 -22 23 q-4 3 -8 2 q-3 0 -6 -3 q-2 -3 -2 -6 q1 -4 4 -7 q8 -6 19 -19 q0 -1 1 -2 l-45 0 q-5 0 -7 -2 q-3 -3 -3 -7 q0 -4 3 -6 q2 -2 7 -3 l71 0 ZM149 97 q20 -6 47 -22 q3 -2 8 -1 q4 1 6 5 q2 4 1 6 q-1 4 -6 7 q-29 15 -50 21 q-5 1 -8 0 q-3 -1 -4 -5 q-1 -4 0 -7 q2 -2 6 -4 ZM126 22 q2 -4 4 -7 q10 -13 21 -21 q12 -8 28 -15 q18 -7 41 -10 q4 0 7 3 q4 1 5 4 q0 5 -2 8 q-3 3 -8 4 q-18 3 -29 6 q-17 6 -26 11 q-10 7 -20 18 q-6 7 -11 16 l86 0 q4 0 6 3 q3 3 3 7 q0 4 -3 7 q-2 2 -6 2 l-89 0 l0 6 q0 5 -3 8 q-3 2 -7 2 q-5 0 -7 -2 q-2 -3 -2 -8 l0 -6 l-92 0 q-5 0 -7 -2 q-2 -3 -2 -7 q0 -4 2 -7 q2 -3 7 -3 l88 0 q-1 -6 -4 -12 q-5 -9 -13 -16 q-9 -8 -27 -14 q-18 -6 -46 -9 q-4 0 -7 -3 q-3 -3 -3 -8 q0 -4 4 -6 q3 -3 8 -3 q27 4 50 11 q20 7 33 18 q13 10 20 23 q0 1 1 2 l0 0 Z" /><glyph glyph-name="" unicode="&#x7d22;" d="M66 20 q-9 -9 -22 -16 q-8 -4 -20 -9 q-5 -1 -7 -4 q-1 -3 0 -8 q1 -4 4 -6 q4 -1 10 -1 q10 4 22 11 q13 7 27 20 q4 3 4 8 q0 3 -3 6 q-4 3 -8 3 q-2 0 -7 -4 ZM156 6 q15 -7 37 -25 q4 -3 8 -3 q4 0 7 3 q2 4 2 8 q0 3 -4 6 q-23 19 -41 28 q-5 2 -9 1 q-3 -1 -5 -5 q-2 -3 -1 -7 q2 -4 6 -6 l0 0 ZM111 10 q0 -8 -7.5 -15 q-7.5 -7 -22.5 -7 q-9 -2 -9 -11 q0 -3 2 -5.5 q2 -2.5 7 -3.5 q18 0 30 7 q12 7 16 17 q4 10 4 18 l0 22 l47 6 q3 -6 5 -11 q1 -5 6 -6 q4 -1 7 0 q4 2 5 6 q1 3 -1 7 q-4 11 -12 24 q-8 13 -11 18 q-3 3 -8 4 q-2 1 -6 -1 q-3 -3 -4 -6 q-1 -4 2 -8 q2 -2 7 -9 l-87 -11 l61 38 q4 2 5 7 q0 5 -5 9 q-2 1 -5 2 q-3 0 -6 -2 l-16 -10 l-1 0 l-42 -5 l37 27 q2 1 3 2 l83 0 q3 0 4 -3 q1 -4 -1 -13 q-2 -5 0 -9 q2 -3 6 -4 q4 -1 7 1 q4 0 5 5 q4 11 5 22 q-1 6 -3 11 q-1 4 -6 7 q-4 2 -9 2 l-78 0 l0 13 l71 0 q4 0 7 3 q2 3 2 7 q0 3 -2 6 q-3 2 -7 2 l-71 0 l0 10 q0 4 -3 7 q-3 2 -7 2 q-4 0 -7 -2 q-2 -2 -3 -7 l0 -10 l-69 0 q-4 0 -7 -2 q-2 -3 -2 -6 q0 -5 2 -7 q3 -3 7 -3 l69 0 l0 -13 l-77 0 q-7 0 -12 -5 q-6 -5 -5 -12 l0 -20 q0 -5 2 -9 q3 -1 7 -1 q4 0 7 1 q3 3 3 9 l0 12 q0 3 2 5 q1 1 4 1 l45 0 l-38 -29 q-5 -5 -2 -12 q3 -8 17 -7 l25 3 l-37 -24 q-4 -5 -1 -13 q2 -8 15 -7 l51 6 l0 -20 Z" /><glyph glyph-name="" unicode="&#x7ecd;" d="M182 -23 q18 0 29.5 10.5 q11.5 10.5 9.5 35.5 q0 22 -11.5 30.5 q-11.5 8.5 -25.5 7.5 l-52 0 l-10 0 q-5 0 -9 -3 q-4 -4 -4 -9 l0 -57 q0 -5 4 -10 q3 -5 9 -5 l60 0 ZM201 24 q2 -13 -3 -20.5 q-5 -7.5 -20 -7.5 l-50 0 l0 47 l57 0 q16 0 16 -19 ZM87 19 q-10 -2 -29 -6 q-20 -3 -35 -5 q-5 0 -7 -4 q-2 -2 -2 -6 q0 -5 3 -7 q2 -1 7 -1 q13 0 40 5 q20 3 30 7 q5 1 5 4 q2 4 0 8 q0 4 -4 5 q-3 1 -8 0 ZM20 42 q-3 -7 1 -13 q6 -7 19 -3 l50 13 q6 1 8 4 q1 3 1 7 q-1 4 -5 6 q-4 2 -8 1 l-35 -10 q-2 -1 -4 0 q-2 2 1 5 l51 78 q2 4 2 10 q-3 4 -10 6 q-3 0 -5 -1 q-3 -1 -5 -5 l-18 -27 l-26 -4 q-2 0 -1 1 l33 56 q3 4 1 8 q-2 3 -5 6 q-3 2 -7 1 q-4 -1 -6 -5 l-39 -68 q-3 -7 0 -12 q3 -6 11 -7 l27 3 l-31 -50 ZM202 125 q1 -12 -4.5 -20.5 q-5.5 -8.5 -13.5 -10 q-8 -1.5 -14 -1.5 l-1 0 q-5 0 -7.5 -2.5 q-2.5 -2.5 -2.5 -6.5 q0 -4 3 -7 q3 -3 7 -3 l1 0 q28 2 40 13 q10 11 13 30 l0 25 q1 14 -10.5 22.5 q-11.5 8.5 -27.5 8.5 l-71 0 q-5 0 -8 -2 q-3 -2 -3 -7 q0 -4 3 -7 q3 -2 8 -2 l30 0 q-2 -15 -11 -36 q-6 -10 -13 -17 q-6 -5 -17 -11 q-4 -3 -5 -6 q-1 -3 1 -7 q2 -4 6 -5 q3 0 9 1 q10 6 17 13 q10 9 15 18 q8 12 11 24 q5 14 6 26 l20 0 q10 1 15 -5 q5 -6 4 -16 l0 -9 Z" /><glyph glyph-name="" unicode="&#x7f16;" d="M178 43 l-13 0 l0 28 l13 0 l0 -28 ZM196 71 q14 -3 14 -28 l-14 0 l0 28 ZM147 43 l-14 0 l0 21 q0 3 2 5 q2 2 5 2 l7 0 l0 -28 ZM87 22 q-1 1 -1 2 q-3 1 -8 -1 q-9 -3 -27 -7 q-18 -4 -32 -6 q-4 -1 -6 -4 q-2 -3 -2 -7 q1 -4 4 -7 q2 -1 7 -1 q15 2 38 8 q13 3 22 5 q-4 -9 -10 -16 q-1 -5 0 -9 q0 -3 4 -5 q4 -2 8 -1 q3 1 6 5 q8 11 13 28 q9 26 9 52 l0 42 l76 0 q21 0 30.5 7 q9.5 7 9 22 q-0.5 15 -12.5 20.5 q-12 5.5 -27 4.5 l-16 0 q0 1 1 1 q1 4 -2 9 q-5 9 -11 14 q-4 4 -7 4 q-5 0 -8 -3 q-4 -3 -4 -7 q0 -4 4 -8 q4 -3 9 -10 l-47 0 q-6 1 -10 -4 q-4 -5 -4 -10 l0 -75 q0 -24 -6 -43 ZM112 137 l80 0 q14 0 14 -10 q0 -10 -13 -9 l-81 0 l0 19 ZM21 40 q-4 -6 2 -13 q6 -8 20 -3 l38 13 q5 2 7 5 q2 3 0 7 q-1 3 -4 6 q-4 2 -8 1 l-22 -9 q-4 -1 -6 0 q-2 2 1 6 l38 72 q2 3 0 9 q-1 5 -9 6 q-3 0 -6 -1 q-1 -2 -3 -5 l-15 -30 l-19 -2 q-2 0 -1 2 l29 63 q2 4 0 7 q-1 4 -4 6 q-3 2 -8 0 q-3 -1 -5 -6 l-33 -74 q-3 -8 0 -13 q3 -5 11 -4 l21 2 l-24 -45 ZM210 14 q-1 -9 -4 -18 q-3 -8 -8 -15 q-3 -3 -2 -7 q0 -4 4 -6 q3 -2 6 -1 q5 1 7 4 q5 7 10 18 q3 11 4 24 l0 39 q0 15 -11 26 q-11 11 -27 10 l-58 0 q-6 1 -12 -4 q-5 -5 -5 -11 l0 -95 q0 -4 3 -7 q2 -2 7 -2 q4 0 6 3 q2 2 3 6 l0 48 l14 0 l0 -39 q0 -4 3 -7 q2 -2 6 -3 q4 1 6 3 q3 3 3 7 l0 39 l13 0 l0 -39 q0 -4 3 -7 q1 -1 2 -2 q0 -2 7 0 q7 2 6 10 l0 38 l14 0 l0 -12 Z" /><glyph glyph-name="" unicode="&#x7f51;" d="M137 41 q6 -11 13 -25 q2 -4 5 -6 q3 -1 8 1 q2 1 4 5 q1 2 -1 7 q-10 22 -20 39 q10 27 18 65 q1 5 -1 9 q-3 3 -7 4 q-3 0 -7 -2 q-3 -2 -4 -7 q-4 -26 -11 -48 q-8 11 -15 20 q-4 4 -7 4 q-3 1 -7 -1 q-3 -3 -4 -6 q0 -4 3 -8 q10 -13 21 -32 q-11 -27 -31 -55 q-3 -3 -3 -7 q1 -4 4 -7 q3 -1 7 -1 q4 1 8 4 q14 19 27 47 ZM75 47 q6 -10 11 -22 q2 -5 6 -6 q3 -1 7 0 q4 2 5 6 q1 3 -1 7 q-9 20 -19 37 q10 26 17 60 q0 5 -2 9 q-2 2 -6 4 q-5 0 -7 -2 q-3 -3 -4 -7 q-4 -23 -10 -44 q-9 13 -16 24 q-3 2 -7 3 q-4 1 -7 -2 q-3 -1 -4 -5 q0 -4 3 -8 q11 -14 23 -34 q-11 -25 -31 -53 q-2 -3 -2 -8 q1 -3 3 -5 q4 -3 8 -2 q3 1 7 4 q13 17 26 44 l0 0 ZM126 154 q10 0 19.5 -4.5 q9.5 -4.5 17 -12 q7.5 -7.5 12 -17 q4.5 -9.5 4.5 -20.5 l0 -81 q0 -10 -5 -19.5 q-5 -9.5 -13 -11 q-8 -1.5 -14 -1.5 l-13 0 q-5 0 -7.5 -2.5 q-2.5 -2.5 -2.5 -6.5 q0 -4 3 -7 q3 -3 7 -3 l13 0 q28 2 39.5 13.5 q11.5 11.5 11.5 37.5 l0 81 q0 14 -6 27 q-6 13 -15.5 23 q-9.5 10 -23 16 q-13.5 6 -27.5 6 l-98 0 q-10 0 -14 -4.5 q-4 -4.5 -4 -12.5 l0 -178 q0 -4 3 -7 q3 -3 6 -3 q5 0 8 3 q2 3 3 7 l0 170 q0 3 2 5 q1 2 5 2 l89 0 Z" /><glyph glyph-name="" unicode="&#x8003;" d="M188 10 q0 -8 -7.5 -15 q-7.5 -7 -22.5 -7 l-73 0 q-11 -1 -11 -11 q0 -3 1.5 -5.5 q1.5 -2.5 10.5 -3.5 l72 0 q18 0 28.5 5.5 q10.5 5.5 15.5 13.5 q5 8 6 20 l0 8 q-8 29 -46 29 l-57 0 q-6 0 -4 6 l4 14 l105 0 q3 0 5 3 q3 2 3 6 q0 4 -3 6 q-2 3 -5 3 l-77 0 q8 3 15 8 q8 6 17 12 l52 0 q5 0 7 1.5 q2 1.5 2.5 6.5 q0.5 5 -1.5 7.5 q-2 2.5 -8 3.5 l-32 0 q18 17 31 40 q2 5 0 8 q-1 3 -5 5 q-3 2 -7 1 q-4 -2 -6 -6 q-13 -22 -27 -36 q-6 -6 -14 -12 l-33 0 l0 21 l47 0 q4 0 6 2 q3 3 3 7 q0 4 -3 6 q-2 2 -6 2 l-47 0 l0 14 q0 4 -3 7 q-3 2 -7 2 q-4 0 -7 -2 q-2 -2 -3 -7 l0 -14 l-55 0 q-4 0 -6 -2 q-2 -2 -2 -6 q0 -4 2 -7 q2 -2 6 -2 l55 0 l0 -21 l-79 0 q-5 0 -8 -3 q-2 -3 -2 -6 q0 -5 2 -7 q2 -3 8 -3 l105 0 q-20 -13 -43 -21 q-28 -10 -67 -19 q-4 -1 -7 -4 q-3 -2 -2 -7 q0 -4 4 -6 q2 -2 8 -2 q31 6 60 16 l-5 -16 q-3 -8 3 -13 q5 -5 11 -5 l73 0 q20 0 23 -13 l0 -2 Z" /><glyph glyph-name="" unicode="&#x80fd;" d="M32 35 l0 18 l51 0 l0 -18 l-51 0 ZM32 91 l20 0 q13 0 22 -9 q5 -5 7 -11 l-49 0 l0 20 ZM143 147 l0 25 q0 5 -2 8 q-3 2 -7 2 q-5 0 -7 -2 q-3 -3 -3 -8 l0 -68 q0 -11 10 -18 q6 -3 13 -4 q23 -1 47 0 q9 0 15.5 3.5 q6.5 3.5 8.5 17.5 q1 5 1 20 q0 8 -9 10 q-8 0 -9 -9 q-1 -12 -1 -14 q-1 -10 -12 -10 l-34 0 q-4 0 -8 2 q-3 3 -3 8 l0 18 q19 3 37 8 q14 4 24 8 q4 2 6 5 q0 4 -1 7 q-2 5 -5 6 q-4 2 -8 0 q-10 -5 -25 -9 q-15 -3 -28 -6 ZM90 122 q1 -2 2 -4 q1 -5 3 -7 q4 -2 8 -1 q4 1 6 4.5 q2 3.5 1 7.5 q-4 10 -9 23 q-4 13 -7 18 q-2 3 -6 5 q-3 1 -6 -1 q-4 -2 -5 -4 q-1 -4 1 -8 q1 -4 5 -15 l-48 -4 l19 32 q3 4 1 8 q-1 3 -5 6 q-3 1 -7 0 q-4 0 -6 -5 l-24 -42 q-3 -7 0 -12 q3 -7 11 -6 l66 5 ZM102 58 q0 21 -14.5 36 q-14.5 15 -36.5 15 l-27 0 q-5 0 -8 -3 q-3 -3 -3 -7 l0 -121 q0 -4 3 -7 q2 -3 7 -3 q4 0 7 3 q2 3 2 7 l0 40 l51 0 l0 -22 q0 -5 -3 -8 q-2 -1 -5 -1 q-4 1 -12 3 q-4 1 -8 -1 q-3 -2 -5 -7 q-1 -4 1 -7 q3 -3 8 -4 q13 -3 23 -2 q6 0 11 3 q9 4 9 15 l0 71 ZM143 37 l0 25 q0 5 -2 8 q-3 2 -7 2 q-5 0 -7 -2 q-3 -3 -3 -8 l0 -68 q0 -11 10 -18 q6 -3 13 -4 q23 -1 47 0 q9 0 15.5 3.5 q6.5 3.5 8.5 17.5 q1 5 1 20 q0 8 -9 10 q-8 0 -9 -9 q-1 -12 -1 -14 q-1 -10 -12 -10 l-34 0 q-4 0 -8 2 q-3 3 -3 8 l0 18 q19 3 37 8 q14 4 24 8 q4 2 6 5 q0 4 -1 7 q-2 5 -5 6 q-4 2 -8 0 q-10 -5 -25 -9 q-15 -3 -28 -6 Z" /><glyph glyph-name="" unicode="&#x81ea;" d="M128 -24 q24 0 36.5 14.5 q12.5 14.5 12.5 45.5 l0 60 q0 31 -18.5 44.5 q-18.5 13.5 -40.5 13.5 l-22 0 q4 9 6 16 q1 5 -1 9 q-2 3 -6 3 q-5 1 -8 0 q-3 -2 -5 -7 q-1 -8 -8 -20 q0 0 -1 -1 l-36 0 l-7 0 q-9 0 -14 -5 q-6 -6 -6 -13 l0 -141 q0 -7 7 -13 q5 -5 13 -6 l98 0 ZM157 29 q0 -11 -6 -22.5 q-6 -11.5 -30 -11.5 l-91 0 l0 34 l127 0 ZM30 46 l0 38 l127 0 l0 -38 l-127 0 ZM30 101 l0 34 l89 0 q15 0 26.5 -9.5 q11.5 -9.5 11.5 -24.5 l-127 0 Z" /><glyph glyph-name="" unicode="&#x822c;" d="M59 121 q0 -2 2 -8 q2 -7 4 -13 q0 -3 3 -5 q3 -2 7 -2 q3 1 6 4 q1 3 1 7 q-2 6 -4 13 q-3 8 -4 10 q-2 4 -5 6 q-3 1 -7 0 q-3 -2 -4 -5 q-1 -3 1 -7 ZM58 48 q1 -3 4 -12 q2 -8 4 -15 q0 -4 3 -6 q3 -2 6 -1 q4 1 6 3 q3 3 2 7 q-2 7 -5 16 q-2 10 -4 14 q-2 4 -5 5 q-3 1 -7 0 q-3 -1 -4 -4 q-1 -3 0 -7 ZM48 86 l0 56 l23 0 q21 1 20 -37 l0 -19 l-43 0 ZM150 174 q-9 0 -12 -5 q-6 -5 -6 -13 l0 -17 q0 -7 -4 -14 q-3 -6 -11 -11 q-3 -2 -4 -6 q-1 -3 1 -7 q2 -2 6 -3 q4 -1 8 2 q6 3 12 8 q5 5 8 12 q3 7 3 13 l0 17 q0 3 2 5 q2 0 4 1 l11 0 q18 -2 16 -17 l0 -3 l0 0 q0 -1 0 -3 l0 -15 q0 -6 6 -12 q5 -4 12 -5 l23 0 q5 0 8 3 q3 2 3 7 q0 3 -3 5 q-3 3 -8 3 l-15 0 q-3 0 -5 3 q-2 1 -2 5 l0 12 q0 15 -7 24 q-7 9 -23 11 l-23 0 ZM177 -2 q21 -20 41 -29 q5 -3 8 -2 q4 1 7 6 q1 3 0 7 q-1 3 -6 6 q-22 11 -38 24 q11 11 20 26 q8 14 14 35 q2 9 -2 14 q-5 5 -12 5 l-76 0 q-5 0 -7 -3 q-2 -2 -2 -6 q0 -4 2 -7 q2 -2 7 -2 l65 0 q3 0 5 -2 q1 -1 0 -4 q-3 -10 -9 -21 q-8 -13 -17 -23 q0 0 -1 -1 q-14 15 -27 37 q-2 4 -6 6 q-3 0 -7 -2 q-3 -2 -4 -5 q-1 -3 2 -8 q14 -23 30 -38 q-6 -5 -10 -8 q-13 -9 -34 -16 q-5 -2 -6 -6 q-1 -3 0 -7 q1 -4 5 -6 q4 -2 9 0 q11 5 30 17 q10 6 19 13 l0 0 ZM91 13 q0 -15 -7 -21 q-7 -6 -16 -5 q-9 -2 -9 -11 q0 -3 2 -5.5 q2 -2.5 7 -3.5 q11 -1 22 4.5 q11 5.5 16 16 q5 10.5 5 25.5 l0 89 q0 35 -11.5 47 q-11.5 12 -25.5 12 q2 6 3 11 q1 5 -2 8 q-2 2 -6 3 q-5 0 -8 -1 q-2 -2 -3 -8 q-1 -5 -3 -13 l-10 0 q-7 0 -12 -5 q-4 -4 -4 -11 l0 -59 l-10 0 q-4 0 -6 -2 q-3 -3 -3 -7 q0 -4 3 -6 q2 -2 6 -2 l10 0 l0 -13 q0 -24 -5 -44 q-4 -20 -8 -31 q-3 -5 -1 -8 q2 -4 5 -6 q5 -2 9 0 q3 1 5 7 q5 10 9 32 q4 25 5 45 l0 18 l43 0 l0 -56 Z" /><glyph glyph-name="" unicode="&#x8272;" d="M37 106 l0 -103 q0 -10 6 -16 q5 -6 12 -8 q17 -4 69 -4 q69 0 81 5 q7 2 12 6 q4 4 6 10 q2 6 3 20 q0 4 -3 7 q-2 3 -7 4 q-5 0 -6 -3 q-4 -3 -4 -8 q0 -10 -2 -13 q-3 -3 -8 -4 q-13 -4 -61 -4 q-49 1 -70 4 q-4 0 -6 4 q-2 2 -2 9 l0 33 l84 0 q24 -2 40.5 6.5 q16.5 8.5 17.5 29 q1 20.5 -13 31 q-14 10.5 -33 9.5 l-9 0 q9 7 15 15 q10 13 12 20 q1 4 0 8 q-2 3 -4 5 q-4 1 -10 1 l-71 0 q-5 0 -10 -1 q-4 -1 -5 -5 q-10 -11 -22 -21 q-10 -8 -32 -18 q-4 -2 -5 -6 q-2 -3 0 -6 q2 -4 5 -5 q4 -1 9 1 q8 4 16 8 q0 -1 0 -1 q-5 -4 -5 -10 ZM110 63 l-53 0 l0 39 l53 0 l0 -39 ZM129 102 l23 0 q26 1 26 -19 q0 -20 -29 -20 l-20 0 l0 39 ZM52 121 q-3 0 -7 -2 q6 5 12 8 q14 9 25 22 q3 4 10 4 l48 0 q1 0 3 -1 q1 -1 1 -4 q-1 -1 -6 -8 q-7 -8 -24 -19 l-62 0 Z" /><glyph glyph-name="" unicode="&#x8350;" d="M160 148 l0 -6 q0 -5 3 -8 q3 -2 7 -2 q4 0 7 3 q3 2 3 7 l0 6 l41 0 q3 0 6 3 q3 3 3 6 q0 4 -3 7 q-2 2 -6 2 l-41 0 l0 7 q0 4 -3 7 q-3 2 -7 2 q-4 0 -7 -2 q-3 -2 -3 -7 l0 -7 l-76 0 l0 7 q0 4 -2 7 q-3 2 -7 2 q-5 0 -7 -2 q-3 -2 -3 -7 l0 -7 l-43 0 q-5 0 -7 -2 q-3 -3 -3 -7 q0 -4 3 -7 q2 -2 7 -2 l43 0 l0 -6 q0 -5 3 -8 q2 -2 7 -2 q4 0 7 3 q2 2 2 7 l0 6 l76 0 ZM51 53 l0 -76 q0 -4 3 -7 q3 -3 7 -3 q4 0 7 3 q3 3 3 7 l0 94 q1 1 1 2 q10 10 20 24 q3 4 6 9 l125 0 q3 0 6 3 q3 2 3 6 q0 4 -3 7 q-3 2 -6 2 l-113 0 q1 1 2 2 q2 3 1 7 q-1 4 -6 6 q-3 1 -6 1 q-4 -1 -7 -5 q-3 -6 -6 -11 l-67 0 q-4 0 -7 -2 q-3 -3 -3 -7 q0 -4 3 -7 q2 -2 7 -2 l56 0 q-1 -1 -1 -2 q-7 -9 -16 -19 q-8 -8 -16 -15 q-10 -8 -29 -22 q-4 -2 -5 -6 q0 -3 3 -7 q2 -4 6 -4 q3 -1 8 2 q12 9 24 20 ZM152 20 q7 -10 4 -19.5 q-3 -9.5 -10.5 -11 q-7.5 -1.5 -13.5 -1.5 l-13 0 q-5 0 -7.5 -2.5 q-2.5 -2.5 -2.5 -6.5 q0 -4 3 -7 q3 -3 7 -3 l13 0 q28 2 39 14 q11 12 3 37 l48 0 q3 0 5 3 q3 3 3 6 q0 4 -3 6 q-2 3 -5 3 l-55 0 l-1 1 q-2 2 -2 3 q1 2 3 3 l36 22 q7 4 7 9 q1 7 -3 10 q-5 6 -17 5 l-83 0 q-5 0 -8 -3 q-2 -2 -2 -6 q0 -4 2 -7 q3 -2 8 -2 l67 0 q3 0 3 -1 l0 -2 l-33 -18 q-5 -4 -5 -8 q1 -3 3 -6 l-56 0 q-4 0 -7 -3 q-2 -3 -2 -6 q0 -4 2 -7 q3 -2 7 -2 l66 0 Z" /><glyph glyph-name="" unicode="&#x83b7;" d="M155 148 l0 -9 q0 -4 3 -8 q2 -2 7 -2 q4 0 6 3 q3 3 3 7 l0 9 l44 0 q5 0 7 3 q2 3 3 6 q0 4 -3 7 q-2 2 -7 2 l-44 0 l0 7 q0 4 -3 7 q-2 2 -6 2 q-5 0 -7 -2 q-2 -2 -3 -7 l0 -7 l-73 0 l0 6 q0 5 -3 7 q-3 3 -7 3 q-4 0 -7 -3 q-2 -2 -3 -7 l0 -6 l-43 0 q-3 0 -6 -2 q-3 -3 -3 -7 q0 -4 3 -7 q2 -2 6 -2 l43 0 l0 -10 q0 -4 3 -8 q3 -2 7 -2 q4 0 7 3 q3 3 3 7 l0 10 l73 0 ZM157 42 q5 -11 10 -20 q9 -17 23 -31 q9 -11 22 -21 q4 -4 9 -3 q3 0 6 4 q3 4 2 6 q0 5 -5 8 q-14 11 -25 23 q-12 13 -17 24 q-6 10 -9 18 q-3 8 -5 18 l49 0 q5 0 7 3 q2 2 3 6 q0 5 -3 7 q-1 2 -7 2 l-51 0 q0 3 0 6 l0 23 q0 5 -3 8 q-3 2 -7 2 q-4 0 -7 -2 q-3 -3 -3 -8 l0 -23 q0 -3 0 -6 l-41 0 q-4 0 -7 -2 q-3 -3 -3 -7 q0 -4 3 -6 q1 -3 7 -3 l39 0 q-1 -8 -3 -15 q-1 -8 -6 -18 q-5 -10 -10 -17 q-6 -9 -13 -15 q-5 -5 -11 -10 q-6 -4 -10 -6 q-5 -3 -5 -7 q-1 -4 0 -7 q2 -4 7 -5 q4 -1 8 2 q7 2 27 21 q11 10 21 30 q6 11 8 21 ZM184 114 q5 -4 13 -14 q2 -4 6 -5 q3 -1 7 1 q3 3 4 6 q1 4 -2 8 q-8 11 -15 17 q-4 3 -8 3 q-4 0 -6 -3 q-3 -2 -3 -5 q1 -4 4 -8 ZM74 15 q-3 -16 -11 -23.5 q-8 -7.5 -23 -6.5 q-9 -2 -9 -10 q0 -3 2 -5.5 q2 -2.5 7 -3.5 q18 0 30 7 q12 7 16 17 q2 5 3 10 q4 14 4 27 q1 19 -6 39 q-4 14 -14 28 q8 7 16 18 q3 3 3 6 q-1 4 -4 7 q-3 2 -6 2 q-4 -1 -7 -4 q-6 -9 -14 -17 q-9 9 -22 19 q-3 2 -7 2 q-4 0 -7 -3 q-3 -3 -2 -7 q0 -4 4 -6 q11 -9 19 -17 q-12 -9 -29 -18 q-3 -1 -5 -4 q-1 -3 1 -8 q1 -3 4 -5 q4 -1 8 1 q15 7 31 19 q1 1 3 2 q6 -9 10 -20 l-1 -1 q-11 -12 -23 -20 q-12 -8 -26 -13 q-4 -1 -6 -5 q-2 -3 0 -7 q2 -4 4 -5 q4 -2 9 0 q12 4 27 14 q9 7 21 18 q1 -9 1 -18 q0 -5 -1 -9 Z" /><glyph glyph-name="" unicode="&#x884c;" d="M61 175 q-8 -15 -19 -25 q-9 -10 -23 -19 q-6 -6 -4.5 -12.5 q1.5 -6.5 15.5 -3.5 q12 7 24 20 q11 11 24 31 q4 11 -5 14 q-9 3 -12 -5 ZM46 65 l0 -88 q0 -12 9.5 -11.5 q9.5 0.5 9.5 11.5 l0 105 q9 12 21 30 q4 11 -3.5 14 q-7.5 3 -13.5 -3 q-10 -20 -24 -33 q-12 -12 -28 -22 q-7 -5 -5.5 -12.5 q1.5 -7.5 16.5 -3.5 q8 5 18 13 ZM114 168 q-10 0 -10 -9 q0 -9 10 -9 l96 0 q8 0 8 9 q0 9 -8 9 l-96 0 ZM175 19 q0 -15 -5.5 -22 q-5.5 -7 -13 -8.5 q-7.5 -1.5 -13.5 -1.5 l-13 0 q-5 0 -7.5 -2.5 q-2.5 -2.5 -2.5 -6.5 q0 -4 3 -7 q3 -3 7 -3 l13 0 q28 2 39.5 13.5 q11.5 11.5 11.5 37.5 l0 76 l29 0 q10 0 10 9 q0 9 -10 9 l-121 0 q-11 0 -11 -9 q0 -9 11 -9 l73 0 l0 -76 Z" /><glyph glyph-name="" unicode="&#x8981;" d="M184 40 l31 0 q8 0 8.5 9 q0.5 9 -8.5 9 l-107 0 q7 9 14 18 l44 0 q34 0 38 27 q0 33 -36 32 l-14 0 l0 20 l56 0 q9 0 9 8.5 q0 8.5 -9 8.5 l-185 0 q-9 0 -9 -8.5 q0 -8.5 9 -8.5 l56 0 l0 -20 l-39 0 q-5 0 -9 -4 q-4 -4 -4 -8 l0 -32 q0 -6 4 -10 q3 -4 9 -5 l56 0 q-9 -9 -16 -18 l-60 0 q-9 0 -9 -9 q0 -9 9 -9 l42 0 q-11 -9 -19 -14 q-6 -5 -5 -12.5 q1 -7.5 13 -10.5 q19 -4 38 -9 q-34 -8 -70 -7 q-11 -1 -10.5 -9.5 q0.5 -8.5 9.5 -10.5 q48 1 105 20 q42 -9 86 -18 q10 -1 12 8 q2 9 -7 11 q-36 7 -68 14 q25 17 36 38 ZM160 40 q-12 -17 -38 -33 q-27 6 -52 14 q6 4 22 19 l68 0 ZM135 135 l-35 0 l0 20 l35 0 l0 -20 ZM135 94 l-35 0 l0 23 l35 0 l0 -23 ZM154 117 l13 0 q15 0 17 -11 q-4 -11 -17 -12 l-13 0 l0 23 ZM81 94 l-31 0 l0 23 l31 0 l0 -23 Z" /><glyph glyph-name="" unicode="&#x89c2;" d="M72 37 q6 -9 14 -20 q6 -7 12 -3 q6 4 3 12 q-11 16 -21 31 q6 14 11 31 q6 22 8 48 q1 12 -5 17 q-5 4 -12 3 l-53 0 q-11 0 -11 -9 q0 -9 11 -9 l45 0 q5 0 6 -2 q1 -1 1 -5 q-1 -13 -6 -33 q-2 -13 -7 -25 q-17 20 -32 35 q-5 5 -11 0.5 q-6 -4.5 -2 -13.5 q16 -16 37 -41 q-7 -14 -16 -26 q-10 -15 -27 -30 q-7 -8 -3 -14 q4 -6 15 -1 q10 8 24 25 q11 14 19 29 ZM174 59 q1 5 1 10 l0 56 q0 4 -3 8 q-2 2 -6 2 q-5 0 -8 -3 q-2 -3 -2 -7 l0 -56 q0 -7 -1 -13 q-1 -10 -5 -17 q-2 -7 -7 -14 q-5 -8 -11 -14 q-6 -7 -14 -12 q-5 -4 -12 -8 q-6 -2 -11 -4 q-5 -3 -7 -7 q0 -4 0 -7 q2 -4 6 -5 q4 -2 9 0 q3 1 13 6 q8 4 17 12 q6 5 13 12 q6 5 12 15 q6 9 10 19 q0 2 1 4 l0 -45 q0 -6 4 -11 q5 -5 13 -5 q17 -1 31 0 q8 0 11 4 q3 3 4 8 q1 6 2 20 q0 5 -2 8 q-4 3 -7 3 q-4 0 -7 -3 q-2 -3 -2 -7 q0 -13 -1 -14 q-2 -1 -5 -2 q-9 0 -16 0 q-3 0 -5 1 q-1 2 -1 5 l0 52 q0 6 -3 8 q-2 2 -7 2 q-2 0 -4 -1 ZM140 155 l20 0 q36 -2 38 -49 l0 -57 q0 -5 3 -8 q3 -2 7 -2 q4 0 7 3 q3 3 3 7 l0 59 q-1 64 -58 65 l-20 0 l-11 0 q-6 0 -11 -4 q-4 -4 -4 -10 l0 -110 q0 -5 2 -8 q3 -2 8 -2 q4 0 6 3 q3 3 3 7 l0 99 q0 4 2 6 q2 1 5 1 l0 0 Z" /><glyph glyph-name="" unicode="&#x89c8;" d="M54 168 q0 4 -3 6 q-3 3 -6 3 q-4 0 -7 -3 q-3 -2 -3 -6 l0 -52 q0 -3 3 -6 q3 -3 7 -3 q3 0 6 3 q3 3 3 6 l0 52 ZM97 172 q0 5 -3 7 q-3 3 -7 3 q-3 0 -6 -3 q-3 -2 -3 -7 l0 -57 q0 -3 3 -6 q3 -3 6 -3 q5 0 7 3 q3 3 3 6 l0 57 ZM161 118 q12 -4 32 -14 q9 -4 12.5 3.5 q3.5 7.5 -3.5 11.5 q-19 11 -35 16 q-8 3 -11.5 -4.5 q-3.5 -7.5 5.5 -12.5 ZM125 15 l0 -18 q0 -10 10 -18 q6 -3 12 -3 q28 -1 56 0 q21 1 24 19 q0 5 1 17 q0 5 -3 7 q-2 2 -6 3 q-4 0 -7 -3 q-2 -2 -2 -7 l0 -10 q-1 -5 -4 -7 q-3 -2 -8 -2 q-21 -1 -43 0 q-5 0 -8 3 q-3 3 -3 7 l0 24 q0 4 -3 7 q-3 2 -7 3 q-3 0 -5 -2 q0 4 1 9 l0 20 q0 5 -3 8 q-3 2 -7 2 q-5 0 -6 -2 q-3 -3 -3 -8 l0 -20 q0 -14 -6 -24 q-4 -6 -12 -12 q-10 -6 -27 -11 q-18 -5 -45 -7 q-4 0 -8 -2 q-3 -4 -3 -8 q0 -4 3 -6 q3 -3 8 -4 q27 3 50 9 q20 6 33 15 q13 8 20 19 q0 1 1 2 ZM74 84 l58 0 q37 -1 40 -37 l0 -22 q0 -5 3 -8 q3 -2 7 -2 q4 0 7 3 q2 2 3 7 l0 23 q-5 53 -59 53 l-59 0 l-11 0 q-6 0 -10 -4 q-5 -4 -5 -11 l0 -61 q0 -5 3 -8 q2 -2 7 -2 q4 0 7 3 q2 2 2 7 l0 52 q0 3 2 5 q3 2 5 2 ZM149 162 q1 5 2 9 q1 8 -7.5 9 q-8.5 1 -11.5 -6 q-3 -11 -9 -25.5 q-6 -14.5 -12 -21.5 q-4 -10 2 -14 q6 -4 13 1 q4 5 9 12.5 q5 7.5 8 17.5 l72 0 q9 0 9 9 q0 9 -9 9 l-66 0 Z" /><glyph glyph-name="" unicode="&#x89e3;" d="M174 14 l0 -37 q0 -4 3 -7 q3 -3 7 -3 q4 0 6 3 q4 3 4 7 l0 37 l28 0 q9 0 9 8.5 q0 8.5 -9 8.5 l-28 0 l0 28 l26 0 q8 0 8 9 q0 9 -8 9 l-26 0 l0 9 q0 11 -10 11 q-10 0 -10 -11 l0 -9 l-19 0 q1 7 2 11 q0 4 -2 8 q-2 2 -6 3 q-4 0 -7 -2 q-2 -3 -3 -7 q-1 -10 -5 -20 q-4 -10 -9 -18 q-2 -8 3.5 -11 q5.5 -3 11.5 2 q3 4 8 16 l26 0 l0 -28 l-39 0 q-9 0 -9 -8.5 q0 -8.5 9 -8.5 l39 0 ZM65 47 l-19 0 l0 24 l19 0 l0 -24 ZM83 111 q17 0 18 -23 l-18 0 l0 23 ZM65 88 l-19 0 l0 23 l19 0 l0 -23 ZM83 71 l18 0 l0 -24 l-18 0 l0 24 ZM101 8 q0 -11 -3.5 -15.5 q-3.5 -4.5 -11.5 -4.5 q-9 -2 -9 -11 q0 -3 2 -5.5 q2 -2.5 7 -3.5 q11 0 19.5 4.5 q8.5 4.5 11.5 13.5 q3 9 3 22 l0 75 q-1 45 -31 45 q11 17 17 29 q2 6 1 10 q-1 4 -5 6 q-3 1 -6 1 l-40 0 q-6 0 -9 -1 q-3 -2 -6 -6 q-8 -12 -25 -29 q-6 -8 -0.5 -13 q5.5 -5 12.5 0 q17 14 25 27 q1 2 3 3 q2 1 5 1 l18 0 q3 0 5 -1 q1 -2 0 -4 q-2 -4 -5 -9 q-3 -4 -11 -14 l-25 0 q-7 0 -11 -4 q-5 -5 -5 -11 l0 -78 q0 -17 -4 -31 q-4 -13 -7 -22 q-3 -9 4.5 -12 q7.5 -3 12.5 5 q5 7 9 24 q3 17 3 31 l20 0 l0 -27 q0 -9 9 -8.5 q9 0.5 9 8.5 l0 27 l18 0 l0 -22 ZM206 131 q0 -5 -4.5 -8 q-4.5 -3 -19.5 -3 q-9 -2 -9 -11 q0 -3 2 -5.5 q2 -2.5 7 -3.5 q18 0 27 4.5 q9 4.5 13 13.5 q1 2 2 9 l0 13 q-4 32 -38 33 l-53 0 q-4 0 -7 -3 q-2 -1 -3 -6 q0 -4 3 -6 q2 -3 7 -3 l18 0 q-1 -4 -2.5 -8.5 q-1.5 -4.5 -4 -9.5 q-2.5 -5 -6.5 -9.5 q-4 -4.5 -11 -11.5 q-5 -10 0.5 -14 q5.5 -4 14.5 2 q4 4 9 10.5 q5 6.5 8.5 13 q3.5 6.5 6.5 14.5 q3 8 4 13 l13 0 q19 0 23 -16 l0 -8 Z" /><glyph glyph-name="" unicode="&#x8ba4;" d="M153 50 q3 -10 9 -19 q10 -18 26 -36 q11 -11 27 -23 q4 -4 8 -3 q3 0 7 4 q2 3 2 6 q0 5 -5 8 q-18 13 -31 27 q-13 16 -19 28 q-6 10 -9 20 q-3 9 -7 32 l0 78 q0 5 -3 8 q-2 2 -6 2 q-5 0 -8 -2 q-3 -3 -3 -8 q0 -80 0 -89 q-2 -12 -5 -23 q-2 -9 -8 -20 q-5 -11 -11 -20 q-6 -8 -14 -17 q-5 -4 -12 -10 q-5 -4 -11 -6 q-5 -3 -6 -7 q-1 -4 1 -7 q2 -4 7 -5 q4 -1 8 2 q3 1 12 7 q9 6 17 15 q7 7 14 16 q5 9 11 20 q5 11 9 22 ZM43 163 q8 -8 19 -23 q6 -8 14 -2.5 q8 5.5 3 13.5 q-12 17 -22 26 q-6 5 -13 -0.5 q-7 -5.5 -1 -13.5 ZM19 122 q-3 0 -6 -3 q-3 -3 -3 -6 q0 -4 3 -7 q3 -3 6 -3 l26 0 q6 0 6 -5 l0 -92 q0 -8 6 -11 q5 -4 12 0 q17 8 35 30 q2 3 2 6 q0 4 -4 7 q-3 2 -7 2 q-4 0 -7 -4 l-14 -16 q-3 -1 -3 1 l0 87 q0 7 -4 10 q-4 4 -11 4 l-37 0 Z" /><glyph glyph-name="" unicode="&#x8be5;" d="M156 70 q-8 -8 -18 -14 q-13 -8 -32 -17 q-8 -5 -5 -12.5 q3 -7.5 12 -6.5 q19 10 36 21 q15 9 27 21 q10 11 17 22 q6 11 11 26 q1 3 -1 7 q-2 3 -6 4 q-4 1 -7 -1 q-3 -3 -4 -7 q-4 -12 -12 -22 l-50 -8 q-5 0 -2 5 l40 45 q1 1 1 2 l61 0 q4 0 7 3 q3 2 3 6 q0 5 -3 7 q-3 3 -7 3 l-53 0 q0 1 1 2 q1 4 -2 8 q-6 9 -12 15 q-3 3 -7 3 q-4 0 -8 -2 q-2 -3 -3 -7 q0 -4 3 -8 q4 -3 10 -11 q0 0 0 0 l-61 0 q-5 0 -7 -3 q-3 -3 -3 -7 q0 -4 3 -6 q1 -3 7 -3 l46 0 l-44 -53 q-6 -5 -1 -13 q4 -8 18 -5 l45 6 ZM179 9 q20 -18 32 -32 q3 -4 7 -4 q5 0 7 2 q3 2 4 6 q0 5 -3 8 q-14 14 -33 32 q11 10 18 21 q11 14 17 31 q2 11 -6.5 13.5 q-8.5 2.5 -11.5 -8.5 q-6 -16 -14 -26 q-11 -12 -23 -22 q-14 -12 -31 -21 q-17 -9 -43 -18 q-9 -6 -6.5 -13.5 q2.5 -7.5 11.5 -5.5 q26 9 49 20 q14 9 26 17 ZM37 161 q9 -7 23 -22 q7 -7 13.5 -1 q6.5 6 2.5 13 q-14 17 -27 25 q-7 6 -13.5 -1 q-6.5 -7 1.5 -14 ZM19 122 q-3 0 -6 -3 q-3 -3 -3 -7 q0 -3 3 -6 q3 -3 6 -3 l24 0 q5 0 5 -6 l0 -104 q0 -9 7 -12 q4 -3 14 2 q16 11 26 25 q4 8 -2.5 13 q-6.5 5 -13.5 -3 l-9 -11 q-2 0 -2 1 l0 100 q0 8 -4 11 q-4 3 -11 3 l-34 0 Z" /><glyph glyph-name="" unicode="&#x8bed;" d="M38 161 q8 -7 21 -22 q3 -4 7 -5 q4 0 8 2 q3 3 4 6 q0 4 -3 9 q-12 16 -24 25 q-4 3 -7 3 q-5 0 -8 -4 q-3 -3 -3 -6 q1 -5 5 -8 ZM19 114 q-3 0 -6 -2 q-3 -3 -3 -7 q0 -4 3 -6 q3 -3 6 -3 l23 0 q5 0 5 -6 l0 -93 q0 -8 6 -11 q6 -3 12 0 q16 9 33 30 q3 8 -3.5 12 q-6.5 4 -12.5 -1 q-14 -16 -15 -16 l0 89 q0 9 -4 12 q-4 2 -11 2 l-33 0 ZM210 92 q0 13 -5.5 21.5 q-5.5 8.5 -13 11.5 q-7.5 3 -17.5 3 l-25 0 l4 25 l62 0 q4 0 7 2 q2 3 2 8 q0 4 -2 6 q-2 2 -7 2 l-114 0 q-5 0 -8 -2 q-3 -3 -3 -6 q0 -5 3 -8 q2 -2 8 -2 l32 0 l-5 -25 l-25 0 q-4 0 -7 -2 q-3 -2 -3 -7 q0 -4 2 -6 q3 -2 8 -2 l24 0 l-5 -30 l-30 0 q-5 0 -7 -3 q-2 -3 -2 -6 q0 -4 2 -6 q2 -3 7 -3 l132 0 q4 0 7 3 q2 3 2 6 q0 4 -2 6 q-3 3 -7 3 l-14 0 l0 11 ZM170 111 q12 0 17.5 -5.5 q5.5 -5.5 4.5 -12.5 l0 -12 l-51 0 l5 30 l24 0 ZM123 49 q-9 0 -14 -5 q-6 -6 -6 -13 l0 -35 q0 -7 6 -13 q6 -5 14 -6 l63 0 q8 0 14.5 2.5 q6.5 2.5 11.5 7 q5 4.5 8 12.5 q1 3 1 6 q1 4 1 8 q0 7 -2 14 q-2 7 -6 11.5 q-4 4.5 -11 7.5 q-7 3 -17 3 l-63 0 ZM202 12 q-2 -16 -18 -16 l-61 0 l0 35 l61 0 q19 -2 18 -19 Z" /><glyph glyph-name="" unicode="&#x8bf4;" d="M38 162 q8 -7 21 -22 q3 -4 7 -5 q4 0 8 2 q3 3 4 6 q0 4 -3 9 q-12 16 -24 25 q-4 3 -7 3 q-5 0 -8 -4 q-3 -3 -3 -6 q1 -5 5 -8 ZM19 115 q-3 0 -6 -2 q-3 -3 -3 -7 q0 -4 3 -6 q3 -3 6 -3 l23 0 q5 0 5 -6 l0 -97 q0 -8 6 -11 q6 -3 12 0 q15 9 28 25 q3 8 -2.5 12.5 q-5.5 4.5 -11.5 -0.5 q-11 -12 -12 -12 l0 93 q0 9 -4 12 q-4 2 -11 2 l-33 0 ZM124 61 l0 -13 q-4 -17 -9 -27.5 q-5 -10.5 -15.5 -18 q-10.5 -7.5 -22.5 -12.5 q-8 -4 -7 -11.5 q1 -7.5 13 -6.5 q15 5 28.5 16 q13.5 11 21.5 25.5 q8 14.5 10 34.5 l0 13 l20 0 l0 -67 q0 -18 19 -21 l18 0 q26 1 27 25 l0 12 q0 13 -10 12.5 q-10 -0.5 -10 -13.5 l0 -8 q-1 -9 -7 -10 l-12 0 q-7 1 -7 8 l0 62 q31 1 36 35 l0 15 q-9 27 -33 29 q8 17 10 30 q1 6 -7 8 q-8 2 -11 -4 q-3 -12 -14 -34 l-21 0 q-10 26 -16 34 q-5 9 -13.5 4.5 q-8.5 -4.5 -3.5 -12.5 q6 -11 12 -26 l-7 0 l-10 0 q-5 0 -9 -3 q-3 -4 -3 -10 l0 -50 q-1 -6 4 -11 q2 -4 8 -5 l21 0 ZM198 108 l0 -12 q-2 -15 -17 -16 l-71 0 l0 42 l63 0 q22 0 25 -14 Z" /><glyph glyph-name="" unicode="&#x8c03;" d="M19 113 q-3 0 -6 -2 q-3 -3 -3 -7 q0 -4 3 -6 q3 -3 6 -3 l23 0 q5 0 5 -6 l0 -90 q0 -8 6 -11 q6 -3 12 0 q15 9 28 25 q3 8 -2.5 12.5 q-5.5 4.5 -11.5 -0.5 q-11 -12 -12 -12 l0 86 q0 9 -4 12 q-4 2 -11 2 l-33 0 ZM38 160 q8 -7 21 -22 q3 -4 7 -5 q4 0 8 2 q3 3 4 6 q0 4 -3 9 q-12 16 -24 25 q-4 3 -7 3 q-5 0 -8 -4 q-3 -3 -3 -6 q1 -5 5 -8 ZM177 37 q-2 -9 -14 -9 l-17 0 l0 25 l17 0 q12 0 14 -10 l0 -6 ZM206 32 q0 -23 -3.5 -32.5 q-3.5 -9.5 -15.5 -12.5 l-14 0 q-5 0 -7.5 -2.5 q-2.5 -2.5 -2.5 -6.5 q0 -4 3 -7 q3 -3 7 -3 l14 0 q19 2 28.5 13.5 q9.5 11.5 9.5 50.5 l0 83 q0 57 -65 57 l-42 0 q-20 -2 -20 -21 l0 -97 q0 -15 -1 -27.5 q-1 -12.5 -5.5 -24.5 q-4.5 -12 -11.5 -18 q-7 -9 -1 -15 q6 -6 17 3 q10 11 14.5 26 q4.5 15 5.5 26.5 q1 11.5 1 24.5 l0 96 q0 9 8 9 l35 0 q45 -1 46 -41 l0 -81 ZM162 10 q28 0 34 24 l0 12 q-5 25 -31 25 l-25 0 q-5 0 -9 -3 q-3 -4 -3 -10 l0 -33 q0 -6 3 -10 q3 -4 9 -5 l22 0 ZM152 101 l-21 0 q-4 0 -6 -2 q-3 -3 -3 -6 q0 -5 3 -7 q2 -2 6 -2 l59 0 q4 0 7 2 q2 3 2 7 q0 4 -2 6 q-3 2 -7 2 l-19 0 l0 13 l19 0 q4 0 7 2 q2 3 2 7 q0 4 -2 6 q-3 3 -7 3 l-19 0 l0 8 q0 4 -2 7 q-4 2 -8 2 q-4 0 -6 -3 q-3 -2 -3 -6 l0 -8 l-21 0 q-4 0 -6 -3 q-3 -2 -3 -6 q0 -4 3 -7 q2 -2 6 -2 l21 0 l0 -13 Z" /><glyph glyph-name="" unicode="&#x8d1d;" d="M135 12 q31 -12 78 -41 q4 -3 9 -2 q3 1 6 4 q2 3 2 9 q-2 3 -7 6 q-44 29 -81 42 q-5 1 -9 0 q-4 -1 -5 -5 q-1 -5 0 -8 q2 -3 7 -5 ZM112 122 l0 -61 q0 -6 -2 -12 q-2 -7 -7 -15 q-4 -5 -11 -12 q-7 -7 -17 -13 q-9 -5 -20 -10 q-8 -3 -20 -7 q-7 -2 -15 -3 q-10 -3 -9 -13 q4 -9 13 -8 q5 1 18 5 q13 4 25 11 q10 4 19 10 q10 7 19 15 q10 9 16 18 q5 9 7 16 q2 7 3 18 l0 61 q0 5 -3 8 q-3 2 -7 2 q-5 0 -7 -3 q-2 -2 -2 -7 ZM125 153 q55 -3 57 -50 l0 -70 q0 -4 2 -7 q3 -2 7 -2 q5 0 7 2 q2 3 3 7 l0 69 q1 65 -78 69 l-54 0 l-11 0 q-6 0 -11 -3 q-4 -5 -4 -11 l0 -124 q0 -4 2 -7 q2 -2 7 -2 q5 0 7 2 q2 3 3 7 l0 120 l63 0 Z" /></font>
</defs>
</svg>
